<?xml version="1.0" encoding="utf-8"?>
<!-- Generator: Adobe Illustrator 24.0.1, SVG Export Plug-In . SVG Version: 6.00 Build 0)  -->
<svg version="1.1" id="Layer_1" focusable="false" xmlns="http://www.w3.org/2000/svg" xmlns:xlink="http://www.w3.org/1999/xlink"
	 x="0px" y="0px" viewBox="0 0 1024 1024" style="enable-background:new 0 0 1024 1024;" xml:space="preserve">
<path d="M512,927c-32.7,0-59.3-26.6-59.3-59.3h-59.3c0,65.4,53.2,118.6,118.6,118.6s118.6-53.2,118.6-118.6h-59.3
	C571.3,900.4,544.7,927,512,927z M899.9,658c-51.8-49.3-91.4-100.9-91.4-275.9c0-147.5-117.4-267.7-266.9-282.3V67.3
	c0-16.4-13.3-29.6-29.6-29.6S482.4,51,482.4,67.3v32.5c-149.4,14.5-266.9,134.8-266.9,282.2c0,174.9-39.6,226.6-91.4,275.9
	c-25.9,24.6-34.1,61.9-20.8,94.9c13.5,33.7,45.9,55.5,82.7,55.5h652.2c36.8,0,69.2-21.8,82.7-55.5C934,719.9,925.8,682.7,899.9,658z
	 M838.1,749.1H185.9c-26.4,0-39.5-30.5-21-48.2c64.6-61.5,109.8-130.3,109.8-318.8c0-124.8,106.1-225.9,237.2-225.9
	c131.1,0,237.2,101,237.2,225.8c0,187.8,44.9,257,109.8,318.8C877.7,718.7,864.3,749.1,838.1,749.1z"/>
</svg>
