<?xml version="1.0" encoding="utf-8"?>
<!-- Generator: Adobe Illustrator 24.0.1, SVG Export Plug-In . SVG Version: 6.00 Build 0)  -->
<svg version="1.1" id="Layer_1" focusable="false" xmlns="http://www.w3.org/2000/svg" xmlns:xlink="http://www.w3.org/1999/xlink"
	 x="0px" y="0px" viewBox="0 0 1024 1024" style="enable-background:new 0 0 1024 1024;" xml:space="preserve">
<path d="M413,57c-8-0.2-14.6,6.4-14.6,14.4v28.3c0,7.8,6.2,13.9,14,14C684,120.5,903,339.9,910.1,611.5c0.2,7.8,6.4,14,14,14h28.4
	c8,0,14.6-6.6,14.4-14.6C959.3,309,715,64.6,413,57z M413,227.6c-8-0.4-14.6,6.4-14.6,14.4v28.4c0,7.6,6.2,13.9,13.9,14.2
	c177.4,7.1,320.8,149.6,327.4,327c0.4,7.6,6.4,13.9,14.2,13.9H782c8,0,14.6-6.6,14.4-14.6C788.7,403,620.9,235.3,413,227.6
	L413,227.6z M272.1,512h-16c-15.6,0-28.4,12.8-28.4,28.4v28.4c0,15.6,12.8,28.4,28.4,28.4h19.4c83.5,0,156.4,68.2,150.9,151.6
	c-4.6,70.9-61.5,127.6-132.2,132.4c-83.5,5.7-151.8-67.2-151.8-150.9V312.9c0-15.6-12.8-28.4-28.4-28.4H85.5
	c-15.6,0-28.4,12.8-28.4,28.4V727c0,131.9,106.8,246.2,238.7,239.8c116.6-5.7,210.4-99.5,216.1-216.1C518,618.8,403.9,512,272.1,512
	z"/>
</svg>
