<?xml version="1.0" encoding="utf-8"?>
<!-- Generator: Adobe Illustrator 24.0.1, SVG Export Plug-In . SVG Version: 6.00 Build 0)  -->
<svg version="1.1" id="Layer_1" focusable="false" xmlns="http://www.w3.org/2000/svg" xmlns:xlink="http://www.w3.org/1999/xlink"
	 x="0px" y="0px" viewBox="0 0 1024 1024" style="enable-background:new 0 0 1024 1024;" xml:space="preserve">
<path d="M981.4,344.3c0-22.2-5.5-44-15.9-63.5L862.6,88.1c-9-27.3-34.6-45.7-63.5-45.7H225c-28.9,0-54.5,18.5-63.7,45.9L58.3,281
	c-10.5,19.5-15.9,41.3-15.9,63.5c0.2,126.8,0,570.1,0,570.1c0,37.1,30,67.1,67.1,67.1h805.1c37.1,0,67.1-30,67.1-67.1
	C981.6,914.6,981.4,471.3,981.4,344.3z M562.3,143h215.5l71.7,134.2H562.3V143z M246.1,143h215.5v134.2H174.4L246.1,143z M143,881
	c0-76.5,0.2-342.8,0.2-503.2h737.6c0,160.4,0.2,426.7,0.2,503.2H143z M565,609.1l-88.5-23.9c-8.8-2.3-14.9-9.4-14.9-17.4
	c0-10.1,9.4-18.2,21.2-18.2H538c8.6,0,17.2,2.1,24.7,6.3c6.5,3.6,14.3,2.9,19.3-2.5l25.4-26.6c6.5-6.9,5.5-18-2.3-23.5
	c-17.4-12-37.9-18.7-59.3-19.9v-21.6c0-9.2-7.5-16.8-16.8-16.8h-33.5c-9.2,0-16.8,7.5-16.8,16.8v21.4c-46.5,2.3-83.9,39-83.9,84.5
	c0,38.2,26.4,71.9,64.4,82.2l88.5,23.9c8.8,2.3,14.9,9.4,14.9,17.4c0,10.1-9.4,18.2-21.2,18.2h-55.1c-8.6,0-17.2-2.1-24.7-6.3
	c-6.5-3.6-14.3-2.9-19.3,2.5l-25.4,26.6c-6.5,6.9-5.5,18,2.3,23.5c17.4,12,37.9,18.7,59.3,19.9v21.6c0,9.2,7.5,16.8,16.8,16.8h33.5
	c9.2,0,16.8-7.5,16.8-16.8v-21.4c46.5-2.3,83.9-39,83.9-84.5C629.4,653.1,603,619.3,565,609.1z"/>
</svg>
