<?xml version="1.0" encoding="utf-8"?>
<!-- Generator: Adobe Illustrator 24.0.1, SVG Export Plug-In . SVG Version: 6.00 Build 0)  -->
<svg version="1.1" id="Layer_1" focusable="false" xmlns="http://www.w3.org/2000/svg" xmlns:xlink="http://www.w3.org/1999/xlink"
	 x="0px" y="0px" viewBox="0 0 1024 1024" style="enable-background:new 0 0 1024 1024;" xml:space="preserve">
<path d="M919.3,398.8V155.6c0-13.9-11.1-50.9-50.9-50.9h0c-11.3,0-22.6,3.8-31.8,11.2L701.3,224.1c-68,54.3-153.3,84.3-240.2,84.3
	H155.6c-56.2,0-101.8,45.6-101.8,101.8v152.8c0,56.2,45.6,101.8,101.8,101.8l-0.8,50.9c0,63.3,14.7,123.1,40.7,176.5
	c8.3,17,26.3,27.1,45.2,27.1h169.1c41.4,0,66.3-47.5,41.2-80.4c-26.1-34.2-41.6-76.9-41.6-123.2c0-17.7,2.6-34.7,7-50.9h44.7
	c87,0,172.3,29.9,240.2,84.3l135.3,108.2c9,7.2,20.2,11.2,31.8,11.2c39.7,0,50.9-36.2,50.9-50.9V574.2
	c30.3-17.6,50.9-50.1,50.9-87.7C970.3,448.9,949.6,416.5,919.3,398.8z M409.8,868.4l-168.5,0c-23.6-48.6-35.6-99-35.6-151.9
	l0.8-50.9l0-0.8h158c-3.7,17-6.1,34.1-6.1,50.9C358.5,771.8,376.5,825.1,409.8,868.4L409.8,868.4z M155.6,613.8
	c-28.1,0-50.9-22.8-50.9-50.9V410.2c0-28.1,22.8-50.9,50.9-50.9h305.5v254.6H155.6z M868.5,815.8c-0.1,0.4-0.2,0.9-0.4,1.4l-135-108
	c-63.6-50.9-140.7-82.5-221.1-92V355.9c80.4-9.6,157.5-41.2,221.1-92l135-108c0,0,0.1,0.1,0.1,0.1c0.1,0,0.1-0.1,0.1-0.3
	L868.5,815.8L868.5,815.8z"/>
</svg>
