<?xml version="1.0" encoding="utf-8"?>
<!-- Generator: Adobe Illustrator 24.0.1, SVG Export Plug-In . SVG Version: 6.00 Build 0)  -->
<svg version="1.1" id="Layer_1" focusable="false" xmlns="http://www.w3.org/2000/svg" xmlns:xlink="http://www.w3.org/1999/xlink"
	 x="0px" y="0px" viewBox="0 0 1024 1024" style="enable-background:new 0 0 1024 1024;" xml:space="preserve">
<path d="M837.9,156.5H749V60.2C749,48,739,38,726.8,38H712c-12.2,0-22.2,10-22.2,22.2v96.3H334.3V60.2c0-12.2-10-22.2-22.2-22.2
	h-14.8C285,38,275,48,275,60.2v96.3h-88.9c-49.1,0-88.9,39.8-88.9,88.9v651.7c0,49.1,39.8,88.9,88.9,88.9h651.7
	c49.1,0,88.9-39.8,88.9-88.9V245.4C926.7,196.3,886.9,156.5,837.9,156.5z M186.1,215.8h651.7c16.3,0,29.6,13.3,29.6,29.6v88.9h-711
	v-88.9C156.5,229.1,169.8,215.8,186.1,215.8z M837.9,926.7H186.1c-16.3,0-29.6-13.3-29.6-29.6V393.5h711v503.6
	C867.5,913.4,854.2,926.7,837.9,926.7z M371.3,630.5h-74.1c-12.2,0-22.2-10-22.2-22.2v-74.1c0-12.2,10-22.2,22.2-22.2h74.1
	c12.2,0,22.2,10,22.2,22.2v74.1C393.5,620.5,383.5,630.5,371.3,630.5z M549,630.5H475c-12.2,0-22.2-10-22.2-22.2v-74.1
	c0-12.2,10-22.2,22.2-22.2H549c12.2,0,22.2,10,22.2,22.2v74.1C571.2,620.5,561.3,630.5,549,630.5z M726.8,630.5h-74.1
	c-12.2,0-22.2-10-22.2-22.2v-74.1c0-12.2,10-22.2,22.2-22.2h74.1c12.2,0,22.2,10,22.2,22.2v74.1C749,620.5,739,630.5,726.8,630.5z
	 M549,808.2H475c-12.2,0-22.2-10-22.2-22.2V712c0-12.2,10-22.2,22.2-22.2H549c12.2,0,22.2,10,22.2,22.2V786
	C571.2,798.2,561.3,808.2,549,808.2z M371.3,808.2h-74.1c-12.2,0-22.2-10-22.2-22.2V712c0-12.2,10-22.2,22.2-22.2h74.1
	c12.2,0,22.2,10,22.2,22.2V786C393.5,798.2,383.5,808.2,371.3,808.2z M726.8,808.2h-74.1c-12.2,0-22.2-10-22.2-22.2V712
	c0-12.2,10-22.2,22.2-22.2h74.1c12.2,0,22.2,10,22.2,22.2V786C749,798.2,739,808.2,726.8,808.2z"/>
</svg>
