<?xml version="1.0" encoding="utf-8"?>
<!-- Generator: Adobe Illustrator 24.0.1, SVG Export Plug-In . SVG Version: 6.00 Build 0)  -->
<svg version="1.1" id="Layer_1" focusable="false" xmlns="http://www.w3.org/2000/svg" xmlns:xlink="http://www.w3.org/1999/xlink"
	 x="0px" y="0px" viewBox="0 0 1024 1024" style="enable-background:new 0 0 1024 1024;" xml:space="preserve">
<path d="M911.9,519.4L770.3,617v203.3l141.5,97.5c27.4,18.9,65.1-0.4,65.1-33.3V552.7C976.9,519.9,939.4,500.5,911.9,519.4
	L911.9,519.4z M641.5,563.7H72.9c-14.3,0-25.8,11.6-25.8,25.8v51.7c0,14.3,11.6,25.8,25.8,25.8h77.5v181.1
	c0,42.6,34.6,77.2,77.2,77.2h413.9c42.6,0,77.2-34.6,77.2-77.2V640.8C718.6,598.2,684.1,563.7,641.5,563.7z M615.3,98.7
	c-78.4,0-145.8,44.2-180.8,108.5c-35-64.3-102.4-108.5-180.8-108.5c-114.1,0-206.6,92.5-206.6,206.6S139.6,512,253.7,512h361.6
	C729.4,512,822,419.5,822,305.4S729.4,98.7,615.3,98.7z M253.7,408.7c-57.1,0-103.3-46.3-103.3-103.3S196.6,202,253.7,202
	S357,248.3,357,305.4C357,362.4,310.7,408.6,253.7,408.7z M615.3,408.7c-57.1,0-103.3-46.3-103.3-103.3S558.3,202,615.3,202
	s103.3,46.3,103.3,103.3C718.6,362.4,672.4,408.6,615.3,408.7z"/>
</svg>
