<?xml version="1.0" encoding="utf-8"?>
<!-- Generator: Adobe Illustrator 24.0.1, SVG Export Plug-In . SVG Version: 6.00 Build 0)  -->
<svg version="1.1" id="Layer_1" focusable="false" xmlns="http://www.w3.org/2000/svg" xmlns:xlink="http://www.w3.org/1999/xlink"
	 x="0px" y="0px" viewBox="0 0 1024 1024" style="enable-background:new 0 0 1024 1024;" xml:space="preserve">
<path d="M978,512c0,257.3-208.6,466-466,466S46,769.3,46,512S254.7,46,512,46S978,254.7,978,512z M458.1,758.7L803.8,413
	c11.7-11.7,11.7-30.8,0-42.5L761.3,328c-11.7-11.7-30.8-11.7-42.5,0L436.8,609.9L305.2,478.3c-11.7-11.7-30.8-11.7-42.5,0
	l-42.5,42.5c-11.7,11.7-11.7,30.8,0,42.5l195.4,195.4C427.3,770.5,446.4,770.5,458.1,758.7L458.1,758.7z"/>
</svg>
