<?xml version="1.0" encoding="utf-8"?>
<!-- Generator: Adobe Illustrator 24.0.1, SVG Export Plug-In . SVG Version: 6.00 Build 0)  -->
<svg version="1.1" id="Layer_1" focusable="false" xmlns="http://www.w3.org/2000/svg" xmlns:xlink="http://www.w3.org/1999/xlink"
	 x="0px" y="0px" viewBox="0 0 1024 1024" style="enable-background:new 0 0 1024 1024;" xml:space="preserve">
<path d="M512,39C250.7,39,39,250.7,39,512s211.7,473,473,473s473-211.7,473-473S773.3,39,512,39z M923.9,512
	c0,226.4-183.3,411.9-411.9,411.9c-226.4,0-411.9-183.3-411.9-411.9c0-226.4,183.3-411.9,411.9-411.9
	C738.4,100.1,923.9,283.3,923.9,512z M640,680.4L485.1,567.9c-5.9-4.4-9.3-11.3-9.3-18.5V245c0-12.6,10.3-22.9,22.9-22.9h26.7
	c12.6,0,22.9,10.3,22.9,22.9v279l134.5,97.8c10.3,7.4,12.4,21.7,5,32L672,675.4C664.6,685.6,650.3,687.8,640,680.4L640,680.4z"/>
</svg>
