<?xml version="1.0" encoding="utf-8"?>
<!-- Generator: Adobe Illustrator 24.0.1, SVG Export Plug-In . SVG Version: 6.00 Build 0)  -->
<svg version="1.1" id="Layer_1" focusable="false" xmlns="http://www.w3.org/2000/svg" xmlns:xlink="http://www.w3.org/1999/xlink"
	 x="0px" y="0px" viewBox="0 0 1024 1024" style="enable-background:new 0 0 1024 1024;" xml:space="preserve">
<path d="M659.2,99.9c-89.4,0-170.3,16.6-229,43c-1.7,0.7-94.7,38.6-94.7,104.1v30.7c-154.3,6.4-294.3,63.8-294.3,145.9v353.2
	c0,81.3,145,147.2,323.8,147.2s323.8-65.9,323.8-147.2v-30.2c165-6.8,294.3-69.7,294.3-146.4V247.1C982.9,179,868.7,99.9,659.2,99.9
	z M629.7,776.9c0,25.6-92.9,88.3-264.9,88.3S99.9,802.5,99.9,776.9v-92.2c58.5,37.9,155.3,62.7,264.9,62.7s206.4-24.8,264.9-62.7
	V776.9z M629.7,600.3c0,25.6-92.9,88.3-264.9,88.3S99.9,625.9,99.9,600.3v-92.2c58.5,37.9,155.3,62.7,264.9,62.7
	s206.4-24.8,264.9-62.7V600.3z M364.8,512C215.8,512,95,472.5,95,423.7s120.9-88.3,269.9-88.3s269.9,39.5,269.9,88.3
	S513.8,512,364.8,512z M924.1,600.3c0,24.1-82.8,80.2-235.5,87V569.4c97.1-4,182.3-26.9,235.5-61.3V600.3z M924.1,423.7
	c0,24.1-83,79.8-235.5,86.8v-86.8c0-10.3-3.1-20.2-7.5-30c100.4-3.1,188.4-26.7,243-62.2V423.7z M659.2,335.4
	c-13.4,0-25.8-0.9-38.4-1.7c-67.9-39.9-156.4-51.9-212.7-55.2c-11.6-9.7-18.6-20.2-18.6-31.5c0-48.7,120.9-88.3,269.9-88.3
	s269.9,39.5,269.9,88.3S808.2,335.4,659.2,335.4z"/>
</svg>
