<?xml version="1.0" encoding="utf-8"?>
<!-- Generator: Adobe Illustrator 24.0.1, SVG Export Plug-In . SVG Version: 6.00 Build 0)  -->
<svg version="1.1" id="Layer_1" focusable="false" xmlns="http://www.w3.org/2000/svg" xmlns:xlink="http://www.w3.org/1999/xlink"
	 x="0px" y="0px" viewBox="0 0 1024 1024" style="enable-background:new 0 0 1024 1024;" xml:space="preserve">
<path d="M861.1,46.6H162.9c-64.2,0-116.4,52.2-116.4,116.4v523.6c0,64.2,52.2,116.4,116.4,116.4h174.5v152.7
	c0,12.9,10.5,21.8,21.8,21.8c4.4,0,8.9-1.3,12.9-4.4l227.1-170.2h261.8c64.2,0,116.4-52.2,116.4-116.4V162.9
	C977.4,98.7,925.3,46.6,861.1,46.6z M919.3,686.5c0,32-26.2,58.2-58.2,58.2H579.8l-15.5,11.6L395.6,882.9V744.7H162.9
	c-32,0-58.2-26.2-58.2-58.2V162.9c0-32,26.2-58.2,58.2-58.2h698.2c32,0,58.2,26.2,58.2,58.2V686.5z M279.3,381.1
	c-24.2,0-43.6,19.5-43.6,43.6c0,24.2,19.5,43.6,43.6,43.6s43.6-19.5,43.6-43.6C322.9,400.5,303.5,381.1,279.3,381.1z M512,381.1
	c-24.2,0-43.6,19.5-43.6,43.6c0,24.2,19.5,43.6,43.6,43.6s43.6-19.5,43.6-43.6C555.6,400.5,536.2,381.1,512,381.1z M744.7,381.1
	c-24.2,0-43.6,19.5-43.6,43.6c0,24.2,19.5,43.6,43.6,43.6c24.2,0,43.6-19.5,43.6-43.6C788.4,400.5,768.9,381.1,744.7,381.1z"/>
</svg>
