<?xml version="1.0" encoding="utf-8"?>
<!-- Generator: Adobe Illustrator 24.0.1, SVG Export Plug-In . SVG Version: 6.00 Build 0)  -->
<svg version="1.1" id="Layer_1" focusable="false" xmlns="http://www.w3.org/2000/svg" xmlns:xlink="http://www.w3.org/1999/xlink"
	 x="0px" y="0px" viewBox="0 0 1024 1024" style="enable-background:new 0 0 1024 1024;" xml:space="preserve">
<path d="M862.2,45H161.8C97.4,45,45,97.3,45,161.7v525.4c0,64.4,52.4,116.7,116.7,116.7h175.1v153.2c0,17.9,20.4,28.3,34.8,17.7
	l227.8-170.9h262.7c64.4,0,116.7-52.4,116.7-116.7V161.7C979,97.3,926.6,45,862.2,45z M278.5,482.8c-32.3,0-58.4-26.1-58.4-58.4
	s26.1-58.4,58.4-58.4s58.4,26.1,58.4,58.4S310.8,482.8,278.5,482.8z M512,482.8c-32.3,0-58.4-26.1-58.4-58.4s26.1-58.4,58.4-58.4
	s58.4,26.1,58.4,58.4S544.3,482.8,512,482.8z M745.5,482.8c-32.3,0-58.4-26.1-58.4-58.4s26.1-58.4,58.4-58.4s58.4,26.1,58.4,58.4
	S777.8,482.8,745.5,482.8z"/>
</svg>
