<?xml version="1.0" encoding="utf-8"?>
<!-- Generator: Adobe Illustrator 24.0.1, SVG Export Plug-In . SVG Version: 6.00 Build 0)  -->
<svg version="1.1" id="Layer_1" focusable="false" xmlns="http://www.w3.org/2000/svg" xmlns:xlink="http://www.w3.org/1999/xlink"
	 x="0px" y="0px" viewBox="0 0 1024 1024" style="enable-background:new 0 0 1024 1024;" xml:space="preserve">
<path d="M903.7,146.4H120.3c-43.2,0-78.3,35.1-78.3,78.3v574.4c0,43.2,35.1,78.3,78.3,78.3h783.3c43.2,0,78.3-35.1,78.3-78.3V224.8
	C982,181.5,946.9,146.4,903.7,146.4z M120.3,198.7h783.3c14.4,0,26.1,11.7,26.1,26.1v78.3H94.2v-78.3
	C94.2,210.4,106,198.7,120.3,198.7z M903.7,825.3H120.3c-14.4,0-26.1-11.8-26.1-26.1V459.8h835.6v339.4
	C929.8,813.6,918,825.3,903.7,825.3z M355.3,688.2v13.1c0,10.8-8.8,19.6-19.6,19.6H218.2c-10.8,0-19.6-8.8-19.6-19.6v-13.1
	c0-10.8,8.8-19.6,19.6-19.6h117.5C346.5,668.7,355.3,677.5,355.3,688.2z M668.7,688.2v13.1c0,10.8-8.8,19.6-19.6,19.6H427.1
	c-10.8,0-19.6-8.8-19.6-19.6v-13.1c0-10.8,8.8-19.6,19.6-19.6h221.9C659.9,668.7,668.7,677.5,668.7,688.2z"/>
</svg>
