<?xml version="1.0" encoding="utf-8"?>
<!-- Generator: Adobe Illustrator 24.0.1, SVG Export Plug-In . SVG Version: 6.00 Build 0)  -->
<svg version="1.1" id="Layer_1" focusable="false" xmlns="http://www.w3.org/2000/svg" xmlns:xlink="http://www.w3.org/1999/xlink"
	 x="0px" y="0px" viewBox="0 0 1024 1024" style="enable-background:new 0 0 1024 1024;" xml:space="preserve">
<path d="M482.2,351.1h59.5c5.7,0,10.2,4.7,10.1,10.4L539.1,690c-0.2,5.4-4.7,9.7-10.1,9.7h-34.4c-5.4,0-9.9-4.2-10.1-9.7
	l-12.6-328.4C471.9,355.8,476.5,351.1,482.2,351.1L482.2,351.1z M512,733.2c-26,0-46.9,20.9-46.9,46.9c0,26,20.9,46.9,46.9,46.9
	s46.9-20.9,46.9-46.9C558.9,754.1,538,733.2,512,733.2z M983.7,820.3l-402-697.1c-30.8-53.6-108.4-53.6-139.4,0l-402,697.1
	C9.4,873.8,48,941,110,941h804.2C975.8,941,1014.7,874,983.7,820.3z M914.2,887.4H109.8c-20.6,0-33.5-22.3-23.3-40.2L488.7,150
	c10.2-17.8,36.2-17.9,46.4,0l402.2,697.1C947.7,864.9,934.8,887.4,914.2,887.4L914.2,887.4z"/>
</svg>
