<?xml version="1.0" encoding="utf-8"?>
<!-- Generator: Adobe Illustrator 24.0.1, SVG Export Plug-In . SVG Version: 6.00 Build 0)  -->
<svg version="1.1" id="Layer_1" focusable="false" xmlns="http://www.w3.org/2000/svg" xmlns:xlink="http://www.w3.org/1999/xlink"
	 x="0px" y="0px" viewBox="0 0 1024 1024" style="enable-background:new 0 0 1024 1024;" xml:space="preserve">
<path d="M562.5,645.1l-83.8-25.2c-9.6-2.9-16.3-12.6-16.3-23.7c0-13.5,9.9-24.6,22-24.6h52.4c8.5,0,16.7,2.4,23.9,6.9
	c6,3.8,13.7,3.6,18.9-1.4l21.9-20.9c6.6-6.3,6.2-17.2-1.1-22.6c-17-12.7-37.4-20.1-58.4-21.1v-45.3c0-8.2-6.7-14.9-14.9-14.9h-29.8
	c-8.2,0-14.9,6.7-14.9,14.9v44.9c-44,1.2-79.5,38.3-79.5,84c0,37.2,24.2,70.4,58.8,80.8l83.8,25.2c9.6,2.9,16.3,12.6,16.3,23.7
	c0,13.5-9.9,24.6-22,24.6h-52.4c-8.5,0-16.7-2.4-23.9-6.9c-6-3.8-13.7-3.6-18.9,1.4l-21.9,20.9c-6.6,6.3-6.2,17.2,1.1,22.6
	c17,12.7,37.4,20.1,58.4,21.1v45.3c0,8.2,6.7,14.9,14.9,14.9h29.8c8.2,0,14.9-6.7,14.9-14.9v-44.9c44-1.2,79.5-38.3,79.5-84
	C621.3,688.7,597.1,655.5,562.5,645.1L562.5,645.1z M288.4,213.9h208.7c8.2,0,14.9-6.7,14.9-14.9v-29.8c0-8.2-6.7-14.9-14.9-14.9
	H288.4c-8.2,0-14.9,6.7-14.9,14.9V199C273.5,207.3,280.2,213.9,288.4,213.9z M512,318.2v-29.8c0-8.2-6.7-14.9-14.9-14.9H288.4
	c-8.2,0-14.9,6.7-14.9,14.9v29.8c0,8.2,6.7,14.9,14.9,14.9h208.7C505.3,333.2,512,326.5,512,318.2z M843.4,217.6L687.2,61.3
	c-16.8-16.8-39.5-26.3-63.1-26.3H243.7c-49.4,0.2-89.4,40.2-89.4,89.6v774.9c0,49.4,40.1,89.4,89.4,89.4h536.6
	c49.4,0,89.4-40.1,89.4-89.4V280.9C869.7,257.3,860.2,234.4,843.4,217.6L843.4,217.6z M631.3,95.8c5.2,1.3,9.9,3.9,13.8,7.8
	l156.3,156.3c3.9,3.9,6.5,8.6,7.8,13.8H631.3V95.8z M810.1,899.5c0,16.4-13.4,29.8-29.8,29.8H243.7c-16.4,0-29.8-13.4-29.8-29.8
	V124.7c0-16.4,13.4-30,29.8-30h328v193.9c0,24.8,19.9,44.6,44.7,44.6h193.7V899.5z"/>
</svg>
