<?xml version="1.0" encoding="utf-8"?>
<!-- Generator: Adobe Illustrator 24.0.1, SVG Export Plug-In . SVG Version: 6.00 Build 0)  -->
<svg version="1.1" id="Layer_1" focusable="false" xmlns="http://www.w3.org/2000/svg" xmlns:xlink="http://www.w3.org/1999/xlink"
	 x="0px" y="0px" viewBox="0 0 1024 1024" style="enable-background:new 0 0 1024 1024;" xml:space="preserve">
<path d="M397.9,426.4c0-31.5-25.5-57-57-57h-28.5c-63,0-114.1,51.1-114.1,114.1V569c0,63,51.1,114.1,114.1,114.1h28.5
	c31.5,0,57-25.5,57-57V426.4z M711.6,683.1c63,0,114.1-51.1,114.1-114.1v-85.6c0-63-51.1-114.1-114.1-114.1h-28.5
	c-31.5,0-57,25.5-57,57v199.6c0,31.5,25.5,57,57,57H711.6z M512,55.7C257.4,55.7,63.8,267.5,55.7,512v28.5
	c0,15.8,12.8,28.5,28.5,28.5h28.5c15.8,0,28.5-12.8,28.5-28.5V512c0-204.4,166.3-370.8,370.8-370.8S882.8,307.6,882.8,512h-0.2
	c0.1,4.3,0.2,295.4,0.2,295.4c0,41.6-33.7,75.4-75.4,75.4H626.1c0-47.3-38.3-85.6-85.6-85.6h-57c-47.3,0-85.6,38.3-85.6,85.6
	s38.3,85.6,85.6,85.6h323.9c88.9,0,160.9-72,160.9-160.9V512C960.2,267.5,766.6,55.7,512,55.7z"/>
</svg>
