<?xml version="1.0" encoding="utf-8"?>
<!-- Generator: Adobe Illustrator 24.0.1, SVG Export Plug-In . SVG Version: 6.00 Build 0)  -->
<svg version="1.1" id="Layer_1" focusable="false" xmlns="http://www.w3.org/2000/svg" xmlns:xlink="http://www.w3.org/1999/xlink"
	 x="0px" y="0px" viewBox="0 0 1024 1024" style="enable-background:new 0 0 1024 1024;" xml:space="preserve">
<path d="M584.1,543.5L552,478.5c-15.3-30.6-64.9-30.6-80.1,0.1l-32,65L368.3,554c-17,2.4-30.8,14.1-36.1,30.4
	c-5.3,16.3-1,33.8,11.3,45.8l51.9,50.5l-12.3,71.4c-6.4,37,32.9,64.2,64.8,47.1l64.1-33.7l64.1,33.7c31.4,16.5,71.3-9.6,64.9-47
	l-12.3-71.4l51.9-50.5c12.3-11.9,16.6-29.5,11.3-45.8c-5.3-16.3-19.1-27.9-36.1-30.4L584.1,543.5L584.1,543.5z M572.8,662.6
	l14.4,83.6L512,706.7l-75.3,40.5l14.5-84.6l-60.8-59.3l84-12.2l37.6-76.2l37.6,76.2l84,12.2L572.8,662.6z M954,96H697.4
	c-18.3,0-35.2,9.6-44.6,25.3L512,356L371.1,121.2c-9.4-15.7-26.3-25.3-44.6-25.3H70c-21,0-33.4,23.7-21.3,40.9l234.2,334.6
	C247.3,519.2,226,578.1,226,642c0,157.7,128.3,286,286,286s286-128.3,286-286c0-63.9-21.4-122.9-56.9-170.5l234.2-334.6
	C987.3,119.7,975,96,954,96z M120,148h206.6l128.3,213.8c-51.9,10.6-98.6,35.5-136.1,70.1L120,148z M746,642
	c0,129.2-104.8,234-234,234S278,771.2,278,642s104.8-234,234-234S746,512.8,746,642z M705.3,431.9c-37.6-34.6-84.2-59.5-136.1-70.1
	L697.4,148H904L705.3,431.9z"/>
</svg>
