<?xml version="1.0" encoding="utf-8"?>
<!-- Generator: Adobe Illustrator 24.0.1, SVG Export Plug-In . SVG Version: 6.00 Build 0)  -->
<svg version="1.1" id="Layer_1" focusable="false" xmlns="http://www.w3.org/2000/svg" xmlns:xlink="http://www.w3.org/1999/xlink"
	 x="0px" y="0px" viewBox="0 0 1024 1024" style="enable-background:new 0 0 1024 1024;" xml:space="preserve">
<path d="M454.7,289.6L332,85c-10.3-17.1-28.8-27.6-48.7-27.6H85.9c-23,0-36.5,25.9-23.3,44.7l197.6,282.3
	C312.9,335.1,380.1,301.2,454.7,289.6L454.7,289.6z M938.1,57.4H740.8c-20,0-38.5,10.5-48.7,27.6L569.3,289.6
	c74.7,11.6,141.8,45.5,194.6,94.8l197.6-282.3C974.6,83.3,961.1,57.4,938.1,57.4z M512,341.5c-172.6,0-312.5,139.9-312.5,312.5
	S339.4,966.6,512,966.6s312.5-139.9,312.5-312.5S684.6,341.5,512,341.5z M676.3,620.8l-67.4,65.6l15.9,92.7
	c2.8,16.6-14.7,29.3-29.6,21.5L512,756.8l-83.3,43.8c-14.9,7.9-32.4-4.9-29.6-21.5l15.9-92.7l-67.4-65.6
	c-12.1-11.8-5.4-32.4,11.3-34.8l93.1-13.6l41.6-84.4c3.7-7.6,11-11.3,18.3-11.3c7.3,0,14.6,3.8,18.3,11.3l41.6,84.4L665,586
	C681.7,588.4,688.4,609,676.3,620.8z"/>
</svg>
