<?xml version="1.0" encoding="utf-8"?>
<!-- Generator: Adobe Illustrator 24.0.1, SVG Export Plug-In . SVG Version: 6.00 Build 0)  -->
<svg version="1.1" id="Layer_1" focusable="false" xmlns="http://www.w3.org/2000/svg" xmlns:xlink="http://www.w3.org/1999/xlink"
	 x="0px" y="0px" viewBox="0 0 1024 1024" style="enable-background:new 0 0 1024 1024;" xml:space="preserve">
<path d="M867.1,60H156.9C103.4,60,60,103.4,60,156.9v710.3c0,53.5,43.4,96.9,96.9,96.9h710.3c53.5,0,96.9-43.4,96.9-96.9V156.9
	C964,103.4,920.6,60,867.1,60z M899.4,867.1c0,17.8-14.5,32.3-32.3,32.3H156.9c-17.8,0-32.3-14.5-32.3-32.3V156.9
	c0-17.8,14.5-32.3,32.3-32.3h710.3c17.8,0,32.3,14.5,32.3,32.3V867.1z M512,681.5c-31.2,0-56.5,25.3-56.5,56.5s25.3,56.5,56.5,56.5
	s56.5-25.3,56.5-56.5S543.2,681.5,512,681.5z M527.5,633.1h-32.3c-13.4,0-24.2-10.8-24.2-24.2v-0.8c0-141.9,156.3-128.4,156.3-216.7
	c0-40.4-35.8-81.1-115.9-81.1c-58.8,0-89.3,19.5-119.5,57.9c-7.9,10-22.3,12.1-32.8,4.8l-26.5-18.5c-11.4-7.9-13.8-23.8-5.3-34.7
	c42.8-54.9,93.6-90.3,184.1-90.3c105.6,0,196.6,60,196.6,161.9c0,136-156.3,128.8-156.3,216.7v0.8
	C551.7,622.2,540.8,633.1,527.5,633.1L527.5,633.1z"/>
</svg>
