<?xml version="1.0" encoding="utf-8"?>
<!-- Generator: Adobe Illustrator 24.0.1, SVG Export Plug-In . SVG Version: 6.00 Build 0)  -->
<svg version="1.1" id="Layer_1" focusable="false" xmlns="http://www.w3.org/2000/svg" xmlns:xlink="http://www.w3.org/1999/xlink"
	 x="0px" y="0px" viewBox="0 0 1024 1024" style="enable-background:new 0 0 1024 1024;" xml:space="preserve">
<path d="M646.4,283.2l74.5-122.4C744.9,124.5,719,76,675.5,76H348.8c-43.5,0-69.5,48.5-45.3,84.7l74.2,122.4
	C60.2,485.8,76.1,744.2,76.1,777.7c0,94.1,83.6,170.3,186.8,170.3h498.2c103.2,0,186.8-76.2,186.8-170.3
	C947.9,744.9,962,484.8,646.4,283.2z M348.8,130.5h326.7l-83.7,136.2H432.2L348.8,130.5z M893.5,777.7
	c0,63.9-59.4,115.8-132.3,115.8H262.9c-73,0-132.3-52-132.3-115.8V772C129,670,164.7,477.3,418.3,321.2h187.5
	c253,155.8,289,349,287.7,451.3V777.7z M562.4,605.2L479,580.5c-9.6-2.8-16.3-12.3-16.3-23.3c0-13.4,9.8-24.2,21.9-24.2h52.1
	c8.4,0,16.6,2.4,23.7,6.8c5.8,3.9,13.5,3.4,18.7-1.3l21.7-20.7c5.9-5.5,6.1-14.7,0.6-20.6c-0.5-0.6-1.1-1.1-1.7-1.6
	c-17-12.5-37.2-19.7-58.2-20.7v-30c-0.1-8.1-6.7-14.7-14.8-14.7H497c-8.1,0-14.8,6.5-14.8,14.7v29.7c-43.9,1.3-79.1,37.8-79.1,82.7
	c0,36.7,24.1,69.3,58.6,79.6l83.5,24.8c9.6,2.7,16.3,12.3,16.3,23.3c0,13.4-9.8,24.2-21.9,24.2h-52.1c-8.4,0-16.6-2.4-23.7-6.8
	c-5.8-3.9-13.5-3.4-18.7,1.3L423,724.2c-5.9,5.5-6.1,14.7-0.6,20.6c0.5,0.6,1.1,1.1,1.7,1.6c17,12.4,37.2,19.7,58.2,20.7V797
	c0.1,8.1,6.7,14.7,14.8,14.7h29.7c8.1,0,14.8-6.5,14.8-14.7v-29.5c43.7-1.1,79.1-37.8,79.3-82.7C621,648.1,596.9,615.5,562.4,605.2
	L562.4,605.2z"/>
</svg>
