<?xml version="1.0" encoding="utf-8"?>
<!-- Generator: Adobe Illustrator 24.0.1, SVG Export Plug-In . SVG Version: 6.00 Build 0)  -->
<svg version="1.1" id="Layer_1" focusable="false" xmlns="http://www.w3.org/2000/svg" xmlns:xlink="http://www.w3.org/1999/xlink"
	 x="0px" y="0px" viewBox="0 0 1024 1024" style="enable-background:new 0 0 1024 1024;" xml:space="preserve">
<path d="M935.7,564.3c17.5-22.7,27-52.3,27-88.4c0-66.3-56.5-127.8-128-127.8H711.2c15.4-30.6,36.4-68.5,36.4-122.9
	c0-102.8-41-163.9-146-163.9c-52.8,0-72.4,66.8-82.5,118.4c-6,30.8-11.7,60-29.1,77.4c-41.5,41.5-104.9,142.3-142.9,162.8
	c-3.9,1.6-8.8,2.9-14.1,3.9c-10.2-14.7-27.1-24.4-46.4-24.4h-169c-31.1,0-56.3,25.2-56.3,56.3v450.7c0,31.1,25.2,56.3,56.3,56.3h169
	c31.1,0,56.3-25.2,56.3-56.3V891c57.2,0,177.3,71.7,312.4,71.7c9.7,0,66.3,0.1,72.2,0c104.4,0,162.4-63.2,159.1-158.1
	c26.6-31.2,39.7-76.3,32.1-118.2C940.7,652.1,945.4,603.6,935.7,564.3z M117.6,906.4V455.7h169v450.7H117.6z M864.2,547.8
	c28.1,20.5,28.1,105-9.9,124.4c23.8,40.1,2.4,93.7-26.4,109.2c14.6,92.5-33.4,124.3-100.7,125c-5.8,0.1-65.6,0-71.7,0
	c-128.4,0-237.2-71.7-312.4-71.7V476.1c66.4,0,127.3-119.6,187-179.3c53.8-53.8,35.9-143.4,71.7-179.3c89.6,0,89.6,62.5,89.6,107.6
	c0,74.3-53.8,107.6-53.8,179.3h197.2c40,0,71.5,35.9,71.7,71.7C906.6,512,892.3,540.2,864.2,547.8L864.2,547.8z M244.4,821.9
	c0,23.3-18.9,42.3-42.3,42.3s-42.3-18.9-42.3-42.3s18.9-42.3,42.3-42.3S244.4,798.5,244.4,821.9z"/>
</svg>
