<?xml version="1.0" encoding="utf-8"?>
<!-- Generator: Adobe Illustrator 24.0.1, SVG Export Plug-In . SVG Version: 6.00 Build 0)  -->
<svg version="1.1" id="Layer_1" focusable="false" xmlns="http://www.w3.org/2000/svg" xmlns:xlink="http://www.w3.org/1999/xlink"
	 x="0px" y="0px" viewBox="0 0 1024 1024" style="enable-background:new 0 0 1024 1024;" xml:space="preserve">
<path d="M512,512c126.7,0,229.3-102.6,229.3-229.3S638.7,53.4,512,53.4S282.7,156.1,282.7,282.7S385.3,512,512,512z M683.6,570.4
	L598,913.3l-57.3-243.6L598,569.3H426l57.3,100.3L426,913.3l-85.6-342.9c-127.7,6.1-229.7,110.5-229.7,239.7v74.5
	c0,47.5,38.5,86,86,86h630.6c47.5,0,86-38.5,86-86v-74.5C913.3,680.9,811.3,576.5,683.6,570.4L683.6,570.4z"/>
</svg>
