<?xml version="1.0" encoding="utf-8"?>
<!-- Generator: Adobe Illustrator 24.0.1, SVG Export Plug-In . SVG Version: 6.00 Build 0)  -->
<svg version="1.1" id="Layer_1" focusable="false" xmlns="http://www.w3.org/2000/svg" xmlns:xlink="http://www.w3.org/1999/xlink"
	 x="0px" y="0px" viewBox="0 0 1024 1024" style="enable-background:new 0 0 1024 1024;" xml:space="preserve">
<path d="M325,512c90.4,0,163.6-73.2,163.6-163.6S415.5,184.8,325,184.8S161.4,258,161.4,348.4S234.6,512,325,512z M437.2,558.7
	h-12.1c-30.4,14.6-64.1,23.4-100.1,23.4s-69.5-8.8-100.1-23.4h-12.1C120,558.7,44.6,634.1,44.6,727v42.1c0,38.7,31.4,70.1,70.1,70.1
	h420.7c38.7,0,70.1-31.4,70.1-70.1V727C605.5,634.1,530.1,558.7,437.2,558.7z M745.7,512c77.4,0,140.2-62.8,140.2-140.2
	s-62.8-140.2-140.2-140.2s-140.2,62.8-140.2,140.2S668.3,512,745.7,512z M815.8,558.7h-5.6c-20.3,7-41.8,11.7-64.6,11.7
	s-44.3-4.7-64.6-11.7h-5.6c-29.8,0-57.3,8.6-81.4,22.5c35.6,38.4,58,89.4,58,145.8v56.1c0,3.2-0.7,6.3-0.9,9.3h257.9
	c38.7,0,70.1-31.4,70.1-70.1C979.4,631.9,906.2,558.7,815.8,558.7z"/>
</svg>
