<?xml version="1.0" encoding="utf-8"?>
<!-- Generator: Adobe Illustrator 24.0.1, SVG Export Plug-In . SVG Version: 6.00 Build 0)  -->
<svg version="1.1" id="Layer_1" focusable="false" xmlns="http://www.w3.org/2000/svg" xmlns:xlink="http://www.w3.org/1999/xlink"
	 x="0px" y="0px" viewBox="0 0 1024 1024" style="enable-background:new 0 0 1024 1024;" xml:space="preserve">
<path d="M512,131.3c105,0,190.4,85.3,190.4,190.4S617,512,512,512s-190.4-85.3-190.4-190.4S407,131.3,512,131.3 M729.6,675.2
	c89.9,0,163.2,73.3,163.2,163.2v54.4H131.3v-54.4c0-89.9,73.3-163.2,163.2-163.2c144.5,0,114.4,27.2,217.6,27.2
	C615.5,702.4,584.9,675.2,729.6,675.2 M512,76.9c-135.1,0-244.7,109.6-244.7,244.7S376.9,566.4,512,566.4s244.7-109.6,244.7-244.7
	S647.1,76.9,512,76.9z M729.6,620.8c-157,0-120.7,27.2-217.6,27.2c-96.5,0-60.7-27.2-217.6-27.2c-120.2,0-217.6,97.4-217.6,217.6
	v54.4c0,30.1,24.3,54.4,54.4,54.4h761.4c30.1,0,54.4-24.3,54.4-54.4v-54.4C947.1,718.2,849.7,620.8,729.6,620.8z"/>
</svg>
