<?xml version="1.0" encoding="utf-8"?>
<!-- Generator: Adobe Illustrator 24.0.1, SVG Export Plug-In . SVG Version: 6.00 Build 0)  -->
<svg version="1.1" id="Layer_1" focusable="false" xmlns="http://www.w3.org/2000/svg" xmlns:xlink="http://www.w3.org/1999/xlink"
	 x="0px" y="0px" viewBox="0 0 1024 1024" style="enable-background:new 0 0 1024 1024;" xml:space="preserve">
<path d="M950.2,442.8h-92.2v-92.2c0-12.7-10.4-23.1-23.1-23.1h-46.1c-12.7,0-23.1,10.4-23.1,23.1v92.2h-92.2
	c-12.7,0-23.1,10.4-23.1,23.1V512c0,12.7,10.4,23.1,23.1,23.1h92.2v92.2c0,12.7,10.4,23.1,23.1,23.1h46.1
	c12.7,0,23.1-10.4,23.1-23.1v-92.2h92.2c12.7,0,23.1-10.4,23.1-23.1v-46.1C973.2,453.2,962.8,442.8,950.2,442.8z M373.6,512
	c101.9,0,184.5-82.6,184.5-184.5S475.5,143,373.6,143s-184.5,82.6-184.5,184.5S271.7,512,373.6,512z M502.8,558.1h-24.1
	c-32,14.7-67.6,23.1-105.1,23.1s-72.9-8.4-105.1-23.1h-24.1c-106.9,0-193.7,86.8-193.7,193.7v60c0,38.2,31,69.2,69.2,69.2h507.3
	c38.2,0,69.2-31,69.2-69.2v-60C696.5,644.9,609.7,558.1,502.8,558.1z"/>
</svg>
