<?xml version="1.0" encoding="utf-8"?>
<!-- Generator: Adobe Illustrator 24.0.1, SVG Export Plug-In . SVG Version: 6.00 Build 0)  -->
<svg version="1.1" id="Layer_1" focusable="false" xmlns="http://www.w3.org/2000/svg" xmlns:xlink="http://www.w3.org/1999/xlink"
	 x="0px" y="0px" viewBox="0 0 1024 1024" style="enable-background:new 0 0 1024 1024;" xml:space="preserve">
<path d="M777,538.6c-0.4-76.8,34.3-134.8,104.7-177.5c-39.3-56.3-98.8-87.3-177.3-93.3c-74.3-5.9-155.5,43.3-185.2,43.3
	c-31.4,0-103.4-41.2-159.9-41.2c-116.8,1.9-240.9,93.1-240.9,278.8c0,54.8,10,111.5,30.1,170c26.8,76.8,123.5,265.2,224.4,262
	c52.7-1.3,90-37.5,158.7-37.5c66.6,0,101.1,37.5,159.9,37.5C793.1,979.2,880.6,808,906.1,731C769.6,666.7,777,542.6,777,538.6
	L777,538.6z M658.5,195c57.1-67.8,51.9-129.6,50.2-151.7c-50.4,2.9-108.8,34.3-142.1,73C530,157.7,508.4,209,513,266.7
	C567.7,270.9,617.5,242.9,658.5,195z"/>
</svg>
