<?xml version="1.0" encoding="utf-8"?>
<!-- Generator: Adobe Illustrator 24.0.1, SVG Export Plug-In . SVG Version: 6.00 Build 0)  -->
<svg version="1.1" id="Layer_1" focusable="false" xmlns="http://www.w3.org/2000/svg" xmlns:xlink="http://www.w3.org/1999/xlink"
	 x="0px" y="0px" viewBox="0 0 1024 1024" style="enable-background:new 0 0 1024 1024;" xml:space="preserve">
<path d="M949.6,227H74.4c-6.7,0-12-5.4-12-12v-48.2c0-6.7,5.4-12,12-12h875.2c6.7,0,12,5.4,12,12v48.2
	C961.7,221.6,956.3,227,949.6,227z M949.6,548.1H74.4c-6.7,0-12-5.4-12-12v-48.2c0-6.7,5.4-12,12-12l0,0h875.2c6.7,0,12,5.4,12,12
	l0,0v48.2C961.7,542.7,956.3,548.1,949.6,548.1z M949.6,869.3H74.4c-6.7,0-12-5.4-12-12v-48.2c0-6.7,5.4-12,12-12h875.2
	c6.7,0,12,5.4,12,12v48.2C961.7,863.9,956.3,869.3,949.6,869.3z"/>
</svg>
