<?xml version="1.0" encoding="utf-8"?>
<!-- Generator: Adobe Illustrator 24.0.1, SVG Export Plug-In . SVG Version: 6.00 Build 0)  -->
<svg version="1.1" id="Layer_1" focusable="false" xmlns="http://www.w3.org/2000/svg" xmlns:xlink="http://www.w3.org/1999/xlink"
	 x="0px" y="0px" viewBox="0 0 1024 1024" style="enable-background:new 0 0 1024 1024;" xml:space="preserve">
<path d="M883.9,486.6c4.1-14.6,6.4-29.8,6.4-45.5c0-91.5-74-165.5-165.5-165.5c-24.7,0-48.6,5.3-70.9,16
	C607.2,225.1,529.3,181,441.1,181c-139.5,0-253.7,110.1-259.8,248.5C97.1,459.1,39.2,539,39.2,630.2c0,117.6,95.2,212.8,212.8,212.8
	h543.8c104.5,0,189.1-84.5,189.1-189.1C984.8,584.4,946.7,519.7,883.9,486.6z M795.7,795.7H251.9c-91.5,0-165.5-74-165.5-165.5
	c0-83.9,62.4-153.2,143.3-164c-1-8.3-1.5-16.7-1.5-25.1c0-117.5,95.3-212.8,212.8-212.8c89.1,0,165.3,54.7,197.1,132.4
	c21.6-23.2,52.3-37.8,86.6-37.8c65.3,0,118.2,52.9,118.2,118.2c0,27.3-9.3,52.6-25,72.7c67.8,10.6,119.5,69.3,119.5,140.1
	C937.5,732.2,874,795.7,795.7,795.7z M637.9,509.8c-6.9-6.9-18.2-6.9-25.1,0L512,610.6V387.9c0-9.8-8-17.7-17.7-17.7h-11.8
	c-9.8,0-17.7,8-17.7,17.7v222.7L363.9,509.8c-6.9-6.9-18.2-6.9-25.1,0l-8.4,8.4c-6.9,6.9-6.9,18.2,0,25.1l145.2,145.2
	c6.9,6.9,18.2,6.9,25.1,0L646,543.3c6.9-6.9,6.9-18.2,0-25.1L637.9,509.8L637.9,509.8z"/>
</svg>
