<?xml version="1.0" encoding="utf-8"?>
<!-- Generator: Adobe Illustrator 24.0.1, SVG Export Plug-In . SVG Version: 6.00 Build 0)  -->
<svg version="1.1" id="Layer_1" focusable="false" xmlns="http://www.w3.org/2000/svg" xmlns:xlink="http://www.w3.org/1999/xlink"
	 x="0px" y="0px" viewBox="0 0 1024 1024" style="enable-background:new 0 0 1024 1024;" xml:space="preserve">
<path d="M876.9,175.1H147.1c-46.5,0-84.2,37.7-84.2,84.2v505.3c0,46.5,37.7,84.2,84.2,84.2h729.9c46.5,0,84.2-37.7,84.2-84.2V259.3
	C961.2,212.8,923.4,175.1,876.9,175.1z M147.1,231.3h729.9c15.4,0,28.1,12.6,28.1,28.1V332c-38.4,32.5-93.3,77.2-264.2,212.8
	c-29.7,23.5-88.1,80.2-128.8,79.5c-40.7,0.7-99.3-56-128.8-79.5C212.3,409.2,157.4,364.4,119,332v-72.6
	C119,243.9,131.6,231.3,147.1,231.3z M876.9,792.7H147.1c-15.4,0-28.1-12.6-28.1-28.1V405c40,32.8,103.2,83.5,229.3,183.7
	c36,28.8,99.5,92.1,163.7,91.8c63.9,0.5,126.9-62.3,163.7-91.8C801.9,488.5,865,437.8,905,405v359.7
	C905,780.1,892.4,792.7,876.9,792.7z"/>
</svg>
