<?xml version="1.0" encoding="utf-8"?>
<!-- Generator: Adobe Illustrator 24.0.1, SVG Export Plug-In . SVG Version: 6.00 Build 0)  -->
<svg version="1.1" id="Layer_1" focusable="false" xmlns="http://www.w3.org/2000/svg" xmlns:xlink="http://www.w3.org/1999/xlink"
	 x="0px" y="0px" viewBox="0 0 1024 1024" style="enable-background:new 0 0 1024 1024;" xml:space="preserve">
<path d="M112.1,854.8c0,31.6,25.5,57.1,57.1,57.1h285.7V626.3H112.1V854.8z M569.1,911.9h285.7c31.6,0,57.1-25.5,57.1-57.1V626.3
	H569.1V911.9z M911.9,340.6h-75.2c11.1-21.6,18-45.5,18-71.4c0-86.6-70.5-157.1-157.1-157.1c-74.3,0-122.3,38-183.9,121.9
	c-61.6-83.9-109.6-121.9-183.9-121.9c-86.6,0-157.1,70.5-157.1,157.1c0,25.9,6.8,49.8,18,71.4h-78.7c-31.6,0-57.1,25.5-57.1,57.1
	v142.8c0,15.7,12.9,28.6,28.6,28.6h857c15.7,0,28.6-12.9,28.6-28.6V397.7C969.1,366.1,943.5,340.6,911.9,340.6z M329.7,340.6
	c-39.5,0-71.4-32-71.4-71.4s32-71.4,71.4-71.4c35.5,0,61.8,5.9,153.7,142.8H329.7z M697.7,340.6H544
	C635.7,204,661.3,197.8,697.7,197.8c39.5,0,71.4,32,71.4,71.4S737.1,340.6,697.7,340.6z"/>
</svg>
