<?xml version="1.0" encoding="utf-8"?>
<!-- Generator: Adobe Illustrator 24.0.1, SVG Export Plug-In . SVG Version: 6.00 Build 0)  -->
<svg version="1.1" id="Layer_1" focusable="false" xmlns="http://www.w3.org/2000/svg" xmlns:xlink="http://www.w3.org/1999/xlink"
	 x="0px" y="0px" viewBox="0 0 1024 1024" style="enable-background:new 0 0 1024 1024;" xml:space="preserve">
<path d="M889.1,308.9h-71.2c17.2-24.3,27.7-54.2,27.7-87c0-80-60.6-145-135.1-145c-76.7,0-121.1,46-198.5,173.7
	C434.6,122.9,390.2,76.9,313.5,76.9c-74.5,0-135.1,65.1-135.1,145c0,32.8,10.5,62.7,27.7,87h-71.2c-48,0-87,39-87,87v174
	c0,16,13.1,29,29,29h29v261.1c0,48,39,87,87,87h638.2c48,0,87-39,87-87V599h29c16,0,29-13.1,29-29V396
	C976.1,347.9,937.1,308.9,889.1,308.9z M548.6,302.4c89.7-151,119.7-167.5,161.9-167.5c42.4,0,77.1,39,77.1,87s-34.6,87-77.1,87
	H544.6L548.6,302.4z M313.5,134.9c42.4,0,72.2,16.5,161.9,167.5l3.8,6.5H313.3c-42.4,0-77.1-39-77.1-87
	C236.4,173.9,271.1,134.9,313.5,134.9z M396,889.1H192.9c-16,0-29-13.1-29-29V599H396V889.1z M396,541H105.9V396c0-16,13.1-29,29-29
	H396V541z M570,889.1H454V367h116V889.1z M860.1,860.1c0,16-13.1,29-29,29H628V599h232.1V860.1z M918.1,541H628V367h261.1
	c16,0,29,13.1,29,29V541z"/>
</svg>
