<?xml version="1.0" encoding="utf-8"?>
<!-- Generator: Adobe Illustrator 24.0.1, SVG Export Plug-In . SVG Version: 6.00 Build 0)  -->
<svg version="1.1" id="Layer_1" focusable="false" xmlns="http://www.w3.org/2000/svg" xmlns:xlink="http://www.w3.org/1999/xlink"
	 x="0px" y="0px" viewBox="0 0 1024 1024" style="enable-background:new 0 0 1024 1024;" xml:space="preserve">
<path d="M391.4,394.7l122.8-112.6c4.4-4,10-6.2,16-6.2h149.3c6.4,0,12.3,2.5,16.8,7.1l89.7,87.3h187.1c6.5,0,11.8-5.3,11.8-11.8
	v-23.6c0-6.5-5.3-11.8-11.8-11.8H805.3l-75.7-73.7c-13.4-13.4-31.2-20.8-50.1-20.8H530.3c-15.4,0-29.7,5.8-41.8,14.8
	c-12.4-9.6-27.6-15.2-43.3-15.2H342.5c-18.8,0-36.8,7.5-50.2,20.8l-73.7,74H50.9c-6.5,0-11.8,5.3-11.8,11.8v23.6
	c0,6.5,5.3,11.8,11.8,11.8H238l87.6-87.6c4.4-4.4,10.5-6.9,16.7-6.9h102.7c1.3,3.3,0.4,1,1.6,4.3l-87.2,80
	c-41.7,38.3-43.7,102.3-6.2,143.2c21.1,23.1,86.6,58.1,143.2,6.2l33.7-30.9l185.6,150.6c10,8.1,11.7,23.2,3.4,33.3l-14,17.3
	c-8,9.8-22.8,12-33.3,3.4l-26.3-21.3L584.3,737c-11.1,13.7-31,15.1-43.4,5l-45.2-38.6l-15.4,18.9c-24.7,30.3-69.5,35-98.4,11.7
	L248.9,606.8h-198c-6.5,0-11.8,5.3-11.8,11.8v23.6c0,6.5,5.3,11.8,11.8,11.8H230l120.4,115.3c44,35.6,106.1,34.6,149.3-0.3l10.6,9.2
	c14.2,11.5,31.5,17.6,49.5,17.6c23.6,0,46-10.3,61.2-29l32.4-39.8c24.2,13.2,63.4,13.3,88.7-17.7l14-17.3
	c9.2-11.2,14.2-24.5,15.5-38h201.4c6.5,0,11.8-5.3,11.8-11.8v-23.6c0-6.5-5.3-11.8-11.8-11.8H758.5c-3.7-5.2-7.8-10.2-13-14.5
	L565.3,446l42-38.6c9.6-8.9,10.3-23.8,1.5-33.4c-8.9-9.6-23.8-10.2-33.4-1.5l-111,101.7c-21.3,19.4-57,17.7-76.4-3.3
	C368.1,449.2,369.4,415,391.4,394.7L391.4,394.7z"/>
</svg>
