<?xml version="1.0" encoding="utf-8"?>
<!-- Generator: Adobe Illustrator 24.0.1, SVG Export Plug-In . SVG Version: 6.00 Build 0)  -->
<svg version="1.1" id="Layer_1" focusable="false" xmlns="http://www.w3.org/2000/svg" xmlns:xlink="http://www.w3.org/1999/xlink"
	 x="0px" y="0px" viewBox="0 0 1024 1024" style="enable-background:new 0 0 1024 1024;" xml:space="preserve">
<path d="M500.1,344L212.7,580.7v255.5c0,13.8,11.2,24.9,24.9,24.9l174.7-0.5c13.7-0.1,24.8-11.2,24.8-24.9V686.6
	c0-13.8,11.2-24.9,24.9-24.9h99.8c13.8,0,24.9,11.2,24.9,24.9v149.1c0,13.8,11.1,25,24.9,25c0,0,0.1,0,0.1,0l174.6,0.5
	c13.8,0,24.9-11.2,24.9-24.9V580.6L524,344C517,338.4,507.1,338.4,500.1,344L500.1,344z M954.1,504.9L823.8,397.5V181.6
	c0-10.3-8.4-18.7-18.7-18.7h-87.3c-10.3,0-18.7,8.4-18.7,18.7v113.2L559.5,180c-27.6-22.7-67.5-22.7-95.1,0l-394.6,325
	c-8,6.6-9.1,18.4-2.5,26.3c0,0,0,0,0,0l39.7,48.3c6.6,8,18.4,9.1,26.3,2.6c0,0,0,0,0,0l366.7-302c7-5.6,16.9-5.6,23.8,0l366.7,302
	c8,6.6,19.8,5.5,26.3-2.5c0,0,0,0,0,0l39.7-48.3C963.3,523.3,962.1,511.5,954.1,504.9C954.1,505,954.1,504.9,954.1,504.9
	L954.1,504.9z"/>
</svg>
