<?xml version="1.0" encoding="utf-8"?>
<!-- Generator: Adobe Illustrator 24.0.1, SVG Export Plug-In . SVG Version: 6.00 Build 0)  -->
<svg version="1.1" id="Layer_1" focusable="false" xmlns="http://www.w3.org/2000/svg" xmlns:xlink="http://www.w3.org/1999/xlink"
	 x="0px" y="0px" viewBox="0 0 1024 1024" style="enable-background:new 0 0 1024 1024;" xml:space="preserve">
<path d="M139.1,167.9h236.6c11.8,0,21.5,9.7,21.5,21.5v14.3c0,11.8-9.7,21.5-21.5,21.5H139.1c-15.8,0-28.7,12.9-28.7,28.7v516.2
	c0,15.8,12.9,28.7,28.7,28.7h236.6c11.8,0,21.5,9.7,21.5,21.5v14.3c0,11.8-9.7,21.5-21.5,21.5H139.1c-47.5,0-86-38.5-86-86V253.9
	C53.1,206.4,91.6,167.9,139.1,167.9z M639.2,202.8l-12.7,12.7c-8.4,8.4-8.4,22,0,30.5l236.6,235.5H361.4c-11.8,0-21.5,9.7-21.5,21.5
	V521c0,11.8,9.7,21.5,21.5,21.5h501.7L626.7,778c-8.4,8.4-8.4,22,0,30.5l12.7,12.7c8.4,8.4,22,8.4,30.5,0l294.8-294
	c8.4-8.4,8.4-22,0-30.5l-295-294C661.3,194.4,647.6,194.4,639.2,202.8z"/>
</svg>
