<?xml version="1.0" encoding="utf-8"?>
<!-- Generator: Adobe Illustrator 24.0.1, SVG Export Plug-In . SVG Version: 6.00 Build 0)  -->
<svg version="1.1" id="Layer_1" focusable="false" xmlns="http://www.w3.org/2000/svg" xmlns:xlink="http://www.w3.org/1999/xlink"
	 x="0px" y="0px" viewBox="0 0 1024 1024" style="enable-background:new 0 0 1024 1024;" xml:space="preserve">
<path d="M606.6,512l285.9-285.9l59-59c8.7-8.7,8.7-22.8,0-31.5l-63.1-63.1c-8.7-8.7-22.8-8.7-31.5,0L512,417.4L167.2,72.5
	c-8.7-8.7-22.8-8.7-31.5,0l-63.1,63.1c-8.7,8.7-8.7,22.8,0,31.5L417.4,512L72.5,856.9c-8.7,8.7-8.7,22.8,0,31.5l63.1,63.1
	c8.7,8.7,22.8,8.7,31.5,0L512,606.6l285.9,285.9l59,59c8.7,8.7,22.8,8.7,31.5,0l63.1-63.1c8.7-8.7,8.7-22.8,0-31.5L606.6,512z"/>
</svg>
