<?xml version="1.0" encoding="utf-8"?>
<!-- Generator: Adobe Illustrator 24.0.1, SVG Export Plug-In . SVG Version: 6.00 Build 0)  -->
<svg version="1.1" id="Layer_1" focusable="false" xmlns="http://www.w3.org/2000/svg" xmlns:xlink="http://www.w3.org/1999/xlink"
	 x="0px" y="0px" viewBox="0 0 1024 1024" style="enable-background:new 0 0 1024 1024;" xml:space="preserve">
<path d="M512,58.5c-250.5,0-453.5,203-453.5,453.5s203,453.5,453.5,453.5s453.5-203,453.5-453.5S762.5,58.5,512,58.5z M512,907
	c-217.8,0-395-177.2-395-395s177.2-395,395-395s395,177.2,395,395S729.8,907,512,907z M585.7,502.3L454,465.4
	c-22.1-6.2-37.7-26.3-37.7-48.8c0-28,23.4-50.8,52.1-50.8h82.3c20.5,0,40,6.6,56,18.5c5.9,4.4,13.9,3.7,19-1.5l20.7-21
	c6.2-6.2,5.5-16.5-1.5-21.9c-26.7-21.2-59.6-32.7-94.4-32.7h-9.3v-73.1c0-8-6.6-14.6-14.6-14.6h-29.3c-8,0-14.6,6.6-14.6,14.6V307
	h-14.3c-60.9,0-110.6,49-110.6,109.4c0,48.6,33.1,91.8,80.3,105.2l131.7,36.9c22.1,6.2,37.7,26.3,37.7,48.8
	c0,28-23.4,50.8-52.1,50.8H473c-20.5,0-40-6.6-56-18.5c-5.9-4.4-13.9-3.7-19,1.5l-20.7,21c-6.2,6.2-5.5,16.5,1.5,21.9
	c26.7,21.2,59.6,32.7,94.4,32.7h9.5V790c0,8,6.6,14.6,14.6,14.6h29.3c8,0,14.6-6.6,14.6-14.6v-73.1h14.3
	c60.9,0,110.6-49,110.6-109.4C666,558.8,633.1,515.7,585.7,502.3L585.7,502.3z"/>
</svg>
