<?xml version="1.0" encoding="utf-8"?>
<!-- Generator: Adobe Illustrator 24.0.1, SVG Export Plug-In . SVG Version: 6.00 Build 0)  -->
<svg version="1.1" id="Layer_1" focusable="false" xmlns="http://www.w3.org/2000/svg" xmlns:xlink="http://www.w3.org/1999/xlink"
	 x="0px" y="0px" viewBox="0 0 1024 1024" style="enable-background:new 0 0 1024 1024;" xml:space="preserve">
<path d="M512,66C265.6,66,66,265.6,66,512s199.6,446,446,446s446-199.6,446-446S758.4,66,512,66z M512,238.6
	c87.4,0,158.3,70.9,158.3,158.3S599.4,555.2,512,555.2s-158.3-70.9-158.3-158.3S424.6,238.6,512,238.6z M512,857.3
	c-105.6,0-200.2-47.8-263.5-122.7c33.8-63.7,100-107.5,177.1-107.5c4.3,0,8.6,0.7,12.8,2c23.4,7.6,47.8,12.4,73.6,12.4
	s50.4-4.9,73.6-12.4c4.1-1.3,8.5-2,12.8-2c77.2,0,143.3,43.9,177.1,107.5C712.2,809.5,617.6,857.3,512,857.3z"/>
</svg>
