<?xml version="1.0" encoding="utf-8"?>
<!-- Generator: Adobe Illustrator 24.0.1, SVG Export Plug-In . SVG Version: 6.00 Build 0)  -->
<svg version="1.1" id="Layer_1" focusable="false" xmlns="http://www.w3.org/2000/svg" xmlns:xlink="http://www.w3.org/1999/xlink"
	 x="0px" y="0px" viewBox="0 0 1024 1024" style="enable-background:new 0 0 1024 1024;" xml:space="preserve">
<path d="M512,512c125.1,0,226.5-101.4,226.5-226.5S637.1,59,512,59S285.5,160.4,285.5,285.5S386.9,512,512,512z M670.5,568.6H641
	c-39.3,18-83,28.3-129,28.3s-89.5-10.3-129-28.3h-29.5c-131.3,0-237.8,106.5-237.8,237.8V880c0,46.9,38,84.9,84.9,84.9h622.8
	c46.9,0,84.9-38,84.9-84.9v-73.6C908.3,675.1,801.8,568.6,670.5,568.6z"/>
</svg>
