<?xml version="1.0" encoding="utf-8"?>
<!-- Generator: Adobe Illustrator 24.0.1, SVG Export Plug-In . SVG Version: 6.00 Build 0)  -->
<svg version="1.1" id="Layer_1" focusable="false" xmlns="http://www.w3.org/2000/svg" xmlns:xlink="http://www.w3.org/1999/xlink"
	 x="0px" y="0px" viewBox="0 0 1024 1024" style="enable-background:new 0 0 1024 1024;" xml:space="preserve">
<path d="M1011,460.8H870.2V320c0-7.1-5.8-12.9-12.9-12.9h-25.6c-7.1,0-12.9,5.8-12.9,12.9v140.8H678.4c-7.1,0-12.9,5.8-12.9,12.9
	v25.6c0,7.1,5.8,12.9,12.9,12.9h140.7v140.8c0,7.1,5.8,12.9,12.9,12.9h25.6c7.1,0,12.9-5.8,12.9-12.9V512h140.8
	c7.1,0,12.9-5.8,12.9-12.9v-25.6C1023.8,466.6,1018.1,460.8,1011,460.8z M501.8,563.2c-45.9,0-68,25.6-143.3,25.6
	s-97.2-25.6-143.3-25.6c-118.7,0-215,96.3-215,215v66.5c0,42.4,34.3,76.8,76.8,76.8H640c42.4,0,76.8-34.3,76.8-76.8v-66.5
	C716.7,659.5,620.5,563.2,501.8,563.2z M665.5,844.7c0,14.1-11.5,25.6-25.6,25.6H77c-14.1,0-25.6-11.5-25.6-25.6v-66.5
	c0-90.4,73.5-163.8,163.8-163.8c31.4,0,62.6,25.6,143.3,25.6c80.6,0,111.9-25.6,143.3-25.6c90.4,0,163.8,73.5,163.8,163.8V844.7z
	 M358.5,512c113,0,204.7-91.7,204.7-204.7s-91.7-204.7-204.7-204.7s-204.7,91.7-204.7,204.7S245.4,512,358.5,512z M358.5,153.7
	c84.6,0,153.5,68.9,153.5,153.5s-68.9,153.5-153.5,153.5s-153.5-68.9-153.5-153.5S273.8,153.7,358.5,153.7z"/>
</svg>
