<?xml version="1.0" encoding="utf-8"?>
<!-- Generator: Adobe Illustrator 24.0.1, SVG Export Plug-In . SVG Version: 6.00 Build 0)  -->
<svg version="1.1" id="Layer_1" focusable="false" xmlns="http://www.w3.org/2000/svg" xmlns:xlink="http://www.w3.org/1999/xlink"
	 x="0px" y="0px" viewBox="0 0 1024 1024" style="enable-background:new 0 0 1024 1024;" xml:space="preserve">
<path d="M400.9,230.5L265.5,365.9H110.2c-20.2,0-36.5,16.3-36.5,36.5v219.2c0,20.2,16.3,36.5,36.5,36.5h155.3l135.4,135.4
	c22.9,22.9,62.4,6.8,62.4-25.8V256.3C463.3,223.7,423.8,207.6,400.9,230.5z M756.1,152.7c-17-11.2-39.8-6.5-51,10.6
	c-11.2,17-6.4,39.8,10.6,51C816.5,280.5,876.7,391.8,876.7,512s-60.2,231.5-161.1,297.7c-17,11.1-21.8,34-10.6,51
	c10.7,16.3,33.4,22.2,51,10.6C877.7,791.4,950.4,657.1,950.4,512S877.7,232.6,756.1,152.7z M804.2,512
	c0-96.7-48.8-185.6-130.5-237.8c-17-10.9-39.6-5.8-50.4,11.4c-10.8,17.2-5.8,39.9,11.3,50.8c60.5,38.6,96.6,104.3,96.6,175.7
	s-36.1,137-96.6,175.7c-17,10.9-22.1,33.6-11.3,50.8c9.9,15.8,32.1,23,50.4,11.4C755.4,697.6,804.2,608.7,804.2,512z M588.5,395
	c-17.6-9.6-39.9-3.3-49.6,14.4c-9.7,17.7-3.3,39.9,14.4,49.6c19.7,10.8,31.9,31.1,31.9,53c0,21.9-12.2,42.2-31.8,53
	c-17.7,9.8-24.1,32-14.4,49.6c9.8,17.7,32,24,49.6,14.4c43-23.7,69.7-68.5,69.7-117S631.4,418.6,588.5,395L588.5,395z"/>
</svg>
