<?xml version="1.0" encoding="utf-8"?>
<!-- Generator: Adobe Illustrator 24.0.1, SVG Export Plug-In . SVG Version: 6.00 Build 0)  -->
<svg version="1.1" id="Layer_1" focusable="false" xmlns="http://www.w3.org/2000/svg" xmlns:xlink="http://www.w3.org/1999/xlink"
	 x="0px" y="0px" viewBox="0 0 1024 1024" style="enable-background:new 0 0 1024 1024;" xml:space="preserve">
<path d="M744,512c-32,0-58,26-58,58s26,58,58,58s58-26,58-58S776.1,512,744,512z M889.1,221.9h-29v-29c0-48.1-39-87-87-87H221.9
	c-96.1,0-174,77.9-174,174V744c0,96.1,77.9,174,174,174h638.1c64.1,0,116-51.9,116-116V309C976.1,260.9,937.1,221.9,889.1,221.9z
	 M918.1,802.1c0,32-26,58-58,58H221.9c-64,0-116-52-116-116V280c0-64,52-116,116-116h551.1c16,0,29,13,29,29v29H250.9
	c-16,0-29,13-29,29s13,29,29,29h638.1c16,0,29,13,29,29V802.1z"/>
</svg>
