<?xml version="1.0" encoding="utf-8"?>
<!-- Generator: Adobe Illustrator 24.0.1, SVG Export Plug-In . SVG Version: 6.00 Build 0)  -->
<svg version="1.1" id="Layer_1" xmlns="http://www.w3.org/2000/svg" xmlns:xlink="http://www.w3.org/1999/xlink" x="0px" y="0px"
	 viewBox="0 0 1024 1024" style="enable-background:new 0 0 1024 1024;" xml:space="preserve">
<path id="Symbols" d="M272.9,100.3c-4,2.6-8,5.4-12,8C267.6,108.3,271.6,105.7,272.9,100.3 M683.2,272.8c-5.4-2.6-12-4-17.4-6.8v1.4
	l17.4,6.8C683.2,274,683.2,274,683.2,272.8 M918.3,351.6c8,0,10.7-4,10.7-12C926.5,342.2,922.5,346.2,918.3,351.6 M402.5,68.2
	c1.4,0,4,0,4-1.4c0-1.4,0-4-1.4-4c-2.6-2.6-6.8-4-12,0C397.2,65.6,399.9,66.9,402.5,68.2 M512.2,71c0,1.4,2.6,1.4,4,2.6
	c0-1.4,1.4-4,0-4c-2.6-4-6.8-9.4-9.4-14.7C504.2,62.9,509.4,66.9,512.2,71 M497.4,21.6c0,4,5.4,10.7,10.7,10.7c-8-12-8-12,0-17.4
	C501.4,16.2,498.8,17.4,497.4,21.6 M418.7,54.9c0-1.4,0-2.6-1.4-4c-1.4-1.4-2.6-1.4-4-1.4c-2.6,1.4-4,4-5.4,6.8c0,0,2.6,2.6,4,4
	c1.4,1.4,2.6,1.4,4,1.4C417.3,60.3,418.7,57.5,418.7,54.9 M387.8,80.2c0,1.4,2.6,1.4,2.6,2.6c0-1.4,1.4-2.6,1.4-4
	c0-5.4-2.6-12,0-17.4c0,0-1.4-1.4-1.4-2.6C383.8,65.6,383.8,72.2,387.8,80.2 M259.6,824.7c1.4,0,4,0,5.4,0c2.6,0,6.8,0,6.8-4
	c0-2.6-4-5.4-5.4-5.4c-4,0-9.4,0-13.4,0c-1.4,0-2.6,1.4-4,2.6c1.4,1.4,2.6,4,4,5.4C252.8,824.7,257,824.7,259.6,824.7L259.6,824.7
	 M474.7,538.7c-2.6-6.8-8-6.8-13.4-2.6c-2.6,1.4-6.8-1.4-6.8-5.4c0-2.6,0-6.8,1.4-9.4c1.4-5.4,0-12,5.4-16c5.4-4,5.4-6.8,0-12
	c-2.6-2.6-5.4-6.8-9.4-10.7c-1.4-2.6-2.6-5.4-5.4-6.8c-4-2.6-8-2.6-13.4-5.4c-1.4,4-4,8-5.4,12c-1.4,9.4,0,17.4-1.4,26.7
	c-1.4,16-4,30.7-5.4,46.8c0,4-1.4,5.4-5.4,6.8c-6.8,2.6-13.4,6.8-20.1,9.4c-1.4,0-4-1.4-5.4-2.6c-1.4-1.4,0-2.6,0-6.8
	c-6.8,6.8-12,13.4-17.4,18.7c0,2.6,1.4,5.4,1.4,8c1.4,4,1.4,9.4,2.6,13.4c0,1.4,0,2.6,1.4,4c1.4,2.6,2.6,5.4,5.4,6.8
	c2.6,1.4,4,0,4-4h1.4c5.4-1.4,12-4,17.4-5.4c2.6,0,6.8,0,10.7,0c0,6.8,1.4,12,0,17.4c-2.6,13.4-2.6,28.1-1.4,41.5
	c0,5.4,1.4,10.7-1.4,14.7c-4,8-2.6,17.4,0,24.1c2.6,8,9.4,16,18.7,20.1c2.6,1.4,4,1.4,6.8,1.4c0-2.6,1.4-5.4,1.4-8c0-4-2.6-8-2.6-12
	c1.4-14.7-4-30.7,5.4-44.1c2.6-4,2.6-9.4,4-14.7c0-1.4,1.4-1.4,2.6-1.4c-1.4-1.4-1.4-2.6-4-4c10.7,1.4,4-8,9.4-10.7
	c-1.4-1.4-2.6-1.4-4-1.4c2.6-4,4-6.8,6.8-9.4c0-2.6,0-4,0-6.8c0,0-1.4,0-2.6,1.4c1.4-4,2.6-8,4-12h-1.4c-8,13.4-16,26.7-22.7,40.1
	c0-4-1.4-8-1.4-13.4c0-13.4,0-25.3,1.4-38.7c0-2.6-1.4-8,4-9.4c0,0,0-2.6,0-4c0,0,0,0,1.4,0c8-4,16-9.4,25.3-13.4
	c2.6-1.4,5.4-4,6.8-2.6c4,2.6,4,0,4-2.6c0-4,1.4-6.8,1.4-9.4c1.4,0,4,1.4,5.4,1.4c0-2.6-1.4-4,0-5.4s2.6-2.6,4-4l-1.4-1.4
	c-2.6,2.6-4,5.4-6.8,8C476.1,541.4,474.7,540,474.7,538.7 M525.5,637.6c-4,1.4-8,4-12,5.4C522.8,642.9,524.2,642.9,525.5,637.6
	 M528.1,526.6c-9.4,2.6-10.7,4-10.7,9.4C520.2,533.4,524.2,530.6,528.1,526.6 M529.5,568.1c4-1.4,8-2.6,13.4-5.4
	c-2.6-2.6-5.4-4-6.8-5.4C534.9,561.5,532.1,564.1,529.5,568.1 M529.5,582.8c1.4,2.6,1.4,5.4,2.6,8c1.4,2.6,4,4,5.4,5.4
	c0-1.4,0-2.6,0-2.6c1.4,0,2.6,1.4,4,1.4C545.5,585.4,540.3,580.1,529.5,582.8 M577.6,570.7c-5.4,2.6-10.7,4-13.4,8
	c-2.6,2.6-1.4,8-4,12C567,586.8,577.6,584,577.6,570.7 M544.3,521.2c-4-1.4-9.4,0-9.4,4c-1.4,8-6.8,13.4-9.4,20.1c0,0,0,0,0,1.4
	c4-2.6,6.8-8,10.7-9.4C542.9,533.4,544.3,528,544.3,521.2 M585.6,546.7c0-2.6,0-5.4,0-9.4c0-5.4-1.4-6.8-8-4c-2.6,1.4-4,1.4-6.8,1.4
	c-5.4,0-8,2.6-8,8c1.4,0,2.6,0,2.6,0c0,5.4,2.6,4,5.4,4C577.6,546.7,581.6,546.7,585.6,546.7 M534.9,620.1
	c-5.4-6.8-10.7-13.4-17.4-21.3c-1.4,5.4-2.6,8-2.6,10.7c1.4,1.4,2.6,1.4,2.6,2.6s0,2.6-1.4,4c-4,1.4-2.6,4-1.4,6.8
	c0,1.4,1.4,2.6,1.4,5.4C522.8,626.9,529.5,624.3,534.9,620.1 M512.2,671h1.4c-5.4,6.8-2.6,14.7,1.4,20.1c4,6.8,8,12,13.4,16
	c4,2.6,10.7,2.6,14.7,5.4c4,1.4,6.8,2.6,9.4,4c2.6,1.4,21.3-1.4,22.7-4l1.4-1.4c1.4-5.4,2.6-9.4,2.6-14.7c1.4-16,1.4-30.7,2.6-46.8
	c0-2.6,0-5.4,0-8c2.6-8,1.4-17.4-1.4-25.3c0-1.4-2.6-2.6-4-2.6c-5.4,1.4-9.4,2.6-14.7,4c-5.4,2.6-12,4-17.4,6.8
	c-1.4,0-2.6,1.4-4,2.6c-2.6,1.4-5.4,4-9.4,5.4c-1.4,1.4-4,1.4-5.4,2.6v1.4c4,0,6.8,0,10.7-1.4v1.4c-1.4,0-2.6,0-4,0
	c9.4,0,18.7,2.6,25.3,9.4c4,2.6,6.8,5.4,6.8,10.7c0,2.6,0,5.4,1.4,6.8c1.4,5.4-2.6,12-9.4,12c-6.8,1.4-9.4-4-13.4-8
	c-4-4-6.8-9.4-13.4-10.7c-2.6,0-5.4-4-8-6.8c-1.4,1.4-4,2.6-6.8,5.4c-2.6,1.4-5.4,4-8,6.8c-1.4,2.6-1.4,6.8-2.6,9.4h1.4
	C512.2,673.7,512.2,672.3,512.2,671 M489.5,656.2c-2.6,1.4-5.4,4-8,5.4c0,0,0-1.4-1.4-1.4c1.4-1.4,4-2.6,6.8-4
	c-22.7,6.8-24.1,5.4-36.1-12c8-6.8,17.4-13.4,26.7-18.7c0,0,0,0,1.4,0c-2.6,4-5.4,6.8-8,10.7c0,0,0,0,0,1.4c9.4-4,18.7-8,26.7-12
	c-2.6-6.8-4-12-6.8-17.4c-2.6-6.8-5.4-13.4-8-18.7c0-1.4,0-2.6,0-2.6c6.8-2.6,5.4-8,6.8-13.4c2.6-6.8,4-14.7,6.8-21.3
	c4-9.4,4-13.4,2.6-24.1c-1.4,0-2.6,0-6.8,1.4c5.4-4,9.4-6.8,13.4-10.7c1.4-1.4,4-2.6,4-5.4c4-12,8-24.1,10.7-36.1
	c0-2.6,1.4-4,2.6-6.8c-2.6,13.4-9.4,26.7-8,42.7h1.4c8-5.4,16-9.4,25.3-14.7c1.4-1.4,4-4,4-5.4c1.4-9.4,1.4-18.7,2.6-26.7
	c0-8-4-10.7-10.7-9.4c-2.6,0-4,1.4-6.8,1.4c2.6-8,13.4-10.7,20.1-6.8c5.4,4,12,9.4,17.4,13.4c2.6,2.6,5.4,5.4,6.8,8
	c2.6,2.6,2.6,5.4-1.4,8c-1.4,1.4-1.4,4-1.4,6.8c0,1.4,4,2.6,4,2.6c8-5.4,16-5.4,24.1,1.4c1.4,1.4,2.6,1.4,5.4,2.6c0-4,0-6.8,0-9.4
	c1.4-2.6,2.6-5.4,5.4-6.8c1.4-1.4,5.4,1.4,6.8,2.6c12,10.7,20.1,22.7,18.7,38.7c0,5.4-2.6,10.7-4,16c-5.4,0-10.7,0-12-6.8
	c0-1.4-2.6-2.6-5.4-4c-1.4-1.4-5.4-4-5.4-6.8c4-8,0-8-4-8c-5.4,0-12-1.4-17.4-1.4c-2.6,0-5.4,0-6.8,0c-1.4,8-1.4,6.8,5.4,10.7
	c10.7,6.8,21.3,13.4,28.1,24.1c4,6.8,0,12-1.4,17.4c-2.6,8-5.4,14.7-8,22.7c1.4,0,1.4,1.4,0,2.6c0,1.4,0,2.6,0,2.6c0,2.6,0,4,0,6.8
	c8-1.4,16-1.4,24.1-2.6c9.4-1.4,17.4,2.6,25.3,5.4c1.4,1.4,2.6,4,4,6.8c0,0-2.6,2.6-4,2.6c-6.8,0-14.7,1.4-21.3,1.4c-4,0-8,0-12,0
	c-5.4,0-9.4,0-14.7,1.4c1.4,4,2.6,8,2.6,12c-6.8,2.6-9.4,6.8-9.4,13.4c0,13.4-1.4,26.7-1.4,41.5c0,1.4,1.4,2.6,2.6,4
	c1.4,2.6,2.6,4,1.4,6.8c0,4-2.6,9.4-2.6,13.4c0,5.4,1.4,12,0,17.4c0,1.4-2.6,2.6-4,5.4c0,0,0,1.4,1.4,2.6
	c-17.4,1.4-33.5,1.4-49.4-2.6c-4-1.4-8-2.6-12-5.4c-6.8-4-14.7-9.4-21.3-13.4c-6.8-4-9.4-12-13.4-20.1c-1.4-4-5.4-8-6.8-12
	c-1.4-2.6-1.4-6.8-1.4-9.4C492.1,663,490.8,659,489.5,656.2c1.4,0,2.6,1.4,2.6,1.4c2.6-4,4-6.8,6.8-9.4
	C497.4,646.9,490.8,652.2,489.5,656.2 M290.3,311.5c-10.7,2.6-13.4,6.8-9.4,12C288.9,320.8,290.3,319.5,290.3,311.5 M338.3,378.3
	c1.4-2.6,4-5.4,5.4-8c2.6-4,0-10.7-4-12c-2.6-1.4-6.8-2.6-10.7-4C327.8,358.3,333.1,372.9,338.3,378.3 M274.3,349
	c-2.6-1.4-5.4-1.4-8-2.6c-5.4-4-9.4-2.6-12,1.4c-2.6,2.6-4,4-9.4,2.6c-1.4,0-4,1.4-6.8,2.6c1.4,1.4,1.4,4,4,5.4c2.6,1.4,5.4,2.6,8,4
	c1.4,0,4,1.4,4,0c5.4-4,9.4-6.8,14.7-10.7C271.6,351.6,272.9,350.2,274.3,349 M419.9,339.6c-2.6,0-5.4-2.6-6.8-1.4
	c-6.8,4-12,8-18.7,12c-2.6,1.4-4,4-1.4,6.8c2.6,2.6,5.4,8,9.4,4c6.8-6.8,13.4-13.4,20.1-20.1c2.6-2.6,1.4-2.6-2.6-4
	C421.3,336.8,419.9,338.2,419.9,339.6 M275.5,394.4c0,2.6,0,5.4,0,9.4c1.4,4,2.6,9.4,4,13.4c1.4,6.8,5.4,9.4,10.7,6.8
	c10.7-5.4,20.1-10.7,29.3-20.1C303.6,405,290.3,398.4,275.5,394.4 M315.6,358.3c1.4-8-6.8-14.7-14.7-9.4c-8,4-16,9.4-20.1,18.7
	c-2.6,6.8,0,12,6.8,13.4C299.7,382.3,317,371.7,315.6,358.3 M272.9,430.5c-2.6-1.4-5.4-1.4-5.4-2.6c-8-10.7-20.1-18.7-17.4-34.7
	c0-1.4,0-1.4,0-2.6c-4-6.8-4-12-2.6-20.1c0-1.4-1.4-4-2.6-5.4c0,0-4,1.4-5.4,2.6c-1.4,1.4-2.6,4-4,5.4c-6.8,9.4-6.8,21.3-8,32.1
	c-1.4,6.8-2.6,12,1.4,18.7c2.6,4,5.4,9.4,9.4,13.4c0,1.4,1.4,2.6,2.6,1.4c5.4-1.4,10.7-1.4,16-2.6c2.6,0,5.4-2.6,6.8-2.6
	C264.9,433.1,268.9,431.7,272.9,430.5 M243.5,310.1c-9.4,2.6-9.4,2.6-13.4-5.4c-2.6-5.4-4-10.7-5.4-17.4c-1.4-2.6-1.4-5.4-1.4-9.4
	c-1.4-5.4,1.4-9.4,6.8-10.7c5.4-2.6,10.7-5.4,16-8c10.7-6.8,22.7-13.4,34.7-18.7c9.4-4,18.7-5.4,29.3-6.8c4-1.4,9.4-1.4,13.4-2.6
	c13.4-4,18.7,4,25.3,13.4c1.4,2.6,2.6,6.8,4,10.7c-6.8,0-12,1.4-17.4,1.4c-8,1.4-16,2.6-22.7,4c-10.7,0-18.7,6.8-26.7,13.4
	c-6.8,5.4-14.7,10.7-21.3,17.4c2.6-1.4,5.4-1.4,6.8-2.6c1.4-1.2,4-1.4,5.4-2.6c9.4-4,18.7-8,29.3-12c2.6-1.4,6.8-1.4,9.4,0
	c6.8,2.6,13.4,6.8,20.1,10.7c2.6,1.4,4,4,5.4,5.4c-5.4,8-10.7,14.7-17.4,22.7c9.4,4,9.4,12,10.7,20.1c4,0,10.7-6.8,12-12
	c2.6-8,5.4-17.4,9.4-25.3c2.6-5.4,6.8-12,9.4-17.4c6.8-10.7,10.7-22.7,16-34.7c4-10.7,4-21.3,2.6-33.5c8-1.4,13.4,2.6,17.4,10.7
	c2.6,5.4,5.4,12,8,17.4c2.6,4,4,8,0,12c-4,2.6-5.4,8-5.4,13.4c0,5.4-4,9.4-6.8,14.7c-2.6,5.4-5.4,10.7-8,16
	c-1.4,2.6-5.4,5.4-6.8,9.4c-1.4,2.6-2.6,6.8-4,9.4c-2.6,5.4-6.8,10.7-9.4,17.4l1.4,1.4c6.8-4,13.4-8,20.1-12
	c10.7-6.8,22.7-12,34.7-17.4c14.7-5.4,30.7,2.6,34.7,17.4c2.6,8,6.8,12,12,16c1.4,1.4,2.6,2.6,4,4c4,5.4,2.6,8-2.6,9.4
	c-4,1.4-8,0-10.7,0c-5.4,0-9.4,4-14.7,5.4c-1.4,0-1.4,1.4-1.4,2.6c-9.4,5.4-18.7,10.7-28.1,14.7c4,6.8,4,9.4-5.4,13.4
	c-4,2.6-6.8,9.4-2.6,13.4c4,4,6.8,8,12,12c2.6,2.6,8,2.6,12,4c10.7,2.6,20.1,4,30.7,6.8c6.8,1.4,12,4,18.7,6.8
	c1.4,0,1.4,1.4,1.4,2.6c5.4,12,10.7,24.1,16,36.1c1.4,5.4,2.6,10.7,4,16c-12,1.4-21.3-4-29.3-9.4c-10.7-6.8-20.1-14.7-29.3-21.3
	c-2.6-1.4-5.4-2.6-9.4-4c-9.4-4-17.4-12-24.1-20.1c-4-5.4-6.8-12-9.4-17.4c-1.4-1.4-1.4-2.6-2.6-6.8c-4,5.4-6.8,10.7-9.4,14.7
	c-2.6,5.4-5.4,10.7-8,16c0,1.4-1.4,2.6-1.4,4c-5.4,8-12,16-17.4,24.1c-5.4,9.4-14.7,14.7-21.3,22.7c-5.4,5.4-12,5.4-20.1,5.4
	c-12-1.4-21.3-5.4-32.1-10.7c-1.4-1.4-4-4-4-4c1.4-2.6,1.4-6.8,6.8-6.8c1.4,0,4-1.4,6.8-2.6c6.8-2.6,14.7-5.4,21.3-6.8
	c8-2.6,12-9.4,16-14.7c4-4,8-8,12-13.4c6.8-10.7,13.4-22.7,20.1-33.5c2.6-5.4,6.8-12,8-18.7c1.4-5.4,6.8-10.7,1.4-16
	c-1.4-2.6,0-6.8,0-9.4c-2.6-2.6-6.8-4-9.4-6.8c-4-4-8-2.6-12,1.4c-6.8,5.4-5.4,13.4-5.4,20.1c0,5.4,0,10.7,0,16c0,2.6,1.4,4,1.4,6.8
	c0,1.4,1.4,1.4,0,2.6c-1.4,5.4-4,9.4-5.4,14.7c-1.4,5.4-2.6,9.4-4,14.7c0,1.4-1.4,4-1.4,4c-8,4-14.7,6.8-22.7,10.7
	c-12,6.8-24.1,13.4-36.1,18.7c-9.4,4-20.1,9.4-29.3,10.7c-9.4,1.4-18.7-4-25.3-10.7c-8-6.8-12-13.4-14.7-22.7
	c-2.6-6.8-6.8-13.4-8-20.1c-1.4-8-2.6-16-1.4-24.1c1.4-14.7,5.4-29.3,10.7-42.7c0-1.4-1.4-4-1.4-5.4c-5.4-5.4-10.7-12-6.8-18.7
	c2.6-5.4,12-8,18.7-2.6c4,2.6,8,5.4,12,8c1.4,0,2.6,1.4,4,0c0,0,1.4-1.4,1.4-2.6c0-4,1.4-8,1.4-10.7
	C244.8,314.1,243.5,311.5,243.5,310.1 M334.4,152.4c0-1.4,0-2.6,0-4c-2.6,0-5.4,1.4-9.4,1.4c0,1.4,0,1.4,0,2.6
	C329,152.4,331.7,152.4,334.4,152.4 M501.4,100.3c-6.8,1.4-13.4,4-20.1,5.4c4,2.6,6.8,4,9.4,5.4
	C494.8,107.1,497.4,104.3,501.4,100.3 M822.2,349c0,0-1.4-1.4-2.6-4c-2.6,4-5.4,6.8-8,10.7c0,0,1.4,2.6,2.6,2.6
	C819.5,358.3,822.2,354.3,822.2,349 M545.5,233.9c6.8-8,8-12,5.4-17.4C544.3,222,542.9,228.6,545.5,233.9 M732.7,326.2
	c-2.6-2.6-4-4-6.8-5.4s-6.8-1.4-5.4,2.6c0,5.4,1.4,10.7,4,14.7c2.6,5.4,6.8,4,9.4-1.4C727.3,334.2,727.3,332.8,732.7,326.2
	 M580.4,143c0-6.8,2.6-6.8,6.8-5.4c4,1.4,8,4,12,5.4c1.4,0,4,0,5.4,0c0-1.4,0-4-1.4-5.4c-2.6-2.6-5.4-4-8-6.8
	c-2.6-1.4-6.8-2.6-9.4-5.4c-5.4-5.4-9.4-2.6-13.4,2.6C575,133.8,572.2,140.4,580.4,143 M750,272.8c0,4-1.4,6.8,0,10.7
	c0,2.6,2.6,6.8,4,8c8,4,17.4,6.8,25.3,10.7C780.8,292.7,775.4,287.4,750,272.8 M635,136.4c1.4,8,5.4,12,12,13.4
	c2.6,0,6.8,1.4,9.4,2.6c5.4,1.4,8,4,8,9.4c0,10.7,6.8,14.7,13.4,18.7c6.8,5.4,16,9.4,13.4,20.1l0,0c6.8-1.4,9.4-8,5.4-14.7
	c-12-20.1-25.3-38.7-49.4-46.8C644.4,140.4,640.4,139,635,136.4 M679.3,218c-1.4,1.4-1.4,4-2.6,5.4c-2.6,4-2.6,8,1.4,12
	c5.4,5.4,9.4,12,14.7,16c5.4,4,10.7,8,16,13.4c-1.4-8-1.4-16-2.6-24.1c0-1.4-1.4-4-2.6-5.4c-2.6-1.4-2.6-4-2.6-6.8
	c0-2.8,0-8-2.6-10.7c-9.4-8-20.1-16-30.7-21.3c-8-4-13.4-8-14.7-17.4c0-5.4-2.6-5.4-6.8-4C643.2,200.6,659.1,211.2,679.3,218
	 M242.2,187.3c1.4,0,1.4,1.4,2.6,1.4c9.4,2.6,14.7-2.6,21.3-6.8c5.4-4,10.7-6.8,16-9.4c6.8-4,13.4-8,20.1-12c1.4,0,1.4-4,0-4
	c-5.4-4-10.7-8-16-10.7c-12-5.4-22.7-1.4-33.5,8c-8,8-17.4,14.7-25.3,21.3c-1.4,1.4-2.6,2.6-4,5.4c2.6,0,5.4,1.4,6.8,1.4
	c1.4,0,4-1.4,5.4-2.6c2.6,0,5.4-1.4,8-1.4C243.5,180.5,242.2,184.5,242.2,187.3 M794.1,382.3c-1.4,0-2.6,1.4-4,1.4
	c5.4-5.4,1.4-12,1.4-17.4c0-1.4,0-1.4-1.4-1.4c-5.4-1.4-6.8-5.4-6.8-10.7c0-4-12-13.4-16-13.4c-8,0-12,5.4-9.4,13.4
	c4,8,4,12,2.6,20.1c-1.4,6.8-2.6,12,5.4,16c9.4,4,10.7,5.4,17.4-1.4c2.6,8-5.4,12-8,18.7c0,1.4-2.6,1.4-4,1.4
	c-9.4-2.6-17.4-6.8-26.7-10.7c-2.6-1.4-4-2.6-6.8-4c-5.4,6.8-12,12-17.4,18.7c-1.4,2.6-2.6,5.4-2.6,8c2.6,1.4,5.4,1.4,9.4,2.6
	c0,2.6-2.6,5.4-6.8,5.4c-4,0-8-1.4-8-5.4c-1.4-6.8,0-12,4-16s8-9.4,12-13.4c-4-2.6-9.4-6.8-12-12c-4-5.4-5.4-10.7-6.8-17.4
	c5.4,5.4,10.7,10.7,17.4,13.4l1.4-1.4c-2.6-4-5.4-6.8-6.8-10.7l-1.4-1.4c1.4-6.8-4-6.8-8-9.4c-8-6.8-12-13.4-14.7-24.1
	c5.4,5.4,12,9.4,17.4,14.7l1.4-1.4c-2.6-6.8-6.8-12-12-16c-6.8-5.4-12-10.7-17.4-17.4c-1.4-2.6-1.4-5.4-2.6-9.4c4,4,6.8,8,13.4,8
	c-2.6-4-6.8-8-8-13.4c-1.4-4,1.4-9.4,2.6-14.7c-6.8,1.4-6.8,1.4-5.4,13.4c-8-5.4-9.4-13.4-2.6-22.7c4,2.6,9.4,6.8,13.4,9.4
	c0,0,1.4,0,1.4-1.4c-1.4-1.4-1.4-2.6-2.6-4c-5.4-5.4-10.7-12-16-17.4c-5.4-5.4-13.4-6.8-21.3-4c-4,1.4-5.4,4-2.6,8
	c-2.6,1.4-6.8,2.6-9.4,5.4c-2.6,1.4-5.4,1.4-6.8-1.4c-5.4-8-4-12,2.6-18.7c1.4-1.4,2.6-4,4-6.8c1.4,0,4,1.4,5.4,1.4s4-1.4,6.8-2.6
	c-5.4-8-10.7-9.4-17.4-2.6c-4,4-9.4,6.8-13.4,10.7c-1.4-2.6-2.6-5.4-4-8s-4-5.4-6.8-8c-1.4-2.6-2.6-5.4-4-6.8
	c5.4-5.4,5.4-5.4-4-10.7c0-1.4,1.4-4,1.4-6.8c-5.4,0-9.4-1.4-14.7,0s-8,1.4-12-1.4c-1.4,0-1.4-1.4-2.6-1.4c-5.4,5.4-12,10.7-17.4,16
	c-2.6,2.6-4,6.8-5.4,9.4c-1.4,2.6-2.6,5.4-5.4,8c-2.6,2.6-6.8,5.4-9.4,9.4c-4,4-10.7,5.4-16,2.6c-2.6-1.4-4-2.6-6.8-4
	c-2.6,4-6.8,8-9.4,12c-4,5.4-9.4,5.4-14.7,4c-5.4-1.4-6.8-5.4-8-10.7c0-2.6-1.4-5.4,0-8c1.4,1.4,2.6,4,5.4,5.4
	c2.6,1.4,5.4,2.6,6.8,2.6c2.6-2.6,5.4-5.4,8-9.4c-2.6-1.4-5.4-4-8-5.4h-1.4c-10.7,2.6-20.1-1.4-30.7-2.6c-5.4-1.4-9.4-2.6-10.7-8
	c-1.4-5.4-1.4-10.7,4-14.7c1.4-1.4,4-2.6,5.4-5.4c-1.4,5.4-2.6,10.7-1.4,13.4c1.2,2.6,8,4,12,6.8c1.4-13.4,4-22.7,14.7-29.3
	c5.4-4,12-4,18.7-1.4c-2.6,1.4-4,1.4-6.8,2.6c-5.4,2.6-10.7,5.4-14.7,8c-5.4,4-4,12,1.4,16c10.7,8,10.7,8,21.3,2.6
	c5.4-2.6,9.4-8,16-5.4l2.6-2.6c0-4-2.6-6.8-6.8-8c-2.6,0-4,0-6.8-1.4c-1.4,0-2.6-1.4-4-2.6c0-1.4,1.4-2.6,2.6-4c2.6-1.4,5.4-2.6,8-4
	c1.4-1.4,4-4,4-6.8c1.4-6.8,5.4-9.4,9.4-13.4h1.4c18.7-12,37.5-6.8,54.8,2.6c6.8,4,13.4,8,20.1,13.4c1.4-1.4,1.4-4,4-6.8
	c-4-2.6-8-4-14.7-6.8c-1.4-6.8-9.4-5.4-14.7-8c-4-1.4-8-2.6-10.7-5.4c-5.4-4-10.7-4-16-2.6c-2.6,0-5.4,0-9.4,1.4c-1.4,0-1.4,0-2.6,0
	c-9.4,4-18.7,6.8-29.3,10.7c-1.4-1.4-1.4-1.4-2.6-2.6c-4-2.6-5.4-2.6-6.8,2.6c-1.4,2.6,1.4,6.8-4,6.8s-10.7,1.4-12-5.4
	c-1.4-2.6-4-4-5.4-6.8c-1.4-2.6-2.6-4-2.6-6.8c-2.6-9.4-4-12-14.7-12c-9.4,0-17.4-2.6-24.1-10.7c-2.6-4-5.4-5.4-10.7-4
	c-4,1.4-8,1.4-12,2.6c0,5.4-2.6,6.8-6.8,6.8c-4.1,0-8,0-13.4,0c-2.6,0-4,1.4-6.8,2.6c-4,2.6-8,4-12,0c4,0-1.4,0-4,0
	c-1.4,0-2.6,4-4,5.4c-5.4,1.4-12,1.4-18.7,2.6s-12,1.4-20.1,2.6c2.6-5.4,5.4-8,10.7-9.4s12-2.6,16-5.4c4-2.6,6.8-8,9.4-12l-1.4-1.4
	c-4,2.6-8,5.4-10.7,8c-4,4-9.4,5.4-14.7,6.8c-8,1.4-16,2.6-20.1,12c0,1.4-2.6,1.4-2.6,1.4c-1.4,0-2.6,0-4,1.4
	c-5.4,2.6-9.4,9.4-16,9.4c-6.8,1.4-10.7,4-16,6.8c-4,2.6-9.4,5.4-14.7,8c-5.4,4-12,6.8-17.4,10.7c-2.6,1.4-4,4,0,6.8
	c1.4,0,1.4,2.6,1.4,4c-4,6.8-5.4,14.7-14.7,14.7c-1.4,0-2.6,4-4,5.4c-1.4,4-4,5.4-9.4,2.6c-8-4-25.3-1.4-26.7,8
	c-2.6,12-13.4,17.4-20.1,25.3c-2.6,4-4,5.4-4,6.8c-1.4,8-6.8,10.7-13.4,14.7c-1.4,1.4-2.6,1.4-4,2.6c-1.4,1.4-2.6,4-2.6,5.4
	c2.6,1.4,4,2.6,6.8,4c-1.4,5.4-5.4,6.8-9.4,8c-2.6,1.4-4,2.6-5.4,4c-12,18.7-21.3,38.7-29.3,58.8c-8,21.3-14.7,41.5-17.4,64.2
	c-4,21.3-8,42.7-5.4,65.4c1.4,18.7,4,38.7,6.8,57.4c0,4,1.4,6.8,1.4,10.7c0,5.4,2.6,10.7,5.4,14.7c4,5.4,4,12,5.4,17.4
	c1.4,2.6,1.4,5.4,1.4,8c2.6,6.8,4,14.7,6.8,21.3c0,1.4,1.4,4,2.6,5.4c4,6.8,9.4,13.4,14.7,21.3c2.6,2.6,4,8,6.8,9.4
	c8,5.4,9.4,14.7,14.7,22.7c2.6,2.6,4,6.8,8,9.4c9.4,6.8,17.4,14.7,24.1,24.1c2.6,2.6,6.8,5.4,9.4,8c5.4,4,10.7,6.8,16,9.4
	c5.4,4,9.4,12,18.7,12l-1.4,1.4c-2.6,1.4-5.4,1.4-8,2.6c2.6,1.4,4,4,5.4,4c10.7,5.4,21.3,10.7,30.7,16c5.4,2.6,9.4,4,14.7,6.8
	c14.7,8,32.1,13.4,46.8,21.3c14.7,6.8,30.7,2.6,45.5,12c0,0,1.4,0,2.6,0c10.7-4,20.1,1.4,29.3,1.4c12,1.4,24.1,0,36.1,1.4
	c16,1.4,30.7-4,46.8-6.8c25.3-4,49.4-12,72.2-21.3c18.7-8,37.5-18.7,56.2-28.1c9.4-4,20.1-6.8,30.7-10.7c1.4,0,2.6,1.4,5.4,1.4
	c-5.4,5.4-10.7,10.7-16,14.7c-6.8,5.4-13.4,9.4-20.1,13.4c-2.6,1.4-4,4-6.8,6.8c-2.6,1.4-4,4-6.8,5.4c-21.3,8-41.5,17.4-62.8,24.1
	c-6.8,2.6-14.7,2.6-21.3,4c-4,1.4-8,1.4-13.4,2.6c-1.4,0-4,1.4-5.4,2.6v1.4c2.6,1.4,5.4,2.6,8,4v1.4c-2.6,0-5.4,1.4-8,1.4
	c-17.4,0-34.7,0-52.1,0c-4,0-9.4,0-12,4c-1.4,1.4-5.4,1.4-6.8,0c-6.8-4-13.4-5.4-20.1,0c-5.4,4-10.7,2.6-16-1.4
	c-5.4-2.6-9.4-4-14.7-1.4c-4,1.4-5.4,0-8-2.6c-4-2.6-9.4-5.4-13.4-6.8c-2.6-1.4-6.8-1.4-9.4-2.6c-1.4,0-4,1.4-5.4,1.4
	c1.4,1.4,1.4,4,2.6,5.4c9.4,8,18.7,13.4,30.7,13.4c1.4,0,2.6,1.4,5.4,1.4c-9.4,2.6-17.4,1.4-25.3-2.6c-5.4-2.6-9.4-5.4-14.7-8
	c-4-1.4-5.4-4-5.4-8c0-5.4-1.4-6.8-6.8-4c0,0,0,1.4-1.4,0c-8-1.4-16,2.6-25.3-1.4c-4-2.6-8-2.6-13.4-4c-1.4,0-4,0-5.4-1.4
	c-8-2.6-17.4-6.8-25.3-9.4c-2.6-1.4-5.4-2.6-6.8-4c-16-14.7-32.1-29.3-48.1-44.1c-8-8-17.4-16-25.3-25.3c-6.8-8-10.7-16-16-24.1
	c-21.7-28.7-36.2-62.2-48.4-95.5c-9.4-25.3-16-50.8-24.1-77.5c-4-16-2.6-32.1-2.6-48.1c0-5.4-1.4-10.7-1.4-16c0-1.4,0-2.6,0-4
	c2.6-14.7,6.8-28.1,8-42.7c2.6-30.7,16-57.4,25.3-85.5c2.6-8,4-16,6.8-24.1c4-9.4,8-17.4,12-25.3c1.4-1.4,2.6-4,5.4-4
	c9.4,1.4,16-8,21.3-16c0-1.4,1.4-1.4,1.4-2.6c-2.6-5.4,1.4-8,4-10.7c9.4-9.4,20.1-20.1,29.3-29.3c2.6-2.6,4-8,5.4-12
	c0-1.4-1.4-2.6-2.6-2.6c-4,0-8,1.4-10.7,2.6c-13.4,10.7-22.7,22.7-30.7,37.5c-4,8-9.4,16-13.4,24.1c0,1.4-1.4,1.4-1.4,2.6
	c-2.6,2.6-5.4,4-8,6.8c1.4-2.6,1.4-6.8,2.6-9.4c2.6-5.4,5.4-10.7,8-16c8-18.7,21.3-32.1,33.5-48.1c2.6-4,5.4-6.8,2.6-12
	c0-1.4,1.4-4,2.6-5.4c24.1-20.1,48.1-40.1,72.2-60.2c12-10.7,26.7-13.4,41.5-16c2.6-1.4,5.4,1.4,8,1.4c0,0,1.4,0,1.4,1.4
	c4,2.6,9.4,2.6,10.7-1.4c1.4-2.6-1.4-6.8-2.6-9.4c-1.4-2.6-4-2.6-6.8-5.4c10.7-1.4,21.3-1.4,29.3,6.8c2.6-6.8,5.4-14.7,6.8-21.3
	c0-1.4-2.6-4-4-4c-8,0-17.4,0-25.3,0c-2.6,0-5.4,0-6.8,0c10.7-5.4,22.7-5.4,33.5-5.4c8,0,12,4,16,10.7c4,5.4,4,5.4,12-1.4
	c2.6,1.4,4,2.6,6.8,4c2.8,1.4,4,4,6.8,4c4,0,8-1.4,12-4c1.4,0,1.4-4,1.4-5.4c-1.4-2.6-2.6-5.4-4-8c6.8,0,12,1.4,16,8
	c1.4,1.4,2.6,2.6,4,2.6c4,0,9.4-1.4,14.7-2.6c-2.6-4-4-8-5.4-12c8,0,14.7,2.6,18.7,9.4c2.6,4,5.4,6.8,10.7,6.8c2.6,0,5.4,1.4,8,2.6
	c2.6-6.8,6.8-13.4,2.6-22.7c-2.6,2.6-5.4,5.4-8,8l-1.4-1.4c2.6-5.4,5.4-10.7,8-16c1.4-2.6,5.4-2.6,5.4,0c1.4,5.4,2.6,9.4,2.6,13.4
	c0,5.4-2.6,10.7-4,16c0,2.6,1.4,4,1.4,6.8c2.6-1.4,4-1.4,6.8-2.6c2.6-2.6,4-8,10.7-6.8c2.6,0,5.4-10.7,2.6-14.7
	c-1.4-2.6-2.6-4-4-6.8c9.4,4,17.4,8,22.7,16c2.6,4,6.8,6.8,10.7,5.4c4-1.4,6.8-9.4,4-13.4c0-1.4-1.4-2.6-2.6-4
	c10.7,2.6,14.7,6.8,17.4,18.7c4,1.4,8,4,13.4,5.4c1.4-5.4-4-8-6.8-12c-4-5.4-4-6.8,1.4-10.7c1.4,2.6,2.6,6.8,4,9.4
	c1.4,2.6,5.4,4,8,1.4s1.4-6.8-1.4-8c-2.6-1.4-5.4-4-6.8-5.4c-1.4-2.6-4-6.8-5.4-9.4c-4-5.4-9.4-9.4-14.7-14.7c-2.6-1.4-4-4-5.4-5.4
	l1.4-2.6c6.8,5.4,14.7,10.7,21.3,16c4,4,6.8,5.4,12,1.4c-1.4-6.8-4-10.7-12-8c0-4,0-8,0-10.7c0-5.4,2.6-6.8,6.8-4
	c2.6,1.4,4,2.6,6.8,5.4c5.4,5.4,6.8,4,9.4-1.4c0-1.4,1.4-2.6,2.6-4c5.4,5.4,10.7,9.4,13.4,17.4c1.4,5.4,6.8,10.7,10.7,14.7
	c0,0,1.4,0,2.6,0c-1.4-4-2.6-6.8-4-10.7c8,6.8,13.4,16,14.7,26.7c0,10.7,2.6,20.1,8,29.3c5.4-4,5.4-8,2.6-17.4
	c9.4,5.4,17.4,12,17.4,24.1c10.7,6.8,18.7,1.4,21.3-12c5.4,8,5.4,12,1.4,24.1c1.4,2.6,4,5.4,5.4,8c2.6,4,5.4,4,8,1.4
	c5.4-2.6,6.8-8,6.8-16c6.8,10.7,12,20.1,6.8,32.1c-1.4,2.6,1.4,5.4,1.4,8c6.8-1.4,8-6.8,9.4-12c6.8,8,6.8,17.4,0,24.1
	c-1.4-1.4-4-1.4-5.4-2.6c0,0,0,0-1.4,0c4,6.8,9.4,14.7,13.4,21.3c2.6-9.4,6.8-18.7,6.8-28.1c1.4-13.4,0-26.7,0-40.1
	c0-1.4-1.4-4-1.4-5.4c0-6.8-1.4-13.4-9.4-16c6.8-9.4,10.7-20.1,10.7-32.1c4,14.7,6.8,29.3,10.7,44.1c5.4,0,8-6.8,13.4-1.4l0,0
	c-12,10.7-12,10.7-5.4,22.7c2.6,6.8,5.4,13.4,9.4,20.1c6.8,10.7,8,22.7,4,34.7c0,2.6,0,5.4,1.4,8c1.4,6.8,4,12,1.4,18.7
	c0,1.4,0,2.6,1.4,4c5.4,4,9.4,8,16,12c0-1.4,0-4,0-5.4c-1.4-9.4-2.6-17.4-4-26.7V200c6.8-6.8,4-14.7,4-21.3c0-1.4,0-1.4,1.4-4
	c1.4,4,2.6,5.4,4,8c1.4,1.4,2.6,1.4,4,2.6c1.4-1.4,2.6-2.6,2.6-4c0-12,0-22.7,0-34.7c0-4,0-5.4,4-6.8c8-1.4,12-8,14.7-14.7
	c1.4-2.6,4-5.4,5.4-8l1.4,1.4c-1.4,2.6-1.4,6.8-2.6,9.4c-5.4,10.7-6.8,21.3-4,33.5c4,12,1.4,22.7-4,33.5c-5.4,9.4-6.8,20.1-5.4,30.7
	c0,6.8,0,12-5.4,16c-4,2.6-4,16-1.4,21.3c2.6,5.4,4,12,6.8,17.4c0,1.4,1.4,4,2.6,5.4c8,8,8,18.7,8,28.1c1.4,9.4,6.8,16,14.7,20.1
	c6.8,4,14.7,6.8,18.7,13.4c1.4,1.4,4,2.6,6.8,2.6c12,0,21.3-9.4,24.1-21.3c1.4-4,2.6-9.4,4-13.4c2.6-6.8,8-10.7,14.7-10.7
	c8,0,16,0,22.7,1.4c6.8,0,14.7,6.8,21.3,14.7l-1.4-1.4c-10.7-10.7-22.7-13.4-37.5-12c-6.8,0-10.7,5.4-13.4,10.7
	c-4,9.4-8,18.7-13.4,26.7c-4,6.8-9.4,9.4-17.4,10.7c-9.4,1.4-10.7,2.6-9.4,12c1.4,5.4,5.4,10.7,8,17.4c1.4,2.6,2.6,6.8,1.4,8
	c-1.2,1.2-5.4,2.6-8,2.6c-10.7-2.6-20.1-4-30.7-8C799.5,386.3,798.1,385,794.1,382.3"/>
<g>
	<path d="M737.2,888.1c-19.2,5-37.5,5-56.6,0.7c-0.8,5.1-0.8,11-2.2,16.8c-0.8,2.9,0.8,2.9,2.9,2.9c0.8-2.2,0.8-4.4,2.2-6.6
		c1.4-1.4,2.9-4.4,5.1-4.4c6.6-0.8,13.9,0,20.5,0v0.8c0.8,20.5-1.4,41-2.9,61.5c-0.8,5.1-1.4,11-8.1,14.6h25.7
		c-1.4-0.8-1.4-0.8-1.4-0.8c-4.4-0.8-6.6-2.9-7.3-7.3c-0.8-4.4-0.8-8.1-0.8-12.5c0-13.9,0-27.9,0-41.7c0-5.1,0-11,0-16.8
		c5.1,0,10.3,0.8,14.6,0.8c2.9,0,5.1,2.2,5.9,5.1c0.8,1.4,0.8,2.9,0.8,4.4c0,0,0,0.8,0.8,0.8c0.8,0,1.4-0.8,2.2-0.8
		C737.9,899.1,737.9,893.2,737.2,888.1z"/>
	<path d="M696.1,988.4c-38.1,20.5-79.1,27.9-122.3,27.1c-42.5-0.8-84.2-7.3-122.3-27.1c0.8,0.8,2.2,1.4,2.9,2.2
		c16.8,11.7,35.2,18.3,55,22.7c29.3,7.3,60.1,8.8,90.1,6.6c26.3-2.2,51.3-7.3,75.4-19c7.1-3.6,14.3-7.9,21.4-12.1
		C696.1,988.7,696.1,988.4,696.1,988.4z"/>
	<path d="M696.3,988.7c0.1,0,0.3-0.1,0.6-0.3C696.7,988.5,696.5,988.6,696.3,988.7z"/>
	<path d="M466.1,957.7c-1.4,0-2.2-0.8-2.9-0.8c-0.8,1.4-0.8,2.2-1.4,2.9c-1.4,3.7-4.4,6.6-8.8,7.3c-5.9,0.8-12.5,0.8-19,1.4
		c-0.8-3.8-0.8-7.4,0-11.1c1.4-15.4,2.9-31.5,0.8-46.9c-0.8-5.1-0.8-10.3-0.8-14.6c0-3.7,0.8-4.4,4.4-4.4c2.2,0,3.7,0,5.9,0
		c0-1.4,0-2.2,0-2.9h-27.1c0.8,1.4,0.8,2.9,1.4,3.7c0.8,1.4,2.2,2.9,2.2,4.4c0.8,19.8,0.8,40.3,0.8,60.1c0,3.7-0.8,7.3-2.2,11
		c-0.8,2.2-1.4,3.7-0.8,5.9h43.2C463.1,968.7,464.6,963.6,466.1,957.7z"/>
	<path d="M486.4,975.3h41.7c1.4-5.1,2.9-10.3,4.4-15.4c-1.4,0-2.2-0.8-3.7-0.8c-0.8,1.4-0.8,2.2-1.4,3.7c-1.4,3.7-4.4,6.6-8.8,7.3
		c-5.9,0.8-12.5,0.8-19,1.4c1.6-5.1,1.6-8.1,1.6-10.3c2.2-18.3,3.7-36.6,1.4-55c-0.8-5.1-2.2-11,1.4-16.1v-1.4h-17.6
		c0,1.4,0,2.9,0,4.4c0.8,1.4,1.4,2.9,1.4,5.1c0,20.5,0.8,41,0.8,61.5c0,4.4-0.8,8.8-3.7,11.7C485.8,973,486.4,974.5,486.4,975.3z"/>
	<path d="M619.9,891.7c4.4,2.2,4.4,5.9,4.4,8.8c0,17.6,0,34.4,0,52c0,5.1-1.4,11-2.9,16.1c-0.8,2.2-1.4,4.4-0.8,6.6h44.7
		c1.4-6.6,2.9-13.2,4.4-19.8c-0.8,0-2.2-0.8-2.9-0.8s-0.8,0.8-0.8,0.8c0,0.8-0.8,1.4-0.8,2.2c-2.2,6.6-5.9,10.3-13.2,10.3
		c-0.8,0-0.8,0-1.4,0c-5.9,0-12.5,0-18.3,0v-33.7c6.6,0,13.2,0,19.8,0c4.4,0,6.6,2.9,8.1,7.3c0,0.8,0.8,1.4,1.4,2.9V921
		c-1.4,0-2.2,0-2.9,0c-0.8,5.1-2.2,7.3-7.3,7.3c-5.9,0-11.7-1.4-16.8-2.2v-29.3c3.1-1.4,8.2-2.2,13.4-1.4
		c10.3,0.8,11.7,2.2,13.9,11.7c0,0,0,0,0.8,0.8c0.8,0,1.4-0.8,2.9-0.8c0-6.6-0.8-12.5-0.8-18.3h-45.4
		C619.2,890.2,619.2,891.7,619.9,891.7z"/>
	<path d="M552.5,975.3c5.1-1.5,10.3-0.8,15.4-0.8c5.8,0,11.7,0,16.8-1.4c15.4-4.5,21.3-27.1,10.3-38.1c-2.9-2.2-6.6-3.7-9.5-5.9
		c2.2-2.9,5.9-6.6,8-9.5c8.1-14.6-0.8-30.7-17.6-31.5c-7.3,0-14.6,0-22,0c0,0.7,0,0.7,0,1.4c-0.8,0.8-1.4,2.2-2.2,2.9
		c2.9,1.5,2.9,5.1,2.9,8.1c0,16.2,0,33,0,49.8c0,3.7,0,7.3-0.8,11c0,2.9-1.5,6.6-2.9,8.8c-1.4,1.4-2.2,2.9-1.4,5.1
		C550.3,975.3,551.7,975.3,552.5,975.3z M564.3,896.9c0-0.8,0-2.2,0.8-2.2c7.3-3.7,16.8-0.8,19.8,6.6c2.9,7.3,1.5,17.5-4.4,23.4
		c-0.8,0.7-2.2,1.4-2.9,1.4c-4.5,0-8.8,0-13.2,0C564.3,915.8,564.3,905.6,564.3,896.9z M564.3,932c5.1,0,10.3,0,16.1,1.4
		c6.6,1.5,10.3,6.6,11,13.2c0.8,2.9,0.8,5.8,0,8.8c-1.5,10.3-10.3,15.4-20.5,13.2c-6.6-0.8-6.6-0.8-6.6-7.3
		C564.3,951.8,564.3,942.3,564.3,932z"/>
	<path d="M411.2,951.8c-0.3-0.2-0.7-0.5-1-0.7C410.6,951.5,410.7,951.8,411.2,951.8z"/>
	<path d="M401,989.8c-1.5-1.4-2.9-4.4-3.7-6.6c-6.6-16.1-12.5-32.2-18.3-48.3c0,0,0,0,0-0.8c11.3,3.6,21.3,9.9,31.2,16.9
		c-0.2-0.3-0.5-0.6-1-1c-6.6-7.3-14.6-13.9-22.7-19c-3.6-2.9-9.5-2.9-11.7-7.3c-2.2-4.4-3.7-9.5-5.1-13.9
		c-4.4-14-9.5-27.9-13.9-42.5c-4.5,0-8.8,0-13.2,0c-1.5,0-2.2,0.8-2.9,2.2c-1.5,5.8-3.7,11.7-5.9,16.8c-12.5,31.5-24.9,63-37.4,93.8
		c-2.2,7.3-6.6,13.2-15.4,12.5c-0.8,0-0.8,0-0.8,0v5.1c15.4,0,30,0,44.7,0c0.8,0,0.8-1.5,2.2-2.9c-1.5,0-2.9,0-3.7,0
		c-9.5,0-13.9-5.9-11.7-14.6c2.2-8.8,5.8-17.6,8.8-26.3c1.5-5.8,5.9-10.2,11-13.9c1.5,0,2.2-0.7,2.9-1.4c8.1-5,16.8-8.8,27.1-8.8
		c0,1.5,0.8,2.2,0.8,2.9c5.1,15.4,9.5,31.5,14.6,46.9c2.2,7.3,0.7,14-8.1,15.4c-2.2,0.8-2.2,1.5-1.4,2.9c14.6,0,28.5,0,43.2,0
		c2.2,0,2.9-0.8,2.2-2.9C408.3,995.7,404,993.5,401,989.8z M326.9,937.8c6.6-16.8,13.2-33.7,19.8-50.6c3.6,12.5,8,24.9,11.7,37.4
		C346.7,926.1,336.5,930.5,326.9,937.8z"/>
</g>
</svg>
