<?xml version="1.0" encoding="utf-8"?>
<!-- Generator: Adobe Illustrator 24.0.1, SVG Export Plug-In . SVG Version: 6.00 Build 0)  -->
<svg version="1.1" id="Layer_1" xmlns="http://www.w3.org/2000/svg" xmlns:xlink="http://www.w3.org/1999/xlink" x="0px" y="0px"
	 viewBox="0 0 1024 1024" style="enable-background:new 0 0 1024 1024;" xml:space="preserve">
<path d="M43.6,488.1c37.1-1.4,74.1,1.3,109.7,11.3c48,13.4,92.6,34.6,126.1,73.4c18.2,21.1,32.7,44.8,42.6,71c0.7,1.9,0.7,4.1,1,6
	c-18-13.9-35.1-28.4-53.6-40.9c-25.3-17.2-53.8-26.4-84-31.6c-24.5-4.2-48.9-8.1-73.7-6.2c-8.5,0.6-11.9-3.7-16.5-9.9
	c-16.6-22.6-34.3-44.4-51.5-66.5C43.6,492.4,43.6,490.2,43.6,488.1z M980.4,490.2c-6.1-0.7-12.2-2.3-18.2-2
	c-33.4,1.8-66.6,4.5-98.9,14c-51.1,14.9-95.8,39.9-129.1,82.7c-14.6,18.8-25,39.6-32.5,63.6c3.2-1.5,5.1-2,6.4-3
	c13-10.6,25.5-22.1,39.1-31.8c25.9-18.5,54.1-32.6,86.3-36.3c24.8-2.9,49.8-4.2,74.7-6.9c5.7-0.6,12.6-2.7,16.1-6.6
	c8.1-8.9,14.2-19.5,21.7-29c11.2-14.3,22.9-28.2,34.3-42.3C980.4,491.7,980.4,491,980.4,490.2z M363.9,119.9
	c-4.4,27.4-8.8,54.8-13.2,81.6c24.8-6.5,48.1-12.6,71.7-18.8c-2.8-3.8-5.7-8.3-9.1-12.2c-14.9-16.9-30-33.7-45-50.5
	C366.8,119.9,365.3,119.9,363.9,119.9z M655.8,119.9c-20.9,19.1-39.7,39.8-54.2,63c23.6,6,46.3,11.8,70,17.9
	c-1.5-9.3-3.2-19.4-4.8-29.5c-2.9-17.1-5.8-34.3-8.7-51.4C657.2,119.9,656.5,119.9,655.8,119.9z M670.4,899.9
	c9.7-4.2,14-12.8,13.3-21.1c-0.7-9.3-6.1-16.8-15.7-17.9c-5.6-0.6-19.6-2.2-25.2,0c-5.7,2.2-8.1,5.1-8.1,5.1s0.4-4.1,0.7-5.1
	c1.1-4.2,3.3-12.9,15.5-15c12.3-2.1,17.6,0.6,24.3,10.2c2.6-5.1,4.8-9.5,7-13.9c-33.4-10.3-48.3-6.3-57.1,14.8
	c-7.1,16.8,2.8,41.3,17.6,45C657.5,905.7,660.7,904.1,670.4,899.9z M640.7,880.4c-0.1-7.8,5-11.4,12.5-11
	c7.5,0.4,15.8,2.4,14.9,11.1c-0.5,4.7-6.2,12.8-12.4,12.8S640.8,888.3,640.7,880.4z M559.6,901c4.3-0.6,9.6-1.4,13.1-4.2
	c5.6-4.6,10.1-13.3,10.5-20.3c0.2-3.9-1-7.6-3.6-10.5c-4.3-4.8-10.4-5.7-16.5-6.2c-8.2-0.7-16.4-0.6-24.6,0.7c0,0,0-12.8,0-12.8
	s30-0.1,40.4-0.1c0-2.7,0-6.8,0-10.6c-18.3,0-36,0-52.5,0c0,3.3,0.3,16.5,0.4,21.5c0,1.2-2.7,1.9-2.7,1.9
	c4.1,5.3,9.3,10.5,13.5,15.8c0.3-1.3,0-2.8,0.8-4c0.7-1,1.8-1.4,2.9-1.7c3.6-1,7.3-1.5,11-1.4c3.5,0.1,7,0.2,10.2,1.9
	c3,1.6,6.2,5.3,5.4,8.9c-0.8,3.2-2.8,7.3-6.1,8.6c-5.6,2.2-12.6,2.1-18-0.4c-4.7-2.1-8.5-5.8-12.7-8.6c-2.9,3.8-6.3,8.3-9.3,12.3
	c5.7,2.8,11.5,5.4,17.5,7.6c1.7,0.6,3.4,1.1,5.1,1.4C549.4,901.8,554.4,901.7,559.6,901z M464.5,901c11.5-1.8,25.9-18.9,11.6-32.4
	c-0.6-0.6-2.9-2.4-2.9-2.4s2.7-2.6,3.1-3.4c6.7-14.8-0.2-25.5-16.6-26.2c-13.3-0.6-25.7,0.8-36.6,10.7c2.7,3.2,5.6,6.6,8.6,10.2
	c6.5-9,21-13.6,29.1-9.4c2.4,1.3,5.6,2.5,5,7.2s-4.8,6.3-7.9,7.1c-4.5,1.2-9.5,0.3-14.2,0.3c-0.2,3.8-0.4,7.2-0.6,9.7
	c5.8,0.3,11.4-0.2,16.4,1.3c3.4,1,9.8,2.5,9,7.5c-0.8,5-4.7,6.4-7.9,7.5c-12.5,4.3-23.3,0.3-33.5-9.1c-2.5,5.6-4.9,10.9-6.3,14.1
	c7.4,3.2,15.8,6.3,20.6,7.2C446.1,901.7,453,902.8,464.5,901z M371.1,902v-63.2l1.1-0.8L372,837c0,0-12.5,0-19.6,0
	c7.8,11-1.2,7.6-5.7,7.8c0,5.1,0,9.8,0,14.6c2.8-0.8,5.4-1.4,8.5-2.2c0,15.5,0,30.2,0,44.9C361,902,371.1,902,371.1,902z
	 M43.6,640.6c15.1,0.3,31.2,3.6,40.1-13.8c-13,3.8-26.5,7.7-40.1,11.6C43.6,639.1,43.6,639.8,43.6,640.6z M597.2,728.3
	c-15,14.4-30.7,26.6-52.7,30.6c-27.5,5-52.1-12.3-60.8-36.8c-15.6-44-14.4-88.2,0-132.2c10.2-31.2,37.4-47.1,61.5-42.3
	c27,5.4,44.2,23.1,54,48.4c2.2,5.7,4.6,11.2,7.4,17.9c8.1-10.1,7.5-76.5,0.6-83.9c-1,1-2.5,1.7-3,2.9c-6.2,13.8-10.8,15.9-23.8,9.9
	c-26.5-12.2-53.9-16.8-82.6-10.9c-32.6,6.7-61.1,21.3-79.5,49.6c-21.4,32.9-30.3,69.2-19.3,108.2c10,35.4,29.6,62.9,65.5,76.6
	c21.5,8.2,43.1,11.1,66.2,10c25.4-1.2,46.7-8.4,65.7-25.8c9.6-8.9,13.5-17.5,8-32.5C601.9,721.3,600.2,725.5,597.2,728.3z
	 M326.7,304.1c-29.1-43.9-65.5-81-115.3-101.2c0,10.5,0,20.5,0,30.5c0,23.6-0.2,47.2,0.3,70.7c0.1,4,2.3,9.6,5.4,11.7
	c31.7,21.7,56.5,50.4,81.4,78.9c22,25.2,37.6,54.5,48.1,86.1c6.7,20.1,11.8,40.7,17.6,61.1C382.1,458,375.1,377.2,326.7,304.1z
	 M659.5,544.8c1.1-3.3,2.4-5.9,2.8-8.6c4.8-32.4,15.3-63.1,30-92c26.4-52.1,66.4-92.6,112.4-127.7c2.3-1.8,5.6-4.4,5.6-6.7
	c0.4-35.5,0.2-70.9,0.2-106.5C684.9,263,623.4,407.7,659.5,544.8z M210.7,881.7c5.2,0.5,11.3,0.3,15.4-6c5.7-8.6,13-16.1,19.4-24.3
	c16.3-20.9,35.3-39.2,59.4-50.1c23.4-10.5,48.1-18,70.1-26c-71.7-25.1-184.6,14.2-217.1,99.5C175.4,877.3,193,880.1,210.7,881.7z
	 M721.5,803.3c32.7,15.8,55.6,43.1,76.2,72.4c1.6,2.4,5.7,4.3,8.6,4.3c11.5-0.2,23-1.1,34.5-2c8.4-0.7,16.7-1.9,25.4-2.9
	c-41.6-83.6-134.7-124-218.8-100.4C670.9,783.6,697.2,791.5,721.5,803.3z M202.1,394.2c-13.6-0.2-26,1.7-36.9,11.9
	c2.1-7.2,4.6-14,9.2-18.8c4.9-5.1,11.8-8.3,17.8-12.3c-0.1-1.2-0.2-2.5-0.3-3.7c-7.1-0.7-16.3-4.5-20.7-1.4
	c-4.9,3.5-5.4,13.1-7.8,20.1c-0.7-0.1-1.3-0.3-2-0.4c0.4-4.8,0.7-9.6,1.1-14.4c-8.2,9.1-14.9,18.5-20.8,28.4
	c-5.3,8.9-0.5,40.8,7.8,44.2c13.7,5.7,28.5,8.7,42.1,12.7c0-5.1,0-8.7,0-12.2c1.6,0.2,4.4,0.1,4.5,0.7c1.2,4.8,2,9.7,3.2,16.6
	c27.6,12.1,54.9,29.3,78.1,52.5c22.8,22.8,38.5,50.4,54.6,78.3c-3.3-10.9,3.8-23.1-7-33.3c-27.2-25.9-51-54.2-64.2-90.6
	c-4.3-11.9-10.6-25.2-24.7-30.7c-17.5-6.8-35-12.6-52.5,0.1c-0.3,0.2-1.2-0.3-1.9-0.5c-0.7-23.7,24.2-38.1,53.3-31.4
	C226.5,399.6,215.9,394.4,202.1,394.2z M838.8,442.3c-22.3-16-63.3-2-72.3,22.7c-4.6,12.6-9.9,25.3-17.4,36.3
	c-12.4,18.2-24.4,38.1-41.1,51.7c-15.8,12.9-15.7,27.3-16.5,43.7C721.8,537.8,762.9,490,822.8,466c2-7.6,3.3-12.5,4.6-17.4
	c2.6,3.2,5.3,6.4,8.6,10.4c10.4-3.1,23-6.8,35.4-10.5c1-0.3,2.3-1,2.6-1.8c4.7-13,15.8-25.2,8.2-40.2c-5.5-11-12.8-21-19.4-31.5
	c-0.7,0.4-1.3,0.7-2,1.1c0.3,5.2,0.6,10.5,0.8,15.7c-9.2-26.9-14.4-29.8-29.3-15.6c23.7,15.5,26.7,19.4,24.9,32.2
	c-24.5-19.3-53.5-18.5-68,1.8c29.5-5.5,52.8,8.9,53.3,33.3C841.3,443.1,839.8,443,838.8,442.3z M580.6,253.4
	c-9.9,7.9-10.2,12.8-1.1,22.2c2.8,2.9,5.3,6,8.5,8.4c19.9,15.4,37.1,20.8,56.4,11.5c0.8-0.4,1.3-1.6,3-3.7c-1.9-1-3.9-2-7-3.7
	c4.5-0.5,7.1-0.8,10-1.2c-2.2-2.1-3.6-3.5-3.4-3.2c3.9-4.8,7.3-9.1,12.6-15.6c5.3-0.4,8-6.5,7.3-14.9c-1.6-16.9-12.5-26.8-34.7-31.9
	c-9.3-2.1-21.8,3-27.7,11.9c-5.8,8.7-6.7,18.1-0.5,26.7c5,6.9,10.4,15.1,21,13.4c8.6-1.3,13.3-7.1,15.6-15.6
	c-4.8-2.9-9.1-5.6-13.5-8.4c0.1-1.2,0.2-2.4,0.3-3.7c5.2-0.5,11.5-3.1,15.2-1c3.5,2,6.6,9.5,5.6,13.4c-1.8,6.7-5.7,14.1-11,18.4
	c-17.1,14.1-39.7-3.8-44.3-20.8c-7.8-29.2,22.7-47.3,43.1-41.4c12.9,3.7,25.6,7.8,38.4,11.7c0.7-0.7,1.4-1.4,2.1-2.1
	c-2-3.5-3.2-9.1-6-10.2c-17.5-6.5-35.4-12-53.3-17.4c-1-0.3-3,2.9-5.6,5.6c-1.4-0.6-5.2-2-8.9-3.5c-0.2,0.4-0.4,0.9-0.6,1.3
	c3.4,2.3,6.8,4.7,10.1,7c-0.3,0.4-0.5,0.8-0.8,1.2c-6.9-1.9-13.8-3.8-20.6-5.7c-0.2,0.8-0.4,1.7-0.7,2.5c4.3,2.3,8.6,4.5,12.9,6.8
	c-0.2,0.4-0.4,0.8-0.7,1.2c-6-1.1-11.9-2.2-17.9-3.2c-0.2,0.9-0.3,1.7-0.5,2.6c4.6,2.2,9.2,4.4,13.8,6.5c-0.1,0.4-0.2,0.8-0.3,1.1
	c-5.7-0.7-11.5-1.4-17.2-2.1c-0.4,0.9-0.8,1.8-1.3,2.6c2.4,1.8,4.7,3.7,6.6,5.1c-3.8,1.8-8,3.7-12.3,5.7c0.1,0.9,0.3,1.7,0.4,2.6
	c4.2,0.8,8.4,1.5,11.1,2c-4.9,2-10.7,4.4-16.5,6.7c0.4,0.9,0.8,1.8,1.2,2.7c4.1-0.4,8.2-0.9,12.3-1.3c-4.5,3.7-8.5,7-12.5,10.3
	c0.5,0.6,1.1,1.2,1.6,1.8c2.8-1.7,5.5-3.5,8.3-5.2C579.6,251.7,580.1,252.5,580.6,253.4z M432.8,204c-0.3-0.6-0.6-1.2-0.9-1.7
	c-6.1,1.5-12.2,3.1-20.6,5.2c5-3.6,7.8-5.7,10.6-7.8c-0.2-0.4-0.5-0.8-0.7-1.1c-4.2,1.3-8.4,2.7-13.1,4.2c1-2.5,1.7-4.2,4-9.8
	c-19.9,6.1-36.8,11.3-53.8,16.3c-7.5,2.2-11.4,6.7-10.1,16.3c12.9-3.4,25.7-6.7,38.5-10.1c17.4-4.5,33.3,2.3,41.4,17.8
	c7.4,14,3,30.9-11.4,41.7c-8.8,6.6-19,9.4-29.1,3.7c-8.6-4.9-13.5-13.2-12.5-23.3c0.4-3.9,3.5-9.2,6.8-10.7c3.3-1.5,8.4,1,12.7,1.7
	c0,1.1-0.1,2.1-0.1,3.2c-3.7,2.4-7.5,4.8-11.1,7.1c4.5,14.1,15.4,20.5,25.3,15.1c8.1-4.4,15.5-18,13.8-27.5
	c-1.8-10.4-7.3-18.2-17.9-22.1c-16.8-6.1-38.7,3.5-47.3,21.3c-4.3,8.9-1.8,15.8,3.7,22.6c2.7,3.3,5.9,6.3,8.8,9.5
	c2.3,2.5,4.5,5.1,6.6,7.6c-0.6,0.8-1.7,2.2-3,4.1c4.1,0.4,7.3,0.7,9.6,0.9c-1.9,1.8-3.9,3.6-5.9,5.4c2,1,3.8,2.3,5.9,2.9
	c21.2,6,39.5,0.2,55.1-14.4c13.2-12.4,13.6-16.7,4.2-30.7c3.8,1.6,7,2.8,10.1,4.1c0.3-0.7,0.7-1.3,1-2c-4.4-3.1-8.8-6.1-12.4-8.7
	c3.3,0,7.7,0,12.1,0c0.3-0.8,0.5-1.7,0.8-2.5c-5.4-2.1-10.8-4.2-16.4-6.4c3.9-1.1,7.7-2.1,11.5-3.2c0-0.9,0-1.8,0-2.8
	c-4.5-1.5-8.9-3-13-4.4c2.5-0.9,5.6-2,8.6-3.1c-0.1-0.9-0.2-1.9-0.3-2.8c-5.9,0-11.8,0-20.3,0c6.8-3.1,11.1-5,15.5-7
	c-0.1-0.9-0.3-1.8-0.4-2.7c-4.8,0.3-9.7,0.6-15.6,1C427.2,208.2,430,206.1,432.8,204z M397.4,264.1c5.8-2.4,11.5-4.7,17.2-7
	c0.6,0.8,1.1,1.5,1.7,2.3c-4.2,3.9-8.5,7.9-12.7,11.8C401,268.2,399.4,266.4,397.4,264.1z M634.8,319.3
	c-20.3-17.2-46.6-14.9-71.3-18.5c-5.2-0.8-10.4,0.1-10.1,7.7c0.9,23.2,0.9,46.6,2.8,69.7c0.5,6-1.1,15.6,8.3,18
	c7.5,1.9,15.2,2.6,23.5,3.9c-5.9-12.5-10.5-25-17.4-36.1c-9.2-14.7-8.7-28.3,7.8-33.7c13.6-4.5,30-0.1,45.2,0.4
	c0.3,0,0.5,1.1,0.8,1.8c-4.6,1-9,2.3-13.5,2.8c-10.7,1.2-22.5,10.3-24.1,20.9c-3.4,22,4.1,41.5,16.4,62.4c1.7-6.3,2.7-9.8,3.3-12.1
	c1.7,6.6,3.6,14.1,5.5,21.6c1.4-0.3,2.8-0.7,4.2-1c-1.1-9.6,5-19.8-4.8-28.9c-2.5-2.3-3.6-8.5-2.3-11.6c1-2.4,6.8-2.7,10.3-3.8
	C624.2,362.7,629.5,340.9,634.8,319.3z M297.4,678.4c-29.2-4-56.4-13-81.4-29.4c-11.4-7.5-24.1-11.6-39.3-4.8
	c-11.7,5.2-21.6,9.9-25.6,22.7c-0.3,1-2.2,1.4-3.4,2.2c-8.4-22.1-1.4-37.2,21.9-48.3c-21.8-7-44.5,7.7-48.7,32.7
	c-8.4-12.1-2.8-22.9,1.9-35.5c-7,1.4-12.4,2.5-18.3,3.7c2.6,7.3,5.1,14,7.5,20.7c-0.4,0.2-0.7,0.5-1.1,0.7
	c-2.4-3.2-4.9-6.4-8.1-10.6c0,10.8-1.2,20.7,0.3,30.3c2.2,14,10.2,20.3,22.3,19c12.7-1.4,25.3-3.5,39-5.4c-2-3.1-3.6-5.6-5.3-8.1
	c3.8-0.9,8.1-0.4,8.9,1.6c2.5,6.2,7,5.6,12.1,5.6c20.4-0.2,41-1.5,61.2,0.3c17.1,1.6,34.2,5.9,50.8,10.8
	c12.1,3.6,23.4,9.9,37.9,16.4c-10.3-12.8-16.7-25.2-32.9-24.8C297.1,678.2,297.3,678.4,297.4,678.4z M437.9,372.5
	c0-23.1-8.4-33-31.1-37c-2.9-0.5-5.6-2-8.4-3c13.2-3.1,26.2-5,39.3-5.4c11.3-0.4,16.5,8.5,20.7,17.2c3.4,7.1,0.3,13.3-3.9,19.8
	c-7.3,11.2-13.2,23.3-20.3,36.3c9.1-1.7,15.7-2.6,22-4.3c4.1-1.1,8-2.3,8.4-8.8c0.8-10.9,4.7-21.6,5.5-32.5
	c1-14.1,0.7-28.3,0.1-42.4c-0.4-8.9-5.4-13.5-15-11.7c-5.2,1-10.6,1.5-15.9,2.2c-18.2,2.3-36.7,3.8-50,15.9
	c4.7,18.9,9,37.1,13.9,55.2c1,3.9,4,7.3,6.1,10.9c0.7-0.5,1.5-0.9,2.2-1.4c-1.7,13.5-3.4,26.9-5.1,40.4c1.7,0.3,3.3,0.5,5,0.8
	c1.3-7.5,2.5-15.1,3.8-22.6c0.7,0,1.5,0,2.2,0c0.3,5.2,0.6,10.5,1,15.6C426.9,410,437.9,384.6,437.9,372.5z M904.5,681.7
	c3,0.2,7.1-1.8,9.1-4.2c11-13.4,7.8-28.9,5.7-44.2c-1.4,2.5-2.8,4.9-4.2,7.4c-0.5-0.2-1-0.4-1.6-0.6c1.5-5.8,3-11.7,4.6-18
	c-6-1.3-10.6-2.3-15.8-3.4c8.4,26.5,8.4,27.3-0.3,33.6c-1.9-21.1-25.6-37.4-46.9-31.5c7.9,5.6,21.3,3.6,22.1,17.5
	c0.6,10,2.4,20-1.7,31.9c-3.9-6-5.9-10.8-9.4-14c-17.2-15.7-38.4-22.6-62.8-4.8c-21.9,16-47.3,23.2-72.9,27.7
	c-14.7,2.6-25.5,6.5-32.8,21.1c49.4-26.8,101.4-31.2,153.4-26.3c2-3.6,5.2-5.4,8.6-6.9c0.7-0.3,2.8,0.9,2.8,1
	c-0.6,2.4-1.5,4.8-2.9,9.1C874.8,678.7,889.6,680.6,904.5,681.7z M176.9,782.4c10.7-5.2,20.9-11.4,30.8-18c5.4-3.6,10-8.4,14.6-13
	c9-9.1,17.4-18.9,27-27.3c4.3-3.8,10.9-4.8,16.5-7.1c-0.1-1-0.1-1.9-0.2-2.9c-9.1-0.4-19.4-3.5-26.9-0.3
	c-8.1,3.5-19.8,8.5-17.2,22.3c0.3,1.5-0.4,3.9-1.5,4.9c-8.8,8.1-17.1,16.9-26.8,23.8c-10.7,7.5-23.7,6.2-32.6-2.7
	c-7.7-7.8-10.8-17.4-5.9-28.4c1.3-2.9,1.7-6.2,2.5-9.3c-0.9-0.7-1.9-1.5-2.8-2.2c-5.6,5.1-13.3,9.3-16.3,15.7
	c-2.8,6.1-0.6,14.4-0.6,22.1c4.1,0.3,7.6,0.6,11.1,0.9c0,0.4,0,0.8,0,1.2c-3.5,0.3-6.9,0.7-10.4,1c0,0.7,0,1.4,0,2.1
	c5.7,0,11.4,0,17.2,0c0.1,0.5,0.1,0.9,0.2,1.4c-4.6,1.5-9.2,2.9-13.8,4.4c0.2,0.8,0.3,1.6,0.5,2.5c6.1-0.3,12.1-0.6,20.2-1.1
	c-5.6,2.7-9.6,4.6-13.6,6.5c0.5,1.2,1.1,2.4,1.6,3.6c5.6-2.4,11.3-4.8,19.1-8.1c-3.8,4-6.3,6.6-9.3,9.8
	C166.5,783.6,172.4,784.5,176.9,782.4z M866.2,731.4c9.5,19.4-1.7,37.7-23.1,37.7c-14.9,0-39.8-23.2-41.4-38.4
	c-0.2-2.3-1.1-4.9-2.6-6.7c-10.3-12.8-25.6-15.2-40.5-6.7c17.1,5.4,21.9,8.9,33.8,23.8c9.1,11.3,18,22.5,32.4,28.1
	c9.2,3.6,17.4,9.6,26.2,14.7c-0.2-1.2-0.6-3.1-1-5.3c4.3,2.3,7.8,4.2,12.9,6.8c-1.8-3.6-2.7-5.2-3.5-6.9c5.2,0.8,10,1.5,14.8,2.2
	c0.1-0.6,0.2-1.2,0.3-1.8c-3-1.5-5.9-3-11.1-5.7c7.6,0,12.4,0,19,0c-6.1-3.1-10.2-5.2-15.9-8.1c7.2,0.6,12.3,1,17.5,1.4
	c0.1-0.9,0.2-1.8,0.3-2.6c-2.9-0.8-5.9-1.5-11.3-2.9c5.1-0.5,7.7-0.8,11.9-1.2c-2.6-2.3-4.2-3.7-5.7-5c9.1-4,9.4-4.1,7.3-16.3
	c-2.1-12.1-12.8-10.6-21.2-14.2C865.7,727.6,865.4,729.8,866.2,731.4z M242.6,438.3c13.5,8.9,19.1,23.6,25.5,37.6
	c5.9,12.9,12.8,25.4,19.2,38c-8.4-30.6-17.5-60.7-28.6-90c-3-7.8-12.2-13.3-18.6-19.8c-0.6,0.6-1.3,1.2-1.9,1.8
	c3.1,7,6.2,13.9,9.3,20.9c-18.7-18-38.5-17-54.9,3.9C210.7,427.4,227.5,428.4,242.6,438.3z M783.8,406.7
	c-9.8,5.5-17.2,10.5-20.4,20.6c-7.2,22.6-14.9,45.1-22.7,67.5c-2.4,6.9-5.6,13.5-8.4,20.2c0.9,0.4,1.8,0.8,2.7,1.2
	c7-14.6,13.4-29.5,21.2-43.6c6.3-11.3,12.5-23.7,21.9-32.1c14.7-13.2,33.9-13.2,53.2-9.9c-17.3-18.6-34.4-19.2-56.6-0.8
	C778.1,421.5,780.7,414.9,783.8,406.7z M341.9,737c-17.1-5.3-34-11.1-51.3-15.5c-7.3-1.9-15.7-2.4-23-0.6
	c-15.5,3.7-29.8,17.3-37.8,33.7c36.2-14.4,72.9-19.2,110.8-14.4C341,739.1,341.4,738,341.9,737z M726.1,517.7
	c11.3-16.4,7-34.3,8.7-53.9c2,7.8,3.3,13,5.3,21.2c4.2-14.8,10.3-26.2,4.7-41.9c-26.9,34.9-43.5,71.8-50.1,114.2
	c14.8-7.6,22.6-26.8,26.8-59.5C723,504.1,724.4,510.5,726.1,517.7z M277.1,442c-0.7,15.4-1.7,28.9,7.3,40.7
	c1.1-5.9,2.1-11.3,3.1-16.7c4.1,17.5-1.9,35.9,10.1,53.2c1.5-9.4,2.8-16.8,4-24.3c4.6,22.6,4.1,46.9,27.3,62.1
	C321,514.4,305.8,476.2,277.1,442z M757.5,721.7c-11.3-2.3-24-0.6-35.5,2.1c-13.6,3.2-26.5,9.3-39.7,14.1
	c38.1-3.2,74.1,2.3,109.9,13.8C783.7,737.5,773.3,725,757.5,721.7z M181,741.8c0.1-1.4,0.1-2.8,0.3-4.1c0.4-3.7,0.9-7.4,1.3-11.1
	c-5.1-0.3-13-2.7-14.7-0.4c-4.4,5.7-8.5,13.8-8,20.6c0.5,7.5,5.2,15.4,15.6,16c20,1.1,33.4-12.8,31.3-33.8c-0.4-4.1-3-10.3-6-11.4
	c-5.7-2.1-12.5-1.1-16.9-1.3c3.4,7.6,7.2,13.5,8.5,20c0.4,2-5.5,5.4-8.6,8.2C182.9,743.5,182,742.6,181,741.8z M841.1,744
	c-3.6-2.3-10.5-5.6-10.2-6.7c2.1-7.2,5.8-13.8,9-20.5c-7.7-2.9-17.8-0.6-21.6,6.4c-5.1,9.5-3.8,19.6,4,28.4
	c7.6,8.6,17.3,14.9,28.3,10c6.1-2.7,12.1-10.7,13.6-17.4c1.7-7.6-3.2-16.2-11.6-18.7c-4.1-1.3-9.5,1.9-15.1,3.2
	c2.9,5.7,4.6,9,6.3,12.3C842.8,742,842,743,841.1,744z M259.5,662.5c-8.7-5.8-17.4-11.7-26.1-17.5c-0.8-0.8-1.7-1.7-2.5-2.5
	c-10.9-6.9-21.7-14.3-33-20.6c-5.5-3-12-4.1-18.1-6c-0.3,1-0.6,2-0.9,2.9c2.6,2.5,5.3,4.9,9.1,8.5c-22-5.6-38.2,7.4-36.5,28.2
	c2.2-2.1,4-3.8,5.8-5.5c15.5-14.8,35.3-18,54-8.4c16.3,8.4,32.4,17.1,50.1,26.5c-1.2-3.3-1.7-4.6-2.2-5.9L259.5,662.5z M96.5,682
	c1-0.5,2-1.1,3-1.6c-0.7-10-1.3-20-2.1-31.5c-4.8,4.4-7.5,6.9-10.4,9.6c5.1-11.8,9.8-22.7,14.5-33.6c-0.9-0.8-1.9-1.6-2.8-2.3
	c-3,1.2-6.6,1.8-9,3.8c-11,9.2-21.7,18.9-32.6,28.4C68.8,662.9,82.6,672.4,96.5,682z M927.7,681.6c13.2-9.3,26.4-18.7,38.5-27.2
	c-14.3-11.2-27.4-21.6-40.5-31.9c-1,0.9-2,1.9-3,2.8c6.1,12.4,12.2,24.7,18.3,37c-4.1-3.6-8.5-7.4-14.4-12.5
	c-1,11.6-1.8,21-2.6,30.5C925.2,680.8,926.4,681.2,927.7,681.6z M775.9,661.4c6.6-3.8,13.5-7.2,19.7-11.5
	c19.4-13.4,39.6-19.4,61.7-6.7c5.3,3,10,6.9,15,10.4c0.8-0.7,1.7-1.4,2.5-2.1c-4.6-6.8-7.9-15.2-14.1-19.9
	c-6.1-4.6-15.2-5.3-22.7-7.6c1.1-0.8,3.8-2.6,7.3-5.1c-16.9-2.1-29.4,5.2-71,40.2C774.8,659.9,775.4,660.6,775.9,661.4z M240.8,646
	c-2.6-4.9-4.7-9-6.9-13.1c0.5-0.3,0.9-0.7,1.4-1c8.1,10.2,16.2,20.4,24.2,30.6c0,0-0.3-0.3-0.3-0.3c2.6,0.6,5.1,1.3,8.4,2.1
	c-2.2-5-4.1-9.3-6.2-13.9c12.4,9.7,24.2,18.9,36,28.1c0,0-0.3-0.2-0.3-0.3c2.5-1,5-1.9,8.5-3.2c-24-25-52.3-41.9-85.5-50.3
	c-0.6,0.8-1.2,1.6-1.9,2.4c4.2,5.2,8.5,10.3,12.7,15.5c0.8,0.8,1.7,1.7,2.5,2.5C235.3,645.3,237.3,645.5,240.8,646z M785.1,647.6
	c6.6-6.7,13.3-13.4,19.9-20.1c-0.8-0.8-1.6-1.7-2.4-2.5c-31.9,9.3-60.2,24.6-84.4,50.5c21.6-0.7,31.1-18.3,47-30.4
	c-3.2,7.6-5.1,11.9-7,16.3c1.1,0.8,2.2,1.6,3.3,2.4c9.2-10.7,18.4-21.3,27.6-32c0.2,0.3,0.5,0.5,0.7,0.8c-2.3,4.5-4.6,9-7,13.4
	C783.6,646.5,784.3,647,785.1,647.6z M130.8,734.9c-11.8,9-21.3,16.2-29.4,22.3c7,6.5,15.1,11.1,18.6,18
	c5.4,10.5,12.3,14.8,25.7,13.4C130.3,773.8,129.9,755.8,130.8,734.9z M890.9,737.4c5.5,19.1,1.4,35.9-11.1,51.7
	c7.2-2.1,16.4-3.9,19.3-9.1c5.6-10.1,12.7-17,25.7-21.4c-11.7-8.6-21.6-15.8-31.5-23.1C892.6,736.1,891.8,736.7,890.9,737.4z
	 M578.8,446.5c4.7,9.8,7.6,21.4,14.8,28.8c4.2,4.3,15.4,1.7,23.5,2.3c-0.1-3.2,0.6-6.7-0.5-9.5c-1-2.3-4.1-3.6-6.1-5.2
	c2-1.1,4.1-2,5.9-3.4c0.3-0.2-0.9-3.6-2-4c-11-4.3-22-8.2-33.1-12.3C580.4,444.3,579.6,445.4,578.8,446.5z M560,404.5
	c4.8,6.8,8,15.9,14.3,19.3c11.9,6.3,25.5,9.3,40,14.2C596.2,408.4,577.4,396.1,560,404.5z M406.1,476.5c4.2,0.7,8.1,2,11.8,1.7
	c4.2-0.3,10.2-0.8,12.1-3.5c6-8.6,10.4-18.3,15.6-28c-13.3-3.6-37,6.7-37.2,14.9c2.6-0.6,5.3-1.3,10.8-2.6
	C411.6,465.2,402.4,466.6,406.1,476.5z M410.7,435.9c6.5-0.8,12.7-2.5,18.7-4.6c15-5.4,31.8-9.1,32.2-30.1c0-0.3-0.1-0.7-0.2-1.9
	C436.4,400.9,424.6,419.6,410.7,435.9z M120.1,379.2c2.2,7.6,6.2,11.1,14.1,6.5c11.3-6.6,22.7-13.1,34.1-19.7
	c-0.6-1.7-1.1-3.3-1.7-5c-16.5,2-32.9,4-50.2,6.1C117.7,371.1,118.9,375.2,120.1,379.2z M856.3,366.2c9.3,6,18.3,12.8,28.1,17.8
	c4.1,2.1,12.1,2.4,14.9-0.2c4.1-3.8,5.2-10.9,7.6-16.6c-18.3-1.9-33.9-3.6-49.5-5.2C857,363.4,856.7,364.8,856.3,366.2z M594,299.9
	c-10.5-10.1-21.8-21.1-33.1-31.9c-1.6,7.6-3.7,17.3-5.8,27.2C569.5,296.9,582.6,298.5,594,299.9z M433.1,298.9
	c7.2-0.8,20-2.3,34.4-3.9c-1.9-9.7-3.7-19.2-4.8-24.5C452.3,280.6,441.1,291.3,433.1,298.9z M84.8,777.9c11.4,2.3,22.9,4.6,34.3,6.8
	c0.7-1.3,1.5-2.5,2.2-3.8c-4.9-5.1-9.1-11.1-14.8-15c-10.7-7.4-12.6,9.3-21.7,7.8C84.8,775.2,84.8,776.6,84.8,777.9z M625.5,523.8
	c0.6-0.4,1.1-0.7,1.7-1.1c-2.6-12.2-5.2-24.4-8.2-38.1c-5.2,3.7-9.2,6.5-14.5,10.3C611.9,505.2,618.7,514.5,625.5,523.8z
	 M939.3,774.1c-6.6-3.1-13.3-8.9-19.8-8.6c-9.1,0.3-13.2,9-15.4,17.2c11.9-1.8,23.3-3.6,34.6-5.3
	C938.9,776.3,939.1,775.2,939.3,774.1z M109,345.3c1.4,14.9,10.8,18,42.3,11.6C137.2,353,123.1,349.1,109,345.3z M404.2,485
	c-2.7,13.2-5.1,24.8-7.5,36.4c0.8,0.5,1.6,1,2.3,1.4c6.3-9.1,12.6-18.2,19.4-28.1C413.6,491.4,409.2,488.4,404.2,485z M913.4,346.5
	c-13.3,3.6-26.7,7.1-43.3,11.6C901.3,362.7,913.7,359,913.4,346.5z M617,449.7c-5.7-11-34.2-21.4-46.2-15.6
	C585.7,439.1,600.7,444.2,617,449.7z M449.6,428c-13.6,4.9-27.3,9.8-40.9,15c-0.8,0.3-0.6,3.5-1.3,9c14.7-10.8,31.2-10.8,44.2-18.8
	C450.9,431.4,450.3,429.7,449.6,428z M220,391.8c-14-15-24.9-15.5-37.1-1.9C194.9,390.5,208.2,391.2,220,391.8z M938.1,626.5
	c13,14.1,26,18.3,40,12.9C964.6,635,952.5,631.1,938.1,626.5z M803.5,391.4c11.5,0,24.3,0,37.3,0C829,378.4,824.1,378.5,803.5,391.4
	z M144.6,388.2c-7.4,1.1-12.7,1.9-19.3,2.9c2.7,5.8,5,10.8,8,17.2C137.6,400.8,140.8,395,144.6,388.2z M897.2,390.5
	c-7.4-0.4-12.7-0.7-19.2-1c4.3,6.5,7.9,11.9,12.2,18.3C892.6,401.8,894.6,396.8,897.2,390.5z M144.1,617.4
	c-14.8-1.3-18,1.1-19.3,14.3C131.2,626.9,137.2,622.5,144.1,617.4z M790,712.4c8.2,7.8,15.1,8.5,22.1,0
	C805.3,712.4,798.4,712.4,790,712.4z M232.3,711.6c-7.1,0.3-14.3,0.7-23,1.1C218.3,722.4,225.4,718.2,232.3,711.6z"/>
</svg>
