<?xml version="1.0" encoding="utf-8"?>
<!-- Generator: Adobe Illustrator 24.0.1, SVG Export Plug-In . SVG Version: 6.00 Build 0)  -->
<svg version="1.1" id="Layer_1" xmlns="http://www.w3.org/2000/svg" xmlns:xlink="http://www.w3.org/1999/xlink" x="0px" y="0px"
	 viewBox="0 0 1024 1024" style="enable-background:new 0 0 1024 1024;" xml:space="preserve">
<path d="M514.1,609.1c-55.5,0-111.1,0.3-166.6-0.1c-19.9-0.1-35.6-9.3-48.4-24.7c-11.1-13.2-14.6-28-14.5-44.6
	c0.1-108.5-0.1-217.1,0.2-325.6c0-18.3,8.3-33.3,22.1-45.5c14.1-12.5,30.4-16.5,48.8-16.5c106.4,0.3,212.8,0.1,319.3,0.2
	c21.4,0,38.6,8.2,52.6,25.2c11.1,13.5,15.2,28.3,15.2,44.9c0.1,105.8,0.1,211.6,0,317.4c0,15.1-2.8,30-12.5,41.8
	c-9.7,11.7-21.2,22.1-37,25c-7.4,1.4-15,2.5-22.6,2.5C618.4,609.2,566.2,609.1,514.1,609.1z M663.2,468.8c0-0.4,0-0.8-0.1-1.2
	c-1.2-2.2-3.1-4.3-3.5-6.6c-1.2-7.2-1.7-14.5-2.8-21.7c-1-6.7-2.4-7.2-8.2-3.2c-4.6,3.2-9.2,6.7-13.7,10c-0.3-0.4-0.7-0.8-1-1.2
	c2.5-3,5.2-5.8,7.3-9c2.1-3.1,3.6-6.6,5.4-10c-3.5-1.2-7-3-10.6-3.6c-9.3-1.6-18.7-2.7-28.2-3.9c2.1-2.1,3.7-5.2,5.8-5.6
	c8.6-1.5,17.3-2.4,26-3.1c3.8-0.3,4.7-2.6,4.3-5.3c-0.4-3-2-5.8-2.9-8.7c-0.4-1.3-0.7-2.9-0.4-4.2c0.6-2.9,2.2-5.8,2.2-8.6
	c0.1-69,0.1-138,0.1-207c0-2.2,0-4.5,0-6.9c-13.8,0-26.9,0-40.1,0c-0.1,1.2-0.3,2-0.3,2.8c0,61.8,0,123.7,0,185.5
	c0,5.3,0.1,10.6,0,15.9c-0.1,3.5,1.2,4.7,4.7,5c4.8,0.5,9.5,1.8,14.3,3c0.9,0.2,1.7,1.3,2.5,2c-6.7,1.8-12.6,2-18.5,2.5
	c-3,0.3-5.3,2-4,5.4c1.1,2.8,2.9,5.3,4.4,7.9c-0.2,0.3-0.5,0.6-0.7,1c-3.3-2.1-6.6-4.2-10.5-6.7c-0.8,2.4-1.9,4.7-2.2,7
	c-0.9,5.9-1.5,11.9-2.3,17.9c-0.1,1-1.3,1.8-1.9,2.7c-0.6-0.9-1.7-1.8-1.8-2.8c-0.7-5.9-0.5-12-1.8-17.7c-1.8-7.4-3.1-7.4-8.6-2.1
	c-0.7,0.7-2,0.7-3,1c-0.1-0.9-0.6-2-0.3-2.8c0.8-1.8,2.9-3.5,2.9-5.2c-0.1-2.9,0.5-7.4-5.4-5.8c-2.3,0.6-5,0-7.5-0.1
	c-4.2-0.2-5.2-2.2-3.7-5.5c4.4-0.7,8.6-0.9,12.5-2c1.7-0.5,4.2-4,4-4.1c-4.4-5.1-0.7-10.5-0.7-15.7c-0.1-61,0-122-0.1-183
	c0-2-0.2-4.1-0.3-6.5c-11.4,0-22.3,0.4-33.2-0.1c-6.4-0.3-8.3,2-8.3,8.2c0.1,85.6,0.1,171.2,0.1,256.8c0,2,0.3,3.9,0.5,5.9
	c2.8,0,4.8,0,8,0c-2.4,2.1-3.9,3.3-5.3,4.6c-3.7,3.5-3.5,7.9-1.6,11.8c0.8,1.7,4,2.7,6.3,3.1c8.1,1.3,16.3,2.2,25.6,3.4
	c-2.1,2.2-3.2,4.4-4.6,4.7c-7.2,1.4-14.5,2-21.7,3.5c-3,0.6-6.7,2.2-8.4,4.6c-2.3,3.2,0.5,5.8,3.1,8.3c2.7,2.5,4.6,6,7.6,10.1
	c-2.5-0.6-3.6-0.5-4.3-1c-3.7-2.7-7.2-5.7-11.1-8.3c-4.3-2.9-7.2-1.4-7.9,3.6c-1,7.2-1.7,14.4-2.9,21.5c-0.3,1.8-1.8,3.4-2.7,5.1
	c-1.6-1.8-4.1-3.5-4.5-5.6c-1.3-6.5-1.6-13.3-2.8-19.9c-0.4-2-2.1-4.7-3.9-5.3c-1.8-0.6-4.7,0.4-6.4,1.6c-4.7,3.2-9.1,6.9-13.6,10.5
	c3-5.2,6.9-9.4,10.3-13.9c1.3-1.7,2.2-5,1.4-6.5c-1.2-2.1-4-4.4-6.3-4.7c-10.3-1.2-20.7-1.7-32.1-2.5c1.6-2.4,2.2-4.7,3.3-4.9
	c9.2-1.7,18.4-3.4,27.7-4.1c4.7-0.4,7-1.9,5.8-6.3c-1.2-4.3-3.6-8.3-5.5-12.5c4.5-0.2,5.7-2.9,5.7-7.7c-0.1-86-0.2-172.1,0-258.1
	c0-5.7-2.1-7.3-7.3-7.2c-8.8,0.2-17.7,0.4-26.5-0.1c-6.4-0.4-8.2,1.6-8.2,8.1c0.2,59.9,0.1,119.9,0.1,179.8c0,6.1,0,12.3,0,18.4
	c0,3.4,0.9,4.9,5,4.9c6.3,0.1,12.6,1.6,19.8,2.6c-1.4,1.6-2,2.8-2.7,2.9c-6.5,0.7-13.1,1-19.6,1.9c-3.3,0.5-5.1,2.5-3.2,6.2
	c0.9,1.7,1.4,3.7,2.5,6.9c-4-2.5-6.5-4.1-10.6-6.7c-1.2,10.7-2.3,20.2-3.3,29.8c-2.3-2-3.8-4.2-4.1-6.6c-0.8-5.4-0.9-10.9-1.3-16.4
	c-0.3-4.5-2.4-5.4-6.1-3.1c-1.8,1.1-3.6,2.1-5.4,3.2c-0.1-3,1.5-5,1.7-7.2c0.2-2-0.8-5.8-1.8-5.9c-6.4-1.1-12.9-1.4-19.7-2.1
	c-0.3-1.2-0.7-2.7-1-4.1c6.1-0.4,12.1-0.8,18-1.3c5.2-0.5,6.3-2.5,4.2-7.3c-0.5-1.2-0.4-2.9-0.3-4.3c0.3-2.6,1.3-5.2,1.3-7.9
	c0.1-61,0.1-122,0.1-183c0-7.2-1.2-8.6-8.7-8.8c-8.4-0.2-16.8,0.2-25.2-0.1c-5.8-0.2-7.9,1.7-7.9,7.9c0.2,66.3,0.1,132.5,0.1,198.8
	c0,1.7,0.5,3.5-0.1,5c-2.2,6.2-1.7,10.8,5.9,12.1c0.2,0,0.2,0.7,0.5,1.7c-1.3,1-3.6,1.8-4,3.2c-1.2,3.9-2,8-2,12
	c0,1,3.3,2.6,5.3,2.9c8.8,1,17.7,1.6,26.4,2.3c0.4,5.4,0.4,5.5-4.5,6.2c-7.5,1.1-15.1,1.8-22.7,3c-9.5,1.5-9,5.5-5.2,10.5
	c3.5,4.6,6.9,9.3,10.3,13.9c-5.8-3.1-10.8-7-15.8-10.9c-4.2-3.3-7.1-2.7-8,2.2c-1.2,6.1-1.7,12.2-2.6,18.3
	c-0.7,4.8-1.5,9.5-2.3,14.2c-0.5,0.3-0.9,0.7-1.4,1c-1.5-2.1-3.8-4.1-4.2-6.5c-1-4.6-0.6-9.5-1.3-14.2c-0.9-5.8-2.3-11.6-3.4-17.4
	c-0.8-0.2-1.6-0.4-2.5-0.6c-4.9,3.5-9.8,7-14.8,10.4c-0.5-0.3-1-0.5-1.4-0.8c3.3-5.9,6.5-11.7,10.5-18.8c-8.5-1.1-14.7-1.8-21-2.8
	c-6.3-1-12.6-2.2-18.9-3.4c0.1-1.1,0.3-2.1,0.4-3.2c1.8,0.2,3.6,0.3,4.8,0.4c9.4-4.6,20.6-2.1,29.7-5.8c2.1-7.7,0.1-13.7-6.4-18.2
	c-1.2-0.8-1.7-2.9-2.2-3.7c3.3,1.2,6.4,2.4,9.3,3.5c0-74.4,0-147.4,0-221.8c-4.9,1.5-8.8,2.2-12.1,3.9c-10.3,5-18.2,12.2-23.4,23
	c-3.4,7.1-6.2,13.8-6.2,21.6c0,69.9,0,139.7,0,209.6c0,38.5,0,77,0,115.5c0,9.8,2.8,18.8,7.7,27c10.3,17.3,26.5,24.6,46,24.6
	c104.7,0.1,209.5,0.2,314.2-0.1c11.1,0,22.3-0.9,32.7-6.9c16.8-9.7,25.5-24.2,25.7-42.9c0.6-46.8,0.2-93.5,0.2-140.3
	c0-61.6-0.1-123.3,0.1-184.9c0.1-21.5-12.9-39.4-31.6-47.4c-7.9-3.4-10.2-2.3-10.2,6.5c0.2,67.9,0.1,135.9,0.1,203.8
	c0,2.9,0,5.9,0,9.7c3.5-2.3,6.3-4.2,9-6c-5.4,7.3-10.4,14.2-8.8,23.6c12.7,4,26.4,0.9,38.2,7.6c-1.9,0.6-4.1,0.1-5.5,0.9
	c-8.8,4.7-18.5,4.1-28,4.8c-7.4,0.6-9.6,3.5-5.7,9.9c3,4.8,7,8.9,10.6,13.3c-1.9,0.4-3.2,0.2-4-0.5c-3.3-2.7-6.4-5.6-9.6-8.3
	c-5.2-4.3-9.1-3.3-10.1,3.2c-1.3,7.9-1.6,16-2.7,23.9C667.8,466.2,669.3,471.4,663.2,468.8z M538.7,728.1c5-11.7,9.8-23.4,15-34.9
	c0.7-1.5,3.2-2.2,4.8-3.2c0.8,1.7,2.2,3.4,2.3,5.1c0.6,8.3,1.2,16.6,1.3,25c0.2,14.1,0.1,28.1,0.1,42.6c7.4,0,13.5,0,20.2,0
	c0-2.1,0.1-4,0-5.8c-0.8-14-1.5-28-2.5-42c-1.1-15.9-2.4-31.8-3.8-47.7c-0.4-4.6-0.4-9.8-2.5-13.7c-2-3.8-16.9-1.4-18.9,2.7
	c-7.4,15.3-14.7,30.8-21.9,46.2c-2.9,6.2-5.6,12.6-8.7,19.6c-2.4-3.4-4.6-5.9-6-8.8c-4-8.3-7.5-16.7-11.4-25
	c-4.9-10.4-9.8-20.8-15.2-31c-1.1-2-3.9-4-6.1-4.3c-4.9-0.7-9.9-0.2-15-0.2c-1.8,19.9-3.7,38.2-5.2,56.5
	c-1.3,16.7-2.3,33.5-3.2,50.3c-0.1,1.1,1.7,3.4,2.7,3.4c5.5,0.3,11.1,0.2,16.8,0.2c1.2-25.7,2.3-50.5,3.5-75.3
	c0.7-0.2,1.4-0.4,2.2-0.6c2.3,4.6,4.8,9.1,6.9,13.8c6.4,14.4,12.6,28.9,19.2,43.2c0.8,1.8,3.3,3.6,5.3,3.9c3.6,0.6,7.5,0.2,11.6,0.2
	C533.2,741,535.9,734.6,538.7,728.1z M48.6,653.2c7.2-0.6,14.3-1.5,21.4-1.8c12.7-0.5,25.1-0.1,37.5,4c15.9,5.3,26.6,15.2,31.5,31.1
	c5.3,17.2,4.8,34.3-3.4,50.5c-4.4,8.7-11.4,15.4-20.1,19.7c-15.7,7.6-32.3,9-49.4,6.5c-3.9-0.6-8-0.5-11.9-0.3
	c-4.7,0.3-5.6-1.8-5.6-6.1c0.2-28.8,0.1-57.6,0.1-86.3C48.6,665,48.6,659.5,48.6,653.2z M67.5,717.7c0,7.6,0,15.1,0,22.7
	c0,4.1,1,7.2,6.4,6.3c3.5-0.5,7.1,0.2,10.7-0.1c15.6-1.5,29.5-6,34.1-23.1c1.9-6.9,2.3-14.4,1.9-21.6c-1.1-18.6-9.8-28.3-27.8-32.2
	c-4.8-1-9.7-1.8-14.6-2.2c-6.7-0.5-10.7,3.2-10.7,9.7C67.5,690.7,67.5,704.2,67.5,717.7z M221.1,716.7c8.1,11.7,14.4,20.8,20.5,30
	c2.1,3.2,4,6.6,5.6,10.1c0.7,1.6,1.1,3.9,0.4,5.3c-0.4,0.9-3,1-4.7,1c-5,0.1-10.1,0-14.4,0c-8.5-13.1-16.4-25.7-24.8-38.2
	c-2.9-4.3-15.3-6.4-18.4-2.8c-2.1,2.4-2.3,6.8-2.3,10.4c-0.1,9.3,0.4,18.5,0.3,27.8c0,0.9-2.6,2.5-4,2.6c-5,0.3-10,0.1-15.8,0.1
	c0-7.5,0-14.5,0-21.6c0-10.6-0.1-21.1-0.1-31.7c0-12,0-23.9,0-35.9c0-4.7,0.5-9.5-0.5-13.9c-1.1-4.7,0.9-6.2,4.7-6.8
	c14.5-2,28.9-3.1,43.5-0.3c7,1.3,13.3,2.8,19.4,7c12.7,8.8,14,24.4,11.9,34.9c-1.8,9-7,15.6-15.7,19.1
	C224.2,714.9,222,716.2,221.1,716.7z M221.5,686.2c0-7.9-2.6-13.7-8.4-14.8c-8.3-1.6-16.8-2.2-25.2-2.3c-3.1,0-5.7,2.7-5.5,7
	c0.4,7.1,0.2,14.3,0,21.5c-0.2,4.9,1.4,7.8,6.7,7.4c5.8-0.4,11.8-0.1,17.4-1.5C217.7,700.5,221.6,699.7,221.5,686.2z M969.7,763.1
	c4.9,0.4,6.7-1.2,6.6-6.3c-0.2-32.8-0.2-65.6,0-98.4c0-5-1.6-7-6.5-6.4c-1.9,0.2-3.8,0.1-5.6,0.2c-4.1,0.2-5.9,1.8-5.7,6.4
	c0.4,10.7,0.3,21.5,0,32.2c-0.1,1.8-2.2,5.1-3.5,5.1c-15.1,0.4-30.1,0.2-45.6,0.2c0-9.6,0-18.4,0-27.2c0-17.7,0-17.7-18.4-16.7
	c0,36.8,0,73.7,0,110.5c6.2,0,12.1,0,18.4,0c0-14.6,0.1-28.8-0.1-43.1c-0.1-4.4,1.3-6,5.8-5.9c12.6,0.2,25.2,0.2,37.9,0
	c4.5-0.1,5.8,1.7,5.7,6c-0.2,14.1-0.1,28.2-0.1,43.3C962.3,763.1,966,762.8,969.7,763.1z M451.9,763.1c-4.1,0-6.8,0-9.6,0
	c-12.8,0-13.2-0.3-16.4-13.2c-0.1-0.4-0.1-0.8-0.2-1.2c-3.1-11.1-4.4-12.1-16.1-12.1c-10.1,0-20.2,0.3-30.3-0.1
	c-4.6-0.2-6.3,1.7-7.3,5.6c-1.6,5.7-3.3,11.4-5.4,16.9c-0.7,1.7-3.1,3.8-4.8,3.9c-5.6,0.5-11.3,0.2-17.4,0.2
	c7.9-20.7,15.5-41,23.4-61.2c5.3-13.5,11-26.8,16.6-40.2c3.6-8.8,5.1-9.7,14.7-9.7c6,0,10.6,0.5,12.8,7.8
	c3.2,10.4,7.9,20.4,12.1,30.6c7.3,17.7,14.8,35.4,21.9,53.2C448.1,749.5,449.7,755.9,451.9,763.1z M398.9,674.7
	c-0.8,0.1-1.6,0.2-2.4,0.3c-2.1,5.7-4.3,11.4-6.3,17.1c-3,8.4-6,16.8-8.7,25.2c-0.3,1,1.5,3.8,2.4,3.9c10.2,0.3,20.4,0.2,32.7,0.2
	C410.2,704.6,404.5,689.6,398.9,674.7z M327.1,652.1c-19.3-0.4-38.7-0.2-58,0c-1.5,0-4.3,2.4-4.4,3.8c-0.5,7.9-0.5,15.9-0.3,23.8
	c0.2,10.5,1.2,21,1.1,31.4c-0.1,15.5-0.6,31-1.2,46.4c-0.2,4.4,2.3,5.4,5.8,5.4c22.7,0,45.4,0,68.8,0c0.5-5.4,1-10.6,1.6-16.4
	c-16.2,0-31.5,0-46.8,0c-8.7,0-10.3-1.9-10-10.4c0.2-5.2,0-10.4-0.4-15.6c-0.3-4.6,0.6-7,6.1-6.9c13.4,0.3,26.9,0.1,40.2,0.1
	c0-6.3,0-11.9,0-17.6c-15.4,0-30.3,0-45.9,0c0.3-6,1.2-11.7,0.7-17.3c-0.7-8.5-1.1-8.4,7.5-9.2c1.8-0.2,3.5-0.6,5.3-0.7
	c12.4-0.1,24.8,0,37.3,0C338.9,656.9,337.2,652.3,327.1,652.1z M735.2,696.2c-20.2,0-20.2,0-19-20.5c0-0.2,0-0.4,0-0.6
	c0.2-3.6,1.5-5.6,5.7-5.5c10.4,0.3,20.7,0.1,31.1,0.1c16.6,0,13.4,1.5,13.6-12.4c0-1.6-0.2-3.2-0.3-5.3c-21,0-41.5,0.2-62.1-0.1
	c-5.6-0.1-7.1,1.7-7.1,7.2c0.2,32.6,0.1,65.2,0.1,97.8c0,2,0,4,0,5.8c25.4,0,49.8,0,74,0c0-5.5,0-10.7,0-15.7
	c-0.9-0.1-1.3-0.3-1.7-0.3c-15.1,0-30.3-0.2-45.4,0.1c-5.9,0.1-7.9-2.5-7.9-7.8c0-5.7,0-11.4,0-17c0-7.4,2.4-9.6,9.4-9.2
	c10.7,0.5,21.3,0.7,32,1.2c3.9,0.2,5.1-1.9,5.2-5.2c0.1-3.9,0-7.8,0-12.5C753.3,696.2,744.3,696.2,735.2,696.2z M867.3,654.7
	c-11.8-2.5-23.2-5.6-35.9-4.3c-21.5,2.2-36.6,16.9-42.7,35.1c-6.1,18.6-5.6,36.7,3.2,54.2c4.2,8.3,9.9,15.5,18.8,19.7
	c16.6,7.8,33.6,7.5,50.9,3.5c12.2-2.8,13.4-5.1,8.3-16.7c-0.7-1.5-4.2-3.3-5.5-2.7c-10.4,4.3-21,5.1-32.1,3.4
	c-11.5-1.7-21.6-11.3-24.3-22.6c-2.2-9.2-2.1-18.1-1.2-27.4c1.9-17.7,18.3-31.4,35.3-29.5c8,0.9,15.9,3.4,23.6,5.1
	c1.6-4.7,3.2-9.8,5.1-15.3C870,656.4,868.8,655,867.3,654.7z M629.1,677.2c0,26.5-0.1,53,0.1,79.5c0,2.1,1.8,5.8,3.2,6
	c5,0.7,10.2,0.3,15.6,0.3c0-5.2,0-9.4,0-13.7c0-24,0.1-48.1-0.1-72.1c0-5.3,1.8-7.7,7.3-7.6c8.8,0.2,17.7,0.1,26.5,0.1
	c0.3-2,0.7-4.4,1-6.9c1.2-8.6-0.7-10.8-9.4-10.8c-21.5,0-42.9,0-64.4,0c-15.6,0-15.6,0-15.2,15.8c0,0.4,0.2,0.8,0.5,1.9
	c11.2,0,22.5,0,34.8,0C629.1,672.7,629.1,675,629.1,677.2z M490.3,836.8c-4.6-11.1-9.2-22.3-13.9-33.4c-1.9-4.6-5-7.4-10.4-6.3
	c-5,1-4.4,5.5-4.7,8.9c-1.4,17.6-2.6,35.3-3.8,52.9c-0.3,4.1,0,8.2,0,12.3c4.2,0,7.5,0,11,0c0.7-13.2,1.2-26.2,2.1-39.1
	c0.2-3,1.6-5.8,2.4-8.8c3.6,6.7,5.5,13,7.8,19.1c1.9,5.2,4,10.4,6.5,15.3c2.5,4.9,7.9,5.2,10.3,0.4c5.6-11.7,10.6-23.6,16.6-37.2
	c0.7,3.3,1.2,4.6,1.2,5.9c0.2,5.1,0.3,10.2,0.4,15.3c0.2,7.6,0.2,15.2,0.6,22.8c0.1,2.1,0.8,5.4,2,5.8c2.2,0.8,5.4,0.5,7.6-0.5
	c1.4-0.6,2.6-3.3,2.5-5.1c-0.2-7.4-0.8-14.8-1.4-22.2c-1-13.2-1.8-26.5-3.2-39.7c-0.2-2.2-2.7-5.1-4.8-5.9c-3.4-1.3-6.3,0.6-7.8,4.3
	c-4,9.7-8.2,19.3-12.3,28.9c-1.7,4-3.2,8-5.6,13.7C491.9,840.5,491.1,838.7,490.3,836.8z M643,801.6c0-4.4-2.7-4.4-5.8-4.5
	c-3.4-0.1-5.7,0.6-5.6,4.7c0.2,6.7,0,13.5,0,20.2c0,6.8,0,13.5,0,20.9c-2-0.9-3.8-1.2-4.5-2.1c-7.9-12.1-15.6-24.3-23.4-36.4
	c-4.5-6.9-6.3-9.1-15.1-5.2c0,8.3-0.1,16.7,0,25c0.1,12.4,0.5,24.7,0.5,37.1c0.1,10.7-0.1,10.7,10.3,10.1c0.6,0,1.1-0.4,1.8-0.7
	c-0.4-8.2-0.9-16.4-1.1-24.6c-0.2-8.2,0-16.4,0-24.7c0.9-0.2,1.8-0.4,2.7-0.6c8.2,13.4,17,26.5,24.6,40.2
	c5.2,9.4,5.8,10.7,15.5,10.2C643,847.8,642.9,824.7,643,801.6z M440.6,870.9c-14.6,1.4-12,2.2-15.7-9.8c-1.6-5.2-3.4-7.8-9.2-7.2
	c-5.2,0.5-10.5,0.2-15.8,0.1c-3.9-0.1-6.4,1.2-6.8,5.5c-0.1,1.4-0.8,2.8-1.2,4.1c-2.8,8.7-3.9,9.3-14.3,7.2
	c2.8-8.8,5.4-17.7,8.4-26.3c4.9-13.9,9.9-27.8,15.2-41.6c1-2.5,1.4-6.2,6-5.8c4,0.4,7.2,0,9,5.4c5.8,17,12.4,33.7,18.6,50.6
	C436.9,858.8,438.6,864.8,440.6,870.9z M419.2,843.1c-3.1-9.8-5.7-18.4-8.6-27c-0.3-1-1.6-1.6-2.4-2.4c-0.8,1-2,2-2.4,3.2
	c-2.2,7-4.3,14-6.3,21c-1.1,3.6-0.2,6.1,4.1,5.9C408.6,843.7,413.7,843.4,419.2,843.1z M682.5,853.2c-5.4-11.4-5.7-23.3-0.7-34.7
	c3-6.8,8.1-12.2,16.7-11.1c4.7,0.6,9.3,2.1,14,3c1.1,0.2,3.2-0.4,3.5-1.2c0.9-2.1,2.1-4.9,1.5-6.8c-2-5.9-8-4.5-12.5-5.6
	c-13.5-3.2-24.2,1.6-31.4,12c-11.1,16-10.9,36.7,0.3,53.3c3,4.4,9.3,8.1,14.6,9.2c7.4,1.6,15.5,0.9,23.2,0.1
	c2.9-0.3,7.9-0.4,8.1-5.2c0.4-8.8,0.1-17.7,0.1-26.5c0-4.2-2.3-5.9-6.3-5.9c-4.1,0-6.3,1.7-6.3,6c0,7,0,14,0,21
	C697.7,864.6,684.8,858.1,682.5,853.2z M349.7,797.1c-18.1-4.4-31.9,1.9-38.7,19.4c-4,10.1-3.7,20.6-2.2,31
	c1.5,10.4,8.4,17.6,16.6,22.8c3.2,2,8.4,1,12.7,1.1c4.8,0.2,9.7-0.2,14.5,0.1c5.6,0.3,8-1.9,7.9-7.6c-0.2-7.5,0.4-15.1,0.4-22.7
	c0-2-0.1-5.1-1.3-5.8c-2.1-1.2-5.4-1.9-7.5-1.1c-1.6,0.6-2.9,3.9-3,6.1c-0.4,6.8-0.1,13.6-0.1,20.3c-8.9,3.4-23.2-2.6-26-9.2
	c-4.8-11.2-4.1-22.4,0-33.2c1.6-4,6.6-8.4,10.8-9.4c5.5-1.2,11.8,0.4,17.5,1.5c4.2,0.8,7.6-0.9,7.7-5.2c0-2.2-0.5-4.4-0.7-6.3
	C355.3,798.3,352.5,797.8,349.7,797.1z M552.1,865.2c-0.1,4.7,2.2,6.9,6.5,7c4.4,0,5.1-2.9,5-6.7c-0.2-9.7-0.2-19.4,0-29.2
	c0.1-10.6,0.7-21.3,0.7-31.9c0-4.1-1.6-7.3-6.9-7.4c-5.7-0.1-5.2,3.4-5.1,7.1c0,9.7,0,19.3,0,29
	C552.1,843.8,552.3,854.5,552.1,865.2z M663.1,467.6c-0.3,0.3-0.6,0.6-0.8,0.9c0.3,0.1,0.6,0.2,0.9,0.2
	C663.2,468.4,663.2,468,663.1,467.6z M739.2,794.1c1.5,0,3,0.4,4.4,1.2c1.4,0.8,2.6,1.9,3.4,3.3c0.8,1.4,1.2,3,1.2,4.5
	c0,1.6-0.4,3.1-1.2,4.5c-0.8,1.4-1.9,2.6-3.3,3.3c-1.4,0.8-2.9,1.2-4.5,1.2c-1.6,0-3.1-0.4-4.5-1.2c-1.4-0.8-2.5-1.9-3.3-3.3
	c-0.8-1.4-1.2-2.9-1.2-4.5c0-1.6,0.4-3.1,1.2-4.5c0.8-1.4,1.9-2.6,3.4-3.3C736.2,794.5,737.7,794.1,739.2,794.1z M739.2,795.6
	c-1.3,0-2.5,0.3-3.7,1c-1.2,0.7-2.1,1.6-2.8,2.8c-0.7,1.2-1,2.5-1,3.8c0,1.3,0.3,2.5,1,3.7c0.7,1.2,1.6,2.1,2.8,2.8
	c1.2,0.7,2.4,1,3.7,1c1.3,0,2.5-0.3,3.7-1c1.2-0.7,2.1-1.6,2.8-2.8c0.7-1.2,1-2.4,1-3.7c0-1.3-0.3-2.6-1-3.8
	c-0.7-1.2-1.6-2.1-2.8-2.8C741.7,795.9,740.5,795.6,739.2,795.6z M735.3,808.1v-9.7h3.3c1.1,0,2,0.1,2.5,0.3
	c0.5,0.2,0.9,0.5,1.2,0.9c0.3,0.4,0.5,0.9,0.5,1.4c0,0.7-0.3,1.3-0.8,1.9c-0.5,0.5-1.2,0.8-2,0.9c0.3,0.1,0.6,0.3,0.8,0.5
	c0.4,0.4,0.9,1,1.4,1.9l1.2,1.9h-1.9l-0.9-1.5c-0.7-1.2-1.2-2-1.6-2.3c-0.3-0.2-0.7-0.3-1.3-0.3h-0.9v4.1H735.3z M736.8,802.6h1.9
	c0.9,0,1.5-0.1,1.9-0.4c0.3-0.3,0.5-0.6,0.5-1.1c0-0.3-0.1-0.5-0.2-0.8c-0.2-0.2-0.4-0.4-0.7-0.5c-0.3-0.1-0.8-0.2-1.6-0.2h-1.8
	V802.6z"/>
</svg>
