<?xml version="1.0" encoding="utf-8"?>
<!-- Generator: Adobe Illustrator 24.0.1, SVG Export Plug-In . SVG Version: 6.00 Build 0)  -->
<svg version="1.1" id="Layer_1" xmlns="http://www.w3.org/2000/svg" xmlns:xlink="http://www.w3.org/1999/xlink" x="0px" y="0px"
	 viewBox="0 0 1024 1024" style="enable-background:new 0 0 1024 1024;" xml:space="preserve">
<style type="text/css">
	.st0{fill:#231F20;}
</style>
<title>logo-white</title>
<path id="Layer_2_1_" class="st0" d="M712.4,602.6c0,1.8-1.4,3.2-3.2,3.3c-8.7,0.2-16.6,1.2-25.9,1.6c-9.1,0.4-17.8,0.8-24.8,2.3
	c-1.1,0.2-2.1-0.1-2.9-0.8l0,0c-0.7-0.6-1-1.5-1-2.4v-17.8c0-1.8-1.5-3.3-3.3-3.3c-0.7,0-1.3,0.2-1.9,0.6
	c-7.3,5.5-14.9,10.5-22.8,15c-11,6.1-18.9,9-29.1,9c-25.3,0-46.9-14.8-46.9-53.6v-70.5c0-19.1-3-23.2-12.5-25.3l-8.2-1.7
	c-1.4-0.3-2.5-1.5-2.5-3l-0.3-4.1c-0.1-1.8,1.2-3.3,3-3.5c0,0,0.1,0,0.1,0c10.8-0.4,37-1.2,47.6-2c1.8-0.1,3.3,1.2,3.5,3
	c0,0.2,0,0.3,0,0.5c-0.8,11.1-0.8,26.8-0.8,48.3v48.6c0,32,16.3,40.7,33.3,40.7c13.2,0,27.2-5.1,39.8-16.3c0.7-0.6,1.1-1.5,1.1-2.5
	v-82.8c0-19.1-3.4-23.5-15.9-25.3l-11-1.8c-1.6-0.3-2.8-1.6-2.8-3.2v-4c0-1.8,1.4-3.2,3.1-3.3c12.2-0.4,41.9-1.2,52.8-2
	c1.8-0.1,3.3,1.2,3.5,3c0,0.1,0,0.2,0,0.3v116.6c0,18,3,28.3,17.8,29.3l7.1,0.3c1.8,0.1,3.1,1.5,3.1,3.3L712.4,602.6z M519.5,564.7
	c-4.6,12.2-9.9,25.8-14.8,38.1c-0.7,1.8-2.4,2.9-4.3,2.9H381.9c-1.7,0-3.3-1-4.1-2.5l-0.2-0.4c-0.7-1.5-0.6-3.3,0.4-4.7
	c30.3-42.7,59.1-85.8,88-130.4c1.4-2.1,0.8-5-1.4-6.4c-0.7-0.5-1.6-0.7-2.5-0.7H437c-27.2,0-32.2,5.4-42.8,25.6l-3.4,6.4
	c-1.1,2-3.4,2.9-5.5,2.2l-1.6-0.5c-2.3-0.8-3.6-3.3-2.9-5.7c3.5-11.5,7.5-23.7,10.3-36.4c0.4-2.1,2.3-3.6,4.5-3.7h109.6
	c1.8,0,3.4,1.1,4.2,2.7l0,0c0.7,1.5,0.5,3.1-0.4,4.5c-29,42.9-57.4,86.1-86.3,131.1c-1.4,2.1-0.8,5,1.4,6.4c0.7,0.5,1.6,0.7,2.4,0.7
	h29c28.7,0,36.3-7.5,50.6-29l0.2-0.3l2.7-4.8c1.2-2.1,3.8-2.9,6-1.9l2.2,1C519.3,560,520.3,562.5,519.5,564.7z M876.6,600.9
	L876.6,600.9c0-2.5,1.9-4.6,4.4-4.9c20.9-2.1,31.7-5.5,31.7-28.4v-74.2c0-20.9-1-27.8-19.8-31.3c-2.3-0.4-4.1-2.4-4.1-4.8v-4.1
	c0-2.7,2.1-4.8,4.8-4.9c8.2-0.2,25.6-0.8,41.3-2c2.7-0.2,5,1.8,5.2,4.5c0,0.1,0,0.3,0,0.4v116.4c0,22.9,4.4,26.3,24.8,28.4
	c2.5,0.2,4.4,2.4,4.4,4.9l0,0c0,2.7-2.2,4.9-4.9,4.9h-83C878.8,605.8,876.6,603.6,876.6,600.9z M876.1,469.3 M349.5,328L92.4,397
	L54.6,641.9L340.1,696l14.2-16.2l9-341.8L349.5,328z M293.1,649.3L80.5,618.4l0.8-8.3c39.2,2.5,42.9,0.3,45.5-26.2l13.1-129.8
	c3-29.3-0.6-29.8-36-24l0.8-8.6l211.4-50.2c-1.3,10.7-2.4,39.3-3.6,60.9l-14.3,4c-2.2-16.9-6-25.1-11.2-32.6
	c-5.7-7.6-18.5-7.5-53,0.1l-36,7.9c-14.5,3.2-15.6,4.4-16.7,14.6l-8.6,79.8l43.1-3.1c42.4-3,45.1-6.4,54-34l13.8-1.6l-9.4,78.8
	h-13.5c-2.7-28.4-5.7-30.6-46.1-28.7l-43.3,2.1l-7,65.6c-1.7,16.3,0.1,24.2,7.6,29.3c7.9,5.6,23.4,7.5,45.7,10.3
	c34.3,4.3,47.4,2.7,58.8-6.9c8.9-7.6,19.5-21.7,28-38.1l13.4,2.3C313.2,596.6,298.9,636.6,293.1,649.3z M872.6,455.1
	c0,3.5-2.7,6.5-6.2,6.7c-7,0.5-13.6,2.2-16.5,7.1c-1.1,1.3-1.1,3.2,0,4.5c5.1,8,7.7,17.4,7.6,26.9c0,38.9-34.1,57.6-66.2,57.6
	c-5.1,0-10.2-0.4-15.3-1.2c-2.8-0.4-5.7,0.4-7.8,2.3c-3.9,3.5-7.6,8.4-7.6,12.2c0,6.8,6.8,11.1,23.8,11.1c14,0,27.2-1.2,39.6-0.1
	c23.3,2.1,49.9,20.5,49.9,49.3c0,30.3-36.7,52.8-87,52.8c-42.4,0-68.2-20.9-68.2-41.4c0-25.3,27.3-33.3,36.2-40.1
	c1.3-0.9,1.5-2.7,0.6-4c-0.3-0.4-0.8-0.8-1.3-1c-11-4.3-19.8-5.8-23-11.3c-11.7-20,20.1-25.2,26.4-31.5c1.1-1.1,1.1-2.9,0.1-4
	c-0.2-0.3-0.5-0.5-0.9-0.6c-15.7-7.6-29.7-23.9-29.7-46.7c0-40.7,38.6-59.8,67.7-59.8h0.4c7.9,0,15.7,1.3,23.1,3.8
	c1,0.3,2,0.5,3.1,0.5h44.6c3.7,0,6.6,2.9,6.7,6.6L872.6,455.1z M748.6,631.5c0,19.8,19.6,36.8,47.5,36.8c34.7,0,49.5-14.3,52.1-27.7
	c3.1-16.2-5.4-25.1-16.3-31.8c-8.5-5.3-14.7-7.6-31.3-8.5C765.4,598.4,748.6,621.4,748.6,631.5L748.6,631.5z M759.6,498.1
	c0,28,14.8,48.2,35.6,48.2c16.6-0.4,31.4-14.4,31.4-42.8c0-28-14-48.2-35.9-48.2C774.8,455.4,759.6,470.4,759.6,498.1L759.6,498.1z
	 M896.3,402.4c2.5,11.1,14.7,17.4,27.2,14s20.5-15.3,18-26.4c-2.5-11.1-14.7-17.4-27.2-14C901.8,379.4,893.7,391.3,896.3,402.4z"/>
</svg>
