<?xml version="1.0" encoding="utf-8"?>
<!-- Generator: Adobe Illustrator 24.0.1, SVG Export Plug-In . SVG Version: 6.00 Build 0)  -->
<svg version="1.1" id="Layer_1" xmlns="http://www.w3.org/2000/svg" xmlns:xlink="http://www.w3.org/1999/xlink" x="0px" y="0px"
	 viewBox="0 0 1024 1024" style="enable-background:new 0 0 1024 1024;" xml:space="preserve">
<g>
	<path d="M454.7,233.8c-2.8,1.9-5,3.7-7.5,5c-19.8,10.4-33.5,26.6-37.9,48.2c-5.6,28.2-1,55,21.6,75.6c12.3,11.2,27,18.5,43.8,20.3
		c7.8,0.8,16,1.2,23.7,0.1c13.5-2,21.4-12.3,28-22.9c6.2-9.9,10.1-20.7,9-32.8c-1.2-14.3-7.4-22.8-20-28.4
		c-9.3-4.1-18.6,1.5-22.4,12.5c-3.4,9.9,0.6,16.5,10.9,17.9c5.1,0.7,8.2-1.4,9.9-6.5c1.7-5.3-1.7-7-5.4-9.6c-0.2,2.5,0,4.6-0.7,6.4
		c-0.6,1.4-2.1,3.1-3.5,3.4c-1.1,0.3-3-1.1-3.8-2.2c-3.8-5.1-1.3-12.1,4.9-13.9c4.9-1.4,10.4-2.5,14.3,1.7c3.5,3.9,5.4,8.6,4,14.7
		c-4.6,19-25.8,26.3-41.7,14.6c-11.2-8.3-15.7-18.6-16-32.4c-0.5-18.7,5.8-34.7,15-50.4c7.1-12.1,13.1-24.8,19.3-37.3
		c3.4-6.9,7.7-13.7,9.2-21.1c1.8-8.8,2.1-18.1,1.3-27.1c-1.3-15-9.3-27-20.1-37.2c-1.5-1.4-1.8-4.1-2.7-6.3c2-0.7,4-1.9,6-1.9
		c19.9,0.8,36.1,8.7,49.2,24.2c13.3,15.7,20.1,34,25.7,53.4c4.7,16.5,6.3,33.2,7.5,50.1c0.3,4,2,5.6,5.8,5.5c3.1-0.1,6.1,0,9.2,0
		c0.2,0.5,0.5,1,0.7,1.5c-3.4,2.3-6.7,4.6-10.4,7.1c12.3,10.3,24.4,20.5,36.6,30.5c5.9,4.9,5.8,10.8-0.6,15c-3,2-6.2,3.7-9.2,5.7
		c-7.2,5-7.2,8.2-1.4,15.3c3.3,4,7.8,7.1,11.7,10.6c3.2,2.8,3.3,6.7-0.1,8.7c-3.3,2-7.1,3.3-10.8,4.6c-3.9,1.4-3.6,3.7-1.6,6.2
		c1.3,1.6,3.2,2.8,5,4.1c6.8,5,6.6,9.9-0.7,14c-8.7,4.8-11.5,11.2-6.7,20c1.5,2.8,2.3,6,3.3,9.1c0.5,1.5,0.8,3.1,1.2,4.7
		c2.7,11.6-3.2,19.8-15,20.1c-19.9,0.5-39.9,0.6-59.8,1.3c-6.3,0.2-12.8,0.7-18.7,2.7c-12.4,4.1-20.2,13.9-25.4,25.2
		c-6.9,15.1-8.3,31.5-9.2,48c-0.8,14.2-2.9,28.4-5.7,42.3c-2.6,12.6-6.6,24.9-10.7,37.1c-1.9,5.7-5,11.2-8.2,16.3
		c-2.4,3.7-6,5.8-11,5.7c-47.9-0.2-95.8,0.1-143.7-0.2c-23.4-0.1-44.2-7.4-59.4-26.1c-9-11-15.3-23.7-15.3-38.4
		c-0.1-145.2,0-290.4-0.1-435.6c0-11.9,0.5-23.7,5.6-34.6c7.3-15.5,18.5-27.2,34.2-34.6c11.3-5.3,23.1-6.5,35.3-6.5
		c143.7,0.1,287.4-0.1,431,0.2c32.9,0.1,60.2,23.7,66.4,56.4c0.7,3.7,1.1,7.5,1.1,11.3c0.1,145.5,0,291,0.1,436.6
		c0,26-11.2,45.7-32.4,60.1c-9.8,6.6-20.8,10-32.5,10.1c-48.1,0.6-96.1,0.8-144.2,1.2c-4,0-7.9,0-11.9,0c-4,0.1-6.4-1.9-8.7-5.3
		c-15.7-24.2-22.9-51.3-28-79.1c-3.2-17.5-5.2-35.2-7.8-52.9c-0.4-2.9-1.2-5.8-1-8.6c0.2-2.7,1-7.1,2.4-7.5c3.4-0.9,7.5-0.5,11,0.4
		c4,1,4.5,4.8,5.2,8.5c1.4,7.3,2.4,15,5.5,21.7c13.8,30,37.2,49.5,68,60.2c8,2.8,16.9,5.2,25.2,4.8c15.7-0.8,30.8-4.8,43.2-15.6
		c6.5-5.7,13.7-10.7,19.9-16.8c14.3-14,24.7-30.6,29-50.3c1.9-8.8,1.1-18.1,1.7-27.2c1-14.9-2.5-29.1-7.4-42.9
		c-5.4-15.2-14-28.7-23.7-41.5c-10-13.2-19.5-26.7-29.5-39.9c-11.5-15.2-23.3-30.3-35-45.4c-6.6-8.6-13.2-17.2-19.9-25.6
		c-5-6.3-10.5-12.2-15.4-18.6c-10.3-13.6-20.4-27.4-30.4-41.3c-8.7-12.1-17.4-24.3-25.6-36.7c-12.8-19.3-25.2-38.8-37.8-58.3
		c-2.2-3.3-4.4-6.6-6.6-9.9c-1.9-2.8-3.1-2.6-5.1,0.2c-7.4,10.6-15.1,21.1-22.6,31.6c-9.8,13.6-19.5,27.2-29.5,40.6
		c-10.8,14.6-21.8,29.1-32.8,43.6c-10.3,13.7-20.9,27.1-30.9,40.9c-14.9,20.7-29.6,41.6-44,62.7C335,325,321.4,344.6,308.9,365
		c-6.1,10-10.6,21.2-14.4,32.4c-4.1,12.2-7.3,24.8-9.4,37.4c-3.4,20.2-3.6,40.5,6.4,59.3c4.9,9.3,10,19,17,26.7
		c13.1,14.5,29.4,23.7,49.7,25.6c23.7,2.3,46.1-0.1,66.5-13.3c10.9-7,19.7-16,23.1-28.9c3.3-12.2-7-29.5-20.4-28.6
		c-5.2,0.3-9,4.1-8.6,9.1c0.1,1.4,1.2,3.7,2,3.8c1.4,0.1,3.5-0.7,4.4-1.8c3.5-4.3,6.9-5.3,11-2.8c2.7,1.7,3.8,7.6,2,11.2
		c-5.9,11.9-22.2,12.1-30.1-0.1c-6.1-9.4-5-19.7-0.3-29.4c7.8-16.3,16.6-32.2,23.6-48.9c5-12,7.7-24.8-5.9-36.3
		c-10.2-8.7-19.3-18.7-24.9-31.3c-6.2-14-11.1-28.6-9.2-43.9c2.1-16.8,7.5-32.6,18.5-46.2c9.2-11.4,20.8-19.4,33.4-26.1
		C446,231.4,450.4,229,454.7,233.8z"/>
	<path d="M906.4,834.3c0,10.3-0.2,19.7,0.1,29c0.1,4-1.1,5.6-5.3,5.4c-6.2-0.3-12.5-0.2-18.7,0c-3.6,0.1-4.8-1.4-4.7-4.9
		c0.2-9.5,0.1-19,0.1-29.1c-19.4,0-38.6,0-58.4,0c0-2.5,0-4.5,0-6.4c0.1-9-1.5-9.4,8.6-9.2c6.9,0.2,8.2-6.1,10.6-10.3
		c3.4-5.8,5.5-12.4,7.9-18.8c0.6-1.7,0.1-3.9,0.1-5c-5.8-0.3-11.3-0.4-16.8-1c-5.5-0.7-8.6-4.2-9.6-9.6c-0.7-3.9-1.9-7.7-1.9-11.6
		c-0.2-20.4-0.1-40.7-0.1-61.1c0-12.9,6.1-19.1,18.7-19.1c0.9,0,1.8,0,2.8,0c8.3,0,8.3,0,10.6-8.1c0.9-3.4,2.4-5.5,6.7-5.2
		c8.2,0.5,16.4,0.1,24.9,0.1c0,3.1,0.7,5.8-0.1,8c-1.7,4.4,0.3,5.2,3.9,5.2c9.9,0,19.8,0,29.7,0c9.7,0,15.1,5.4,15.1,15
		c0,23.7,0,47.3,0,71c0,9.6-4.2,14.7-14.5,14.3c-10.8-0.4-21.6,0.1-32.5-0.2c-4.2-0.1-6.5,1.5-8,5.1c-4,9.9-8.1,19.9-12.4,30.6
		c4.8,0,9.3,0,14.4,0c0-6.7,0.1-13.6,0-20.5c-0.1-4.5,1.2-6.7,6.3-6.3c5.5,0.4,11,0.4,16.5,0c4.7-0.3,6,1.9,5.9,6.1
		c-0.1,6.9,0,13.9,0,21.4c9.6,0,18.8,0,28.3,0c0,5.3,0,10,0,15.3C925.6,834.3,916.4,834.3,906.4,834.3z M902,728.6
		c0-8.5,0.3-16.5-0.2-24.5c-0.2-2.5-2-5.4-4-7.2c-3.1-2.9-11.1-1.2-11.2,2.2c-0.2,9.8-0.1,19.6-0.1,29.6
		C891.9,728.6,896.6,728.6,902,728.6z M902,755.5c-0.3-14.2,2.5-12.1-11.9-12.4c-2.8,0-4.3,0.6-4.8,3.7c-0.7,4.4-2,8.7-3,13
		c-2.1,8.9-2.1,8.9,6.8,8.6c0.2,0,0.4,0,0.5,0C902,768.3,902,768.3,902,755.5z M860.2,728c0-9.4,0.1-19.2-0.2-29
		c0-1.1-2.8-3.1-3.8-2.9c-3.2,0.7-6.7,1.9-7,6.2c-0.4,5.4-1,10.8-1.1,16.2c-0.2,11.2,0,11.2,11.1,10.2
		C859.3,728.7,859.5,728.5,860.2,728z M860.7,743.2c-3.6,0-6.4,0.2-9.1-0.1c-3.1-0.3-4.6,1.4-4.5,4c0.1,6.5,0.5,13,1.1,19.5
		c0.1,1.1,1.6,2.8,2.5,2.8c1.2,0,3.1-1.1,3.4-2.1C856.4,759.5,858.4,751.6,860.7,743.2z"/>
	<path d="M677.4,669.6c11.6,0,22.5,0,34.1,0c0,6.8,0,13.5,0,20.1c11.1,1.6,11.1,1.6,9.6,16.4c-0.3,0.2-0.6,0.5-0.9,0.5
		c-8.7,0.5-8.7,0.5-8.7,9.2c0,26.6,0,53.2,0,79.8c0,7.9,0,7.9,8.1,8c1.1,0,2.2,0,3.3,0c0.6,1.7,1.4,3.2,1.7,4.7
		c1.6,8.6-0.2,10.7-8.8,10.7c-35.8,0-71.6,0-107.4-0.1c-2.3,0-6.4-0.9-6.6-1.9c-0.6-4-0.2-8.3,0.4-12.4c0.1-0.5,2.9-1.1,4.4-1
		c4.9,0.3,6.9-1.6,6.9-6.7c-0.1-28.3-0.1-56.5,0-84.8c0-4.7-1.2-7.3-6.5-6.7c-3.8,0.5-5.8-1.5-5.7-5.5c0.1-1.8,0.1-3.7,0-5.5
		c-0.3-3.4,1.3-4.4,4.6-4.5c8.7-0.2,8.7-0.3,8.7-8.5c0-12.4,0-12.4,12.5-12.4c5.3,0,10.6,0.1,16,0c3.3-0.1,4.7,1.1,4.6,4.5
		c-0.2,3.8,0.1,7.7-0.1,11.6c-0.2,3.4,0.9,5.1,4.6,5c7-0.2,13.9-0.1,20.9,0c3,0,4.3-1.1,4.3-4.2
		C677.3,680.8,677.4,675.5,677.4,669.6z M662.2,767.4c3.7,0,7.3-0.1,11,0c3,0.1,4.4-1,4.3-4.2c-0.1-4.8-0.2-9.5,0-14.3
		c0.2-3.4-1.6-4.6-4.5-4.7c-7.1-0.1-14.3-0.2-21.4,0.1c-1.4,0.1-3,2.3-3.8,3.8c-0.6,1.4-0.1,3.2-0.1,4.9
		C647.7,767.4,647.7,767.4,662.2,767.4z M677.4,727.5c0-6.3,0.2-12-0.2-17.6c-0.1-1.5-2.3-3.9-3.6-3.9c-7.5-0.4-15-0.3-22.5,0
		c-1.2,0-3.2,2-3.3,3.1c-0.3,6.1-0.2,12.3-0.2,18.5C657.9,727.5,667.4,727.5,677.4,727.5z M677.4,782.1c-10.3,0-19.9,0-29.7,0
		c0,6.1-0.2,11.8,0.2,17.4c0.1,1.5,2.2,3.9,3.5,4c7.5,0.4,15,0.4,22.5,0c1.2-0.1,3.3-2.3,3.4-3.6
		C677.6,794.1,677.4,788.3,677.4,782.1z"/>
	<path d="M768.8,677.1c0,19,0,37.3,0.1,55.6c0,1.6,0.2,3.7,1.2,4.8c0.9,1,3.5,1.6,4.4,0.9c1.2-0.8,1.9-3,1.9-4.5
		c0.1-19.3,0.3-38.5,0-57.8c-0.1-5.2,1.3-7.2,6.7-6.9c7.1,0.4,14.2,0.1,21.9,0.1c0,23.6,0,46.8,0,70.2c1.4,0.1,2.3,0.2,3.2,0.2
		c6.3,0.2,9,3.8,6.6,9.8c-0.5,1.2-3.1,2.2-4.8,2.2c-11.7,0.2-23.5,0.3-35.2,0c-5.2-0.1-7.7,1.3-7.2,7.1c0.5,5.4,0.1,11,0.1,17.2
		c9.9,0,19.6,0.5,29.2-0.1c10-0.7,18.2,6.1,18.2,18.1c-0.1,22.9-0.1,45.9,0.1,68.8c0,4.7-1.5,6.1-6,5.9c-6.6-0.3-13.2-0.3-19.8,0
		c-4.7,0.3-6.4-1.2-6.3-6.1c0.3-21.1,0.1-42.2,0.1-63.3c0-7.8-1.6-10.4-7.6-12.7c-4.1-1.6-6.5,0.1-6.7,4.5
		c-0.7,15.4-1.4,30.9-2.2,46.3c-0.5,8.9-1.6,17.7-2.1,26.5c-0.2,3.4-1.8,4.5-4.6,4.6c-6.4,0.1-12.8,0.1-19.3,0c-3,0-4-1.1-3.2-4.5
		c1.1-4.9,1.6-10,1.6-15.1c0.1-55,0.2-110.1-0.1-165.1c0-5.6,1.5-7.4,7.1-7C753.4,677.4,760.7,677.1,768.8,677.1z"/>
	<path d="M215,837.8c0,8.3,0,15.8,0,23.3c0,8.6,0,8.6-8.8,8.6c-6.1,0-12.1-0.3-18.2,0.1c-5.4,0.3-7.2-2.2-7.2-7c0-8.1,0-16.1,0-25
		c-2.2,0-4.1,0-6.1,0c-23.1,0-46.2,0.1-69.4-0.1c-2.3,0-6.4-0.9-6.7-2c-0.8-3.5-0.3-7.3,0.3-10.9c0.1-0.7,3.1-1.3,4.8-1.3
		c23.1-0.1,46.2-0.1,69.4-0.1c7.6,0,7.6,0,7.6-7.9c0-6.6,0-13.2,0-20.7c-2.1,0-4,0-5.9,0c-20.2,0-40.4,0-60.6,0
		c-6.2,0-9.9-4.6-8-10.3c0.4-1.3,2.8-2.6,4.3-2.7c5.5-0.3,11-0.1,16.5-0.1c3.3,0,4.8-0.9,3.5-4.7c-2-5.9-3.3-12.1-5.3-18
		c-1.6-4.6-0.2-6,4.3-6c7.7,0.1,15.4,0.2,23.1-0.1c3.8-0.1,5.2,1.9,5.9,4.9c1.6,6.3,3.1,12.5,4.7,18.8c0.8,3.3,2.7,5.1,6.4,5.1
		c19.5-0.1,38.9,0,58.4-0.2c1.5,0,3.8-1.9,4.3-3.3c2.2-6.3,4-12.6,5.5-19.1c1-4.4,3.1-6.3,7.8-6.1c7,0.3,13.9,0.1,20.9,0.1
		c3.5,0,4.9,0.9,3.6,5c-1.7,5.8-2,12.1-3.9,17.8c-1.8,5.4,0.5,6,4.8,5.9c5.6-0.1,11.3,0,17.2,0c0,4.5,0,8.4,0,13
		c-24.3,0-48.6,0-73.2,0c0,9.3,0,18.1,0,27.7c1.7,0,3.7,0,5.6,0c23.9,0,47.7,0.2,71.6-0.1c5.6-0.1,6.3,2.5,6.2,6.9
		c-0.1,7.2-1,8.6-6.6,8.6c-23.5,0-47,0-70.5,0C219.6,837.8,217.6,837.8,215,837.8z"/>
	<path d="M473.4,829c-1.4-5.1-2.2-8.5-3.4-11.8c-4.6-13-9.2-26-14.1-38.9c-1.7-4.5-0.3-5.6,3.9-5.5c7.9,0.1,15.8-0.2,23.6,0.2
		c2,0.1,4.8,2,5.5,3.8c5.7,14.1,11.1,28.3,16.2,42.7c1.7,4.9,4.1,10,1.4,15.6c-2.3,4.8-6.1,7.1-11.2,7.1c-37.6,0.1-75.2,0.1-112.8,0
		c-9.9,0-15-8.6-11.5-19.2c7.5-23,15.2-45.9,22.7-68.8c0.8-2.3,1.3-4.7,2.1-7.6c-9.1,0-17.5,0-26.4,0c0-4.8,0-9.2,0-14.2
		c1.6-0.1,3.3-0.2,5.1-0.2c42.5,0,85.1,0,127.6,0.1c2.1,0,6,0.8,6.1,1.8c0.6,3.7,0.3,7.6-0.3,11.3c-0.1,0.6-3.2,1.1-4.9,1.1
		c-20.7,0.1-41.4,0-62.2,0.1c-8.1,0-7.8,0.3-10.4,7.9c-7.4,21.5-15.1,42.9-22.8,64.3c-2.4,6.5-2,7.7,4.9,9.5
		c1.9,0.5,3.9,0.9,5.8,0.9c10.5,0.1,20.9,0,31.4,0C457.3,829,464.7,829,473.4,829z"/>
	<path d="M310.8,870.9c1.5-3.2,2.3-5.3,3.4-7.2c5-9,9.2-17.9,8.9-29c-0.7-29.9-0.4-59.8-0.1-89.7c0.1-9.6-0.8-11.7-12.2-11.9
		c0-3.7-0.3-7.5,0.2-11.2c0.1-1.1,2.4-2.8,3.6-2.8c9.9-0.2,19.8-0.4,29.7-0.1c9.7,0.4,17,10.2,15.1,19.5c-0.3,1.2-0.2,2.6-0.2,3.8
		c0,25.5-0.4,51,0.1,76.5c0.3,12.8,2.8,25.5,15.3,32.7c3.9,2.2,8.7,3.8,13.1,3.8c38.2,0.3,76.3,0.1,114.5,0.2c2.1,0,6,0.8,6.1,1.7
		c0.6,3.7,0.3,7.6-0.2,11.3c-0.1,0.5-2.5,1.1-3.9,1.1c-41.5,0.1-82.9,0.3-124.4-0.2c-8.4-0.1-15.9-4.4-20.8-11.9
		c-0.9-1.4-2.7-3.1-4-3c-1.2,0.1-2.8,2.1-3.4,3.6c-6.4,15.5-4.5,12.3-18.6,12.6C326.2,871,319.3,870.9,310.8,870.9z"/>
	<path d="M578.3,702.4c5.3,0,9.7,0.1,14.1,0c3.2-0.1,4.9,0.9,4.7,4.4c-0.2,3.5,0,6.9,0,11c-6.3,0-12.2,0-18.7,0c0,2.6,0,4.5,0,6.5
		c0,45.9-0.1,91.8,0.1,137.6c0,5.3-1.7,7.1-6.8,6.9c-7.1-0.3-14.3-0.4-21.5,0c-5.5,0.3-7.2-1.2-7.2-7c0.2-45.5,0.1-91,0.1-136.5
		c0-2.2,0-4.4,0-7.5c-5.2,0-10.3-0.2-15.3,0.1c-5,0.2-6.9-1.8-6.8-6.8c0.2-8.7,0-8.7,8.6-8.7c13.5,0,13.5,0,13.5-13.6
		c0-5,0.1-9.9,0-14.9c-0.1-3.2,1-4.7,4.4-4.6c8.8,0.1,17.6,0.1,26.4,0c3.4-0.1,4.5,1.3,4.5,4.6C578.2,683.2,578.3,692.5,578.3,702.4
		z"/>
	<path d="M180.8,691.4c0-6.8,0-12.9,0-19.5c11.1,0,21.8,0,32.9,0c0,6.3,0,12.4,0,19.5c2.3,0,4.3,0,6.2,0c19.4,0,38.9,0,58.3,0
		c9.1,0,10.7,2.1,8.4,11.3c-0.2,0.8-0.2,1.7-0.3,2.9c-24,0-47.8,0-72.4,0c0,8.2-0.2,16,0.2,23.8c0.1,1,3.5,2.6,5.4,2.6
		c23.7,0.2,47.3,0.1,71,0.1c7.2,0,10.6,5.2,7.6,11.9c-0.5,1-1.9,1.7-3.1,2.3c-0.6,0.3-1.4,0.1-2.2,0.1c-63.7,0-127.3,0-191,0
		c-0.9,0-1.8-0.1-3.6-0.2c0-3.6-0.7-7.3,0.3-10.7c0.5-1.6,3.9-3.3,6-3.3c19.4-0.3,38.9-0.2,58.3-0.2c5.7,0,11.4,0,17.9,0
		c0-7.6,0.2-15-0.2-22.4c-0.1-1.1-3.4-2.8-5.2-2.8c-20.4-0.2-40.7-0.1-61.1-0.2c-2,0-5.6-1.3-5.7-2.3c-0.4-4.1,0.1-8.2,0.9-12.3
		c0.1-0.5,3.3-0.7,5.1-0.7C136.3,691.4,158.2,691.4,180.8,691.4z"/>
	<path d="M438.2,974.1c-11.8,0-23.7,0-35.5,0c-0.3-0.4-0.6-0.8-0.9-1.2c1.5-1.1,2.8-2.7,4.5-3.2c5.3-1.4,7.4-4.1,7.2-10
		c-0.3-6.5-0.9-12.4-4.8-17.9c-5.1-7.2-9-15.2-14.5-22c-6.4-7.9-17.3-7.9-24.9-1.1c-4.5,4-8.8,8.2-13.3,12.2
		c-2.7,2.4-2.9,4.5-0.4,7.4c6.3,7.4,12.2,15.2,18.5,22.6c2.3,2.7,5.4,4.7,8.4,6.8c2.1,1.5,4.5,2.6,7,4c-4.4,3.9-25.3,3.7-28,0.1
		c-5.9-7.9-11.6-16-17.6-23.9c-1.3-1.7-3.6-2.6-6.5-4.7c0,7.5-0.4,13.2,0.2,18.8c0.2,2.2,2.4,4.4,4.2,6.2c1.5,1.4,3.6,2.1,6.6,3.7
		c-2,1.2-3,2.3-4.1,2.3c-10.6,0.1-21.2,0.1-31.8,0.1c-0.3-0.5-0.6-1-0.9-1.5c1.2-1,2.3-2.4,3.7-2.8c3.9-1.1,5.9-2.7,5.8-7.5
		c-0.4-13.2-0.4-26.4,0-39.6c0.1-5-1.3-7.9-6.3-9.2c-1.5-0.4-2.6-1.9-5-3.7c13.7,0,25.9,0,38.1,0c0.1,0.5,0.3,1,0.4,1.5
		c-1.6,0.8-3.1,2.1-4.7,2.2c-4.6,0.4-6.2,2.9-6.2,7.2c0.1,6,0,12,0,19.7c11.4-6.6,17.8-16.6,27.3-24.5c-3.4-1.8-6.1-3.3-8.8-4.8
		c0.1-0.4,0.3-0.9,0.4-1.3c21.4,0,42.9,0,64.6,0c0.2,6.3-7.1,1.8-8.8,6.6c4.6,7.7,9.4,16,15.2,25.8c6.2-9.7,11.3-17.8,16.6-26.1
		c-3.5-1.9-6.3-3.3-9-4.8c0.2-0.6,0.5-1.1,0.7-1.7c7.9,0,15.8,0,24.4,0c-1.1,1.5-1.6,3-2.5,3.3c-9.1,2.7-12,11.5-17.4,17.8
		c-2.1,2.4-3.2,5.7-5.3,8.1c-6.6,7.8-4.9,17.1-4.7,26.1c0,1.3,3,2.5,4.5,3.8c1.6,1.3,3.1,2.6,4.7,3.9
		C438.8,973.2,438.5,973.7,438.2,974.1z"/>
	<path d="M675.5,975.9c-6.8-18.8-13.5-37.6-20.8-57.7c-0.6,4.1-1.4,6.9-1.5,9.8c-0.2,9.3,0.1,18.7-0.1,28.1
		c-0.1,6.5,1,11.9,8.7,13.4c1.3,0.2,2.4,1.5,3.5,3.1c-9.3,3.3-18.9,1.2-28.3,2c-0.3-0.5-0.6-1-0.9-1.5c1.4-1.2,2.6-3.2,4.2-3.5
		c4.8-1.1,7-4.1,7-8.6c0-13.2-0.2-26.4-0.4-39.6c-0.1-3.7-1.7-6-5.6-6.8c-1.6-0.3-3.1-1.6-6.2-3.3c3.2-0.8,4.9-1.6,6.6-1.6
		c7-0.1,14-0.5,20.9,0.2c2.5,0.2,6,2.4,6.9,4.6c3.8,9.6,6.9,19.6,10.2,29.4c0.4,1.2,0.9,2.4,1.7,3.4c0.9,1.2,2.1,2.1,3.2,3.2
		c0.9-1.2,2.1-2.3,2.6-3.6c3.4-9.4,6.7-18.9,10-28.3c0.5-1.5,0.4-3.3,1.2-4.6c1.1-1.6,2.7-3.9,4.2-4c8.7-0.4,17.5-0.2,26.2-0.2
		c0.3,0.6,0.5,1.2,0.8,1.8c-1.8,1.1-3.5,2.8-5.4,3.2c-3.2,0.7-4,2.3-4,5.3c0.1,14.7,0.1,29.3,0,44c0,3.2,1.3,4.3,4.1,5.2
		c1.7,0.6,2.9,2.4,5.5,4.7c-13.5,0-25,0-36.5,0c-0.2-0.5-0.3-1-0.5-1.5c2.1-1.1,4.1-2.4,6.3-3.3c3.1-1.3,4.2-2.6,3.9-6.7
		c-0.8-11.7-0.3-23.4-0.3-35.2c0-2.1,0-4.2-0.9-6.5c-8.7,18.1-13,38-23.1,55.3C677.7,975.9,676.6,975.9,675.5,975.9z"/>
	<path d="M522.2,727c17.4-0.7,15.4-2.2,15.4,13.4c0.1,40.3,0,80.7,0,121c0,7.3,0,7.3-7.1,7.3c-1.3,0-2.6-0.1-3.8,0
		c-3.3,0.3-4.8-1.2-4.5-4.5c0.1-0.9,0-1.8,0-2.7c0-42.9,0-85.8,0-128.7C522.2,730.9,522.2,729.1,522.2,727z"/>
	<path d="M795.4,924.9c-0.9,4.1-2.3,7.3-2.3,10.5c0.1,8.7,0.5,17.4,1.3,26.1c0.3,3.8,2.8,6.5,6.9,7.4c1.8,0.4,3.4,1.6,5.3,2.6
		c-3,3.2-10.7,3.8-28.8,2.4c1.6-2.1,2.5-4.7,3.8-4.9c5.9-1,6.9-5.2,7-9.8c0.2-11.6,0.2-23.1,0-34.7c-0.1-4.4-2-7.9-6.4-9.7
		c-1.7-0.7-3.1-2.3-4.6-3.5c0.2-0.7,0.3-1.4,0.5-2c5.2,0,10.4,0.4,15.5-0.1c6.3-0.6,10.7,1.2,14.6,6.7c7.8,11,16.6,21.3,25.1,31.9
		c1,1.3,2.8,2,4.9,3.5c0-10.3,0.2-19.6-0.1-28.8c-0.1-3.7-1.6-6.9-6.1-7.8c-2.1-0.4-3.9-2.1-6.3-3.4c5.3-3,26.8-2.5,30.2,0.4
		c-1.3,0.7-2.5,1.5-3.7,1.9c-7.7,2.9-8.5,3.9-8.5,12.2c0,13.9,0.1,27.9-0.1,41.8c0,2.1-1.2,6.2-1.7,6.1c-3.1-0.2-7.2-0.3-8.9-2.2
		c-8.5-9.8-16.5-20.1-24.6-30.2C804.4,936.4,800.4,931.3,795.4,924.9z"/>
	<path d="M547.5,909.4c0,4.2,0,7.7,0,11.1c0,3.4,0,6.8,0,11c-2.5,1.9-4-0.3-5.4-3c-2-3.8-3.6-7.9-6.2-11.2
		c-9.5-12.1-25.7-7.1-30.1,7.5c-3.6,11.7-2.9,23.3,1.7,34.8c3.8,9.5,16.1,14.3,25.5,7.7c0.3-0.2,0.7-0.5,0.8-0.8
		c0.5-4.8,1.7-9.6,1.2-14.3c-0.2-2-4-3.7-6.3-5.3c-1.5-1-3.2-1.8-4.7-2.6c0.2-0.5,0.5-1,0.7-1.5c11.4,0,22.9,0,36.2,0
		c-2.5,2-3.7,3.9-5.4,4.3c-4.1,1-4.8,3.3-4.7,7.1c0.1,14.7,0,14.7-14.4,18c-9.4,2.2-18.5,3.1-28.2,0.3
		c-12.7-3.6-19.4-11.9-22.1-23.9c-4.4-19.9,8-37.4,25.6-40.8c8.9-1.7,16.6-1.4,24.5,2c2.4,1.1,4.2,2.3,6.7,0
		C543.5,909,545.5,909.5,547.5,909.4z"/>
	<path d="M901.5,942.4c11,0,22.1,0,33.1,0c0.3,0.4,0.5,0.8,0.8,1.2c-1.2,1.1-2.2,2.7-3.7,3.3c-4.3,1.6-5.5,4.6-5.5,8.9
		c0,12.9,0,13.1-12.6,16.1c-11.1,2.7-22.1,3.9-33.4-0.5c-11-4.3-16.8-12.8-18.5-23.3c-1.7-10.2-0.5-20.5,7-29.1
		c6-7,13.5-10.5,22.2-11.5c7.5-0.9,14.9,0,22.2,2.4c3.1,1,7-0.1,11-0.3c0,6.4,0.1,12.4-0.1,18.4c0,1.2-1.2,2.4-1.9,3.5
		c-1.1-0.9-2.8-1.5-3.4-2.7c-2.8-5.4-5-10.9-10.4-14.7c-7.2-5.2-17.9-3.7-22.7,3.6c-6.5,9.7-6.5,20.5-5,31.4c0.6,4.5,2.1,9.1,4.3,13
		c5.3,9.2,13.8,11.7,23.2,5.5c1.3-0.9,2.4-2.8,2.6-4.4c0.4-2.9,0.1-5.9,0.1-8.8c0-4.3-2.3-6.5-6.4-7.5c-1.5-0.4-2.7-1.7-4-2.6
		C900.8,943.6,901.1,943,901.5,942.4z"/>
	<path d="M502,694.7c-21.7,0-42.9,0-64.1,0c-18.1,0-36.3,0-54.4,0c-8.8,0-8.8,0-8.8-8.6c0-2,0-4,0-6.4c42.5,0,84.7,0,127.3,0
		C502,684.4,502,689.2,502,694.7z"/>
	<path d="M237.5,911.1c-1.7,1.3-3.4,3.4-5.2,3.6c-4.4,0.5-5.3,2.9-5.3,6.7c0.1,10.3-0.4,20.6,0.2,30.8c0.5,9.5-7.5,19.4-18.9,21.2
		c-8,1.3-15.7,1.1-23.5-1.1c-8.9-2.5-14.9-9.4-14.9-18.7c-0.1-10.3-0.1-20.5,0-30.8c0-4.2-0.7-7.4-5.5-8.6c-1.5-0.4-2.5-2.2-4.6-4.2
		c12.7,0,23.8,0,36.4,0c-2.2,1.9-3.2,3.5-4.3,3.6c-5.8,0.9-5.6,4.8-5.5,9.2c0.2,9.7,0.1,19.4,0,29.2c0,12.5,4.8,15.9,14.1,18.7
		c6.9,2.1,19.6-5.5,19.9-14.9c0.4-10.4,0.1-20.9,0.1-31.4c0-4.5-1.8-7.9-6.4-9.7c-2.2-0.9-4.2-2.3-6.3-3.5c0.3-0.5,0.5-1,0.8-1.6
		c9.4,0,18.7,0,28.1,0C237,910.2,237.3,910.7,237.5,911.1z"/>
	<path d="M599.4,973.9c-0.3-6.1,6.7-3.7,8.8-7.5c-1.4-3.4-2.6-7.2-4.6-10.5c-0.9-1.6-3.3-3.1-5.1-3.2c-6.2-0.1-12.4-0.1-18.5,0.9
		c-5.2,0.9-4.5,6.5-5.7,10.2c-0.4,1.1,2.9,3.5,4.6,5.2c1.4,1.3,2.9,2.4,4.4,3.6c-0.2,0.4-0.5,0.9-0.7,1.3c-7.4,0-14.8,0-23,0
		c0.4-1.5,0.5-4.2,1.3-4.4c8.4-2.7,9.4-10.7,12.4-17.1c3.4-7.3,6.3-14.7,9.5-22.1c2.2-5.1,4-10.4,6.7-15.2c1.5-2.7,4.6-6.1,6.9-6.2
		c2.4,0,5.9,3.3,7.1,5.9c6.9,15.1,13,30.7,20,45.8c2.1,4.6,6.4,8.2,9.7,12.3C631.5,974.7,611.8,975.6,599.4,973.9z M581,947.7
		c6.8,0,12.4,0,19.2,0c-3.6-7.6-6.8-14.6-10.7-22.8C586.5,933,583.8,940.1,581,947.7z"/>
	<path d="M585.3,727.8c2.2,0,4.1-0.1,5.9,0c3.1,0.1,4.9,1.2,4.8,4.9c-0.1,44-0.1,88.1-0.1,132.1c0,5.3-1.3,6.2-6.5,5.1
		c-1.2-0.3-2.6-0.2-4.2-0.3C585.3,822.5,585.3,775.5,585.3,727.8z"/>
	<path d="M300.1,932c-1.2-1.7-2.7-3.2-3.6-5c-3.1-6.4-6.6-12-13.6-15.3c-5.7-2.7-15.4,0.4-18.2,6.5c-6.8,14.7-7.1,29.9,0.2,44.4
		c5.4,10.6,21.3,10.4,29.6,0.3c2.3-2.8,4.7-5.5,8.7-8.2c0,1.6,0.6,3.7-0.1,4.8c-13,19.8-36,18.1-50.7,7.4
		c-7.9-5.7-11-14.6-11.1-24.7c-0.2-13.6,5-23.8,16.5-30.5c4-2.3,9-3.2,13.7-4.2c7.2-1.6,14,0.5,20.9,2.7c2.7,0.9,6-0.2,9.3-0.3
		c0,7.1,0,14.3,0,21.4C301.1,931.3,300.6,931.7,300.1,932z"/>
	<path d="M93.4,909.6c11.7,0,23.4,0,35.1,0c0.3,0.4,0.7,0.8,1,1.2c-1.3,1-2.4,2.5-3.9,2.9c-4.5,1.2-6.6,3.4-6.5,8.4
		c0.3,12.6,0.1,25.3,0.1,38c0,7.2,1.6,9.4,8.6,10.8c8,1.7,16.5-2.2,20-9.5c1.4-2.8,3.2-5.5,4.8-8.2c0.6,0.1,1.1,0.2,1.7,0.3
		c0,6.8,0,13.5,0,20.3c-14.5,2.1-58.6,0.9-61.8-1.8c1-0.7,1.9-1.8,3-2c6.6-1.3,7.5-5.6,7.3-11.5c-0.4-12.6-0.2-25.3-0.1-38
		c0-3.3-0.2-5.6-4.5-5.8c-2-0.1-4-2.2-6-3.3C92.6,910.7,93,910.2,93.4,909.6z"/>
	<path d="M673.1,824.6c10,0,19.3,0.1,28.6,0c2.9,0,3.7,1.2,4.5,4c3.7,13.6,7.9,27,12.1,41.1c-9,0-18.8,0.3-28.5-0.2
		c-1.8-0.1-4.3-2.9-5-5c-4.2-11.7-8-23.6-11.8-35.5C672.8,827.8,673.1,826.5,673.1,824.6z"/>
	<path d="M619.2,824.9c9.8,0,20,0,31.7,0c-2,7.5-3.6,14.6-5.8,21.4c-2.1,6.6-4.6,13.1-7.4,19.5c-0.8,1.7-3.2,3.7-4.9,3.8
		c-9.1,0.4-18.3,0.2-28,0.2C609.6,854.7,614.3,840,619.2,824.9z"/>
	<path d="M310.7,668.4c10.9,0,20.9-0.1,30.9,0.1c1.1,0,2.8,1.9,3.2,3.2c3.5,11.1,6.7,22.3,10.3,33.3c1.1,3.4-0.1,4-2.8,4
		c-9.3,0-18.7,0.1-28-0.1c-1.2,0-3.1-1.4-3.4-2.5C317.4,694.1,314.2,681.7,310.7,668.4z"/>
	<path d="M773.7,911.4c-1.5,0.8-2.9,2.1-4.5,2.3c-4,0.6-6,2.1-5.9,6.7c0.2,13.9,0.1,27.8,0.1,41.7c0,3.6,0.5,6.3,5,6.9
		c1.7,0.2,3.2,2.3,6.1,4.4c-3,0.5-4.3,0.8-5.6,0.9c-9,0.1-17.9,0.1-26.9-0.1c-1.6,0-3.2-1.1-4.7-1.7c1.3-0.9,2.5-2.1,3.9-2.6
		c3.1-1,4.8-2.3,4.8-6.1c-0.2-14.3-0.1-28.6-0.1-42.8c0-4.2-1.3-6.8-5.9-7.4c-1.2-0.1-2.2-1.9-4.4-4c13.6,0,25.4,0,37.2,0
		C773,910.3,773.3,910.8,773.7,911.4z"/>
</g>
</svg>
