<?xml version="1.0" encoding="utf-8"?>
<!-- Generator: Adobe Illustrator 24.0.1, SVG Export Plug-In . SVG Version: 6.00 Build 0)  -->
<svg version="1.1" id="Layer_3" xmlns="http://www.w3.org/2000/svg" xmlns:xlink="http://www.w3.org/1999/xlink" x="0px" y="0px"
	 viewBox="0 0 1024 1024" style="enable-background:new 0 0 1024 1024;" xml:space="preserve">
<path d="M412.4,368.3c-0.3-0.5-0.1-1.1,0.4-1.4l16.9-9.7c0.5-0.3,1.1-0.1,1.4,0.4c0.3,0.5,0.1,1.1-0.4,1.4l-16.9,9.7
	c-0.2,0.1-0.3,0.1-0.5,0.1C412.9,368.8,412.6,368.6,412.4,368.3z M608.3,324.2c0,0.6,0.4,1,1,1h18.8c0.6,0,1-0.4,1-1
	c0-0.6-0.4-1-1-1h-18.8C608.8,323.2,608.3,323.7,608.3,324.2z M543,286.2c1.7-2.1,0-7.9,0-7.9s-6.7,1.4-8.7,4.8v8.3
	C534.4,291.5,541.4,288.4,543,286.2z M621.1,286.6c-0.1-3.2-0.9-22.2-3.1-38.4c-0.8-5.9-1.9-12-4.5-19.2c-0.8-2.2-1.6-4-2.1-5.3
	c-2.7,4.1-5.6,9.2-8.2,15.1c-4.5,10.5-6.4,20-7.3,27.3c3.5,1.8,7.6,4.2,11.8,7.4C613.6,278,618,282.7,621.1,286.6z M587.2,288.4
	c-1.1,3.2-0.9,7.3,0.3,10.8c1.8,5.2,6.5,9.9,12.1,12.2c2.1,0.9,4.2,1.3,6.1,1.3c1.6,0,3.1-0.3,4.3-0.9c1.6-0.8,2.8-2,3.7-3.5
	c0.4-0.1,0.8-0.2,1.3-0.3c4.5-0.9,7.4,0,7.4,0c0.5,0.2,1.1-0.1,1.3-0.7c0.2-0.5-0.1-1.1-0.7-1.3c-0.1,0-3.3-1-8.2-0.1
	c0.5-1.5,0.8-3.2,0.7-4.6c-0.2-6-5.4-11.7-10.2-14.9c-5-3.4-10.1-4.7-13.5-3.4c-1.5,0.6-2.7,1.6-3.6,3c-0.9-0.3-1.8-0.5-2.7-0.8
	c-6-1.4-12.4-1.4-18.5,0c-1.5,0.4-3,0.8-4.5,1.4c-0.7,0.3-1.5,0.5-2.2,0.8l-2.1,1c-2.8,1.4-5.4,3.1-7.8,5.1
	c-4.7,4-8.7,8.9-11.2,14.4l0.9,0.5c1.6-2.5,3.4-4.9,5.4-7c2-2.2,4.2-4.1,6.5-5.9c2.3-1.8,4.9-3.2,7.5-4.5c2.6-1.2,5.4-2.1,8.2-2.8
	c5.6-1.3,11.5-1.4,17.3-0.4C585.7,288,586.5,288.2,587.2,288.4z M554,594.3c-0.2,7.1-4.5,13.4-10.9,16.2c-2.1,0.9-4.4,1.4-6.7,1.4
	c-4.7,0-9-1.9-12.2-5.3c-3.3-3.6-5-8.4-4.6-13.4c0.8-9.8,9.1-17.3,18.6-16.7c2.2,0.1,4.4,0.7,6.4,1.7c1,0.5,1.9,1.1,2.7,1.7
	C551.6,583.2,554.1,588.6,554,594.3z M546.7,580.6c-0.8-0.6-1.7-1.2-2.6-1.6c-1.9-0.9-3.9-1.5-6-1.6c-0.3,0-0.7,0-1,0
	c-8.6,0-15.9,6.9-16.6,15.8c-0.4,4.7,1.2,9.3,4.3,12.7c3,3.2,7.1,5,11.5,5c2.2,0,4.3-0.4,6.3-1.3c6.1-2.6,10.1-8.6,10.3-15.3
	C553.1,588.9,550.8,583.8,546.7,580.6z M537.9,580.5c-7.2-0.4-13.6,5.3-14.2,12.9c-0.6,7.8,5.2,14.3,12.7,14.3
	c7.3,0,13.3-6,13.5-13.4C550.3,587,544.9,580.9,537.9,580.5z M423.6,343l-17.3,3c-0.5,0.1-0.9,0.6-0.8,1.2c0.1,0.5,0.5,0.8,1,0.8
	c0.1,0,0.1,0,0.2,0l17.3-3c0.5-0.1,0.9-0.6,0.8-1.2C424.6,343.3,424.1,342.9,423.6,343z M488.8,283.3c0,0-1.4,5.6,1.4,7.8
	c2.8,2.2,8.7,4.2,8.7,4.2s1.4-6.1-2.2-9.7C493,282.1,488.8,283.3,488.8,283.3z M626.2,344.5c-0.1,0-6.3-2.6-8.5-3.7
	c-2.3-1.2-10.7-3.2-11-3.2c-0.5-0.1-1.1,0.2-1.2,0.7c-0.1,0.5,0.2,1.1,0.7,1.2c2.4,0.6,8.8,2.2,10.6,3.1c2.2,1.1,8.4,3.6,8.6,3.8
	c0.1,0.1,0.3,0.1,0.4,0.1c0.4,0,0.8-0.2,0.9-0.6C627,345.3,626.7,344.8,626.2,344.5z M412.8,300.4c3-4.8,6.2-8.5,9-11.4l-20-36.6
	c0,0-0.7,24.2,0,36.6c0.7,12.4,2.8,31.1,2.8,31.1C405.8,314.9,408.2,307.9,412.8,300.4z M407.8,329.5c0,0.6,0.4,1,1,1h15.3
	c0.6,0,1-0.4,1-1c0-0.6-0.4-1-1-1h-15.3C408.3,328.5,407.8,328.9,407.8,329.5z M570.4,527.1l0.7,0.5l-0.4,0.8
	c-3,5.6-8.7,8.8-14.5,8.8c-2.4,0-4.7-0.5-6.9-1.6c-4.6-2.3-7.3-6.6-8.4-10.4c-0.3-0.9-0.5-1.7-0.6-2.5c-0.4-3.1,0.1-5.6,1.5-6.9
	C544,513.7,549.3,512.7,570.4,527.1z M568.5,528.2c-13.9-9.4-20.4-11.6-23.4-11.6c-1,0-1.6,0.3-2,0.6c-0.9,0.8-1.2,2.8-0.9,5.1
	c0.5,3.7,2.9,8.9,7.9,11.4C556.7,537,564.7,534.5,568.5,528.2z M254.2,576c-0.2,12.9-0.5,25.1,0.5,37.3c0.5,6.7,2.6,13.6,4.8,21
	c0.9,3,1.8,6.2,2.7,9.3c0.3,0.9,0.7,2.2,1.3,3.5c0.8,2.1,1.8,4.4,2.4,7.1c1.8,7.4-3.5,12.3-5.2,13.9c-0.1,0.1-0.3,0.3-0.4,0.4
	c-2.1,2.3-5,3.8-8.1,4c-0.3,0-0.5,0-0.8,0c-1.5,0-3-0.3-4.4-0.8l-0.2,0.3c-1.6,2.6-3.5,4.1-4.8,5.2c-0.3,0.2-0.6,0.4-0.9,0.7
	c-2.2,1.9-5,3-7.9,3c-0.8,0-1.7-0.1-2.5-0.3c-3.5-0.7-6.5-3-8.1-6.1c-10.7-4.3-14.6-13.9-17-20c-1-2.4-1.9-4.9-2.9-6
	c-10.8-12.5-9.5-27-8.6-36.6c0.6-6.4,2.2-12.3,3.7-18c0.6-2.3,1.2-4.4,1.7-6.5c0.2-0.6,0.3-1.2,0.5-1.6c0.3-3.3,0.6-6.6,0.9-9.8
	c0.6-6.3,1.2-12.8,1.9-19.2c-4.6,4.1-9,8.2-12.8,12.6c-4.6,5.3-7.2,10.5-7.8,15.8c-1.1,8.7-5.5,16.5-8.7,22.2
	c-3.4,6-4.3,12.8-4.8,19.2c-0.8,11-1.9,19.9-3.5,28c-1.6,8.4-11.9,14.4-18,14.4c-1.2,0-2.3-0.2-3.4-0.5c-1.4,1.7-2.9,2.9-3.9,3.6
	c-0.1,0.1-0.2,0.2-0.3,0.2c-2.3,2.1-5.2,3.1-8.1,3.1c-2.1,0-4.1-0.5-6-1.6c-1.5-0.9-3-1.7-4.5-2.5c-3.9-2.2-8-4.4-11.9-7.1
	c-4.3-3-6.5-7.2-8.1-10.2l-0.4-0.8l-1.2-2.2c-3-5.4-6-11-8.5-17c-1.5-3.6-5.7-15.8,2-23c2.2-2.1,2.8-5.1,3.7-10.7
	c0.6-3.7,1.3-7.8,2.8-12.1c1.1-2.9,1.9-6.5,2.7-10.3c0.3-1.4,0.6-2.9,1-4.4c-3.6,6.6-7,13.4-10.3,20c-2.1,4.2-4.3,8.6-6.5,12.9
	c-3.5,6.9-6.5,12.4-9.3,17.4c-3.2,5.7-4.4,12.8-5.6,20.4c-0.3,1.6-0.5,3.2-0.8,4.9c-0.6,3.6-1.7,6.9-2.6,9.8c-0.3,1.1-0.7,2.2-1,3.2
	c-1.5,5.2-6.2,8.7-11.5,8.7c-0.4,0-0.7,0-1.1,0c-1.2-0.1-2.3-0.3-3.1-0.4c-0.1,0-0.2,0-0.4-0.1c-0.2,0.1-0.4,0.2-0.6,0.3
	c-2.2,1.1-5.3,2.7-9.1,2.7c-2.7,0-5.2-0.8-7.4-2.2c-4.9-3.3-8.5-7.5-11.8-11.3c-0.5-0.5-0.9-1-1.3-1.6c-12.5-14.3-4.8-29.5-2.2-34.4
	c0.7-1.4,1.1-4.3,1.5-7c0.3-2.3,0.6-4.8,1.2-7.5c0.6-2.7,1.8-4.8,2.6-6.2c0.1-0.2,0.3-0.5,0.4-0.7c1.4-5.6,2.8-11.4,4.1-16.9
	c1.2-5.1,2.5-10.4,3.7-15.7c0.8-3.1,1.6-6.1,2.5-9.1c1-3.4,1.9-6.6,2.6-9.8c1.1-4.7,2-9.3,3-14.2c0.6-3,1.2-6,1.8-8.9
	c0.1-0.6,0.2-1.1,0.3-1.7c0.6-2.9,1.3-6.3,2.5-9.7c3.5-9.7,2.9-20.4,2.3-31.7c-0.3-6.1-0.7-12.5-0.4-19c0-0.8-0.1-1.8-0.2-3.1
	c-0.2-2.7-0.5-6,0.1-9.9c-0.2-0.9-1-2.8-1.5-4.2c-0.6-1.6-1.4-3.4-2-5.3c-0.2-0.8-0.6-1.7-1-2.6c-0.2-0.6-0.4-1.1-0.7-1.7
	c-1.8-4.7-0.4-10.1,3.5-13.3c2.2-1.9,5-2.8,7.8-2.8c2,0,4.1,0.5,6,1.6c2.7,1.5,5,2.2,7.7,2.2c2.4,0,5.3-0.6,9.4-1.8
	c2.7-0.8,5.4-1.3,8.2-1.3c14.1,0,25.8,10.6,27.8,25.3c0.5,4,1.8,7.6,3.4,11.3c0.3-0.3,0.5-0.6,0.8-0.8c0.5-0.6,1-1.2,1.5-1.8
	c4.6-5.4,10.3-12.2,18.2-15.6c5.2-2.3,10.4-2.5,14.4-2.5c1.7,0,3.4,0.1,5,0.1c1.5,0.1,2.8,0.1,4.1,0.1c0.4,0,0.9,0,1.3,0
	c0.3,0,0.7,0,1,0c1.1,0,2,0.1,2.9,0.1c0.5,0,1,0.1,1.4,0.1l0,0c1.7-0.4,3.5-0.5,5.3-0.5c13.3,0,25.1,9.6,27.9,22.2
	c1-0.9,1.9-1.8,2.9-2.6c3.4-3.1,6.6-6,9.2-9.1c3.6-4.1,8.3-5,10.8-5.5c0.3,0,0.5-0.1,0.8-0.2l1.7-0.4c3.4-0.9,6.9-1.8,10.7-2.3
	c0.8-0.1,1.5-0.2,2.3-0.2c2.7,0,4.9,0.7,6.3,1.1c0.2,0,0.3,0.1,0.5,0.1c0.3,0.1,0.6,0.1,0.9,0.2c2.5-1.2,5-1.8,7.7-1.8
	c6.9,0,11.6,4.1,14.3,6.8c0,0,0,0,0.1,0c0.7,0.2,1.5,0.6,2.4,1c3,1.4,5.2,4,6.2,7.1c0.8,2.5,1.5,4.9,2.2,7.3
	c1.4,4.7,2.6,9.2,4.4,12.9c6.2,12.9-0.8,22-4.2,26.4c-0.7,0.9-1.4,1.8-1.8,2.4c-1.6,2.7-3.3,5.3-4.9,7.9
	c-5.9,9.2-11.1,17.2-11.2,26.8c-0.1,5.6-2,10.6-3.6,14.5c-0.6,1.6-1.2,3.1-1.6,4.3c-0.5,1.7-0.6,2.7-0.6,3.2
	C254.4,566.4,254.3,571.3,254.2,576z M242.4,561.4c0-2.2,0.5-4.4,1.1-6.6c1.5-5.2,4.6-10.4,4.7-15.6c0.2-16.3,10.2-27.8,17.8-40.6
	c3.2-5.4,9.3-9.3,5.4-17.4c-3.3-6.7-4.8-14.3-7.2-21.8c-1.4-0.7-3.7-1.1-5-2.5c-3.5-3.6-6.5-6.1-11.5-1.9c-1,0.9-4.1-0.5-6.2-0.9
	c-1.6-0.3-3.3-1.2-4.8-1c-3.8,0.6-7.6,1.6-11.4,2.6c-1.9,0.5-4.4,0.6-5.4,1.8c-9.7,11.3-23.9,19-28.7,34.5c-0.4,1.3-2.3,2.1-3.5,3.2
	c-0.1-4.8,2.3-8.8,2.3-12.9c0-5.6-2-11.2-2.7-16.8c-1.1-9-10.7-15.8-19.5-13.9c-2.3,0.5-4.8,0-7.1,0.1c-6.9,0.2-14.6-1.2-20.6,1.4
	c-6.1,2.6-10.9,8.9-15.4,14.3c-4.9,5.7-12.1,9.5-14.2,17.5c-0.2,0.8-2.5,1-2.4,1c-0.7-5.9-0.3-11.6-2.3-16.2
	c-2.8-6.2-5.3-11.9-6.2-19c-1.5-10.8-11.1-17.1-20.5-14.2c-9.3,2.9-17.3,3.9-26.6-1.4c0.6,1.6,1.3,3.3,1.8,4.9
	c1.5,4.9,4.7,10.1,3.9,14.6c-0.7,4.3,0.3,8.1,0.1,11.9c-0.8,18,3.8,36.4-2.6,54.2c-1.1,3.2-1.7,6.5-2.4,9.8
	c-1.6,7.8-3,15.7-4.8,23.4c-1.5,6.4-3.5,12.6-5.1,19c-2.7,11-5.2,22.1-7.9,33.1c-0.5,2.2-2.3,4.1-2.8,6.3
	c-1.3,5.7-1.1,12.2-3.7,17.2c-3.9,7.6-5.4,14.2,0.6,21.1c3.4,3.9,6.7,8,10.9,10.8c1.4,0.9,5.2-2.2,8-2.8c2-0.4,4.2,0.3,6.8,0.5
	c1.1-3.8,2.6-7.7,3.3-11.8c1.7-9.9,2.7-20,7.8-29.1c3.2-5.6,6.2-11.3,9.1-17c6.5-12.6,12.6-25.5,19.6-37.9
	c5.7-10.1,12.3-19.8,18.9-29.4c4.1-6,8.7-11.6,14.4-19.2c1.2,4.3,2.4,6.2,2.1,7.8c-1,6.8-0.4,15.1-4.1,20c-4.6,6,0.8,12.5-5.3,19.1
	c-6.7,7.4-6.6,20.7-10.5,31c-3.4,9-1.4,19.8-9.6,27.4c-1.5,1.4-0.3,6.7,0.9,9.6c2.6,6.2,6,12.2,9.2,18.1c1.3,2.5,2.7,5.3,4.9,6.9
	c4.8,3.4,10.1,6,15.5,9.1c1-0.9,2.8-1.9,3.5-3.4c2.7-6.3,6.2-7.5,11.9-3.2c0.7,0.5,6-2.7,6.4-4.7c1.7-8.7,2.7-17.7,3.3-26.6
	c0.6-8.5,2-16.6,6.3-24.2c3.1-5.6,6.5-11.7,7.2-17.8c1.1-8.9,5.6-16.3,10.7-22.2c9-10.3,20.2-18.9,30.6-27.9c1.4-1.2,3.9-1,7.1-1.8
	c-1.4,8.9-2.8,16.4-3.7,24c-1.3,10.8-2.1,21.5-3.2,32.3c-0.1,0.7-0.5,1.4-0.6,2.1c-1.8,7.6-4.5,15.1-5.2,22.8
	c-0.8,9.5-1.5,19.2,5.8,27.7c6.6,7.7,5.4,21.6,19.2,23.7c0.8,0.1,1.3,2.7,2.2,4.5c1.5-1.3,2.7-2,3.3-3c3.5-5.9,6.7-12.6,14.9-5.3
	c1-1.2,3.1-2.6,2.9-3.5c-0.8-3.5-2.7-6.8-3.6-10.3c-2.9-10.8-7.1-21.6-7.9-32.6C241.4,596.7,242.3,579,242.4,561.4z M164,529.5
	c0.9,0.6,1.9,1.2,2.8,1.9c4-5.9,8-11.8,12-17.7c-0.9-0.4-1.8-0.9-2.7-1.3C172.1,518.1,168.1,523.8,164,529.5z M156.7,543
	c-1.5,3.1-2.6,6.5-3.8,9.7c0.9,0.3,1.7,0.6,2.6,1c1.8-2.8,4-5.5,5.3-8.5c0.6-1.3-0.6-3.4-1-5.2C158.7,541,157.2,541.8,156.7,543z
	 M337.2,537.1c1.5-4.9,2.7-9.8,4.1-14.7c-1-0.2-2-0.5-3-0.7c-1.9,4.7-3.9,9.3-5.5,14c-0.3,1.1,1.1,2.7,1.8,4.1
	C335.5,538.9,336.9,538.1,337.2,537.1z M358.2,491.1c-1.1-0.6-2.2-1.2-3.3-1.9c-5,8.8-10.1,17.6-15.1,26.4c1,0.6,2.1,1.2,3.1,1.7
	C348,508.6,353.1,499.9,358.2,491.1z M961.9,505c0-1.6-2.5-4.4-4.1-4.7c-4.6-0.6-9.4-0.2-14.2-0.2c-0.5,0.9-0.9,1.8-1.4,2.7
	c4.8,3.2,9.3,7.4,14.5,9.2C962,513.8,961.8,508.1,961.9,505z M952.1,535.8l9.8-9.3l-13.5,1.6L952.1,535.8z M1021.8,574.5
	c-9.5,29.7-50.6-6.3-47.1,22.2c9,71.5-57.7,121.3-42.1-3.8c-7.3,6.9-29.9,10.3-37,16.6c8.3,40.2-41,51.9-42.7,2.8
	c-21.7,30.1-69.9,51.8-43.8-12.4c-6.8,5.7-18.7,11.9-30.4,6.8c20.6,5.9,24.1,47.5-4.6,48.9c-47.9-16.9-32.4-53.6-57.1-46.9
	c32.7,32.3-94.4,68.9-44.2,7.6c-4.4,0.3-6.3,0.5-14.4-1.5c9.9,68.3-61.3,36.1-48,4.3c-11.9,5.4-18.1,7.5-32.3,12.2l0,0
	c-31.2,9.6-67.3,11.3-101.7,1.1l0,0c-4.6-1.4-8.5-2.6-16.3-5.7c18.8,40.6,2.4,60.4-49.1,39.7c-11.7-11.2-6.4-24.6-30.2-14.1
	c-144.8,26.9-126-146.8-23.6-220c42.7-27,10.5-52.6,43.3-58.9c-1.3-3.5-2.5-7.5-3.2-12c-2.7-15.4,0.6-28.4,3.3-36.1
	c-1.8-7.3-3.4-15.1-4.7-23.6c-3.2-22.3-2.6-42.2-0.7-58.4c10-1.4,26.6-2.5,45.8,2.8c13,3.6,23.2,8.9,30.3,13.4
	c8.6-3.8,22.3-8.7,39.8-9.9c15-1,27.4,1.2,35.9,3.3c5.3-6.8,14.1-16.2,27-24.6c15-9.7,29.3-13.7,38.3-15.4
	c4,10.3,8.1,23.1,10.8,38.1c2.4,13.2,3.2,25.1,3.3,35.2c1.6,8.2,3.2,16.5,4.7,24.7c1.6-2.8,3.9-6.2,7.3-9.6c3.7-3.7,8.7-7.4,15.2-10
	l0,0c26.9-6.1,40.8,3.3,54.5,23.1l0,0c1.7,2,5.3,6.9,6.3,14.2c1.2,8.9-2.4,15.6-3.5,17.7c-5.6,10.1-15.3,13.4-17.7,14.1
	c-5.6,15.6-11.3,31.3-16.9,46.9c5.5,12.2,8.1,22.4,9.5,29.3c3.3,16.1,2.7,28.7,11,33.4c3.1,1.8,4.6,1.1,9.6,3.4
	c3.4,1.6,7.5,4.7,12.7,12c-17-53.9,48.8-37.9,45.2,2.5c0.6,6,17.8,9.7,16.2,25.1c-8.5,24.4-18.8-0.2-16.4,32.8
	c-5,43.2,17.6-6.8,48.2,34.1c11.7-48.1-24.2-123.1,39.9-83.3c7.2-15.7-12.7-48.8,1.3-57.2c60-2.7,33.7,51.2,45.4,49.3
	c9.6-87.1,58.4-36.4,51.2-18.1c52.9-10.7,64,25.2,40.5,73C1003.8,545.4,1025.4,555.6,1021.8,574.5z M400.3,357.9
	c1.2-0.3,2.5-0.6,3.7-0.9c0.2,0,0.4-0.1,0.5-0.2c1.3-0.4,2.5-0.7,3.7-1.2c19-6.5,30.7-18.6,45.7-33.9c7.6-7.8,13.2-13.5,17.9-19.5
	c-2.9-0.8-5.9-1.3-8.9-1.5c-2.9,0-5.8-0.1-8.7,0.4c-2.9,0.5-5.7,1.1-8.5,2.1c-1.4,0.5-2.7,1-4,1.6c0.8,4.5-1.7,9.9-4.1,12.8
	c-3.3,4-9,6.9-14.1,7.1c-0.2,0-0.5,0-0.7,0c-2.6,0-4.6-0.7-5.9-2.1c-1.8-1.8-2.5-5-1.8-8.7c0.8-5,4.1-11.3,9.7-14.1
	c4.2-2.1,11.8-3.1,15.5,1.4c0.4,0.5,0.7,0.9,0.9,1.4c1.2-0.7,2.5-1.3,3.8-1.8c5.7-2.4,12-3.5,18.2-3.3c3.1,0.2,6.2,0.5,9.2,1.4
	c0.5,0.1,1,0.3,1.5,0.4c2.6-3.5,4.9-7.1,7.2-11.4c0.7-1.3,1.4-2.6,2-3.9c0.2-0.4,0.4-0.9,0.6-1.3c0.4-0.9,0.8-1.8,1.2-2.7
	c0.2-0.5,0.5-1.1,0.7-1.6c0.3-0.8,0.7-1.6,1-2.5c0.2-0.6,0.4-1.2,0.7-1.8c0.3-0.8,0.6-1.6,0.9-2.4c0.2-0.6,0.4-1.2,0.6-1.9
	c0.3-0.8,0.5-1.6,0.8-2.4c0.2-0.6,0.4-1.3,0.6-1.9c0.2-0.8,0.5-1.6,0.7-2.4c0.2-0.7,0.3-1.3,0.5-2c0.2-0.8,0.4-1.6,0.6-2.4
	c0.2-0.7,0.3-1.4,0.4-2c0.1-0.5,0.2-1.1,0.3-1.6c-7.8,1.8-15.4,4.3-22.6,7.5l-0.5,0.2l-0.5-0.3c-8.3-5.6-17.3-9.9-26.7-13
	c-14.2-4.7-29.2-6.3-44.3-4.9c-0.8,15-0.9,30.2-0.4,45.3c0.2,6.9,1.5,14,2.7,20.9c0.9,4.9,1.7,9.6,2.1,14l0,0.1l0,0.1
	c-2.4,12.6-3.2,22.7-2.6,32.5C400,357.9,400.1,357.9,400.3,357.9z M401.9,372.1c0.2,0.3,0.6,0.8,1.2,1.4c2.8,0.5,5.9,1.2,8.4,3.8
	c7.7-3.6,18,6.8,19.9,12.9h0c0.1,0.2,0.5,1.1,1.1,2.7c9.2-7.4,27.8-5.6,30.5,10.9c5.4-6.8,22.7-18.7,30.7-0.6
	c8.1-11.2,25.2-13.7,35.2-2.7c6.5-9.9,29.9-21.7,38-8.7c3-12.8,23.5-26.2,36.5-16.3c2.7-12.6,12.2-24,26.1-23.6
	c6.8-19.1-12.6-127-18.9-136.5c-24.1,5.4-47.3,19.5-63.2,39.7c-16.8-3.6-34.6-3.9-52.6-0.2c-2.7,14.6-8.9,31.6-19,45.3
	c6.1,2.3,13.4,6.5,19.3,14l-0.7,0.7c-5.8-5-11.5-9.2-20.5-12.1c-5.6,7.3-15.5,17.2-24,25.8l0.3,0.1c-5.8,18.2,16.8,22.6,32.5,17.2
	c12.2-6.3,20.2-16.6,36.7-17.6c16.3,2.3,77,21.6,56.2-14.8l0.5-0.8c15.2,8.3,7.3,31.9-22.6,27.3c-14.3,0.3-24.1-10.6-39.4-7.3
	c-14.8,2.6-18.7,11.9-33,16.8c-11.7,3.5-38.5,0.1-32.2-19.9c-13.2,13.6-28.3,25.9-48.7,30.2C400.4,364.1,401,368,401.9,372.1z
	 M640.8,388.9L640.8,388.9c-0.2,0.6-0.3,1.2-0.6,1.9c5.5-0.1,11.5-5.8,11.6-5.8c7.4-7.2,7.4-18.7,3.5-25.8
	c-4-7.4-12.9-12.9-17.3-10.8c-0.2,0.1-0.4,0.2-0.6,0.3c-1.2,0.9-1.9,2.4-2.5,3.9c-0.2,0.5-0.4,1.2-0.6,1.8
	C640.5,359.9,644.5,374.7,640.8,388.9z M632.6,355.6c-27.7-8.5-31.3,34.4-25,56.3C633.4,420.4,650.6,371.9,632.6,355.6z M568,457.6
	l-0.3,0.8c-0.4,1.1-0.9,2-1.4,2.9c-1.4,2.2-3.5,4.1-6.2,5.7c-1.2,0.7-2.5,1.3-3.8,1.8c1.4-0.4,2.7-1,4-1.5c2.9-1.3,5.3-3.2,6.9-5.4
	c0.7-1,1.4-2.1,2-3.4l0.3-0.6l0.6,0c0.7,0,1.4-0.2,2.1-0.5l0,0l0.1,0c0.1,0,0.2-0.1,0.2-0.1c0,0,0.1,0,0.1-0.1
	c0.1,0,0.1-0.1,0.2-0.1c0.1-0.1,0.2-0.1,0.3-0.2c0,0,0,0,0,0c0.1-0.1,0.2-0.2,0.4-0.3c0.1-0.1,0.2-0.2,0.3-0.3
	c0.1-0.1,0.2-0.2,0.3-0.2l0,0c0.1-0.1,0.2-0.2,0.3-0.3c0,0,0,0,0.1-0.1l0-0.1l0-0.1c0,0,0.1-0.1,0.1-0.1c0.2-0.2,0.3-0.4,0.4-0.6
	c1-1.7,0.8-4.2-0.3-6.4c-1-1.9-2.5-3.1-4.1-3.3c-0.3,0-0.6,0-0.9,0c-0.9,0.1-1.9,0.6-2.8,1.3c-1.4,1.2-2.3,2.8-2.5,4.5
	c0,0.3,0,0.5,0,0.8l0,0h0l0,0.2c0,0.3,0,0.5,0.1,0.8c0,0,0,0,0,0h0c0,0,0,0,0,0l0,0.1c0.1,0.3,0.1,0.5,0.2,0.7l0,0.1
	c0.1,0.3,0.2,0.5,0.3,0.8c0,0,0,0,0,0c0,0,0.3,0.6,0.4,0.8c0.2,0.3,0.3,0.5,0.5,0.7c0,0,0,0,0,0c0.2,0.2,0.4,0.5,0.7,0.7
	c0,0,0,0,0,0c0.2,0.2,0.4,0.3,0.7,0.5L568,457.6z M557,470.5c15.6-0.1,30.7-12.4,33-28.5c-18-9.4-51.3-8.4-63.3,11.4
	c5.4,9.8,23.8,26.2,38.7,4.9c-0.7-0.7-1.3-1-2.4-2.9l0,0c-0.1-0.3-0.1-0.2-0.4-1.1c0,0,0,0,0-0.1l0,0c-0.1-0.4-0.3-0.8-0.4-2.1h0
	c-0.3-12.6,18.7-11,14.4,3.8l0,0c-0.1,0.2,0,0.2-0.6,0.9l0,0c-0.3,0.3-0.4,0.5-1.1,1.1l0,0c-0.1,0.1-0.3,0.2-0.4,0.3l0,0
	c-0.1,0.1-0.1,0.1-0.5,0.3l0,0c-0.1,0.1-0.2,0.1-0.4,0.2l0,0c-0.1,0.1-0.1,0.1-0.6,0.3l0,0c0,0-0.1,0.1-0.2,0.1l0,0
	c-0.4,0.1-0.6,0.3-2.2,0.6C568.6,464.2,563.6,468.6,557,470.5z M590.4,440L590.4,440l1.2,0.5l0.6,0.3c0.5,0.2,2.1-0.1,2.7-1
	c0.3-0.5,0.6-1.7-1.1-4.8c-0.6-1.1-1.7-2.2-3.3-3.3c-6-4-16.5-6.3-27-5.8c-3.6,0.2-7.2,0.7-10.7,1.5c-10.9,2.6-18.4,7.6-22.7,11.4
	c-2.7,2.4-5.2,5.1-6.8,7.6l0,0c-0.9,1.4-1.3,2.4-1.5,2.9c-0.1,0.2-0.1,0.3-0.1,0.4c-0.1,0.8,0.3,2.9,0.6,3.2c0.2,0.1,0.6,0.2,1,0.2
	c0.6,0,1.1-0.2,1.5-0.7l0.1-0.2c0,0,0.1-0.1,0.1-0.1c0,0,2.8-4.5,8.6-9.1c5.9-4.6,12.7-7.5,20.2-8.7c1.6-0.2,3.2-0.4,4.9-0.5
	C573.2,433.3,585.9,438.1,590.4,440z M521.3,427.5c0.5-6.9,16.6-21.7,2.6-28.5c-36.6-23.8-54.6,68.8-5.8,42.7
	C521.3,438.5,519.4,434.6,521.3,427.5z M455.3,422.7c25.7-69.1-81.3-7.7-6.8,12.6C452.7,432.7,456.9,430.5,455.3,422.7z
	 M398.4,423.4c6.7,2,2.2,2.3,23,1.3c-1.5-4.6-1.7-10-0.3-15.5C455.1,365.6,369.7,373.4,398.4,423.4z M457.8,428.6
	c21.9,42.9,35.2-1.8,31.6-28.6C480.4,387.7,453.9,404.7,457.8,428.6z M565.7,400.5c4.8-21.5-40.1-11.4-34.2,9.7
	c8.8-8.2,21.7-12.2,34.2-8.7C565.7,401.2,565.7,401.2,565.7,400.5z M526,420.6c-3.2,6.6-5,14.7-3.1,23
	c12.2-16.2,43.5-26.5,66.7-14.8C584.6,400.3,541.2,391.5,526,420.6z M590.7,423.9c6.1-2,12.1-7.2,13.5-14.6
	c11.6-69.6-62.2-17-25.7-1.6C583.4,411.1,587.4,417.4,590.7,423.9z M386,409.9c0.7,1.2,1.9,3.4,4,4.5c-2.1-13.6,4.9-28,19.3-36.4
	C390.1,366,376.5,395.4,386,409.9z M360.7,430.3c8.8-3.2,20.1-8,33.9-7.5C385.8,412,388.4,406.7,360.7,430.3z M438.7,577.9
	c0-4.2,0-7.9,0-13.5c3.2,2.1,5.3,3.5,6,4c4.7-1,8.3-2.7,11.6-2.3c9.1,1.1,13.9-1.7,19-9.5c4.1-6.3,3.2-10.4-2.1-14.9
	c-1.9-1.7-3.7-4.3-4.2-6.7c-1.5-8.5-7.6-11.7-15.7-7.9c-7,3.2-13.6,4-20.1-1.9c-2.1-1.9-7.3-2.8-9.6-1.5
	c-14.1,7.7-27.8,16.2-41.7,24.3c-4.3,2.5-8,7.4-14.1,2.8c-1.4-1-4.6,0.3-7.4,0.6c7.3,13.2,7.3,13.2-2.4,14.9
	c-0.2,0.7-0.3,1.4-0.5,2.2c5.4,1,10.8,2,15.8,2.9c0.9,3.3,1.8,6.5,2.5,9c-10.7,3.3-21.5,6.9-32.4,9.8c-1.6,0.4-4.5-2-6.1-3.7
	c-2.8-3-5-6.5-7.6-9.7c-0.9-1.2-3-2-3.1-3.1c-0.3-5.6-0.9-11.4,0.1-16.8c0.9-4.8,3.8-9.2,5.8-13.8c0.6,0.2,1.2,0.5,1.8,0.7
	c0.6,2.3,1.2,4.6,2.1,8.3c6-12.8,10.7-23.9,16.3-34.7c5.8-11.2,11.5-22.6,24.1-28.8c-4.1,5.2-8.1,10.4-12.2,15.6
	c0.7,0.6,1.3,1.2,2,1.8c1-0.9,2.1-1.7,3.1-2.6c9.4-9.4,18.6-18.9,28.2-28c4.9-4.6,10.2-8.8,15.8-12.5c1.8-1.2,6.1-1.1,7.6,0.2
	c5.5,5,9.5,7.4,17.5,2.4c5.6-3.5,6.6-4.7,3.3-9.7c-1.3-2-2.6-4.2-3.4-6.5c-2.2-6.1-5.9-9-12.6-11c-6.4-1.9-11.5-3.5-17.5,0.4
	c-1.2,0.8-3.8,0.5-5.1-0.3c-11.5-7.4-22.6-1.9-33.6,1.1c-4.7,1.3-9.4,4.3-13,7.6c-8,7.3-14.7,16.2-23.1,23
	c-11.6,9.3-16.8,22.6-24.1,34.5c-7.3,12.1-11.8,25.8-18.2,38.5c-4.6,9.1-5.8,18.5-4.6,28.4c0.1,1.1,0.5,2.3,0.5,3.4
	c0,4.6-1.2,9.6,0.1,13.7c3.1,9.3,7.3,18.3,11.3,27.2c4.3,9.5,11.2,16.4,20,22.4c11.7,8.1,24.2,5,36.5,5.5c1.8,0.1,4.1-1.7,5.6-3.2
	c3.4-3.4,6.7-3.8,10.8-1.2c1.6,1,3.9,1.8,5.6,1.3c7.9-2.1,15.6-4.7,25.3-7.6c3.8,5.8,8.9,13.7,14,21.5c0.7,1.1,1.4,2.6,2.4,3
	c3.4,1.4,7.7,1.4,10.3,3.6c6.2,5.2,8.8,1,11.9-3.3c0.5-0.7,1.9-0.8,2.8-1.3c4.5-2.5,7.3,1.4,11.5,4.3c-0.6-6.7,0.9-13.8-2-16.7
	c-5.1-5.2-4.8-11.8-5.7-17.1c-2.5-14.8-2.5-29.9-3.6-44.9c-0.1-1.7-0.3-3.4-0.4-5.4C442,577.2,440.4,577.5,438.7,577.9z
	 M478.5,507.8L478.5,507.8c-4.8-3.1-9.1-6.2-13.3-9.4c-1.4-1.1-2.9-2.3-4.3-3.5c-1-0.8-2-1.7-2.9-2.5c-0.3-0.3-0.6-0.6-0.9-0.8
	c-0.7-0.6-1.3-1.2-2-1.8c-0.4-0.3-0.7-0.7-1.1-1c-0.6-0.5-1.2-1.1-1.8-1.6c-0.4-0.4-0.8-0.8-1.2-1.1c-0.5-0.5-1-0.9-1.4-1.4
	c-0.2,0-0.3,0.1-0.5,0.1c-0.2,0-0.3,0.1-0.5,0.1c-0.2,0.1-0.5,0.1-0.7,0.2c-0.2,0.1-0.3,0.1-0.5,0.2c-0.3,0.1-0.5,0.2-0.7,0.3
	c-0.1,0.1-0.2,0.1-0.4,0.2c-0.4,0.2-0.7,0.4-1,0.6c-2.2,1.5-3.4,3.5-4,4.5c-0.2,0.3-0.4,0.6-0.5,1c-0.1,0.1-0.1,0.2-0.2,0.3
	c-0.1,0.2-0.2,0.4-0.3,0.7c-0.1,0.1-0.1,0.3-0.2,0.4c-0.1,0.2-0.2,0.4-0.2,0.6c-0.1,0.1-0.1,0.3-0.1,0.4c-0.1,0.2-0.1,0.4-0.2,0.6
	c0,0.1-0.1,0.3-0.1,0.4c0,0.2-0.1,0.4-0.1,0.6c0,0.2-0.1,0.3-0.1,0.5c0,0.2-0.1,0.4-0.1,0.5c0,0.2-0.1,0.3-0.1,0.5
	c0,0.2-0.1,0.4-0.1,0.5c0,0.2,0,0.3-0.1,0.5c0,0.2,0,0.4-0.1,0.5c0,0.2,0,0.3,0,0.4c0,0.2,0,0.3,0,0.5c0,0.1,0,0.3,0,0.4
	c0,0.2,0,0.3,0,0.5c0,0.1,0,0.3,0,0.4c0,0.2,0,0.3,0,0.5c0,0.1,0,0.3,0,0.4c0,0.2,0,0.3,0,0.5c0,0.1,0,0.3,0,0.4c0,0.2,0,0.3,0,0.5
	c0,0.1,0,0.3,0,0.4c0,0.2,0,0.3,0.1,0.5c0,0.1,0,0.2,0,0.4c0,0.2,0,0.3,0.1,0.5c0,0.1,0,0.2,0.1,0.3c0,0,0,0,0,0c0,0,0.1,0,0.1,0
	c0.4,0,0.8,0.1,1.2,0.1c0.4,0.1,0.9,0.1,1.3,0.2c0.1,0,0.2,0,0.4,0.1c0.3,0.1,0.6,0.1,0.9,0.2c0.2,0,0.3,0.1,0.4,0.1
	c0.3,0.1,0.6,0.1,0.8,0.2c0.2,0,0.3,0.1,0.5,0.1c0.3,0.1,0.5,0.1,0.8,0.2c0.2,0.1,0.3,0.1,0.5,0.2c0.2,0.1,0.5,0.2,0.7,0.2
	c0.2,0.1,0.4,0.1,0.5,0.2c0.2,0.1,0.5,0.2,0.7,0.3c0.2,0.1,0.4,0.2,0.6,0.2c0.2,0.1,0.5,0.2,0.7,0.3c0.2,0.1,0.4,0.2,0.6,0.3
	c0.2,0.1,0.4,0.2,0.6,0.3c0.2,0,0.4,0,0.6,0c0.2,0,0.3,0,0.5,0c0.3,0,0.5,0.1,0.8,0.1c0.2,0,0.3,0,0.5,0c0.3,0,0.6,0.1,0.9,0.1
	c0.1,0,0.2,0,0.4,0.1c0.8,0.2,1.7,0.4,2.5,0.7c0.1,0,0.2,0.1,0.3,0.1c0.3,0.1,0.6,0.2,0.9,0.3c0.2,0.1,0.3,0.1,0.4,0.2
	c0.3,0.1,0.5,0.2,0.8,0.3c0.2,0.1,0.3,0.2,0.5,0.2c0.2,0.1,0.5,0.2,0.7,0.4c0.2,0.1,0.3,0.2,0.5,0.3c0.2,0.1,0.5,0.2,0.7,0.4
	c0.2,0.1,0.3,0.2,0.5,0.3c0.2,0.1,0.4,0.3,0.7,0.4c0.2,0.1,0.3,0.2,0.5,0.4c0.2,0.1,0.4,0.3,0.6,0.4c0.2,0.1,0.3,0.3,0.5,0.4
	c0.2,0.2,0.4,0.3,0.6,0.5c0.1,0.1,0.1,0.1,0.2,0.2c2.2,0.6,4.2,1.6,6,2.9c0.1,0,0.2,0,0.3-0.1c0.2,0,0.4-0.1,0.6-0.1
	c0.2,0,0.4-0.1,0.6-0.1c0.2,0,0.4,0,0.6-0.1c0.2,0,0.4,0,0.6,0c0.2,0,0.4,0,0.6,0c0.2,0,0.4,0,0.6,0c0.2,0,0.4,0,0.5,0
	c0.2,0,0.4,0,0.6,0c0.2,0,0.4,0,0.5,0c0.2,0,0.4,0,0.6,0.1c0.2,0,0.3,0,0.5,0.1c0.2,0,0.4,0.1,0.5,0.1c0.2,0,0.3,0.1,0.5,0.1
	c0.2,0,0.3,0.1,0.5,0.1c0.2,0,0.3,0.1,0.5,0.1c0.2,0,0.3,0.1,0.5,0.1c0.2,0,0.3,0.1,0.4,0.1c0.2,0,0.3,0.1,0.5,0.1
	c0.1,0,0.3,0.1,0.4,0.1c0.2,0,0.3,0.1,0.4,0.1c0.1,0,0.3,0.1,0.4,0.1c0.1,0,0.3,0.1,0.4,0.1c0.1,0,0.2,0.1,0.4,0.1
	c0.1,0,0.3,0.1,0.4,0.1c0.1,0,0.2,0.1,0.3,0.1c0.2,0.1,0.4,0.1,0.6,0.2c0.6,0.2,1.3,0.5,1.9,0.7c0.2,0.1,0.4,0.2,0.6,0.3
	c0.4,0.2,0.8,0.4,1.2,0.6c0.2,0.1,0.5,0.3,0.7,0.4c0.3,0.2,0.7,0.4,1,0.5c0.2,0.1,0.5,0.3,0.7,0.4c0.3,0.2,0.6,0.4,0.9,0.6
	c0.2,0.2,0.5,0.3,0.7,0.5c0.3,0.2,0.5,0.4,0.8,0.6c0.2,0.2,0.4,0.3,0.6,0.5c0.2,0.2,0.5,0.4,0.7,0.6c0.2,0.2,0.4,0.4,0.6,0.5
	c0.2,0.2,0.5,0.4,0.7,0.6c0.2,0.2,0.4,0.4,0.6,0.6c0.2,0.2,0.4,0.4,0.6,0.6c0.2,0.2,0.4,0.4,0.5,0.6c0.2,0.2,0.4,0.4,0.6,0.6
	c0.2,0.2,0.3,0.4,0.5,0.6c0.2,0.2,0.4,0.4,0.5,0.6c0.2,0.2,0.3,0.4,0.5,0.6c0.2,0.2,0.3,0.4,0.5,0.6c0.1,0.2,0.3,0.4,0.4,0.6
	c0.1,0.2,0.3,0.4,0.4,0.6c0.1,0.2,0.2,0.4,0.4,0.6c0.1,0.2,0.3,0.4,0.4,0.6c0.1,0.2,0.2,0.4,0.3,0.5c0.1,0.2,0.2,0.4,0.3,0.6
	c0.1,0.2,0.2,0.3,0.3,0.5c0.1,0.2,0.2,0.4,0.3,0.5c0.1,0.2,0.2,0.3,0.3,0.5c0,0.1,0.1,0.2,0.1,0.2c0.6,0.1,1.2,0.1,1.8,0.2
	c1,0.1,2.1,0.3,3.1,0.4c0.3,0.1,0.7,0.1,1,0.2c0.7,0.1,1.4,0.3,2.1,0.4c0.4,0.1,0.8,0.2,1.2,0.3c0.6,0.2,1.3,0.3,1.9,0.5
	c0.4,0.1,0.8,0.3,1.3,0.4c0.5,0.2,1.1,0.3,1.6,0.5c0.1,0,0.2-0.1,0.3-0.1c0.9-0.3,1.8-0.5,2.7-0.7c0.2,0,0.4-0.1,0.5-0.1
	c1-0.2,1.9-0.5,2.9-0.7c0.2,0,0.4-0.1,0.6-0.1c1-0.2,1.9-0.4,2.9-0.5c0,0,0.1,0,0.1,0c1-0.1,2-0.3,3.1-0.4c0.1,0,0.2,0,0.3,0
	c-0.2-0.1-0.5-0.3-0.7-0.4c0,0-0.1,0-0.1,0c-0.3-0.1-0.5-0.3-0.7-0.4c-0.1,0-0.1-0.1-0.2-0.1c-0.2-0.1-0.4-0.2-0.7-0.3
	c0,0-0.1,0-0.1-0.1c-0.3-0.1-0.5-0.3-0.8-0.4c-0.1,0-0.1-0.1-0.2-0.1c-0.2-0.1-0.5-0.2-0.7-0.3c-0.1,0-0.1-0.1-0.2-0.1
	c-0.3-0.1-0.6-0.2-0.9-0.4c-2.5-1.1-5.8-2.6-12.3-6l0,0l-1.4-0.8l-0.6-0.3l0,0c-0.8-0.4-1.6-0.9-2.5-1.3
	c-11.9-6.5-20.4-11.2-28.3-16.2l0,0l-1.4-0.9c0,0,0,0,0,0L478.5,507.8z M480.9,500.1c0,0.3,0,0.5,0,0.8c0,0.5,0,1,0,1.5
	c0,0.3,0,0.6,0,0.9c0,0.5,0,0.9-0.1,1.4c0,0.3,0,0.7-0.1,1c0,0.3,0,0.7-0.1,1c0.2,0.1,0.4,0.2,0.6,0.4c0.2,0.2,0.5,0.3,0.7,0.5
	c0.3,0.2,0.6,0.4,0.9,0.5c0.2,0.1,0.5,0.3,0.7,0.4c0.3,0.2,0.6,0.4,0.9,0.5c0.2,0.1,0.5,0.3,0.7,0.4c0.3,0.2,0.6,0.4,0.9,0.6
	c0.2,0.1,0.5,0.3,0.7,0.4c0.3,0.2,0.6,0.4,1,0.6c0.2,0.1,0.5,0.3,0.7,0.4c0.3,0.2,0.7,0.4,1,0.6c0.2,0.1,0.4,0.2,0.6,0.4
	c0.4,0.2,0.7,0.4,1.1,0.6c0.2,0.1,0.4,0.2,0.7,0.4c0.4,0.2,0.7,0.4,1.1,0.6c0.2,0.1,0.4,0.2,0.6,0.4c0.4,0.2,0.8,0.5,1.2,0.7
	c0.2,0.1,0.4,0.2,0.6,0.3c0.4,0.2,0.9,0.5,1.3,0.8c0.2,0.1,0.3,0.2,0.5,0.3c0.5,0.3,1,0.6,1.5,0.9c0.1,0.1,0.2,0.1,0.4,0.2
	c0.5,0.3,1,0.6,1.6,0.9c0.1,0.1,0.3,0.2,0.4,0.2c0.6,0.3,1.3,0.7,1.9,1.1c0,0,0.1,0,0.1,0.1c1.3,0.7,2.6,1.4,4,2.2
	c0.1,0.1,0.3,0.1,0.4,0.2c0.7,0.4,1.5,0.8,2.3,1.2c0.6,0.3,1.1,0.6,1.6,0.9c0-0.7,0-1.5,0.1-2.5c0,0,0-0.1,0-0.1c0-0.2,0-0.4,0-0.6
	c0-0.2,0-0.4,0-0.5c0-0.2,0-0.4,0-0.5c0-0.2,0-0.4,0-0.6c0-0.2,0-0.4,0-0.5c0-0.2,0-0.5,0-0.7c0-0.2,0-0.3,0-0.5c0-0.3,0-0.6,0-0.9
	c0-0.1,0-0.3,0-0.4c0-0.9,0-1.8,0-2.7c0-0.1,0-0.2,0-0.3c0-0.3,0-0.7,0-1c0-0.2,0-0.3,0-0.5c0-0.3,0-0.6,0-0.9c0-0.2,0-0.3,0-0.5
	c0-0.3,0-0.6,0-0.9c0-0.2,0-0.3,0-0.5c0-0.3,0-0.6,0-0.9c0-0.1,0-0.3,0-0.4c0-0.4,0-0.8-0.1-1.2c-0.6-8.3-5.6-14.5-12.9-21.1
	c-1.8-1.6-3.7-2.6-5.6-2.8c-4.6-0.6-9.7,1.9-11.6,5.7c-0.8,1.7-0.7,3-0.5,5.7c0.1,1.1,0.2,2.3,0.2,3.8
	C480.8,498.6,480.9,499.4,480.9,500.1z M486.5,537.8c0.3-0.1,0.5-0.2,0.8-0.4c0.1-0.1,0.3-0.1,0.4-0.2c0.2-0.1,0.4-0.2,0.7-0.3
	c0.2-0.1,0.3-0.1,0.5-0.2c0.2-0.1,0.4-0.1,0.6-0.2c0.2-0.1,0.3-0.1,0.5-0.1c0.2-0.1,0.4-0.1,0.6-0.2c0.2,0,0.3-0.1,0.5-0.1
	c0.2,0,0.4-0.1,0.6-0.1c0.2,0,0.3-0.1,0.5-0.1c0.2,0,0.4-0.1,0.6-0.1c0.2,0,0.3-0.1,0.5-0.1c0.2,0,0.4-0.1,0.6-0.1
	c0.2,0,0.5-0.1,0.7-0.1c0.2,0,0.5-0.1,0.7-0.1c0.2,0,0.4,0,0.5,0c0.2,0,0.3,0,0.5,0c0.2,0,0.4,0,0.5,0c0.2,0,0.3,0,0.5,0
	c0.2,0,0.4,0,0.5,0c0.2,0,0.3,0,0.5,0c0.2,0,0.3,0,0.5,0c0.2,0,0.3,0,0.5,0c0.2,0,0.3,0,0.5,0c0.2,0,0.4,0,0.5,0c0.2,0,0.3,0,0.4,0
	c0,0,0.1,0,0.1,0c0,0,0-0.1-0.1-0.1c-0.1-0.1-0.2-0.3-0.3-0.4c-0.1-0.2-0.2-0.4-0.3-0.5c-0.1-0.2-0.2-0.3-0.3-0.5
	c-0.1-0.2-0.2-0.4-0.4-0.6c-0.1-0.2-0.2-0.3-0.3-0.5c-0.1-0.2-0.3-0.4-0.4-0.6c-0.1-0.2-0.2-0.3-0.3-0.5c-0.2-0.2-0.3-0.4-0.5-0.6
	c-0.1-0.2-0.2-0.3-0.3-0.5c-0.2-0.3-0.4-0.5-0.6-0.8c-0.1-0.1-0.2-0.2-0.3-0.4c-0.3-0.4-0.6-0.7-1-1.1c-0.1-0.1-0.2-0.2-0.2-0.2
	c-0.3-0.3-0.5-0.6-0.8-0.8c-0.1-0.1-0.3-0.3-0.4-0.4c-0.2-0.2-0.5-0.5-0.7-0.7c-0.2-0.1-0.3-0.3-0.5-0.4c-0.2-0.2-0.5-0.4-0.7-0.6
	c-0.2-0.1-0.4-0.3-0.5-0.4c-0.3-0.2-0.5-0.4-0.8-0.6c-0.2-0.1-0.4-0.3-0.6-0.4c-0.3-0.2-0.6-0.4-0.8-0.5c-0.2-0.1-0.4-0.3-0.6-0.4
	c-0.3-0.2-0.6-0.3-0.9-0.5c-0.2-0.1-0.4-0.2-0.6-0.3c-0.3-0.2-0.7-0.3-1.1-0.5c-0.2-0.1-0.4-0.2-0.5-0.3c-0.6-0.2-1.1-0.5-1.7-0.7
	c-2.4-0.8-6.3-2.2-10.5-1.8c3.5,3.2,6,7.8,7.1,13.3c0.1,0.1,0.2,0.3,0.3,0.3c2,1.7,3.7,3.6,5,5.4c0.1,0,0.1-0.1,0.2-0.1
	C486.3,537.9,486.4,537.9,486.5,537.8z M488.1,557.9c0.1-0.1,0.2-0.2,0.3-0.4c0.5-0.6,1-1.1,1.5-1.6c0.3-0.3,0.6-0.7,1-1
	c0.6-0.6,1.2-1.1,1.7-1.7c0.3-0.3,0.6-0.6,0.9-0.8c0.9-0.8,1.8-1.6,2.8-2.4c0.7-0.6,1.4-1.1,2.2-1.7c0.2-0.2,0.5-0.3,0.7-0.5
	c0.5-0.4,1-0.7,1.5-1.1c0.3-0.2,0.6-0.4,0.9-0.6c0.5-0.3,1-0.6,1.4-0.9c0.3-0.2,0.6-0.4,1-0.6c0.5-0.3,1-0.6,1.5-0.8
	c0.3-0.2,0.7-0.4,1-0.5c0.5-0.3,1-0.5,1.5-0.8c0.3-0.2,0.7-0.3,1-0.5c0.5-0.3,1.1-0.5,1.7-0.7c0.3-0.1,0.6-0.3,0.9-0.4
	c0.7-0.3,1.5-0.6,2.2-0.9c0.1,0,0.3-0.1,0.4-0.1c0,0,0,0,0,0c0,0-0.1,0-0.1,0c-0.2-0.1-0.3-0.1-0.5-0.1c-0.7-0.2-1.5-0.4-2.2-0.6
	c-0.3-0.1-0.6-0.1-0.9-0.2c-0.7-0.2-1.3-0.3-2-0.4c-0.3-0.1-0.5-0.1-0.8-0.2c-0.9-0.2-1.8-0.3-2.7-0.4c-0.7-0.1-1.5-0.2-2.3-0.2
	c-1.6-0.2-3.3-0.3-5-0.3c-3.4,0-6.9,0.6-10.4,2.2c0,0,0,0,0,0C490.3,545.3,490.7,551.5,488.1,557.9z M376.8,513.3
	c-0.5,0.4-1,0.8-1.4,1.2c-0.3,0.2-0.5,0.4-0.8,0.7c-2.2,1.9-5,2.8-7.7,2.8c-0.2,0-0.4,0-0.7,0c-0.8,1.5-1.6,3-2.4,4.5l-0.2,0.4
	c-2.9,5.7-5.7,11.5-8.5,17.7c1.2-0.6,2.6-1,4-1.1c0.3,0,1-0.2,1.5-0.3c1.5-0.3,3.4-0.7,5.6-0.7c2.6,0,4.7,0.6,6.3,1.4
	c0.9-0.7,2-1.4,3.2-2.1c0.2-0.1,0.5-0.3,0.7-0.4C375.5,529.4,375.6,521.4,376.8,513.3z M378.3,536.2c0.5-0.3,1-0.6,1.5-0.9
	c0.2-0.3,0.3-0.6,0.5-0.9c0.1-0.1,0.2-0.3,0.3-0.4c0.3-0.5,0.6-1,1-1.5c0.1-0.1,0.1-0.2,0.2-0.2c0.3-0.4,0.6-0.8,0.9-1.2
	c0.1-0.2,0.2-0.3,0.4-0.5c0.3-0.3,0.6-0.7,0.8-1c0.1-0.1,0.2-0.3,0.4-0.4c0.4-0.5,0.8-0.9,1.2-1.3c0.5-0.5,1.1-1,1.7-1.5
	c0.2-0.1,0.3-0.3,0.5-0.4c0.4-0.4,0.9-0.7,1.4-1.1c0.2-0.1,0.3-0.2,0.5-0.3c0.6-0.4,1.2-0.8,1.8-1.2c-0.1,0-0.1,0-0.2,0
	c-0.6-0.1-1.1-0.3-1.6-0.4c-0.6-0.2-1.1-0.4-1.7-0.6c-0.1,0-0.2-0.1-0.3-0.1c-0.5-0.2-1-0.4-1.5-0.7c-0.1,0-0.2-0.1-0.3-0.1
	c-0.5-0.3-0.9-0.5-1.4-0.8c0,0,0,0,0,0c-0.4-0.3-0.9-0.6-1.3-0.9c-0.1-0.1-0.1-0.1-0.2-0.2c-0.4-0.3-0.7-0.6-1.1-0.9
	c-0.1-0.1-0.1-0.1-0.2-0.2c-0.7-0.6-1.4-1.2-1.9-1.9c0-0.1-0.1-0.1-0.1-0.2c-0.3-0.3-0.5-0.6-0.8-0.9c0,0,0,0,0,0
	C377.6,522.3,377.6,529.3,378.3,536.2z M402.1,522.1c0.4-0.2,0.8-0.5,1.2-0.7c-2.6-1.8-6.3-4.5-9.6-7.6c-3.5-3.3-5.8-6.9-7.3-10.1
	c-2.7,2.7-5.4,5.4-8.1,8.1c0,0,0,0,0,0c0.1,0.2,0.2,0.3,0.3,0.5l0.2,0.2c2,2.4,5.5,6.5,11.1,8.1c0.3,0.1,0.7,0.2,1,0.3
	c1,0.3,2.1,0.5,3.3,0.7C396.7,522.1,399.4,522.2,402.1,522.1z M405.3,520.2c4.1-2.4,8.3-4.8,12.5-7c2.5-1.4,5.4-2,8.6-2.1
	c0.1-0.1,0.2-0.2,0.2-0.4c-1.9-1.2-7.3-4.8-10.2-8c-3.4-3.8-7.4-11.1-7.6-11.4l1.8-1c0,0.1,4.1,7.4,7.3,11c2.6,2.9,7.6,6.2,9.6,7.5
	c0.3-0.7,0.6-1.4,0.9-2.1c2.7-7.5,2.9-17.4,1.6-26.6c-5.4-0.3-9.7-2.7-12.9-5.1c-3.8,2.7-7.4,5.7-10.8,8.9
	c-6.2,5.9-12.4,12.1-18.4,18.2c1.3,3.1,3.5,6.7,7.1,10.1C398.7,515.7,402.8,518.6,405.3,520.2z M428.6,511.2c2.3,0.2,5.7,0.8,9,2.6
	c2.8-2.7,5.6-4,7.8-4.6c0.4-0.1,0.8-0.2,1.2-0.3c0,0,0,0,0,0c-0.5-0.2-0.9-0.3-1.4-0.5c-0.1,0-0.2-0.1-0.4-0.1
	c-0.3-0.1-0.7-0.2-1-0.3c-0.2,0-0.3-0.1-0.5-0.1c-0.3-0.1-0.7-0.1-1-0.2c-0.1,0-0.3-0.1-0.4-0.1c-0.5-0.1-1-0.2-1.4-0.2h0
	c-0.6-0.1-1.2-0.1-2-0.2c-0.7,0-1.4,0-2.1,0c-0.3,0-0.7,0-1,0.1c-0.4,0-0.8,0-1.2,0.1c-0.3,0-0.7,0.1-1,0.1c-0.4,0-0.8,0.1-1.2,0.2
	c-0.3,0.1-0.6,0.1-1,0.2c-0.3,0.1-0.6,0.1-0.9,0.2c-0.1,0.3-0.3,0.7-0.4,1c-0.1,0.4-0.3,0.7-0.5,1.1
	C429.1,510.5,428.8,510.9,428.6,511.2z M439.4,514.9c0.6,0.4,1.2,0.8,1.7,1.3c1.5,1.3,2.2,1.3,2.6,1.3c0.7,0,2.1-0.2,4.5-1.4
	c3.9-1.8,7.7-2.7,11.4-2.7c0.5,0,0.9,0,1.3,0.1c-0.1,0-0.2-0.1-0.2-0.1c-0.2-0.1-0.4-0.2-0.6-0.3c-0.2-0.1-0.3-0.2-0.5-0.3
	c-0.2-0.1-0.4-0.2-0.6-0.3c-0.2-0.1-0.3-0.2-0.5-0.2c-0.2-0.1-0.4-0.2-0.6-0.3c-0.2-0.1-0.3-0.1-0.5-0.2c-0.2-0.1-0.4-0.2-0.6-0.2
	c-0.2-0.1-0.3-0.1-0.5-0.2c-0.2-0.1-0.4-0.1-0.6-0.2c-0.2,0-0.3-0.1-0.5-0.1c-0.2-0.1-0.4-0.1-0.7-0.2c-0.2,0-0.3-0.1-0.5-0.1
	c-0.2,0-0.5-0.1-0.7-0.1c-0.2,0-0.3-0.1-0.5-0.1c-0.3,0-0.5-0.1-0.8-0.1c-0.1,0-0.3,0-0.4,0c-0.4,0-0.8,0-1.1,0c0,0,0,0,0,0
	c-1.6,0-3.1,0.2-4.5,0.6C444.1,511.6,441.8,512.7,439.4,514.9z M447.9,482.9c-0.5-0.5-1-1.1-1.5-1.6c-0.5-0.6-1.1-1.1-1.6-1.7
	c-0.7-0.8-1.4-1.6-2.1-2.3c-3.6,1.9-7.1,2.9-10.6,3c0,0.1,0,0.2,0,0.3c0.1,0.4,0.1,0.8,0.1,1.2c0.1,0.5,0.1,1,0.2,1.5
	c0,0.4,0.1,0.8,0.1,1.3c0,0.5,0.1,1,0.1,1.5c0,0.4,0,0.8,0.1,1.3c0,0.5,0,1,0.1,1.5c0,0.4,0,0.8,0,1.3c0,0.5,0,1,0,1.5
	c0,0.4,0,0.8,0,1.3c0,0.5,0,1-0.1,1.4c0,0.4,0,0.8-0.1,1.2c0,0.5-0.1,0.9-0.1,1.4c0,0.4-0.1,0.8-0.1,1.2c-0.1,0.5-0.1,0.9-0.2,1.4
	c-0.1,0.4-0.1,0.8-0.2,1.2c-0.1,0.5-0.2,0.9-0.2,1.4c-0.1,0.4-0.1,0.8-0.2,1.1c-0.1,0.4-0.2,0.9-0.3,1.3c-0.1,0.4-0.2,0.7-0.3,1.1
	c0,0.1-0.1,0.2-0.1,0.4c0.1,0,0.3,0,0.4-0.1c0.2,0,0.3-0.1,0.5-0.1c0.6-0.1,1.3-0.2,1.9-0.3c0.1,0,0.1,0,0.2,0
	c0.7-0.1,1.4-0.1,2.2-0.1c0.1,0,0.2,0,0.4,0c0.3,0,0.6,0,0.9,0c0-0.1,0-0.2,0-0.3c0-0.1,0-0.2-0.1-0.4c0-0.2,0-0.4-0.1-0.5
	c0-0.1,0-0.2,0-0.4c0-0.2,0-0.4-0.1-0.6c0-0.1,0-0.2,0-0.4c0-0.2,0-0.5,0-0.7c0-0.1,0-0.2,0-0.3c0-0.3,0-0.7,0-1c0,0,0-0.1,0-0.1
	c0-0.3,0-0.6,0-0.9c0-0.1,0-0.2,0-0.3c0-0.2,0-0.5,0-0.7c0-0.1,0-0.3,0-0.4c0-0.2,0-0.4,0.1-0.7c0-0.1,0-0.3,0.1-0.4
	c0-0.2,0.1-0.4,0.1-0.6c0-0.1,0.1-0.3,0.1-0.4c0-0.2,0.1-0.4,0.1-0.6c0-0.2,0.1-0.3,0.1-0.5c0-0.2,0.1-0.4,0.2-0.6
	c0-0.2,0.1-0.3,0.1-0.5c0.1-0.2,0.1-0.4,0.2-0.6c0-0.1,0.1-0.3,0.1-0.4c0.1-0.2,0.2-0.4,0.3-0.7c0.1-0.1,0.1-0.3,0.2-0.4
	c0.1-0.2,0.2-0.5,0.3-0.7c0.1-0.1,0.1-0.2,0.2-0.4c0.2-0.4,0.4-0.7,0.6-1.1c0.7-1.2,2-3.4,4.6-5.2c0.4-0.2,0.7-0.5,1.1-0.7
	c0.1-0.1,0.2-0.1,0.3-0.2c0.3-0.2,0.7-0.3,1-0.5c0.1,0,0.1,0,0.2-0.1C447.2,483.1,447.6,483,447.9,482.9z M333,553.9
	c0,6.4,0,12.6,0,19.1C337.5,567.2,337.6,555.4,333,553.9z M473.5,629.3c0,0,0-0.1,0-0.1c-0.2-0.7-0.3-1.3-0.5-2c0-0.1,0-0.2-0.1-0.3
	c-0.2-0.7-0.3-1.4-0.5-2.1c0-0.1,0-0.2-0.1-0.3c-0.1-0.7-0.3-1.5-0.4-2.3c0-0.1,0-0.2,0-0.3c-0.1-0.8-0.3-1.6-0.4-2.4
	c0-0.1,0-0.1,0-0.2c-0.1-0.9-0.2-1.7-0.3-2.6c0,0,0-0.1,0-0.1c-0.1-0.9-0.2-1.8-0.2-2.8c0,0,0-0.1,0-0.1c-0.1-0.9-0.1-1.8-0.1-2.8
	c0-0.1,0-0.2,0-0.2c0-0.9,0-1.8,0-2.8c0-0.1,0-0.2,0-0.3c0-0.9,0-1.9,0.1-2.8c0-0.1,0-0.3,0-0.4c0-0.9,0.1-1.9,0.2-2.8
	c0-0.1,0-0.3,0-0.4c0.1-0.9,0.2-1.9,0.3-2.9c0-0.2,0-0.3,0.1-0.5c0.1-1,0.3-1.9,0.4-2.9c0-0.1,0.1-0.3,0.1-0.4c0.2-1,0.4-2,0.6-3
	c0-0.1,0.1-0.3,0.1-0.4c0.2-1,0.5-2.1,0.7-3.1c0-0.1,0.1-0.2,0.1-0.3c0.3-1.1,0.6-2.2,0.9-3.2c0-0.1,0-0.1,0.1-0.2
	c0.4-1.1,0.7-2.3,1.2-3.4c0.2-0.5,0.4-1,0.6-1.5c0.1-0.2,0.1-0.3,0.2-0.5c0.1-0.4,0.3-0.8,0.4-1.1c0.1-0.2,0.2-0.4,0.2-0.6
	c0.1-0.4,0.3-0.7,0.4-1.1c0.1-0.2,0.2-0.4,0.3-0.7c0.1-0.1,0.1-0.3,0.2-0.4c-0.3,0-0.5-0.1-0.8-0.1c-0.2,0-0.4-0.1-0.6-0.1
	c-0.6-0.1-1.3-0.1-1.9-0.2c-3.9,2.4-8.7,4-14.8,4c-0.4,0-0.8,0-1.2,0c-0.5,0.4-1.1,0.7-1.6,1.2c-0.2,0.2-0.5,0.4-0.7,0.6
	c0,0.4,0.1,0.8,0.1,1.3c0.3,4.4,0.5,8.8,0.7,13c0.5,10.5,1,20.3,2.6,30C464.2,626.2,468.8,627.9,473.5,629.3z M578.5,608.4
	c-0.2-2.4-0.5-4.9-0.9-7.2c-1.2-7-3.3-13.8-6.5-19.9c-4-7.9-15.7-27.9-37.8-42.7c-5.4,0.3-10.7,1.3-15.8,2.9
	c-7.3,2.3-14,5.9-19.8,10.6c-7.4,6-13,13.3-17.1,22.6c-1.2,2.6-2,4.9-2.8,6.9c-7,19-4.8,36.7-1.7,48.2c18.8,5.6,38.1,8,57.4,7
	c14.6-0.7,29.5-3.4,44.3-8C578.5,623.4,579.1,616.3,578.5,608.4z M578.9,594.9c0.2,0.8,0.5,2.2,1,4.5c0.7-1.4,0-1,8.7-10.6
	c-12.1-2.8-1.9-29.5,8.1-10.9c5.1-7.8,9.3-16.1,13.3-24.6c-6-4.4-6.2,7.5-22.3,4.2c-3.7,0.1-18-19.7-6.2-21.7
	c-17-23.4,18.4-53.3,23.7-25.7c35.1-9.1-5.2-63,24.8-67.1c64.3-0.8,20.5,75.4,52.8,56c2.7-13.6,5.1-34.3,0.5-58.7
	c-2.4-13.1-6.3-24.1-10.1-32.9c3.3-8.5,6.5-17.2,9.7-26.1c2.5-7.1,5-14.1,7.3-21c-2.9-0.6-5.7-1.2-8.6-1.9
	c-40.7,0.3-56.5-74-32.5-20c2.6-12.3,4-18.5,4.3-18.4c0.3,0.1-0.7,6.6-2.9,19.8c2,2.1,3.9,4.2,5.9,6.3c6.3,5.8,12.7,8.7,15.8,6.7
	c2.1-1.4,2.5-5.1,3.1-11.8c0.5-5.3,0.2-9.2,0.5-9.3c0.2,0,0.8,3.4,0.9,6.7c0.1,3.9-0.2,9.3-2.5,16c2.5,0.5,5,0.9,7.7,1.3
	c2.5,0.3,5,0.6,7.3,0.8c1.4-2.1,3.3-5.2,5.4-9.1c3.7-7.2,5.3-12.7,5.5-12.6c0.2,0.1-1.3,5.8-3.9,12.3c-1.6,4.1-3.2,7.3-4.3,9.5
	c9-1.8,15.7-8.8,18.4-17.5c2.8-9,1.2-19.1-7.6-23.9c-10,1-21,1.3-30.7-4.3c-6.6-3.9-12.5-10.1-17.4-17.4
	c-14,4.7-25.8,17.1-22.5,27.1v0c2.2,5.7-0.7,27.6,0.8,31.6c19.8-23.3,44.1,37.2,6.4,40.8c-2.5,9.3-20.5,29.8-34.1,19.7
	c-2,5.2-7.4,11.6-14.4,13.5c0.3,1.3,0.5,2.5,0.8,3.8c1,0.5,2.9,1.8,4.2,4.2c0.6,1.2,2.3,4.3,0.8,6.9c-1.3,2.2-4.1,2.6-4.6,2.7
	c-0.8,3.8-3.3,12.3-11,19.3c-13,11.9-30.2,9.6-33.1,8.7c-0.2-0.1-4.8-1.4-4.8-1.4c-11.4-6.9-25.4-13.5-22.7-28.5
	c-5.8,8.2-22.1,10.7-31.4-0.5c-8.9,9-28.1,9.1-32.8-10c-1.8,2.3-5.4,5.8-9.8,6.9c32.7,51.6-38.2,17.8,32.1,67.4
	c-6.6-38.2,39.1-32.1,35,20c8,4.6,12.5,5.1,23.2,12.3l-0.1,0C564.2,559.9,571.8,572.8,578.9,594.9z M668.3,535
	c-0.7,0.5-1.5,0.9-2.2,1.2c-3.1,1.4-5.1,2.9-5.8,6.4c0.2,0.1,0.4,0.2,0.5,0.3c1.6,1,3.1,1.9,4.7,2.9c4.3,2.7,8.6,5.5,12.8,8.7
	c0.5,0.4,1,0.8,1.5,1.3c1.4,1.4,2.4,3,3.3,4.9v-10.7v-11.8c-3.7-1.5-7.7-3.2-11.5-6C670.5,533.4,669.4,534.3,668.3,535z
	 M586.7,520.3c2.8-1.6,5.6-3.1,8.4-4.6c2.8-1.5,5.6-3,8.3-4.5c-0.1-1.8-0.4-3.5-1-5.2c-0.9-2.4-2.3-4-3.8-4.6
	c-0.6-0.2-1.2-0.3-1.8-0.3c-4.2,0-10,4.2-14.2,8.6c-4.6,4.9-7,9.9-5.9,12.1c0.6,1.3,2.7,2.4,5.5,3.1
	C583.2,523,584.7,521.4,586.7,520.3z M583.4,538.7c-0.3-0.3-0.5-0.7-0.8-1c-1.3,0.1-2.4,0.3-3.1,0.4c-0.6,8.2,3,15.4,8.9,17.5
	c4.6,1.7,11.6,0.6,13.3-3.4v0c0.2-0.4,0.3-0.7,0.3-1.1C594.8,548.4,588.1,544.1,583.4,538.7z M588.9,615.6c-3.2-0.6-5.9-2.4-7.7-5.1
	c0,0,0,0.1,0,0.1c0,0.3,0,0.5,0,0.8c0,1,0.1,1.9,0.1,2.9c0,0.1,0,0.2,0,0.3c0,0.8,0,1.7,0,2.5c0,0.3,0,0.6,0,0.9
	c0,0.6,0,1.2-0.1,1.8c0,0.3,0,0.7-0.1,1c0,0.5-0.1,1.1-0.1,1.6c0,0.3,0,0.7-0.1,1c0,0.5-0.1,1-0.1,1.5c0,0.3-0.1,0.6-0.1,0.9
	c0,0.5-0.1,1-0.2,1.5c0,0.2-0.1,0.5-0.1,0.7c0,0.1,0,0.3,0,0.4c2.7-0.9,5.3-1.8,7.9-2.7C588.2,622.8,588.3,619.3,588.9,615.6z
	 M646.5,631c-0.3-9.2-0.1-18.3-0.1-27.5c0-13.5,0-26.9,0-40.1c5.2,3.8,10.8,7.7,16.3,11.9c4.2,3.2,8.2,1.4,10-2.1
	c1.1-2.2,0.2-7.5-1.7-9c-7.1-5.5-15.1-9.9-23-15c-0.6-10.5,2.2-19,13.2-23.9c3-1.3,6.4-6.3,6.1-9.3c-0.3-3.4-4.4-6.7-7.2-9.6
	c-1.4-1.5-3.7-2-5.6-3c4.7-8.7,2.3-17.4,2.5-25.8c0.4-14.3-14.1-25.2-27.9-22.2c1.7,9.1,4.7,18.3,4.5,27.4c-0.1,6-4.6,12,0.4,18
	c0.3,0.4,0,1.7-0.5,2.1c-4.4,4.2-8.3,9.1-13.4,12.3c-8.9,5.7-18.3,10.5-27.7,15.7c7.8,9.1,24.3,13.9,33.2,9.4c0.3,2.5,1.4,5,0.6,6.7
	c-9.3,19.7-18,39.9-35.3,56.9c15.8,0.9,28.4-1.6,40-10c0,4.6,1.1,9.3-0.3,13.2c-1.9,5.5,0.5,12.9-7.4,16.1c-4.8,1.9-4.2,6.2-0.9,9.8
	c1.9,2.1,3.6,4.6,6,5.8c4,2,8.9,5,12.7,4.2C646.3,641.9,646.7,636.2,646.5,631z M711.2,619.2c-6.6-3.9-13.1-7.8-18.1-10.7
	c-7.3,10.1-14,19.4-20.7,28.7C685.5,639.4,703.6,631.7,711.2,619.2z M765.6,614.1c-4.9-2.1-10.3-3.2-15.4-4.8
	c-2.7-0.8-5.4-1.8-9.3-3c3.8,14.4,14.4,20.9,22.1,29.8c5.5,6.3,10.9,11.7,19.2,3.1C783.8,621.9,783,621.4,765.6,614.1z M802.4,587.9
	c0-5.1-14.3-14.7-19.3-13.9c-10.1,1.6-20.3,2.4-31.1,3.6c0-16-0.1-30,0-43.9c0-5-0.8-10.6,1.2-14.9c1-2.3,7.2-2.1,10.8-3.4
	c1.8-0.7,4.3-2.3,4.5-3.8c0.2-1.9-1.3-4.3-2.6-5.9c-1.4-1.7-3.4-3.6-5.3-3.9c-7.1-1.1-9-5.5-8.5-11.9c0.7-9.6,0.9-19-10.1-23.5
	c-4-1.6-8.2-2.8-12.6-4.3c-0.1,1.9-0.4,3.6-0.2,5.4c0.9,8.4,1.5,16.8,3.1,25c2.2,11.4-7.3,8.5-12.4,10.3c-5.1,1.9-7.8-1.5-9.2-6.3
	c-2.4-8.2-7.3-13.6-16.9-14.8c0.7,9.2,1.3,17.9,1.9,26.7c-7.6,2.8-14.5,5.4-22.5,8.4c5,8.1,13.7,9.7,21.8,13.4c0,17.4,0,34.9,0,54.6
	c-13.6,2.9-28.7,6.1-43.8,9.4c2,7.3,14.2,11.7,22.2,9.6c11.6-3.1,23.5-5.3,35.3-7.3c5-0.8,10.5,0.9,15.2-0.5
	c3.6-1.1,6.4-1.6,9.1,0.5c5.1,3.8,9.4,2.8,15,0.2c12-5.6,24.6-5.1,37-0.6C790.8,598.2,802.4,592.6,802.4,587.9z M908.2,500.4
	c0.6,0.6,1.3,1.2,1.9,1.7c7.4-8,15.2-15.7,22.2-24.2c11-13.3,8.2-21.3-8.3-25.7c-1.4-0.4-2.8-0.8-3.2-0.9
	C916.5,467.9,912.4,484.1,908.2,500.4z M1007.8,564.2c-10.1-9-22.4-10.2-35.2-8.4c-9.1,1.3-18.4,4.3-26.4-4.8c3.6-1.6,7.5-3,11-2.3
	c11.4,2.3,16.7,0.5,21.8-8.8c1.2-2.1,1.7-4.7,2.5-7c3.4-10.6,7.1-21.2,10.2-31.9c0.7-2.4,0.1-5.5-0.9-7.9
	c-2.6-6.1-21.8-15.6-28.3-14.4c-0.7,0.1-1.5,0.3-2.2,0.6c-10.3,4.4-20.6,8.6-30.8,13.3c-4.3,2-8.2,5-14.2,8.7
	c8.5,2.7,14.6,4.6,20.7,6.5c0.1,0.8,0.1,1.6,0.2,2.4c-4.8,3.4-9.6,6.7-15.1,10.7c-5.1-12.1-13.6-18.4-27.2-19.2
	c9.2,13.2,11.7,27.4,12.6,41.7c0.8,12.7,7.3,18.2,18.8,14.6c2.7,10.9-23.7,22.9-42,24c0.6-13.2,0.9-26.4,2-39.4
	c0.6-7.3-4.8-8.5-9.1-9.9c-4.4-1.4-9.5-5-13.9,1.5c-2.6,3.8-7.2,6.3-11.9,10.1c0-8.1,0-14.4,0-20.7c13-0.8,24.2-5.2,34.3-12.6
	c2.9-2.1,5.4-4.7,8.1-7.1c-3.6-1.8-7.2-3.6-10.8-5.4c-0.4-0.2-0.8-0.6-1.8-1.4c1.1-3.3,2.8-6.7,3.3-10.2c0.6-4,0.2-8.1,0.2-12.2
	c0-14-1.5-16.3-14.3-21.4c-3.1-1.3-6.3-2.3-9.7-3.4c-0.2,1.2-0.7,2.2-0.4,2.7c6,9.9,7,21.1,5.7,32c-1.1,9.3,1.7,20.7-10.5,26.1
	c-3.4,1.5-4.5,2.4-7-1.1c-6.2-8.7-15.7-11-23.7-12.1c1.1,9,3,17.7,3,26.5c0.1,15.5-0.3,31-1.5,46.4c-1.1,13.2-3.2,26.3-5.8,39.2
	c-1.4,7-4.9,13.6-7.5,20.4c8.2-3.7,15.2-8.3,21.8-13.5c3.1-2.4,7-5.2,7.9-8.5c3.3-12.8,6.6-25.7,7.8-38.8
	c0.7-8.1,4.4-11.6,10.8-14.4c4.4-2,6.5-0.4,6.4,4c-0.4,18.8-0.2,37.6-2,56.3c-0.7,7.4,1.9,11.5,6.4,15.5c2,1.8,6.2,3.4,8,2.4
	c2.3-1.2,3.9-5,4.3-7.9c0.7-5,0.2-10.2,0.2-15.3c0-5,0-9.9,0-15c14.1,1.2,19,0.3,31.3-5.9c6.7-3.4,13.3-7.1,20.2-10.1
	c8.2-3.6,9.9-2.4,9.7,6.5c-0.4,20.8-1,41.6-1.5,62.4c-0.1,2.6,0.3,5.3,0.6,9.5c3.4-2.2,5.5-3.3,7.3-4.8c14-11.7,11.2-28.1,11.7-43.4
	c0.3-10.1-1-20.2-1-30.3c0-1.6,2.8-4.5,4.3-4.5c12.4,0.1,24.8,0.9,37.1,1.1c2.4,0,6.5-1.4,6.8-2.8
	C1010.6,569.7,1009.7,565.8,1007.8,564.2z M918,530.8c3.9,4.2,6.9,9.4,8.7,9c4.8-1,9-4.5,6.4-11.7C928.3,529,924.4,529.7,918,530.8z
	 M713.1,539c4.7-1.5,9.5-3.1,14.2-4.6c0.9,0.8,1.8,1.7,2.6,2.5c0.9-5.2,1.9-10.5,2.9-16.2C712.6,517.6,710,524,713.1,539z
	 M711.1,574c-0.5,9.1-0.5,8.8,14.2,8.8c10,0,6-6.7,7.2-13.5C724.1,571.1,717.6,572.6,711.1,574z M731.5,558.7c0-4.2,0-8.4,0-12.2
	c-6.5,1.2-12.4,2.4-19,3.6C711.9,560.5,716.6,562.6,731.5,558.7z"/>
</svg>
