<?xml version="1.0" encoding="utf-8"?>
<!-- Generator: Adobe Illustrator 24.0.1, SVG Export Plug-In . SVG Version: 6.00 Build 0)  -->
<svg version="1.1" id="Layer_3" xmlns="http://www.w3.org/2000/svg" xmlns:xlink="http://www.w3.org/1999/xlink" x="0px" y="0px"
	 viewBox="0 0 1024 1024" style="enable-background:new 0 0 1024 1024;" xml:space="preserve">
<style type="text/css">
	.st0{fill:none;}
</style>
<g>
	<path class="st0" d="M481,674.1c0.9,0.3,1.8,0.6,2.8,0.9c5.3-1.5,11.2-3.4,23.4-4.7c-9.7-5.4-14.9-6.6-30.3-14.9l0,0
		c-1.1-0.6-1.4-0.8-3.4-1.8l0,0c-1.6-0.9-1.5-0.8-6.3-3.4c-4,2.8-11,5.2-18.5,4.1c3.7,3.9,7.8,9.3,11,15.4
		C465.5,670.4,472.5,671.1,481,674.1z"/>
	<path class="st0" d="M470.8,648.3c1,0.5,1.9,1,2.8,1.5c0-1,0.1-2.9,0.2-6.2c-1.1,1.5-2.3,2.9-3.7,4.3
		C470.3,648,470.5,648.2,470.8,648.3z"/>
	<path class="st0" d="M448.2,669.2c1.9-0.1,4.3,0,7.2,0.2c-3-4.8-4.3-7.4-10.7-14c0.5,4,0.7,8.1,1,14
		C446.5,669.3,446.5,669.3,448.2,669.2z"/>
	<path class="st0" d="M451,582.4c-9.6-10-32.7-3.4-31,12.4c32.7,15.6,35.2-14.9,53.1,22C471.5,603.4,463.1,593.3,451,582.4z"/>
	<path class="st0" d="M390.5,554.3c12.2-12.5,20.9-15,24.2-11.9c44.3,18.4,18.3-50.2-55-22.7c-115.8,77.5-100.4,232.6,2.1,200.1
		c62.8-11.5,40.7,39.1,74.5,19.6c4.2-2,7.6-1.9,12.6,3.1c-9.9-43.9-9.4-63.8-17.2-97.9c52.4,15,56.6-45.9-16.9-40
		c-22.9,9.4-37.8,29.3-62.5,26.9c9.2,16.5,4,9.8-2.9,17.3c32.3,2.3,15.4,20.3-11.1,19.9c-36.3,2.1-13.3-68-10.3-37.3
		c10.7-17.2,19.3-51.8,41.2-63.5C339.2,605.6,379.2,566.1,390.5,554.3z"/>
	<path class="st0" d="M447.3,694.4c4.3-2.8,8.4-8.4,31-17.5c-9.2-2.8-19.9-4.6-32.4-4.1C446.3,678.7,446.7,686.6,447.3,694.4z"/>
	<path class="st0" d="M325.4,634.5c-2.3,4-0.4,9.6-1,18.8C328.6,647.9,329,637.3,325.4,634.5z"/>
	<path class="st0" d="M361,619.3c59.4-1,10.6-41.9,5.6-29.9C353.3,593.3,335.4,618.1,361,619.3z"/>
	<path class="st0" d="M315.7,460.8c0.6-13.3,6.7-26.8,18.3-36.3c-33.4-90.6-124.7,81-16.2,52.7C316.3,472.6,315.3,467.2,315.7,460.8
		z"/>
	<path class="st0" d="M567.8,432.1c3.7-28.2-43.8-20.6-61.7,6.4c2.1,3,4,8.3,2.4,13.6c14.8-13.8,36.9-21.2,59.2-15.1
		C567.7,435.5,567.6,436.1,567.8,432.1z"/>
	<path class="st0" d="M497.1,474.3c-2.3,6.8-6.7,15.3-3.4,35.7c22.7-29.7,76-45.3,115.6-25.6C595.7,426.9,517.2,424.3,497.1,474.3z"
		/>
	<path class="st0" d="M390,724.3c-8.7,1.9-19.9,9.1-29.5,3.6c1.6,5.6,0.9,9.2,8.2,24.3c5.7-9,17.1-17,29.5-18.6
		c-2.3-3.5-4.4-6.8-6.4-9.9C391.2,723.9,390.6,724.1,390,724.3z"/>
	<path class="st0" d="M327.3,536.4l-2.3-2.6c0.5,1.1,1,2.2,1.5,3.3C326.8,536.9,327.1,536.7,327.3,536.4z"/>
	<path class="st0" d="M430.2,475.2c0.6-9.4,4.7-23.2,10.5-31.8c-20.8-53.6-95.9,36.8-41.7,65.8c6.8-3.7,15.6-2.8,24.4,0.5
		c3.7-1.6,6.3-3.4,10.4-7.5C430.6,494.9,429.3,485.4,430.2,475.2z"/>
	<path class="st0" d="M380.1,457c0.6-0.8-0.2-1.6,6.6-11.9c-3.9-37.4-52.1-35.5-65.7,4.9c-12.8,37.6,32.6,67.8,56.4,34
		C375.9,476.3,376.2,466.2,380.1,457z"/>
	<path class="st0" d="M612.7,475.4c12.1-4,19.6-15.2,21.2-27.3c19.2-122.2-108.4-19.8-44-0.2c5.2,4.4,11,9.2,17.1,20.4
		C608.9,468.1,606.7,475.8,612.7,475.4z"/>
	<path class="st0" d="M286,388.5c4.8,0.8,10.1,2,14.6,6.6c13.7-6.3,31.6,12.4,34.5,22.4h0c0.2,0.5,0.6,1.4,1.8,4.7
		c15.9-12.9,48.3-9.7,52.9,18.9c7.8-9.8,38.3-33.8,53.3-1c14.9-20,43.4-23.4,60.9-4.6c11.2-17.1,52.3-37.7,65.8-15.2
		c5-22.6,42-45.4,63.3-28.2c5-22.5,21.1-41.4,45.3-40.9c9.9-36.3-3.1-73.8-9.3-112.4c-0.9-44.8-7.4-81.9-23.6-124
		C603,124.4,563.4,149,536,183.7c-29.5-6.4-60.8-6.7-91.1-0.3c-4.9,26.6-15.9,55.1-32.9,78.4c11.9,4.4,24.7,12.8,33.4,24.2l-1.3,1.2
		c-10-9.1-21.7-16.6-35.4-21c-11.1,14.2-26.6,29.4-41.6,44.7l0.5,0.2c-10.9,33.1,31.9,38.4,56.2,29.8c20.4-11,35.6-28.4,61.6-30.2
		c23.9-1.9,42.6,13.7,67.8,13.2c29.5,4.4,53.4-17.3,31.4-39l0.9-1.5c33.3,22.7-1,53.4-32.7,47.9c-25.7,1.8-45.5-16.9-71.2-13.8
		c-25.8,3-36.8,21.5-60.1,29.6c-22.9,6.6-67.4-0.9-56.4-34.2c-24.5,24.9-48.8,44.6-84.4,52.3C282.3,371.6,280.8,382.1,286,388.5z"/>
	<path class="st0" d="M345.1,615.6c0-0.3,0,0-0.1-1C343.9,614.8,344.8,618.9,345.1,615.6z"/>
	<path class="st0" d="M697.9,415.3c-0.3,1-0.6,2.1-1,3.3c70-20.4,0.5-105-10.1-63C697.1,364.6,704.3,390.7,697.9,415.3z"/>
	<path class="st0" d="M773.1,619.3c-4.6,6.7-6.9,14.8-6.5,23.1c9-6.4,18.3-9.4,25-10.8c0.3-7.1,0-15.8-0.7-25.9
		C785.3,607.8,778.3,611.8,773.1,619.3z"/>
	<path class="st0" d="M725.9,249c15.2,20.7,32.8,42.2,82.7,34.5c-21.1-29.9-48.3-43.2-83.3-35.5C725.5,248.5,725.3,248.1,725.9,249z
		"/>
	<path class="st0" d="M683.7,357.6c-17.6-11.6-44.7,15.1-47,33.2c0.5,7.7-1.2,61.9,3.8,64.4C691.1,468.1,712.6,382.6,683.7,357.6z"
		/>
	<path class="st0" d="M334.8,648.9c-0.2,0.5-0.6,1.7-1.2,4.3c0.7-1.7,1.3-3.6,1.7-5.5C335,648.3,335.2,647.8,334.8,648.9z"/>
	<path class="st0" d="M554.8,556.6c26.2-1.1,51.1-22.1,55.1-49.3c-31.9-16.5-89.6-14.3-109.7,19.7c-1.6-1.5,32.6,54.4,67.1,8.6
		c-1.3-1.8,0.3,1.8-4.1-5.1l0,0c-0.1-0.2-0.3-0.5-0.8-2.1l0,0c-0.2-1.3-0.1,0.8-0.7-3.7h0c2-25.9,33.2-14.9,24.9,6.5l0,0
		c-0.2,0.3-0.1,0.3-1,1.5l0,0c-0.5,0.5-0.6,0.9-1.9,2l0,0c-0.2,0.2-0.5,0.4-0.7,0.6l0,0c-0.1,0.1-0.2,0.1-0.8,0.6l0,0
		c-0.2,0.1-0.4,0.3-0.6,0.4l0,0c-0.2,0.1-0.2,0.1-1.1,0.6l0,0c-0.1,0-0.2,0.1-0.4,0.2l0,0c-0.9,0.2,0.5,0.2-3.8,1
		c-3.7,8.3-12.9,15.6-23.6,18.6C553.2,556.6,553.1,556.7,554.8,556.6z"/>
	<path class="st0" d="M353.3,623.1c1.5-0.1,1.8-0.8,6.6-0.5c-17.2-5.7-24.2-1.4-24.7,25.1C339.8,642.4,342.2,627.1,353.3,623.1z"/>
	<path class="st0" d="M332.6,659.1c0.2-1.5,0.3-3.1,1-5.9C334.5,654.7,330.3,653.5,332.6,659.1z"/>
	<path class="st0" d="M341.9,644.9c14.9-23.6-27.4,31.8,10.1,12.5C345.6,656.9,339.4,653.7,341.9,644.9z"/>
	<path class="st0" d="M610.5,503.7c13.7,6,8.3-11.8-3.4-16.5C528.1,453.4,473,533,496.9,525.7C527.6,481.1,585.2,492.4,610.5,503.7
		L610.5,503.7z"/>
	<path class="st0" d="M490.9,482.1c0.5-13.1,20.9-26.3,12.5-41.5c-66.6-64.7-106.9,109.8-20.2,68.3c3.7-4.5,6.3-4.5,5.9-14.5h0
		c0.2-1.4-0.1-1.1,0.5-5.4h0l0.1-0.8l0,0c0.1-0.9,0,0,0.5-3l0,0C490.4,484.1,490.2,485.1,490.9,482.1L490.9,482.1
		C490.9,482.1,490.9,482.1,490.9,482.1C490.9,482.1,490.9,482.1,490.9,482.1z"/>
	<path class="st0" d="M635.6,732.5c-26.6-4.2-22.4-21.9-41-34.4c-42.8-19.5,18-34.8-1-44.3c-28.7-10.6,6.8-23-5.4-32
		c-10.9-7.3-9.9-12.8-3.3-18.4c62.2-30.1,23.2-36.9,36.1-74.9c44.6-17.4,34.6,39,44.9,55.7c30.5,15.2,7.1-38.2,27.5-31.6
		c23.6,5.5,15.1,24.9,28.1,20.7c-15.7-53.9,22.3-46.2,33.9-20.2c1.7,26.4,17.5,23.8,18.3,36.4c0.3,19.5-19.9,4.2-16.3,25.4
		c66.1-41.6,0.6-114.1,0.2-173.5c8.4-19.8,37.1-78.9,20-78.3c-94.1-4.7-99.9-127.7-65-35.2c5.3-42.6,13.6-44,3.7-2.6
		c21.9,44.1,48,33.9,40.8-9.9c3.7,70.1,28.6,51.9,43,2.1c6.4,7.7-7.6,29.2-13.2,41.7c36.6-9.9,42.2-41.2,23.7-72.5
		c-24.4,2.9-59.4,8-88.8-37.6c-23.2,7.6-36.4,28.4-40,36.6c0.5,3.4,0.4,2.1,1.4,10.9v0c5.3,16.4-5.4,71.7,3.3,51.8
		c23.6-35.8,81.3,59.8,9.2,73.7c-2.6,11.4-23.5,37-43.4,38.8c-11.1,2.1-14.7-11.4-20,3.3c-7.3,15.2-23.9,8.1-18.9,22.8
		c24.7,22.5-37.2,89.2-81.8,70.7l1.6-0.3l-4.9-1.3l0.7-0.2c-18.7-11.3-43.7-24-39.4-49.3c-36.8,32.9-51.9-8.9-57.9,2.2
		c24.3,40.6,3.9,54.4-21.8,40c-35.8,26.1-48.4,41.3-7.6,53.2c37-34.9,48.4-44.6,74.5,15.7c-0.7,52.3,13.2,34.6,41,55.6l-0.1,0
		c118.5,99.5,29.1,105.5,113.1,104.8c-4.5-14.2-2-34.4,8.3-46C637.6,732.4,638.9,732.2,635.6,732.5z"/>
	<path class="st0" d="M642.3,684.3c0-13.6,0-27.3,0-40.7c37.6,30.8,33.2-2.2,1.6-14.5c-4-27.8,41-26.7,6.6-46.5
		c8.6-22.8,1.1-53.1-25.7-48.7c13.4,60-2.6,56.1-37.1,76.6c6.6,7.8,23,14.4,33.7,9.5c-1.6,23-19,45.8-35.2,64.5
		c13.6,0.7,28.8-1.2,40.6-10.1c0.8,34.7-7.2,24.6-11.3,34C644.8,750.7,643.5,703.8,642.3,684.3z"/>
	<path class="st0" d="M594.4,796.4c0.5,8.5,0.6,19-1.2,33.8c4.6-1.5,9.2-3.1,13.7-4.7c-0.3-9.3,0.6-22.1,5.7-34
		C608,791.5,600.3,793.3,594.4,796.4z"/>
	<path class="st0" d="M650.3,666.1l8.1-1.7c-1.6-0.7-3-1.3-8.1-5.1V666.1z"/>
	<path class="st0" d="M600.8,651.6c3.9-7,7.4-14.3,10.9-21.8c-5.4-0.2-11-1.6-16.1-3.9C583.9,640,581.3,649.4,600.8,651.6z"/>
	<path class="st0" d="M673,661.3l10.6-2.3v-43.6c-4.4-1.7-10.8-4.1-16.2-8.9c-4.5,6.2-15.8,7.6-15.6,18.2
		C663.3,631.3,688.3,645,673,661.3z"/>
	<path class="st0" d="M677.3,730c-17.5,0-33.2,13.6-32.9,32.5c11-3.7,17.5-3.3,28.9-0.8c0.8-5.9,3.5-18.7,12.7-30.5
		C683.8,730.8,683.7,730.2,677.3,730z"/>
	<path class="st0" d="M607.2,704c0.3,0.1,0.7,0.2,1,0.3c3.8-8.8,9.6-3.3,9.9-16c-6.9,2.7-14.4,4.1-22.8,4.4
		C598.1,698.1,602.2,702.1,607.2,704z"/>
	<path class="st0" d="M660.8,717.1c-0.4-1.9,9.8-14.8,10.8-16.4c-1.7-2-3-4.7-3.7-7.6c-4.8,0.5-11.4-0.5-17.6-3.6
		c-0.7,9.4,1.6,22.6-1.3,33.6C652.6,720.5,656.6,718.6,660.8,717.1z"/>
	<path class="st0" d="M769.4,697.7c-9.2-4.5-19.7-6.6-31.1-10.6C775.5,758.7,795.6,705.8,769.4,697.7z"/>
	<path class="st0" d="M730.3,686.5c-1.6-0.6-3.2-1.5-4.7-2.6c-2.1,0.4-4.9,1.5-9.3,1.5c-0.7,2.1-1.2,3-2.8,8.9
		c3.1,3.4,4.1,8.3-2.1,14.9c0,1-0.1,2-0.1,3.1c12.1-4.7,23.3-4.5,29.7-3.8C737.2,703.7,731,695.8,730.3,686.5z"/>
	<path class="st0" d="M702.4,677.8c11.6-1.9,25.1-1.3,37.2,1.7c19.1-8,29-7.2,46.7-2.3c24.1-3.9,13.1-17.3-3.3-22.8
		c-9.8,0.1-21.7,2.9-33.5,3.6c-5.3-98.6,14.3-43.9,15.4-71.2c-34.5-22.1,4.4-35.3-38.4-46c-2,25.3,15,43.8-15.1,41.1
		c-6.7-7.5-6.7-20.5-21-21.2c0.7,9.3,1.3,18.1,1.9,27.1c-7.7,2.9-14.7,5.5-22.8,8.6c5.1,8.2,13.9,9.8,22.1,13.6
		c0,17.7,0,35.4,0,55.4c-13.8,3-29.1,6.2-44.5,9.5c5.8,14,24.5,9.9,37.8,6.1c0.5,1.8,2.4,2.8,2.5,11.2c-5.9,8.2-11.8,16.4-18.8,26.1
		c13.1,2.2,31.3-5.3,39.3-18.2c-3.6-2.1-7.2-4.2-10.5-6.2C698.8,688.2,699.5,685.7,702.4,677.8z"/>
	<path class="st0" d="M253.5,596.5c-0.1,0.4-0.2,0.9-0.2,1.7c0.6-1,1.2-2.1,1.9-3.1C254.7,595.1,254.6,595,253.5,596.5z"/>
	<path class="st0" d="M588.5,783c-10.8-48.2-33.5-76-76.7-108.6c-22.2,1.2-46.3,9.8-64,25.1c-0.2,11.2,24.8,66.4-8.1,46.1
		c-0.1,0-0.2,0.1-0.3,0.1c-6,8.5-13.7,9.4-23.8,2.7c-11.9,31.9-8.6,64.2-3.1,83.8c57.8,17.3,117.8,16.4,176.2-1.7
		C590.4,818.8,591.4,799,588.5,783z"/>
	<path class="st0" d="M262,560.3c-3.3-6.8-4.9-14.5-7.3-22.1c-35.9-19.9-59.7,8.4-77.5,36.2c8.8-47.5-16.1-49.6-50.6-41.7
		c-11.9,8.6-20.5,22-30.3,32.1c-13.7-82.7-27.1-35.4-56.4-51.6c34.7,106.3-73.6,240.5,3,227.1c10.8-53.5,40.7-101.9,74.1-146.4
		c6.4,33.9-19.5,63.2-22.3,98.3c-15.3,19.5,8.7,46.1,25.5,52.9c12.3-18.5,14.7,0.1,22.1-11.4c4.5-45.8,18.5-103.2,66.2-122.2
		c-9.1,86.6-29,97.8,14.7,139c6-3.9,8-17.4,18.5-8.5c-8-61.1-19.8-90,4.9-148.6C254.7,578.7,265.9,570.6,262,560.3z"/>
	<path class="st0" d="M245.5,669.3c0.5-0.3,4.4-11.5,20-21.5c0.8-0.4-9.4,0.2-21.9-13.6c-1.7,13.2-1.7,26.3,0,39.2
		C244.2,672,243.6,673.1,245.5,669.3z"/>
	<path class="st0" d="M257.5,453.3c1.3,1.8,2.8,4.3,6,6.2c-4.8-24.5,12.8-52.7,33.5-63C259.6,374.4,240.1,431.4,257.5,453.3z"/>
	<path class="st0" d="M244.1,629.7c4.5,5.7,13.6,14.1,25.3,15.4c0-4.4,0.4-8.6,1.3-12.7c-13.3-11.4-18.1-29.3-17.4-34.2
		C246.8,607,247.5,618.6,244.1,629.7z"/>
	<path class="st0" d="M212.4,526.8c7.1-1.3,14.2-5,23.3-1.3c22.5-8.7,32.3,19.7,35.5,41.7c-2.9,12.6-8.9,14.3-16,27.7l0.9-0.2
		l0.7,0.9l-1.4,1.1l0.3,1.6c0.7-0.2,1.1-0.7,1.2-1c-0.4,1.6,0.5,17.2,14.9,31.1c14.2-32.7,28.6-69.9,52.1-88.8
		c-3.3-11.1-18.8-29.3-27.6-38.5l2.5-2.4c0,0,0,0,0,0l0,0c6.2,4.9,23.6,27.5,31,35.1c13.5-17,33.1-29.6,57-28.7
		c-3.4-4.1-6.5-9.8-8.3-16.6c-12.6,18.3-47,18.7-59.4-8.1c-17.5,8.5-45.8,5-54.3-16.7c-3.8-1.1-7.2-4-10.2-8.6
		c-35.4,27.3-56.2,30.3-50.7,75.8C206.5,527.9,210.1,527.3,212.4,526.8z"/>
	<path class="st0" d="M407.1,828c-5.7-25.5-5.7-52.7,4.4-80.6c-4.3-0.7-8.6-5.5-11.2-10.6c-35.6,4.1-44.7,47.3-33.7,78.6
		c13.4,6.4,27.3,11.9,41.4,16.3C407.8,830.9,407.7,830.4,407.1,828z"/>
	<path class="st0" d="M361.9,811.9c-4.9-17.6-4.6-37.9,4.7-56.1c-3.7-7-6.7-13.4-9.5-26.9c-7.3,6.1-12.6,3.7-24.3,4.4
		c-11.3,14.6-11.8,37.4-8.5,57.9c12,8.2,24.7,15.7,38.1,22.3C362.2,812.8,362.2,813,361.9,811.9z"/>
	<path class="st0" d="M320.1,786.6c0.2-1.1-2.5-9.7,0.1-29.7c-2.7-4.4-9-14.2-11.2-28.7c-10.7-6.1-21.6-17.3-26-27.4
		c-8.9,4.7-17,13.8-20,27.2c14.3,24.7,31.4,41.7,57.3,60.4C320.2,787.5,320.3,788.2,320.1,786.6z"/>
	<path class="st0" d="M312.8,730c0.6,1.9,1.1,9.3,8.2,21.8c0.9-5,4.1-14.8,7.3-18.6C323.4,732.9,318.2,732.2,312.8,730z"/>
	<path class="st0" d="M264.1,715.2c1-1.1,4.1-10.4,17.5-17.6c-10.3-22-11.9-26.1-12-48.2c-29.6,17.8-29.7,37.8-9.1,74.2
		C261.6,721.1,260.8,721.8,264.1,715.2z"/>
</g>
<g>
	<path class="st0" d="M451,582.4c-9.6-10-32.7-3.4-31,12.4c32.7,15.6,35.2-14.9,53.1,22C471.5,603.4,463.1,593.3,451,582.4z"/>
	<path class="st0" d="M361,582.8c-0.8-0.5-5.9,5.8,1.4-0.6C362.1,582.3,362.1,582.3,361,582.8z"/>
	<path class="st0" d="M409.2,506.6c3.6,0.1,9.1,1.2,14.3,3.1c3.7-1.6,6.3-3.4,10.4-7.5c-7.5-16.3-3.7-42.5,6.8-58.8
		c-20.8-53.6-95.9,36.8-41.7,65.8C402.2,507.5,405.6,506.6,409.2,506.6z"/>
	<path class="st0" d="M346.9,733.1c-0.7-0.1-3.2-0.1-14.1,0.1c-11.3,14.6-11.8,37.4-8.5,57.9c12,8.2,24.7,15.7,38.1,22.3
		c-5.3-18.1-5.3-38.9,4.3-57.6c-3.7-7-6.7-13.4-9.5-26.9C354.9,730.8,351,733.1,346.9,733.1z"/>
	<path class="st0" d="M445.1,658.5c0.2,2.7,0.4,6.2,0.7,10.9c2.7-0.2,5.9-0.2,9.7,0c-3-4.8-4.3-7.4-10.7-14
		C444.9,655.8,445,656.7,445.1,658.5z"/>
	<path class="st0" d="M447.3,694.4c4.3-2.8,8.4-8.4,31-17.5c-9.2-2.8-19.9-4.6-32.4-4.1C446.3,678.7,446.7,686.6,447.3,694.4z"/>
	<path class="st0" d="M449.4,710.5c4.9,10.9,18,53.5-9.6,35.1c-0.1,0-0.2,0.1-0.3,0.1c-6,8.5-13.7,9.4-23.8,2.7
		c-11.9,31.9-8.6,64.2-3.1,83.8c57.8,17.3,117.8,16.4,176.2-1.7c8.5-68.2-20.3-113.9-77-156.2c-22.2,1.2-46.3,9.8-64,25.1
		C448.2,702.5,448.8,705.6,449.4,710.5z"/>
	<path class="st0" d="M212.4,526.8c7.1-1.3,14.2-5,23.3-1.3c22.5-8.7,32.3,19.7,35.5,41.7c-2.9,12.6-8.9,14.3-16,27.7l0.9-0.2
		l0.7,0.9l-1.4,1.1l0.3,1.6c0.7-0.2,1.1-0.7,1.2-1c-0.4,1.6,0.5,17.2,14.9,31.1c14.2-32.7,28.6-69.9,52.1-88.8
		c-3.3-11.1-18.8-29.3-27.6-38.5l2.5-2.4c0,0,0,0,0,0l0,0c6.2,4.9,23.6,27.5,31,35.1c13.5-17,33.1-29.6,57-28.7
		c-3.4-4.1-6.5-9.8-8.3-16.6c-12.6,18.3-47,18.7-59.4-8.1c-17.5,8.5-45.8,5-54.3-16.7c-3.8-1.1-7.2-4-10.2-8.6
		c-35.4,27.3-56.2,30.3-50.7,75.8C206.5,527.9,210.1,527.3,212.4,526.8z"/>
	<path class="st0" d="M448.6,654.3c3.7,3.9,7.8,9.3,11,15.4c1.7,0.8,3.8-1.3,24.1,5.3c5.3-1.5,11.2-3.4,23.4-4.7
		c-9.7-5.4-14.9-6.6-30.3-14.9l0,0c-1.1-0.6-1.4-0.8-3.4-1.8l0,0c-1.6-0.9-1.5-0.8-6.3-3.4C463.1,653.1,456.1,655.5,448.6,654.3z"/>
	<path class="st0" d="M470,647.9c1.6,0.9,0.5,0.3,3.6,1.9c0-1,0.1-2.9,0.2-6.2C472.6,645.1,471.4,646.5,470,647.9z"/>
	<path class="st0" d="M403,740.9c-0.6-1.1-1-1.5-2.6-4.1c-35.6,4.1-44.7,47.3-33.7,78.6c13.4,6.4,27.3,11.9,41.4,16.3
		c-6.6-26.7-7.1-55.2,3.5-84.3C409,747,404.1,744,403,740.9z"/>
	<path class="st0" d="M270.9,671.7c-2.2-7.2,0.3-13.7-1.3-22.3c-29.6,17.8-29.7,37.8-9.1,74.2c3.1-9.3,8.8-19.8,21-26.1
		C278.4,690.5,274,680.8,270.9,671.7z"/>
	<path class="st0" d="M270.8,632.3c-13.3-11.4-18.1-29.3-17.4-34.2c-6.5,8.9-5.9,20.5-9.2,31.6c4.5,5.7,13.6,14.1,25.3,15.4
		C269.4,640.7,269.9,636.4,270.8,632.3z"/>
	<path class="st0" d="M390,724.3c-8.7,1.9-19.9,9.1-29.5,3.6c1.6,5.6,0.9,9.2,8.2,24.3c5.7-9,17.1-17,29.5-18.6
		c-2.3-3.5-4.4-6.8-6.4-9.9C391.2,723.9,390.6,724.1,390,724.3z"/>
	<path class="st0" d="M283,700.8c-8.9,4.7-17,13.8-20,27.2c14.3,24.7,31.4,41.7,57.3,60.4c0.2-2-2.9-10.5-0.2-31.5
		c-2.7-4.4-9-14.2-11.2-28.7C298.2,722,287.4,710.8,283,700.8z"/>
	<path class="st0" d="M364.8,590.8c-39.8,21.8,0.3,44.1,30.5,15.3C388.1,606.3,375.4,576.4,364.8,590.8z"/>
	<path class="st0" d="M149.7,625.1c-1.3,3.1-3.5,5.8-5.4,8.6c-0.9-0.3-1.7-0.7-2.6-1c2.1-3.9,1.6-9.1,7-12.9
		C149.1,621.7,150.3,623.8,149.7,625.1z M155.9,611.2c-1-0.6-1.9-1.3-2.9-1.9c4.1-5.8,8.2-11.6,12.4-17.4c0.9,0.4,1.8,0.9,2.7,1.3
		C164,599.2,159.9,605.2,155.9,611.2z"/>
	<path class="st0" d="M615.9,696.9c1.8-0.8,1.2-3.1,2.2-8.5c-6.9,2.7-14.4,4.1-22.8,4.4c2.3,4.5,7.1,9.9,12.9,11.5
		C609.5,701,612.2,698.4,615.9,696.9z"/>
	<path class="st0" d="M595.7,626c-11.8,14.1-14.3,23.4,5.2,25.7c3.9-7,7.4-14.3,10.9-21.8C606.3,629.7,600.8,628.3,595.7,626z"/>
	<path class="st0" d="M313.2,731.9c0.8,2.5,1.5,8.9,7.9,19.8c0.9-5,4.1-14.8,7.3-18.6c-4.9-0.2-10.2-1-15.5-3.2
		C313,730.6,313.1,731.3,313.2,731.9z"/>
	<path class="st0" d="M586.2,684.7c1,0.1,1.9,0.1,2.8,0.1c-0.2-0.9-0.3-1.7-0.4-2.6C587.8,683,587,683.8,586.2,684.7z"/>
	<path class="st0" d="M327.3,536.4l-2.3-2.6c0.5,1.1,1,2.2,1.5,3.3C326.8,536.9,327.1,536.7,327.3,536.4z"/>
	<path class="st0" d="M340.3,645c-4.2,11-9.9,22,11.8,12.4C329.6,657.3,355.9,624.3,340.3,645z"/>
	<path class="st0" d="M358.3,622.1c-16.2-4.8-22.5-0.2-23.1,25.6c6.2-7.3,6.7-25.7,24.7-25.1C359.6,622.5,359.6,622.5,358.3,622.1z"
		/>
	<path class="st0" d="M324.2,615.5c-0.3-1.4,8.2-21.9,7.6-10.4C331.2,607.6,327.6,626.4,324.2,615.5z"/>
	<path class="st0" d="M345.2,616.3c0-0.3-0.1-0.4-0.2-1.7C344.5,614.6,343.9,618.2,345.2,616.3z"/>
	<path class="st0" d="M324.4,635.6c0,5.9,0,11.7,0,17.7C327.4,650.8,329.7,634.3,324.4,635.6z"/>
	<path class="st0" d="M332.8,657.6c0.1-1,0.3-2.1,0.8-4.4c0.9,1.5-3.3,0.3-1,5.9C332.7,658.4,332.6,658.9,332.8,657.6z"/>
	<path class="st0" d="M361.6,578.7c0.9-0.4,0.1-0.1,2.1-0.7c-1.5-0.9-1.2-2.6-3.8,1.5C360.5,579.2,361,579,361.6,578.7z"/>
	<path class="st0" d="M329.6,428.6c1.1-1.1,1.5-1.6,4.3-4c-33.4-90.6-124.7,81-16.2,52.7C312.5,461.3,316.8,441.8,329.6,428.6z"/>
	<path class="st0" d="M386.4,442.3c-7.1-37-55.5-29.3-66,10.1c-10.6,37.2,34.7,64.2,57,31.6c-2.3-12.6,0.4-26.9,9.3-38.9
		C386.6,444.4,386.7,445.4,386.4,442.3z"/>
	<path class="st0" d="M730.3,686.5c-1.6-0.6-3.2-1.5-4.7-2.6c-2.1,0.4-4.9,1.5-9.3,1.5c-0.7,2.1-1.2,3-2.8,8.9
		c3.1,3.4,4.1,8.3-2.1,14.9c0,1-0.1,2-0.1,3.1c12.1-4.7,23.3-4.5,29.7-3.8C737.2,703.7,731,695.8,730.3,686.5z"/>
	<path class="st0" d="M725.9,249c15.2,20.7,32.8,42.2,82.7,34.5c-21.1-29.9-48.3-43.2-83.3-35.5C725.5,248.5,725.3,248.1,725.9,249z
		"/>
	<path class="st0" d="M490.9,482.1c0.5-13.1,20.9-26.3,12.5-41.5c-66.6-64.7-106.9,109.8-20.2,68.3c3.7-4.5,6.3-4.5,5.9-14.5h0
		c0.2-1.4-0.1-1.1,0.5-5.4h0l0.1-0.8l0,0c0.1-0.9,0,0,0.5-3l0,0C490.4,484.1,490.2,485.1,490.9,482.1L490.9,482.1
		C490.9,482.1,490.9,482.1,490.9,482.1C490.9,482.1,490.9,482.1,490.9,482.1z"/>
	<path class="st0" d="M257.5,453.3c1.3,1.8,2.8,4.3,6,6.2c-4.8-24.5,12.8-52.7,33.5-63C259.6,374.4,240.1,431.4,257.5,453.3z"/>
	<path class="st0" d="M567.8,432.1c3.7-28.2-43.8-20.6-61.7,6.4c2.1,3,4,8.3,2.4,13.6c14.8-13.8,36.9-21.2,59.2-15.1
		C567.7,435.5,567.6,436.1,567.8,432.1z"/>
	<path class="st0" d="M594.4,796.4c0.5,8.5,0.6,19-1.2,33.8c4.6-1.5,9.2-3.1,13.7-4.7c-0.3-9.3,0.6-22.1,5.7-34
		C608,791.5,600.3,793.3,594.4,796.4z"/>
	<path class="st0" d="M497.1,474.3c-2.3,6.8-6.7,15.3-3.4,35.7c22.7-29.7,76-45.3,115.6-25.6C595.7,426.9,517.2,424.3,497.1,474.3z"
		/>
	<path class="st0" d="M677.3,730c-17.5,0-33.2,13.6-32.9,32.5c11-3.7,17.5-3.3,28.9-0.8c0.8-5.9,3.5-18.7,12.7-30.5
		C683.8,730.8,683.7,730.2,677.3,730z"/>
	<path class="st0" d="M773.1,619.3c-4.6,6.7-6.9,14.8-6.5,23.1c9-6.4,18.3-9.4,25-10.8c0.3-7.1,0-15.8-0.7-25.9
		C785.3,607.8,778.3,611.8,773.1,619.3z"/>
	<path class="st0" d="M245.5,669.3c0.5-0.3,4.4-11.5,20-21.5c0.8-0.4-9.4,0.2-21.9-13.6c-1.7,13.2-1.7,26.3,0,39.2
		C244.2,672,243.6,673.1,245.5,669.3z"/>
	<path class="st0" d="M674.7,354.4c-36.2,8.7-40.9,32.9-37,68.6c-8.1,59.2,34,29.1,47,12.7C703.8,411.2,700.1,356.2,674.7,354.4z"/>
	<path class="st0" d="M634.4,450.6c16.8-126.9-107.7-21.8-44.5-2.7c5.2,4.4,11,9.2,17.1,20.4C610.4,485.7,632.5,463.3,634.4,450.6z"
		/>
	<path class="st0" d="M564.1,479.4c-51.8,1.5-84.9,47.6-68.4,47.1c33.8-45.4,86.7-34.7,114.8-22.9l0,0c9,4.9,11.3-4.5,2.8-12.4
		C601.1,481.5,583.4,479,564.1,479.4z"/>
	<path class="st0" d="M654,662.1c-1.2-0.9-2.5-1.9-3.8-2.8v6.8l8.1-1.7C656.9,663.9,655.4,663.1,654,662.1z"/>
	<path class="st0" d="M676.1,657.2c-0.8,1.6-1.8,3-3,4.1l10.6-2.3v-43.6c-4.4-1.7-10.8-4.1-16.2-8.9c-4.5,6.2-15.8,7.6-15.6,18.2
		C661.6,630.8,683.8,641.1,676.1,657.2z"/>
	<path class="st0" d="M697.9,415.3c-0.2,0.6-0.3,1.2-1,3.3c70-20.4,0.5-105-10.1-63C697.4,365.1,704.3,390.7,697.9,415.3z"/>
	<path class="st0" d="M608.6,506.7C577,490.8,520,493.5,500.3,527c-1.6-1.5,32.6,54.4,67.1,8.6c-1.3-1.8,0.3,1.8-4.1-5.1l0,0
		c-0.1-0.2-0.3-0.5-0.8-2.1l0,0c-0.2-1.3-0.1,0.8-0.7-3.7h0c2-25.9,33.2-14.9,24.9,6.5l0,0c-0.2,0.3-0.1,0.3-1,1.5l0,0
		c-0.5,0.5-0.6,0.9-1.9,2l0,0c-0.2,0.2-0.5,0.4-0.7,0.6l0,0c-0.1,0.1-0.2,0.1-0.8,0.6l0,0c-0.2,0.1-0.4,0.3-0.6,0.4l0,0
		c-0.2,0.1-0.2,0.1-1.1,0.6l0,0c-0.1,0-0.2,0.1-0.4,0.2l0,0c-0.9,0.2,0.5,0.2-3.8,1c-3.7,8.3-12.9,15.6-23.6,18.6
		c27-0.2,53.1-21.4,57.2-49.4C609.5,507,610,507.3,608.6,506.7z"/>
	<path class="st0" d="M671.6,700.7c-1.7-2-3-4.7-3.7-7.6c-4.8,0.5-11.4-0.5-17.6-3.6c-0.7,9.4,1.6,22.6-1.3,33.6
		c3.6-2.5,7.6-4.5,11.8-5.9C660.4,715.2,670.6,702.3,671.6,700.7z"/>
	<path d="M145.6,622.9c-1.5,3.2-2.6,6.6-3.9,9.9c0.9,0.3,1.7,0.7,2.6,1c1.7-3.5,7.7-7.7,4.4-13.8
		C147.6,620.9,146.1,621.7,145.6,622.9z"/>
	<path d="M153,609.3c1,0.6,1.9,1.3,2.9,1.9c4.1-6,8.1-12,12.2-18c-0.9-0.4-1.8-0.9-2.7-1.3C161.2,597.6,157.1,603.4,153,609.3z"/>
	<path d="M328.7,616.9c0.8-1,7.4-24.7-0.4-11.6C326.2,606.7,322.4,623.7,328.7,616.9z"/>
	<path d="M346.7,568.4c-2,6.2-10.3,10.8-9.2,23.3C337.1,587.2,354.1,574.3,346.7,568.4z"/>
	<path d="M334,590.5c1.5,1-5.6,1.5-0.1,6.2C334,594.6,334.1,592.6,334,590.5z"/>
	<path d="M302.9,261.9c5.2-8.3,10.7-14.8,15.6-19.7l-34.7-63.4c-2.2,7.1,1.7,108.9,4.8,117.2C290.8,287.1,294.9,274.8,302.9,261.9z"
		/>
	<path d="M321.5,335.7c-1.6,1.6-36.1,2.9-30.8,8.2C292.3,343.9,330.4,341.4,321.5,335.7z"/>
	<path d="M294.2,312.3c-0.9,2.6,30.8,3.2,30,0C325.1,309.7,293.4,309,294.2,312.3z"/>
	<path d="M255,595c-0.5,0.7-1.5-0.1-1.7,3.1c0.6-1,1.2-2.1,1.9-3.1L255,595z"/>
	<path d="M335.2,647.9c-0.4,1.1-1,2.7-1.6,5.3c0.7-1.7,1.3-3.6,1.7-5.5C335.2,647.8,335.2,647.9,335.2,647.9z"/>
	<path d="M296.1,592.9C296.1,592.9,296.1,592.9,296.1,592.9c0.1,0,0.1,0,0.1-0.1L296.1,592.9z"/>
	<path d="M337.4,588.1c0-0.9,0,0.1-0.1-3.3C332.4,588,334.9,604.7,337.4,588.1z"/>
</g>
<g>
	<path d="M641.6,303.2c-0.9,2.7,36.9,3.2,36,0C678.4,300.5,640.7,300,641.6,303.2z"/>
	<path d="M663.7,238c-0.8-15.2-2.8-81.4-16.9-108.8c-13.1,17.5-25.7,54.5-26.8,73.4C633.5,208.7,655.2,226.3,663.7,238z"/>
	<path d="M528.5,237.4c2.9-3.7,0-13.7,0-13.7c-19.3,4.5-14.5,11.6-15,22.8C513.5,246.4,525.6,241.1,528.5,237.4z"/>
	<path d="M434.6,232.4c-5.2,15.6,14.6,19.3,17.4,20.8C455.7,240,443.6,229.7,434.6,232.4z"/>
	<path d="M672.6,338.4c-5.1-1.7-38.1-17.8-35.7-9.4C657.8,334.5,677.7,347.3,672.6,338.4z"/>
	<path d="M303.7,380.5c2.1-2.2,35.7-16.3,29.7-20.2C330.3,361.3,296.8,377.3,303.7,380.5z"/>
	<path d="M321.5,335.7c-1.6,1.6-36.1,2.9-30.8,8.2C292.3,343.9,330.4,341.4,321.5,335.7z"/>
	<path d="M302.9,261.9c5.2-8.3,10.7-14.8,15.6-19.7l-34.7-63.4c-2.2,7.1,1.7,108.9,4.8,117.2C290.8,287.1,294.9,274.8,302.9,261.9z"
		/>
	<path d="M294.2,312.3c-0.9,2.6,30.8,3.2,30,0C325.1,309.7,293.4,309,294.2,312.3z"/>
	<path d="M605,241.1c-8.9,26.6,29.5,56.5,46,34.4c26.6-0.7,19-6,1.9-4c9.4-22.1-33.7-53.6-46-34.5c-31.7-10.8-70.8,6.4-85,38.1
		l1.5,0.8C539.2,249.8,573.1,232.7,605,241.1z M608.4,241.9c7.4,2,14.6,5.1,21.2,9.1l1-1.4c-5.6-4.5-12.2-8.4-20.3-11.4
		c14.1-14.1,49.8,18.6,38.3,34.4c-7,3.1-11.3,3.5-12,7.1C619.9,279,602.4,259.8,608.4,241.9z"/>
	<path d="M729.5,649.6c-8.4,1.9-15.1,3.3-21.6,4.8C704.7,668.7,734.9,667.6,729.5,649.6z"/>
	<path d="M710,618.9c3.6-1.2,9-2.9,14.5-4.7c0.9,0.8,1.8,1.7,2.7,2.5c1-5.3,1.9-10.6,3-16.4C710.9,597.3,706.4,603.1,710,618.9z"/>
	<path d="M728.6,638.8c0-4,0-5.3,0-12.3c-5.2,1-12,2.3-19.3,3.7C708.7,640.7,713.5,642.8,728.6,638.8z"/>
	<path d="M814.2,286.2L814.2,286.2c-0.4-0.7-1.1-1.8-1.9-3.2l0,0c-22-32.4-51.9-46.9-89.1-37.9l0,0c-0.8,0.3-1.2,0.4-3.3,1.1l0,0
		c-20.8,7.3-33.8,24.1-39,33.9c-13.1-55.3-8.4-115.2-33.2-169.2c-43.6,9.1-84.6,33.8-113,69c-28.9-6-59.4-6.2-89-0.1l0,0
		c-0.8,0.2-2.1,0.5-3.7,0.8l0,0c-13.9,3.1-27.5,7.5-40.4,13.1c-36.7-24.5-82.6-35.8-127.4-30.7c-6.1,69.2,9.8,136.4,3.1,199.5l0,0
		c0.1,0.8,0.1,1.4,0.3,3.5l0,0c0.8,5.7,1.2,15.1,3.7,22.4c-36.1,2.4-38,47.2-28.4,63.8c-38.6,29.5-58.5,32.3-52,82.1
		c-3.8,3.9-9.7,8.8-15.2,14.5c-4.5-41.4-66.1-32.4-83.9-2.6c-9.9-26.2-9.9-47.5-44.2-37.3c-8.5,3.6-21.9-12.4-25.6,4.8
		c21.3,69.5-14.2,145.8-27.2,208.8c2,27.5,40.2,39,47.5,14.5c6-40.5,37.3-89,53.6-114.7c-4.2,22.8-30.7,86.1-23.6,90.4
		c4.7,16.5,32.9,56.7,48.6,32.3c36,11.8,7.2-80.1,66.9-118.3c-3.2,47.4-27.6,95.6,17.5,126.3c4.3,9.8,15.3,5.3,20.4-5.3
		c34.9,13.6-2.7-56.3,4.4-73.4c0.1,1.2,1.8,10.8,2.3,13.5l0.1-0.4c2.9,11,3.2,15.5,16.7,41l0,0c0.4,0.6,1.6,2.7,2.5,4.4l0-0.1
		c14.7,24.6,32.7,41.7,59.3,60.4l0,0c0.6,0.4,2.5,1.7,4,2.8l0-0.1c12.2,8.2,25.2,15.6,38.6,22.1l0,0c0.6,0.3,2.7,1.3,4.4,2.1l0-0.1
		c13.3,6.2,27,11.4,40.9,15.7l0,0c0.8,0.2,2,0.6,3.9,1.2l0,0c57.6,16.9,117.7,16,176.2-1.9l0,0c1.2-0.4,1.4-0.4,3.6-1.1l0,0
		C639.4,820.1,707,790.2,754.2,722c28,33.6,51.8-19.2,19-31.4c1.3-2.5,2.5-4.9,3.7-7.3c27.7,8.5,46.6-20,13.9-34.5
		c9.6-35.9,4.4-82.5-6.9-126c-7.9-30.7-20.6-63.1-25.5-75.2c14-25.4,24.4-55.1,29-84.9C825.6,352.7,833.4,319.7,814.2,286.2z
		 M782.9,257.7c9.7,6.2,18.8,15.3,25.7,25.8c-25.2,2.9-56,6.1-83.3-35.5C751.7,240.5,774.3,252.2,782.9,257.7z M280.5,361.6
		c-2-17,2.3-37.8,4.2-59.7c-9.1-45-10.3-90-7.4-135.9c43.1-4.2,87.4,6.8,123.8,31.5c11.5-5.1,26.6-10.3,40.1-13.3
		c-4.9,25.8-15.9,53.8-32.6,76.4c-17.3-5.5-39.6-4-56.7,5.6c-17.4-23.3-53.4,7.5-44.1,31.4c13,20.4,49.5-6.2,45.3-27.8
		c15.1-7.1,33.9-9.8,52-4.8C371.6,302,332.2,351.3,280.5,361.6z M333.6,282.4c5-4.3,10.5-7.9,16.3-10.9c1.5,17.2-22,36.4-37.4,26.9
		C300.3,280.9,332,247,348.8,268c-4.5,2.6-11.8,8.1-16.5,13.2L333.6,282.4z M280.8,365.1c33.4-6.9,60.7-27.5,84.4-52.3
		c-11.2,34.7,36.5,41.9,61.8,32.5c19.3-9.5,33.3-26.1,57.4-28.2c25.9-1,46.6,17.3,75,14.3c31.7,2.9,56-28.8,26.2-48l-0.9,1.5
		c23.7,24.5-6.1,43-31.4,39c-25.7,1-47-17.7-73.5-12.3c-24,2.9-36.9,20.4-58.7,30.3c-22,7.3-64.7,1.2-53.4-30.8l-0.5-0.2
		c14.2-14.7,29.6-29.6,41.6-44.7c11.8,3.7,25.3,11.6,35.4,21l1.3-1.2c-8.3-10.5-19.4-19.1-33.4-24.2c16.2-22.3,27.3-49.1,32.9-78.4
		c28.8-6.2,61.3-6.3,91.1,0.3c26.9-34,66.4-59.2,109.5-68.8c16.5,42,22.5,81.1,23.9,126.4c7.2,36.3,18.3,87.1,8.9,110
		c-15.8-3.2-43.3,18.3-45.3,40.9c-21.1-15.3-56.4,2-63.3,28.2c-13.5-20.8-51.9-4.8-65.8,15.2c-15.7-16.8-45-17.4-60.9,4.6
		c-10-22.5-33-22.1-53.3,1c-5.4-26.3-32.7-33.9-52.9-18.9c-0.8-2.1-0.3-1-1.8-4.7h0c-4.9-10.6-16.7-27.8-34.5-22.4
		c-3.2-3.3-8.6-6-14.6-6.6C281.4,383.3,282.2,373.2,280.8,365.1z M686.8,355.6c16.1-42.5,76.3,47.7,10.1,63
		C704.8,395.4,697.9,364.8,686.8,355.6z M694.5,414.5c-6.8,31.7-45.4,52.6-55.8,38.5C618.6,331.8,711.8,326,694.5,414.5z
		 M570.4,533.4c-0.8-0.3-2.4-1.1-3.6-2.8c-2-2.7-1.6-5.7-1.5-6.4h0c1.5-20.7,27.8-8.6,16.8,7.5l0,0c-2.2,1.7-3.3,2.9-8,3
		c-3.4,8.8-11.8,15.7-22.8,18.8c8.6-3.5,17.1-8.8,20.4-19.3L570.4,533.4z M554.6,556c8.5-3.1,17.4-8.3,21.7-17.9
		c0.9-0.3-0.5,0.4,3.8-1l0,0c0.2-0.1,0.1,0,0.4-0.2l0,0c0.2-0.1,0.2-0.1,1.1-0.6l0,0c0.2-0.1,0.4-0.2,0.6-0.4l0,0
		c0.2-0.1,0.1-0.1,0.8-0.6l0,0c0.3-0.2,0.5-0.4,0.7-0.6l0,0c0.6-0.5,0.7-0.5,1.9-2l0,0c0.2-0.3,0.2-0.2,1-1.5l0,0
		c8.1-22.7-23.1-31.6-24.9-6.5h0c0.2,1.2-0.4-0.7,0.7,3.7l0,0c0.1,0.4,0.1,0.4,0.8,2.1l0,0c0.7,0.6-0.9,0.3,4.1,5.1
		c-15.4,23.4-44.2,27.2-67.1-8.6c25-34.5,69.2-36.9,109.7-19.7c-4.1,26.7-29,49.4-57.2,49.4C553.4,556.5,554,556.2,554.6,556z
		 M555.8,493.6c-17.4,1.6-31,4.9-48.2,19.8c-32.1,36.3-9-12.5,5.6-17c76.2-47.1,127.3,15.1,97.3,7.3l0,0
		C602.8,500.4,580.8,492.1,555.8,493.6z M490.9,482.1c-0.3,1.1,0,0-0.7,3l0,0c-0.2,1.3,0,0.2-0.5,3l0,0l-0.1,0.8h0
		c-0.1,0.6-0.2,1.3-0.5,5.4h0c0.6,4.4-1.3,11.9-6.5,15c-92.1,38.3-37.7-140.9,22.6-65.3C508.4,457.2,494.7,464.3,490.9,482.1
		C490.9,482.1,490.9,482.1,490.9,482.1L490.9,482.1z M342.6,653.2c1.2,2.2,5.7,3.8,9.4,4.2C317.2,677.9,354.3,611.3,342.6,653.2z
		 M345.1,627.7c-0.9,8.9-10.8,15.8-12.4,31.3c2.6-10.7-0.6-49.1,27.3-36.5C356,622.6,348.4,622.4,345.1,627.7z M344,616.8
		c0.3-0.7,0.7-1.5,1-2.2C344.2,614.2,346.8,616.6,344,616.8z M358.7,618.6c-25-0.9,0.3-32.8,13.6-32.2
		C408.8,607.8,382.8,622.6,358.7,618.6z M367.6,577c-11.8,13.1-13.3,7.3,1.5-9.2c-22.2,12.6-27.5,40-41.2,63.5
		c-6.9-23.8-15.7,28.5-1.3,33.8c12.8,15.2,68.4-12.5,22.7-16.3c2.9-6.2,14.2,0.4,2.9-17.3c18.1,2.9,36.4-11.7,53.8-22.7
		c89.8-21,72.7,56.7,25.6,35.9c4.9,21.7,10.4,65.7,17.2,97.9c-3.9-4.1-8.5-5.4-11.4-4.2c-34.8,24.9-22-38.8-65.3-16.8
		c-114.3,25-120.6-98.3-36.5-183.8c36.4-47.2,127.3-13.8,93.2,8.1C392.4,535.9,387.3,561.2,367.6,577z M324.4,653.3
		c0.8-3.4-1.6-11.8,1-18.8C327.9,636.5,328.9,645.8,324.4,653.3z M449.6,672.7c8.5,0.2,18,0.9,28.7,4.2c-5.5,2.7-11.8,3-31,17.5
		c-0.5-5.4-1-13.8-1.4-21.5C447.2,672.7,448.4,672.7,449.6,672.7z M445.8,669.3c-0.3-3.6-0.3-8.5-1-14c3.1,3,7.7,8.6,10.7,14
		C452.7,669.2,449.6,669.1,445.8,669.3z M475.5,672.5c-3.2-0.7-4.5-1.6-15.9-2.8c-2.8-5.1-5.9-10-11-15.4c4.9,1,14.3-0.6,18.5-4.1
		c0.9,0.5,3.1,1.7,6.3,3.4l0,0c0.6,0.3,1.8,1,3.4,1.8l0,0c16,8.7,18.4,8.4,30.3,14.9c-4.7,0.5-11.7,1.1-23.4,4.7
		C482.3,674.7,484.4,675,475.5,672.5z M473.7,644.2c0,1.5-0.1,2.5-0.1,5.6c-0.9-0.5,0.1,0-3.6-1.9c1.4-1.4,2.6-2.8,3.7-4.3
		C473.7,643.8,473.7,644,473.7,644.2z M471.8,615.6c-16.3-36.4-22.2-4.5-51.7-20.7c8.4-41.3,52.8,0.2,53.1,22
		C472.7,616.4,472.3,616,471.8,615.6z M398.2,733.6c-11.5,2-22.3,7.3-29.5,18.6c-0.1-0.3-5.2-8.7-8.2-24.3
		c8.4,5.4,20.6-1.4,31.3-4.2C393.8,726.8,396,730.2,398.2,733.6z M325.1,533.8l2.3,2.6c-0.2,0.2-0.5,0.5-0.7,0.7
		C326.1,536,325.6,534.9,325.1,533.8z M423.5,509.7c-6.9,1.3-16.6,1-25.2-3.5c-50.2-26.3,14.7-117,42.4-62.8
		c-9.8,14.7-14.7,41.4-6.8,58.8C431.5,504.6,428.1,507.7,423.5,509.7z M376.6,474.9c0.1,0.9-0.4,0.8,0.8,9.1
		c-26.6,36.4-72.4-2.8-54.9-38.4c9-27.6,57.8-43.6,64.2-0.5C381.5,452.3,376.2,463.8,376.6,474.9z M315.6,464.3
		c0.1,3.7,0.5,8,2.1,12.9c-103.2,31.3-22.6-145.2,16.2-52.7C322.8,433.7,315,448.6,315.6,464.3z M567.7,436.3c0,0.2,0,0.4,0,0.6
		c-19.1-5.1-43-0.8-59.2,15.1c0.4-4,1.9-7.3-2.4-13.6C517,418.2,574.6,396.7,567.7,436.3z M506.8,458.9
		c27.2-31.1,80.3-26.4,98.7,14.2c0.2,1.3,0.6-0.8,3.8,11.4c-35.2-18.3-93.5-5.9-115.6,25.6c-1-6.7-2.7-12.3,0.4-27
		C495.3,478.2,499.8,467.1,506.8,458.9z M610.6,476.2c-3.2-7.8-8.7-19-20.7-28.2c-61.8-23.8,53.7-102.6,44.4-24.9
		C636.2,445.8,635.8,467.1,610.6,476.2z M252.3,418.2c3.3-14.2,20.1-37,44.6-21.7c-21.2,12.3-37.6,34.7-33.5,63
		C253.2,453.2,248.6,431.7,252.3,418.2z M211.6,488.3c11-14.4,27.9-18.7,43-33.1c2.1,3,5,7.1,10.2,8.6c5.9,16.6,32,27.9,54.3,16.7
		c8.6,21.2,43.5,30.8,59.4,8.1c1.5,5.3,3.6,11,8.3,16.6c-21.9-0.7-42.6,10-57,28.7c-10.7-11.2-18.8-23.7-31-35.1l0,0c0,0,0,0,0,0
		l-2.5,2.4c11.9,14.1,19.3,19,27.6,38.5c-26.7,22.9-37.8,57-52.1,88.8c-14.4-13.9-15.3-29.5-14.9-31.1c-0.1,0.3-0.4,0.8-1.2,1
		l-0.3-1.6l1.4-1.1l-0.7-0.9l-0.9,0.2c-5.2,6.4,2.3,25.1,15.5,37.4c-0.9,4.1-1.3,8.3-1.3,12.7c-8.8-0.3-22.1-10-25.3-15.4
		c4.7-38,22.3-44.6,26.8-62.4c-0.9-20.1-13.3-50.5-35.4-41.7c-4.5-2.9-25.2-0.8-31.8,5.4C201.6,513.3,204.1,499,211.6,488.3z
		 M238.4,619.1c-21.7,81,13.8,118.7,3.1,123.1c-10.8-8.4-11,2.8-18.5,8.5c-49.1-39.7-16.4-88.6-14.7-139
		c-49.7,19-59.2,77.6-67.9,124.5c-12.5,7.7-6.1-9.9-20.4,9.1C51.2,716.5,131.8,628,116.9,594c-36.7,48.5-64.3,97.2-74.1,146.4
		c-76,14.6,33.8-138.7-3-227.1c44.5,11.7,42.2-21,56.4,51.6c33.8-52.2,94.8-48,80.9,9.6c19.7-30.4,41.4-55.2,77.5-36.2
		C276.2,582.7,239.6,582.8,238.4,619.1z M243.9,672.5c-0.1,0.2-0.1,0.2-0.4,0.9c-1.7-12.9-1.7-26,0-39.2c5.2,4.4,5.6,8.9,21.9,13.6
		C258.2,652.9,251.2,657.2,243.9,672.5z M261.9,720c-0.5,1.2-0.9,2.4-1.3,3.7c-18.9-37.8-24.2-51.7,9.1-74.2
		c-0.9,15.6,3.6,33,12,48.2C274.1,701.6,266.2,708.4,261.9,720z M280.8,753.4c-6.5-7.7-12.5-16.2-17.8-25.4c2.3-9.4,7.8-21,20-27.2
		c4.5,9.9,14,20.3,26,27.4c14.4,49.8,8.8,4.1,11.3,60.2C304.3,777,290.4,764.7,280.8,753.4z M321.1,751.8
		c-3.1-5.4-6.5-12.2-8.2-21.8c5.3,2.2,10.6,3,15.5,3.2C325.4,737.1,322.6,744.2,321.1,751.8z M324.3,791.1
		c-2.8-11.7-3.3-45.4,8.5-57.9c6-0.9,16.5,2.3,24.3-4.4c0.5,1.8,2.3,14.1,9.5,26.9c-8.3,16.5-10.5,37.6-4.3,57.6
		C349,806.8,336.3,799.3,324.3,791.1z M366.6,815.5c-10.2-27.5-3.7-74.7,33.7-78.6c2.7,3.2,3.6,8.7,11.2,10.6
		c-9.2,24.8-11.1,55.6-3.5,84.3C393.9,827.4,380,821.9,366.6,815.5z M588.8,830.6c-57.6,17.8-117.9,19.1-176.2,1.7
		c-5.3-19.4-9-51.1,3.1-83.8c6.5,5.6,19.1,6.4,23.8-2.7c0.1,0,0.2-0.1,0.3-0.1c31,19.7,9.6-31.6,8.1-46.1c16.8-14.6,40.6-24,64-25.1
		C581.1,724.2,595.9,779.4,588.8,830.6z M606.9,825.4c-4.5,1.6-9.1,3.2-13.7,4.7c0-2.5,2.2-12.6,1.2-33.8c5.2-2.4,10.8-4.6,18.2-4.9
		C607.5,803.4,606.6,816.2,606.9,825.4z M637,724.4c-44.1-13.9-3.5-16.6-10.2-49.8c-10.5,7.7-25.5,11.4-40.6,10.1
		c9.4-7.8,39.7-53.7,35.2-64.5c-9.3,4.4-25.6-0.4-33.7-9.5c50.7-23.9,44.4-33.8,37.1-76.6c27.9-4.8,33.6,28,25.7,48.7
		c34.6,19.5-13.5,22.9-6.6,46.5c40.5,19.6,28,41.3-1.6,14.5C640.6,676.5,646.9,723.7,637,724.4z M608.2,704.3
		c-4.6-1.3-9.7-5.4-12.9-11.5c8.4-0.3,15.9-1.7,22.8-4.4C619.2,696.6,611.6,697.8,608.2,704.3z M586.7,645.5
		c-1.8-3.7,1.9-11.6,8.9-19.6c5.1,2.3,10.7,3.7,16.1,3.9c-3.5,7.5-7,14.8-10.9,21.8C593.9,650.9,588.2,648.5,586.7,645.5z
		 M672.1,638c-6.1-4.6-12.5-8.6-20.2-13.3c-0.1-10.5,9.3-10.8,15.6-18.2c3.9,3.7,10.7,6.9,16.2,8.9V659l-10.6,2.3
		C678.6,657,679.1,643.6,672.1,638z M658.3,664.4l-8.1,1.7v-6.8C651.9,660.2,652.6,661.8,658.3,664.4z M673.2,761.6
		c-10.1-2.2-16.7-3.1-28.9,0.8c-0.2-21.5,20-37,41.5-31.4C676.7,743,674,755.7,673.2,761.6z M650.4,711.9
		c-0.2-6.2-0.2-14.3-0.1-22.5c4.8,2.3,10.9,4.3,17.6,3.6c0.7,2.9,2,5.6,3.7,7.6c-2.6,4.3-9.8,11.9-10.8,16.4
		c-4.2,1.5-8.2,3.4-11.8,5.9C650.1,720,650.5,716.3,650.4,711.9z M711.3,712.3c0-1,0-2.1,0.1-3.1c2.3-2.8,7.8-9.5,2.1-14.9
		c0.4-1.6,0.8-3.3,2.8-8.9c2.1,0.1,6.2-0.7,9.3-1.5c1.5,1.1,3.1,2,4.7,2.6c0.4,7.2,6.1,17,10.7,22
		C734.6,707.8,723.4,707.6,711.3,712.3z M780.1,720.3c-11.8,15.7-38.4-21.7-41.9-33.3C754.1,694.5,786.6,693.2,780.1,720.3z
		 M800.5,668.5c-6.3,16.1-27.4,3-40.8,5.1c-20.5,8.1-34.8,1.6-57.3,4.3c-1.3,3.4-3.7,10.2-4.9,16.1c3.3,2,6.9,4.1,10.5,6.2
		c-7.1,11.7-24.4,20.4-39.3,18.2c5.5-7.6,12-16.7,18.8-26.1c-0.3-1.9,1-3.6-2.5-11.2c-10.8,3.3-32.5,8.2-37.8-6.1
		c15.3-3.3,30.6-6.5,44.5-9.5c0-20.1,0-37.7,0-55.4c-8.2-3.8-17.1-5.4-22.1-13.6c8.1-3,15.1-5.7,22.8-8.6c-0.6-9-1.3-17.8-1.9-27.1
		c12.9,1.4,14.7,10.3,19.7,20.2c32.6,9,13.2-23,16.3-40.1c33.3,7.2,19.4,26,24.2,35.4c12.4,9.8,27.2,14.4,0,22.1
		c-3.1,18.4-0.3,39-1.2,59.7C766.9,656.6,792.6,648.4,800.5,668.5z M791.7,631.5c-6.8,1.4-16,4.4-25,10.8
		c-1.8-14.8,10.6-32.7,24.3-36.6C791.7,615.8,791.9,624.5,791.7,631.5z M816.4,338.7c-6.7,11.9-19.4,17.7-29.5,20.5
		c3.6-8.3,21.5-38,11.4-41.8c2.2,22-26.8,62-39.8,34.1c7-28.7-5.4-54.7-1.5-16.1c7.1,40.1-46.1,5.1-40.4-13.7
		c13-53.8-4.2-15.3-4,6.3c-44.3-93.1-6.3,49.1,71,35.2c-0.1,27.6-22.6,55.1-27.4,80.9c-0.6,3.2,0.8,6.6,0.8,9.8
		c15.5,58.3,58,122.1,0.4,161.2c-5.5-12.6,22-15.8,15.9-28.7c-21.9-24.6-23.5-65.6-51.1-50.1c-16.9,26.3,22.1,58.6-27.9,16.2
		c-13.7-1.3-11.6,15.2-11.2,30.4c-39.4,21-6.2-48.3-43.2-55.8c-54.8-11.2,17.5,53.9-51.6,73.7c-26.8,19.3,15.1,13.5-2,31.9
		c-14.8,25.6,18.4,14.6,9.8,27.1c-7.5,10.8-22.7,23.9-15.7,30.5c26.3,5.1,28.6,43.3,58.7,41.7c-9.8,12.1-13.3,29.2-8.3,46
		c-11.4-3.2-25.9-3.1-38.4,2.1c-4.3-28.5-29.7-75.2-74.6-106.8l0.1,0c-8-11-47-12.5-39.8-32.4c3.5-54.8-36.1-75-53.7-63
		c-15.1,43.8-56.7,12.3-47,0.5c14-11.1,23.8-36.2,49.3-23.6c20.9,0.7,23.9-28.1,1-43.3c13.4-9.8,41.1,24.4,61.9-4.9
		c-0.9,4.7,2.1,11.8,2.1,11.8s-1.8,6.4-0.7,8.4c0.8,1.4,5.5,1.3,5.5,1.3s6.1,8.6,15.6,16.8c4.9,4.2,12.2,8.3,17,11l4.2,1.5
		c0,0,25.2,4.4,45.3-5c5.6-2.6,17.1-8.2,26-20.9c6.3-9,8.7-17.9,9.7-23.3c1.2-0.4,6-2,7-5.9c0.2-0.8,0.4-2.4-2.6-8.2
		c-1.9-3.6-3.8-6.5-5.3-8.6c-1.7-12,20.3-13.1,23.5-29.3c9.4,11,42.7,1.5,57.1-29.1c80.6-34.8,8.1-112.7-8.7-76.3
		c-3.9,9,2-50.5-1.8-54.1v0c22.9-88.8,58.8-16.1,75-13.8C811.7,292.2,830.3,285.1,816.4,338.7z"/>
	<path d="M609.9,761.9c16.7-0.8,14.9-30.6-0.6-31C592.7,731.8,594.5,761.6,609.9,761.9z"/>
	<path d="M526.4,634.9c-14.4,31.8,35.9,53,50.9,20.6C541,630.4,529.8,631.2,526.4,634.9z M540.9,666.1c-32-30.8-8.7-41,31.8-9.5
		C566,667.4,552.1,671.7,540.9,666.1z"/>
	<path d="M519.7,747.1c-30.8,0-32.5,43.3-4.8,47C547,796.1,548.8,749.4,519.7,747.1z"/>
	<path d="M535.8,746c-32.2-22.3-65.2,22.7-38.2,48.2C531.5,821.6,565.8,769.9,535.8,746z M545.7,771.1c-3.5,40.6-57.9,36-56.2-1.9
		C494.1,731,545.4,734.3,545.7,771.1z"/>
</g>
<g>
	<path d="M917.8,610.6c7.3,12.6,17.7,10.9,15.3-2.7C928.3,608.7,924.2,609.4,917.8,610.6z"/>
	<path d="M1014.2,638.4c-8.1-7.2-17.8-10.9-29.7-11.2c40.7-77.4-14.6-85.5-42.8-69.6c19.3-27.3-23.9-44.9-29-29.7
		c0.1-0.1-11.8,45.8-11.8,46c-3.6-0.2-4.2-1.7-10.5-0.5c-0.5-0.2-0.9-0.5-1.4-0.7c14.5-45.8-34.9-64-39-43.9
		c3.8,14.7,11.9,41.2,0.9,53.3c-65.4-50.2-14.2,40.2-48.2,132.6c3.1,11.8,31.6-6.5,41.6-17.7c8.8-11.5,8.5-34.2,13.1-51.6
		c-12.5,107.8,41.6,86.9,33.3,38.3c16.2,0.8,30.1-9.4,46-16.8c1.5,36.2-8,74.8,5.3,79.4c37.9-6.3,28.5-58.8,28.2-84
		C988.6,662.6,1035.2,670.2,1014.2,638.4z M920.6,529.9c40.7,8.3,1.8,36.1-10.8,51.5c-0.6-0.6-1.3-1.2-1.9-1.8
		C912.1,563.2,916.3,546.8,920.6,529.9z M1011.2,652.5c-11.5,7.1-32.3-0.8-45.9,2.2c-11.4,25.5,13,66.7-21.3,83.7
		c0.5-136.2,9.9-62-61.1-63.3c0.2,14.2,3.5,58.3-17.9,29.7c-6.8-17.9,13.6-89.8-12.1-66.3c-17,43.8,0.7,52.5-42.6,72.2
		c16.6-41.2,17.6-89.7,11.9-134.3c15.2,1,18.5,8.5,27.9,14.7c25-7.2,11.3-51.4,8.5-62.9c29.2,6.5,28,23.6,20.8,48
		c3.5,2.7,7.1,3.8,12.8,6.9c-10.4,10.7-26.4,19.1-43,19.9c0,6.5,0,12.8,0,21c44.2-39.4,34.2,16.1,33.4,38.3
		c18.6-1.2,45.3-13.4,42.6-24.4c-28.8,8.9-15-43.2-31.9-57.1c13.8,0.8,22.5,7.2,27.6,19.5c5.7-4,10.5-7.4,15.4-10.8
		c-0.1-0.8-0.1-1.6-0.2-2.4c-6.2-1.9-12.3-3.9-21-6.6c59.3-39.7,98.9-23.5,61.3,44.3c-7.5,9.9-18.4,0-29.9,6.2
		C963.2,648.1,1004.9,620.3,1011.2,652.5z"/>
	<path d="M962.3,584.3c-1.8-7.3-11.3-4.6-18.5-5c-0.5,0.9-0.9,1.8-1.4,2.7C948.3,586.1,963.2,599.6,962.3,584.3z"/>
	<polygon points="952.3,615.7 962.3,606.2 948.6,607.8 	"/>
</g>
</svg>
