<?xml version="1.0" encoding="utf-8"?>
<!-- Generator: Adobe Illustrator 24.0.1, SVG Export Plug-In . SVG Version: 6.00 Build 0)  -->
<svg version="1.1" id="Layer_1" xmlns="http://www.w3.org/2000/svg" xmlns:xlink="http://www.w3.org/1999/xlink" x="0px" y="0px"
	 viewBox="0 0 1024 1024" style="enable-background:new 0 0 1024 1024;" xml:space="preserve">
<path d="M297.1,408.9c1.3,0,2.4,0,3.5,0c29.4,0,58.8,0,88.2,0c3.2,0,5.1-0.1,4.1,4.6c-1.2,5.2-0.7,10.7-1,16.5c-2,0-3.5,0-5,0
	c-19.9,0-39.7,0-59.6,0c-5.4,0-8.5,5.1-5.7,9.6c0.6,0.9,2.6,1.2,4,1.3c18.3,0.1,36.7,0.2,55,0c4.3-0.1,5.9,1.1,5.3,5.4
	c-0.5,4.5-0.8,9.1-1.2,14c-1.6,0-3.1,0-4.6,0c-18.5,0-36.9,0-55.4,0c-2.7,0-4.4,0.3-4.6,3.7c-0.2,3.5-1.3,6.9-2,10.6
	c21.1,0,41.9,0,62.7,0c6.1,0,6.1,0,5.8,5.9c-0.3,5-0.6,9.9-1,16.3c2.2-3.3,3.8-5.7,5.2-8.1c11.2-18.2,22.3-36.5,33.4-54.7
	c4.7-7.6,9.4-15.1,14.2-22.6c0.7-1.1,2.5-2.2,3.8-2.2c11.9-0.2,23.8-0.2,35.7,0c1.2,0,2.9,1.3,3.4,2.5c5.5,12.4,10.8,24.9,16.2,37.3
	c6.5,14.8,13.1,29.5,19.7,44.3c0.4,0.9,0.5,1.9,0.8,3.2c-9.5,0-18.8,0.1-28-0.1c-0.9,0-2.1-1.1-2.6-2c-1.4-2.8-2.5-5.8-3.7-8.7
	c-1-2.4-2.4-3.6-5.4-3.6c-16.1,0.1-32.2,0-48.3,0.2c-1.5,0-3.4,1.3-4.4,2.5c-1.9,2.2-3.1,4.8-4.9,7.1c-2.1,2.8-4.5,4.7-8.6,4.6
	c-38.8-0.2-77.5-0.1-116.3-0.1c-1.5,0-3,0-5.3,0c0.5-6.8,0.9-13.3,1.3-19.7c0.1-1.8,0.5-3.5,0.6-5.3c1.1-14.2,2.3-28.4,3.3-42.6
	C296.4,422.2,296.7,415.9,297.1,408.9z M473.8,462.4c-3.6-9.6-7-18.6-10.3-27.6c-0.9-2.4-1.5-5.4-4.5-4.8c-2.2,0.5-4.6,2.3-5.9,4.2
	c-4.7,7.2-9,14.7-13.4,22.1c-1.1,1.8-1.9,3.7-3.1,6C449.1,462.4,460.9,462.4,473.8,462.4z M816.8,458.8
	c-5.9-15.7-11.8-31.5-17.8-47.1c-0.4-1.2-2.1-2.6-3.2-2.6c-14.4-0.2-28.8-0.2-43.2,0c-1,0-2.7,1.4-2.9,2.4c-0.6,3.4-0.7,6.9-1,10.3
	c-0.3,5.4-0.5,10.8-0.9,16.2c-1.1,13.9-2.2,27.8-3.3,41.7c-0.3,4.4-0.1,8.9-1.1,13.2c-0.7,3.1,0.4,3.4,2.7,3.3c4.8,0,9.5,0.1,14.3,0
	c2.6-0.1,5.6,0.3,7.6-0.9c1.1-0.7,0.6-4.1,0.8-6.3c1.1-12,2.3-23.9,3.3-35.9c0.5-5.5,0.4-11.1,1-16.6c0.2-1.5,1.8-2.8,2.7-4.1
	c1.1,1,2.6,1.8,3.2,3c7.6,17.1,15.3,34.3,22.5,51.5c3.8,9.1,3.5,9.3,13.4,9.3c2.8,0,5.6-0.2,8.4,0.1c3,0.3,4.6-1.2,6-3.5
	c7.8-13.6,15.6-27.1,23.4-40.6c3.6-6.2,7.2-12.3,10.9-18.4c0.5-0.8,1.7-1.1,2.6-1.7c0.5,1.2,1.4,2.4,1.3,3.5
	c-0.6,7.7-1.5,15.4-2.2,23c-0.9,9.9-1.7,19.8-2.5,29.7c-0.2,2.6,0,5.2,0,7.9c7.5,0,14.4-0.3,21.2,0.1c4.3,0.3,5.3-1.9,5.6-5.3
	c1.2-13.8,2.3-27.5,3.4-41.3c0.4-4.4,0.5-8.9,0.9-13.3c0.9-9.1,2-18.2,3.1-27.6c-15.8,0-31.3,0-46.8,0.1c-1,0-2.3,1.3-2.9,2.3
	c-7.7,14-15.3,28.1-22.9,42.2c-1.7,3.1-3.6,6.1-5.6,9.4C818.1,461.2,817.3,460,816.8,458.8z M272.4,462.4c10.6,3.9,11,8.6,9.5,17.5
	c-0.7,4.2-0.9,8.5-1,12.8c-0.1,2.5-0.8,3.5-3.4,3.5c-6.7-0.1-13.4,0-20.1,0c-2.6,0-3.4-0.6-3-3.7c0.6-4.7,0.1-9.6-0.5-14.4
	c-0.3-2.4-2.4-3.8-5.2-3.8c-13.8,0.1-27.7,0.1-41.5,0c-2.9,0-4.2,1.2-4.4,4.2c-0.3,4.8-0.9,9.6-1.8,14.3c-0.2,1.3-1.9,3.1-3,3.2
	c-7.5,0.3-15,0.1-22,0.1c0-7-0.2-13.6,0.1-20.2c0.2-4.8,1.1-9.6,1.5-14.4c1.2-14.6,2.2-29.2,3.3-43.8c0-0.3,0-0.6,0-0.8
	c0.6-8.1,0.6-8.1,8.8-8.1c25.6,0,51.2,0,76.8,0c2.7,0,5.5,0.2,8.2,0.9c6.9,1.8,12.9,5.6,12,15.2c-0.7,8-0.7,16.1-1.9,24
	c-0.8,5.2-3.2,10-9.4,11.3C274.6,460.5,273.8,461.4,272.4,462.4z M204.4,450.9c16.8,0,32.9,0,49.1,0c3.4,0,5.2-2,5.5-5.4
	c0.2-2.6,0.5-5.2,0.8-7.8c0.4-3.7-1.6-6-5.4-6.1c-11,0-22.1,0-33.1,0c-5,0-10,0-15.2,0C205.5,438.1,205,444.3,204.4,450.9z
	 M997.2,478.6c0.3-2.9-0.5-4.5-3.9-4.3c-3.9,0.2-7.8,0.1-11.8,0.1c-16.7,0-33.3-0.1-50,0.1c-3.3,0-4.7-0.7-3.4-4.2
	c0.6-1.6,0.6-3.5,0.9-5.2c0.5-3.1,1.5-5,5.5-5c18.7,0.3,37.5,0.1,56.3,0.1c1.5,0,2.9,0,4.3,0c0-6.8,0-12.9,0-19.4
	c-21.3,0-42.3,0-63.6,0c0-1.6,0-2.7,0-3.8c0-7.1,0-7.1,6.9-7.1c19.7,0,39.5,0,59.2,0c2.1,0,4.1,0,4.4-2.6c0.5-6,0.7-12.1,1.1-18.5
	c-2.1,0-3.6,0-5.2,0c-20.3,0-40.6,0-60.9,0c-9,0-17.9,0.1-26.9-0.1c-3,0-4,1-3.9,3.9c0.2,3.1,0.2,6.2,0,9.2c-1,13.5-2.3,27-3.3,40.5
	c-0.7,9.7-0.6,19.4-2,29c-0.7,4.7,0.8,4.8,4.3,4.8c28.7-0.1,57.4,0,86.1,0c1.2,0,2.5-0.1,3.8-0.2C996,490.1,996.6,484.4,997.2,478.6
	z M987.2,511.4c1,0,2-0.1,2.9,0c2.3,0.1,4.5-0.5,4.4-3.1c0-0.7-2.7-1.3-4.2-1.9c-0.2-0.1-0.6,0-0.8,0c-270,0-540,0-810,0
	c-2.5,0-5.9-0.6-5.9,2.9c0,3.7,3.6,2.1,5.7,2.1c134.8,0.1,269.6,0.1,404.4,0.1C718.1,511.4,852.6,511.4,987.2,511.4z M667.4,408.9
	c-21.6,0-43.1,0.1-64.7-0.1c-3.5,0-4.5,1-4.6,4.5c0,4.1-0.9,8.2-1.5,12.2c-0.7,3.9,0.2,5.1,4.2,5.1c9.9,0,19.9,0.1,29.8,0
	c3,0,4,1,3.8,3.9c-1.2,14.3-2.2,28.7-3.4,43c-0.1,1.2-0.4,2.5-0.5,3.7c-0.5,4.9-0.9,9.8-1.4,14.9c9.1,0,17.5,0.1,25.9-0.1
	c1,0,2.7-1.6,2.8-2.6c1-10,1.9-20.1,2.6-30.1c0.7-8.6,1.1-17.1,1.7-25.7c0.5-7,0.6-7,7.6-7c9.1,0,18.2,0.1,27.3-0.1
	c1.2,0,3.5-1.4,3.5-2.2c0.3-6.3,0.2-12.7,0.2-19.5C689.8,408.9,678.6,408.9,667.4,408.9z M527.9,409.1c-2.8,29.1-5.7,57.9-8.5,87.1
	c16.2,0,32,0,47.8,0c12.9,0,25.7,0.1,38.6-0.1c1.4,0,4-1.3,4-2.1c0.3-6.7,0.2-13.5,0.2-20.7c-19.3,0-38.9,0-59.1,0
	c0.7-10.4,1.4-20.3,2.1-30.3c0.3-4.5,0.9-9,1.3-13.6c0.5-6.7,1-13.5,1.4-20.5C545.9,409.1,537,409.1,527.9,409.1z M132.2,471.5
	c1.1-12.5,2.2-25,3.3-37.5c0.4-4.4,0.8-8.8,1.6-13.1c1.3-7.1-2.2-13.3-8.4-13.6c-7-0.3-14-0.1-21-0.1c-4.5,0-9,0.2-13.5,0
	c-6-0.2-8.4,2.2-7.4,8c1,6.1,2.1,12.1,3.3,18.2c4,20.4,14.8,36.4,32,48.1c2.5,1.7,5.6,2.4,9.2,3.9
	C131.7,480,131.9,475.7,132.2,471.5z M34.6,482.5c13.1-6.8,23.9-15.8,31.6-28.7c7.8-13,14.1-26.4,17.4-41.3c0.9-4.3-0.7-4.5-4.1-4.4
	c-12.9,0.4-25.9,0.6-38.8,0.9c-4.2,0.1-7.2,3.2-7.6,7.8c-0.1,1.3,0,2.5-0.1,3.8c-1.1,11.9-2.2,23.9-3.3,35.8
	c-0.4,4-1.1,7.9-1.4,11.9c-0.4,5.3-0.6,10.7-1,16.8C30.1,484,32.5,483.5,34.6,482.5z M77.5,565c12.4-0.2,24.8-0.7,37.2-0.6
	c5.7,0,10.2-2.8,10.8-8.3c0.5-4.7,0.6-9.4,0.9-14.1c0.5-7.6,1-15.2,1.7-22.7c1-10.2,2.1-20.4,3.3-31.3c-11.3,2.9-19.8,9.5-27.2,17
	c-16.1,16.3-25.7,36.3-30.6,59.2C74.9,564.4,76.2,565,77.5,565z M25.5,503.2c-0.9,10.7-1.6,21.5-2.6,32.2c-0.4,4.5-1.4,9-1.5,13.5
	c-0.1,4.1-2.1,8.3,1.3,12.2c3.5,4,7.4,3.7,12.3,3.3c9.9-0.7,19.8-0.2,29.8-0.2c2,0,4,0,7,0c-1.8-9.7-3.3-18.5-5.2-27.1
	C62,516,51,499.6,31.2,489.8c-1.3-0.6-2.8-0.9-4.3-1.4C26.4,493.8,25.9,498.5,25.5,503.2z M573.8,529.3c0,1,0.2,1.9,0.1,2.9
	c-0.8,10.6-1.6,21.2-2.6,31.8c-0.6,7-1.6,13.9-2.3,20.9c-0.1,0.6,0.7,1.6,1.3,1.8c4.1,1.9,8.2-0.4,8.6-4.9
	c0.6-7.6,1.1-15.2,1.7-22.7c0.4-4.3,1-8.5,1.3-12.7c0.7-7.6,1.4-15.1,1.9-22.7c0.1-1-1.3-3-1.9-2.9c-7.1,0.4-14.8-2.8-19.9,6.6
	c-5.2,9.6-12.7,17.8-19.2,26.7c-4.7,6.4-9.4,12.9-13.8,19.4c-1.7,2.5-2.4,1.9-3.6-0.2c-1.3-2.4-2.6-4.8-3.9-7.2
	c-7.7-13.9-15.3-27.8-23-41.6c-0.8-1.5-2.3-3.6-3.5-3.7c-5.5-0.3-11.1,0-16.6,0.1c-0.4,6.1-0.6,10.9-1.1,15.8
	c-1.3,14.3-2.9,28.5-4.1,42.8c-0.7,8-0.5,8,8.6,7.1c1.8-19.1,3.7-38.3,5.6-58.6c1.8,1.7,3.1,2.4,3.7,3.5c4.2,7.4,8.2,14.9,12.4,22.3
	c5.7,10.1,11.5,20.2,17.4,30.2c2.6,4.4,7.9,4.4,10.8,0.3c12-16.7,24-33.4,35.9-50.1c1.5-2.1,2.9-4.2,4.4-6.3
	C572.6,528.3,573.2,528.8,573.8,529.3z M709.9,425.3c-1.3,14.3-2.7,28.5-4.1,42.8c-0.8,8.1-1.6,16.1-2.5,24.2c-0.3,2.5,0.3,4,3.3,4
	c7.3-0.1,14.5-0.1,21.8,0c2.5,0,3.4-0.9,3.5-3.4c0.4-6.6,1.1-13.2,1.7-19.8c1.1-12.5,2.2-25,3.3-37.5c0.3-3.4,1.1-6.8,1.3-10.2
	c0.5-5.4,0.7-10.9,1-16.3c-9.7,0-18.8,0-28.3,0C710.7,414.6,710.4,420,709.9,425.3z M991.3,533.8c-0.6-4.8-1.9-9.5-7-11.2
	c-3.7-1.2-7.8-1.9-11.7-1.9c-12.9-0.2-25.8-0.3-38.6,0c-12.2,0.2-19.8,6.9-20.7,18.8c-0.4,5.1-0.7,10.2-1.1,15.3
	c-0.5,5.9-1.8,11.9-1.2,17.8c0.9,8.4,5.5,14.7,15.7,14.5c13.3-0.3,26.6,0.1,39.9-0.2c4.6-0.1,9.5-0.8,13.6-2.6
	c3.2-1.4,6.6-4.6,7.7-7.7c2-6,2.5-12.5,3.5-18.9c0.5-2.9-1.2-3.5-3.7-3.5c-12-0.2-23.9-0.6-35.9-0.6c-1,0-2.8,1.7-3,2.8
	c-0.7,4.4,0.3,5.4,4.8,5.4c9.5,0,18.9,0,28.4,0c0.9,10.2-1.5,14.5-9.2,16.5c-2.5,0.6-5.2,1-7.8,1.1c-11.2,0.1-22.4,0.5-33.6-0.1
	c-7.2-0.4-12-1.5-11.3-12c0.6-8,1.5-16,1.6-24c0.1-10.5,6.2-13.9,13.6-14c13.6-0.2,27.3,0.3,41,0.8c4.8,0.1,6.9,2.5,6.8,7.5
	c-0.1,3.3,1,4.7,4.3,4.3c1.2-0.2,2.5,0,4.1,0C991.4,538.6,991.6,536.2,991.3,533.8z M229,578.4c-13.1,0.9-26.2,1.1-39.3,0.9
	c-10-0.2-12.3-2.9-12.1-12.9c0.2-7.5,1.8-14.9,1.4-22.3c-0.5-7.9,5.8-15.3,15.3-15.1c10.5,0.3,21,0,31.5,0.1c3.2,0,6.6-0.1,9.4,1
	c2.2,0.8,5,3.5,5.1,5.4c0.2,6,0.9,7.2,8.6,5.5c0-5.3,1.1-10.8-2.9-15.4c-3.7-4.3-9-4.8-14-4.9c-13.3-0.3-26.6-0.2-39.9-0.1
	c-13.7,0.1-21,8-21.3,21.4c-0.1,5.8-1.1,11.5-1.5,17.3c-0.4,6.1-1.9,12.2,0.6,18.4c2.2,5.5,6.5,9.2,12.3,9.3
	c15.4,0.1,30.8,0.4,46.2-0.1c9.4-0.3,18.1-4.5,19-16.5c0.3-3.5,0.7-7.1,1.4-10.6c0.9-4.4,0.1-5.5-4.4-5.6
	c-11.7-0.2-23.4-0.6-35.1-0.7c-1,0-2.5,1.6-3,2.8c-0.5,1.1-0.1,2.7-0.1,4.7c11.1,1.5,22.1,0.2,33.3,0.9
	C240.4,575.4,236.1,577.9,229,578.4z M825.3,575.9c-10.1-10.6-20.2-21.2-30.3-32c-4.2-4.5-8.3-9.3-12.4-14
	c-5.2-6.1-10.8-11.4-19.8-9.2c-1.3,0.3-3.1,1.6-3.2,2.6c-1.1,10.7-1.8,21.5-2.7,32.2c-0.8,8.9-1.7,17.8-2.4,26.8
	c-0.2,1.9-0.9,4.3,2.5,4.7c5.6,0.6,8.1-0.3,8.3-3.6c0.6-10.2,1.1-20.5,1.7-30.7c0.2-4.1,0.5-8.3,0.9-12.4c0.3-3.5,0.8-6.9,1.3-11.1
	c5.6,6.2,10.6,11.8,15.6,17.4c11.3,12.7,22.6,25.5,34,38.1c1,1.1,2.7,2.1,4.2,2.2c3.6,0.3,7.3,0.3,10.9,0c0.9-0.1,2.5-1.5,2.6-2.4
	c1.8-16.7,3.5-33.5,5.1-50.2c0.4-3.6,0.7-7.2,0.8-10.7c0.1-3.1-2.5-3.2-4.4-2.8c-1.7,0.3-4.4,1.5-4.6,2.5
	c-1.4,10.8-2.5,21.6-3.6,32.5c-0.7,7.2-1.3,14.5-2.1,22.6C826.8,577.1,826,576.5,825.3,575.9z M53.9,586.9c28.1,0,56.3,0,84.4,0
	c5.4,0,8.9-3.6,9.1-9c0.2-5.3,0.4-10.5,0.9-15.8c1-10.8,2.3-21.7,3.3-32.5c0.7-7.9,1.1-15.7,1.7-23.6c1.1-13.1,2.2-26.2,3.3-39.2
	c0.7-7.8,1.5-15.6,2.5-23.4c0.5-4.3-2.7-8.5-6.8-7.8c-0.6,7.5-1,15.1-1.7,22.7c-1.3,15-2.8,30-4.1,44.9c-0.7,7.9-1,15.7-1.7,23.6
	c-1.3,14.7-2.9,29.4-4.1,44.1c-0.5,5.8-3.9,9.4-9.8,9.4c-25.1,0-50.1,0-75.2,0c-3.2,0-6.4,0-10,0C46.9,584.8,49.6,586.9,53.9,586.9z
	 M42.6,576c27.7,0,55.4-0.2,83.1,0.2c6.2,0.1,10.8-4.8,10.8-10.8c0-8.1,0.9-16.3,1.6-24.4c1-11.5,2.2-23.1,3.3-34.6
	c0.7-7.7,1.1-15.5,1.8-23.2c1-11.7,2.2-23.4,3.3-35c0.5-5.2,1-10.4,1.6-15.6c0.5-3.9-2.6-8-6.6-8.1c-1.1,11.4-2.4,22.7-3.4,34.1
	c-1.2,13.6-2.3,27.3-3.4,40.9c-0.6,7.7-1.1,15.5-1.7,23.2c-1.1,12.4-2.3,24.7-3.3,37.1c-0.5,6.2-3.7,9.6-10,9.6
	c-26.7,0-53.5,0-80.2,0c-1.5,0-3,0-4.5,0C35.7,573.6,38.5,576,42.6,576z M400.4,586.9c-3.2,0-6,0.2-8.7-0.1
	c-0.9-0.1-2.1-1.2-2.5-2.1c-7-14.8-2.1-11.8-18.4-12.1c-11.7-0.2-23.5,0.1-35.2-0.1c-2.9,0-4.7,1-6.1,3.4c-1.4,2.5-3,4.9-4.5,7.4
	c-2.9,4.9-7.6,3.5-12.9,3.5c1.5-2.6,2.5-4.9,3.9-6.9c10.7-16.5,21.4-33.1,32.1-49.6c1.2-1.8,2.4-3.7,3.7-5.5c2-2.9,4.4-4.2,8.4-4.5
	c7-0.6,10.3,2.1,13,8.2c8.4,18.6,17.4,36.9,26.1,55.3C399.7,584.6,399.9,585.5,400.4,586.9z M335.8,565.6c2.7-0.2,4.9-0.5,7-0.5
	c8.9,0.2,17.7,0.6,26.6,0.8c2.6,0.1,5.2-0.4,7.8-0.6c0.8-0.1,2.2,0,2.3-0.4c0.3-0.7,0.2-1.8-0.2-2.6c-4.8-10.1-9.6-20.2-14.4-30.3
	c-1.5-3.3-4.4-3.9-6.5-1.1c-1.1,1.4-2,2.9-3,4.4C349.1,545.1,342.9,554.7,335.8,565.6z M670,519.9c-1.1,0.3-2.5,1.7-2.7,2.7
	c-0.6,4.4-0.6,8.8-1,13.2c-0.6,6.6-1.2,13.2-1.9,19.7c-1,9.3-2.1,18.6-3.1,27.9c-0.3,2.4,0.6,3.8,3.2,3.6c2.4-0.2,5.6,1,6-3.1
	c0.9-9.7,1.6-19.5,2.6-29.2c0.7-6.8,1.7-13.6,2.4-20.5c0.5-4.6,0.7-9.3,1.1-14.4C673.8,519.8,671.8,519.4,670,519.9z"/>
</svg>
