<?xml version="1.0" encoding="utf-8"?>
<!-- Generator: Adobe Illustrator 24.0.1, SVG Export Plug-In . SVG Version: 6.00 Build 0)  -->
<svg version="1.1" xmlns="http://www.w3.org/2000/svg" xmlns:xlink="http://www.w3.org/1999/xlink" x="0px" y="0px"
	 viewBox="0 0 1024 1024" style="enable-background:new 0 0 1024 1024;" xml:space="preserve">
<style type="text/css">
	.st0{display:none;}
</style>
<g id="Layer_1" class="st0">
	
		<image style="display:inline;overflow:visible;" width="315" height="112" xlink:href="../../../../../../Desktop/TFLOGO.png"  transform="matrix(1 0 0 1 364 417)">
	</image>
</g>
<g id="Layer_2">
	<path d="M607.5,375V387h104.8v44.5l-46.4,18.8v-43.6h-8.3l-8.3,14.1l10.4,29.5h-35.9l-11.9-23.7l12.7-20h-17.1v43.6h-1h-42.3H563
		v-43.6h-12.1l6.9,20.5L543,450.4h-32.9l18.4-26.1l-14.3-17.1h-10.7v43.1l-44.4,7.5V387H563V375H459.1v-25h253.2v25H607.5z
		 M712.3,465v49.2l-47.9,33.5H459.1V465H712.3z M562,515.1h-57.5v11.3H562V515.1z M562,479.7h-57.5v16.1H562V479.7z M665.1,479.7
		h-57.5v16.1h48.4l-17.5,19.3h-30.9v11.3h57.5V479.7z M731.4,352h46.9l21.5,61.8L763,449.6L731.4,352z M939.3,352l-33.5,95h47.5
		l32.2-95H939.3z M834.2,452.9l-105.7,94.9h60.2l71.6-68l69,68h59.5l-105.7-96.2l2-99.6h-52.4L834.2,452.9z M398.2,362.3
		c-2.3-0.3-2.6,1.8-3.1,4.4c-0.8,4.4-2.4,13.7-8.3,24.6c-3.8,7.1-11.7,21.8-28.3,30c-23.5,11.6-47.7,2.6-60-3.9
		c-4.4-2.3-11.7-6.1-17.5-14.5c-2-2.9-3.6-6-4.9-9.3c9.2,7.2,25.2,16.7,44.8,14.8c25.8-2.5,51.1-23.9,55.2-46.8
		c1.8-9.7,2-18.8,2.3-27.6c0.4-14.3,0.8-27.7,7.6-41.8c5-10.2,12.6-17.6,12.7-17.7c4.4-4.3,9.5-7.8,15.1-10.6l5.7-2.8l-6.2-1.2
		c-0.7-0.1-1.7-0.3-2.9-0.4c-5.2-0.5-10.5,0.3-17.1,2.6c-6.6,2.3-15.7,5.4-24.8,13.1c-13.7,11.4-19.6,25.9-21.9,33.5
		c-2,6.8-2.5,13.9-2.9,20.7c-0.5,7.6-0.9,14.8-3.4,21.7c-3.4,9.5-9.9,16.8-17.7,20.1c-8.6,3.6-19,1.7-24.6-4.6
		c-4.1-4.5-5.9-11.3-5-18.5c1.1-8.8,9.1-15.7,12.4-17.2c3.5-1.6,7.1-3.2,14.2-2.7l9.5,0.5l-8.4-4.5c-3.8-2.1-8.1-3.2-12.4-3.3
		c-3.2-0.1-11.4,0.5-18.5,6.8c-0.7,0.7-1.4,1.4-2,2.1c0.7-1.5,2.1-4,5.1-6.6c5.8-4.9,13.2-6.9,20.4-8.9c6.1-1.7,11.9-3.3,15.7-6.5
		c8.1-6.9,10.3-12.9,9-25c-1.3-12.5-11.1-15.7-13.3-16.6c-2.2-0.9-5.4-1-5.4-1l0,0c0,0,2.4,1.5,3.5,3.3c0.9,1.5,0.9,3,0.8,4.2
		c-0.2,5.5-4.5,10.2-4.9,10.5c-6.2,6.5-16.5,7-22.3,7.9c-15.9,2.4-30.1,12.4-37.4,20.2c-16.8,17.9-14.6,44.5-13.6,57.3
		c0.8,9.4,2.8,18.5,6,27.4c-3.1-3.3-5.8-6.9-8-10.9c-0.1-0.2-10.8-20-4.8-46.1c0.9-3.9,2.2-7.5,2.2-7.6c1-2.8,2.3-5.4,3.7-8
		c0.7-1.3,1.4-2.6,2.2-3.8c0.3-0.6,2.1-3.3,2.1-3.3c-1.4,0.1-2.9,0.7-4.2,1.1c-2.1,0.7-6.9,2.9-9.7,5.2c-2.9,2.3-5.9,6.1-7.9,9.8
		c-2.9,5.4-4.4,11.8-5.6,17.3h-20.5l20.8-90.4L32.6,403.9l39.7,72.4h81.8l69.4,241.1l70.3-244.1c18.6,2.6,60.2,4.8,85.9-22.3
		c27.4-28.8,23.5-78.2,20.6-86.6C400.2,363.9,399.7,362.5,398.2,362.3z M376.6,448.1c-25.3,26.6-67.2,23.3-84.1,20.7l-1.9-0.3
		l-65.1,233.5V401.8H108.8l106.9-132.1l-19.8,84.4h29.3l0.4-1.7c1.1-5.5,2.6-12.4,5.5-17.8c1.8-3.2,4.2-6.2,7-8.6
		c0.2-0.2,0.7-0.4,1.3-0.8c-0.8,1.7-1.5,3.2-2.1,4.8c-0.1,0.2-1.5,3.9-2.4,8.1c-6.4,27.8,4.8,48.2,5.3,49.1c3.9,7,9.3,13.2,16,18.4
		l7,5.4l-3.7-8c-5.2-11.1-8.3-22.8-9.3-34.8c-1-12.2-3-37.5,12.5-54.1c6.8-7.3,20.1-16.6,34.9-18.9c2.8-0.4,17.4-2.9,24.4-8.9
		c1.9-1.6,5.7-8.5,6.3-13.6c2.6,2,5.4,5.3,6,10.5c1.1,10.7-0.5,15.3-7.6,21.3c-3.1,2.7-8.5,4.1-14.1,5.7c-7.3,2-15.6,4.3-22.1,9.7
		c-4,3.4-5.7,6.9-6.4,8.4c-2.2,4.6-3,9.8-2.3,15.2l1.8,14.2l2.4-14.1c0.5-2.9,2.1-8.4,7-12.9c5.6-5.1,12.2-5.7,15.2-5.7
		c0.2,0,0.4,0,0.5,0c-1.9,0.6-3.5,1.3-5,2c-4.5,2-13.4,10.1-14.7,20.5c-1,8.4,1.2,16.4,6,21.9c6.8,7.6,19.1,10,29.4,5.7
		c8.9-3.7,16.2-12,20.1-22.5c2.7-7.4,3.2-15.3,3.7-22.9c0.4-6.6,0.8-13.4,2.7-19.7c2.1-7.1,7.7-20.7,20.5-31.5
		c8.6-7.1,16.9-10,23.5-12.3c4.7-1.6,8.2-2.3,11-2.4c-3.5,2.3-6.8,4.9-9.9,7.8c-0.3,0.3-8.3,8-13.6,18.9
		c-7.3,14.9-7.7,28.8-8.1,43.6c-0.2,8.6-0.5,17.5-2.2,26.9c-3.9,21.2-27.4,41-51.5,43.3c-22.7,2.2-40.4-12.1-46.9-18.4l-4.9-4.6
		l1.3,6.6c1.3,6.4,3.8,12.4,7.5,17.6c6.5,9.3,14.7,13.5,19.1,15.8c13.1,6.8,38.7,16.3,63.9,3.9c17.8-8.8,26.2-24.3,30.2-31.8
		c3.9-7.1,6-13.6,7.2-18.6C399.1,391.5,397.4,426.3,376.6,448.1z M463.9,231.5l-4.1,9.5c-0.1,0.1-5.6,12.6-31.8,30.2
		c-27.9,18.8-27.6,49.1-27.6,50.4l0.1,4.6l3.4-3c0.2-0.2,19-16.5,38.7-26.4c21.1-10.5,21.3-53.2,21.3-55L463.9,231.5z M440.6,293
		c-14.8,7.4-29.1,18.4-35.7,23.7c1.1-9,5.8-28.8,25.4-42c15.8-10.7,24.4-19.5,28.9-25.2C458.2,262.1,454.4,286.1,440.6,293z
		 M519.6,595.8c-0.2,0.2-0.5,0.3-0.8,0.3h-23.3v50.5c0,0.3-0.1,0.5-0.3,0.8c-0.2,0.2-0.4,0.4-0.6,0.4h-9.9c-0.3,0-0.5-0.1-0.7-0.4
		c-0.1-0.2-0.2-0.5-0.2-0.8v-50.5H460c-0.6,0-0.9-0.3-0.9-0.8v-4.5c0-0.5,0.3-0.8,0.8-0.8h58.8c0.7,0,1.1,0.4,1.1,1.1v3.9
		C519.9,595.4,519.8,595.6,519.6,595.8z M582.2,596.1h-40.6v19.1h38.7c0.8,0,1.2,0.3,1.2,1v3.9c0,0.4-0.1,0.7-0.4,0.9
		c-0.2,0.2-0.5,0.3-0.8,0.3h-38.7v25.1c0,0.3-0.1,0.6-0.4,0.8c-0.2,0.2-0.6,0.4-1,0.4h-9.1c-0.3,0-0.6-0.1-0.9-0.4
		c-0.3-0.3-0.4-0.5-0.4-0.8v-49.9c0-2.3,0.9-4,2.7-5.1c1.5-0.9,3.4-1.3,5.9-1.3h43.9c0.3,0,0.6,0.1,0.8,0.2c0.2,0.2,0.3,0.4,0.3,0.6
		v4.3C583.4,595.8,583,596.1,582.2,596.1z M652.8,645.3c-1.4,1.5-3.7,2.3-6.8,2.3h-44.2c-1.2,0-2.3-0.1-3.5-0.4
		c-1.1-0.3-2.1-0.8-3-1.5c-1.4-1.2-2-2.9-2-5.2v-43.9c0-2.1,0.7-3.7,2.1-4.8c1.5-1.2,3.6-1.7,6.3-1.7h44.2c2.8,0,5,0.6,6.5,1.9
		c1.4,1.2,2,2.7,2,4.7v10.5c0,0.9-0.5,1.3-1.6,1.3h-8.6c-1.1,0-1.7-0.5-1.7-1.4v-10.8h-37.5v45.2h37.5v-19.6h-17.6
		c-0.3,0-0.6-0.1-0.9-0.2c-0.3-0.1-0.4-0.4-0.4-0.8v-4.1c0-0.6,0.4-1,1.3-1h23.7c1.8,0,3.2,0.4,4.2,1.2c1,0.9,1.6,2.2,1.6,3.8v19.7
		C654.4,642.4,653.9,644,652.8,645.3z M734.5,647.4c-0.2,0.2-0.5,0.3-0.8,0.3H724c-0.6,0-1-0.1-1.2-0.4c-0.3-0.2-0.5-0.5-0.6-0.9
		l-5.3-13.5h-35.1l-5.3,13.8c-0.2,0.7-0.8,1-1.6,1h-10.3c-0.3,0-0.5-0.1-0.6-0.4s-0.1-0.6,0-1l20.1-51.7c0.6-1.7,1.8-2.9,3.4-3.6
		c1.6-0.7,3.5-1.1,5.8-1.1h12.7c2.3,0,4.3,0.6,5.7,1.7c1.1,0.8,1.9,1.8,2.4,3.1l20.3,51.9C734.8,646.9,734.7,647.2,734.5,647.4z
		 M703,596h-7.2l-11.6,30.8h30.5L703,596z M821.8,647.3c-0.2,0.2-0.4,0.3-0.7,0.3h-9.6c-0.7,0-1.1-0.4-1.1-1.2v-43.8l-20.8,43.5
		c-0.5,1-1.3,1.5-2.5,1.5H780c-1.4,0-2.2-0.5-2.7-1.5l-21-43.5v43.8c0,0.8-0.5,1.2-1.4,1.2h-9.1c-0.8,0-1.2-0.4-1.2-1.2v-53.8
		c0-0.6,0.3-1.2,1-1.7c0.6-0.6,1.4-0.9,2.3-0.9H758c1.2,0,2.2,0.2,2.9,0.7c0.7,0.5,1.2,1.1,1.7,2l20.8,42.4l20.7-42.9
		c0.4-0.7,0.8-1.3,1.4-1.6c0.6-0.4,1.4-0.6,2.5-0.6h11.2c0.9,0,1.6,0.2,2.1,0.7c0.6,0.5,0.8,1,0.8,1.7v54.3
		C822,646.9,822,647.1,821.8,647.3z M848.8,647.3c-0.2,0.2-0.4,0.4-0.7,0.4h-9.8c-0.3,0-0.6-0.1-0.7-0.4c-0.2-0.2-0.3-0.5-0.3-0.8
		v-55.6c0-0.2,0.1-0.4,0.3-0.7c0.2-0.2,0.4-0.4,0.6-0.4h9.9c0.2,0,0.5,0.1,0.7,0.3c0.2,0.2,0.3,0.4,0.3,0.7v55.6
		C849.1,646.8,849,647,848.8,647.3z M920.8,646.9c-0.5,0.5-1.3,0.8-2.4,0.8h-10.1c-1.4,0-2.4-0.4-2.9-1.1l-29.1-43.6v43.7
		c0,0.7-0.4,1.1-1.3,1.1h-9.4c-0.8,0-1.2-0.4-1.2-1.1v-53.9c0-0.8,0.3-1.5,1-2c0.6-0.5,1.3-0.7,2.1-0.7h10.5c0.9,0,1.6,0.2,2.3,0.6
		c0.7,0.4,1.2,0.9,1.7,1.6l27.6,41.8v-42.8c0-0.9,0.5-1.3,1.4-1.3h9c1,0,1.6,0.4,1.6,1.1v54.2C921.6,645.8,921.4,646.4,920.8,646.9z
		 M993.3,645.3c-1.4,1.5-3.7,2.3-6.8,2.3h-44.2c-1.2,0-2.3-0.1-3.5-0.4c-1.1-0.3-2.1-0.8-3-1.5c-1.4-1.2-2-2.9-2-5.2v-43.9
		c0-2.1,0.7-3.7,2.1-4.8c1.5-1.2,3.6-1.7,6.3-1.7h44.2c2.8,0,5,0.6,6.5,1.9c1.4,1.2,2,2.7,2,4.7v10.5c0,0.9-0.5,1.3-1.6,1.3h-8.6
		c-1.1,0-1.7-0.5-1.7-1.4v-10.8h-37.5v45.2H983v-19.6h-17.6c-0.3,0-0.6-0.1-0.9-0.2c-0.3-0.1-0.4-0.4-0.4-0.8v-4.1
		c0-0.6,0.4-1,1.3-1h23.7c1.8,0,3.2,0.4,4.2,1.2c1,0.9,1.6,2.2,1.6,3.8v19.7C994.9,642.4,994.3,644,993.3,645.3z"/>
</g>
</svg>
