<?xml version="1.0" encoding="utf-8"?>
<!-- Generator: Adobe Illustrator 24.0.1, SVG Export Plug-In . SVG Version: 6.00 Build 0)  -->
<svg version="1.1" id="Layer_1" xmlns="http://www.w3.org/2000/svg" xmlns:xlink="http://www.w3.org/1999/xlink" x="0px" y="0px"
	 viewBox="0 0 72 73" style="enable-background:new 0 0 72 73;" xml:space="preserve">
<style type="text/css">
	.st0{filter:url(#Adobe_OpacityMaskFilter);}
	.st1{fill-rule:evenodd;clip-rule:evenodd;fill:#FFFFFF;}
	.st2{mask:url(#mask-4_1_);fill-rule:evenodd;clip-rule:evenodd;fill:url(#Fill-1_1_);}
</style>
<title>Fill 1</title>
<desc>Created with Sketch.</desc>
<g id="Symbols">
	<g id="GameTab01" transform="translate(-611.000000, -162.000000)">
		<g id="Group-3" transform="translate(611.000000, 162.000000)">
			<g id="Clip-2">
			</g>
			<defs>
				<filter id="Adobe_OpacityMaskFilter" filterUnits="userSpaceOnUse" x="0" y="0" width="72" height="73">
					<feColorMatrix  type="matrix" values="1 0 0 0 0  0 1 0 0 0  0 0 1 0 0  0 0 0 1 0"/>
				</filter>
			</defs>
			<mask maskUnits="userSpaceOnUse" x="0" y="0" width="72" height="73" id="mask-4_1_">
				<g class="st0">
					<polygon id="path-3_1_" class="st1" points="0,0 72,0 72,73 0,73 					"/>
				</g>
			</mask>
			
				<linearGradient id="Fill-1_1_" gradientUnits="userSpaceOnUse" x1="-264.7639" y1="428.0554" x2="-264.7639" y2="427.0822" gradientTransform="matrix(72 0 0 -73 19098.998 31249.9961)">
				<stop  offset="0" style="stop-color:#FDF8A2"/>
				<stop  offset="0.451" style="stop-color:#F4D97A"/>
				<stop  offset="1" style="stop-color:#EEC462"/>
			</linearGradient>
			<path id="Fill-1" class="st2" d="M56.1,40.9c2.4,6.3,4.8,12.7,7.3,19.1c6.4-7.8,9.2-16.6,8.5-26.5c-0.8-9.9-5-18.2-12.4-24.7
				C47.6-1.8,27.2-4.3,12,9.4c0.6,1.6,1.3,3.3,1.9,4.9c0.3-0.3,0.5-0.6,0.8-0.8c1.3-1.1,2.6-2.2,4-3.2c2.4-1.7,5.1-3,7.9-4
				c2.2-0.8,4.5-1.3,6.8-1.4c3.1-0.2,6.1-0.1,9.2,0.6c3,0.7,5.9,1.7,8.6,3.2c2.9,1.6,5.5,3.7,7.8,6.2c2,2.2,3.7,4.7,5,7.4
				c1.1,2.3,1.9,4.6,2.5,7.1c0.4,1.9,0.8,3.7,0.7,5.7c0,1.1,0.1,2.2,0,3.3c-0.1,1.6-0.3,3.2-0.6,4.8c-0.4,1.8-1,3.5-1.6,5.2
				c-0.1,0.2-0.3,0.3-0.4,0.4c-2.8-7.3-5.6-14.5-8.4-21.8c-1.1,2.8-2.2,5.7-3.3,8.5c-1.1,2.8-2.1,5.7-3.3,8.5c-0.1,0-0.1,0-0.2-0.1
				c-2.1-5.6-4.3-11.2-6.5-17c-3.8,10-7.6,19.7-11.4,29.6c1.7,0,3.2,0,4.8,0c0.2,0,0.5-0.2,0.6-0.4c0.7-1.7,1.3-3.4,2-5.2
				c1.3-3.4,2.6-6.7,3.8-10.1c0.1,0,0.2,0,0.2,0c2.2,5.6,4.4,11.2,6.6,16.9c2.2-5.7,4.3-11.3,6.5-16.9L56.1,40.9z M8.5,12.9
				c2.5,6.5,4.9,12.8,7.5,19.4c2.2-5.8,4.4-11.4,6.5-17c0.1,0,0.1,0,0.2,0c2.2,5.6,4.3,11.3,6.5,17c1.6-4.1,3.1-8.1,4.6-12
				c0.4-1.1,0.9-2.3,1.3-3.4c0.1-0.2,0.4-0.5,0.6-0.5c1.6,0,3.2,0,5.1,0C37,26.5,33.1,36.5,29.3,46.5c-0.1,0-0.1,0-0.2,0
				c-2.2-5.6-4.3-11.3-6.6-17c-2.2,5.8-4.4,11.4-6.6,17.1l-0.2,0c-2.8-7.3-5.6-14.5-8.4-21.9c-2,4.9-2.7,9.9-2.2,15
				c0.5,5.1,2.1,9.8,4.9,14.1c5.4,8.1,13,13,22.7,14.1c9.7,1,18.1-2.1,25.2-8.9c0.7,1.7,1.3,3.4,1.9,5
				c-10.6,10.4-29.4,12.7-43.2,3.4c-9-6-14.4-14.4-16.1-25.2C-1,32.9,1,22,8.5,12.9L8.5,12.9z"/>
		</g>
	</g>
</g>
</svg>
