<?xml version="1.0" encoding="utf-8"?>
<!-- Generator: Adobe Illustrator 24.0.1, SVG Export Plug-In . SVG Version: 6.00 Build 0)  -->
<svg version="1.1" id="Layer_1" xmlns="http://www.w3.org/2000/svg" xmlns:xlink="http://www.w3.org/1999/xlink" x="0px" y="0px"
	 viewBox="0 0 1024 1024" style="enable-background:new 0 0 1024 1024;" xml:space="preserve">
<path d="M739.5,559.9c0,15.9,0,15.9,16.7,14.4v-90.8h-16.7V559.9z M672.9,483.5c-1.5,0-3.8,1.5-4.5,3c-5.3,14.4-10.6,28.8-15.9,43.2
	c-2.3,5.3-4.5,10.6-6.8,17.4c-1.5-2.3-2.3-3-3-4.5c-6.8-18.9-13.6-37.1-20.4-56c-0.8-1.5-2.3-3.8-3-3.8c-7.6,0-15.1,0-22.7,0v91.6
	h14.4v-69.6c0.8,0,0.8,0,1.5,0c0.8,1.5,2.3,3,3,5.3c6.8,19.7,14.4,40.1,22,60.6c0.8,3,1.5,5.3,6.1,5.3s7.6,0.8,9.8-5.3
	c6.8-19.7,14.4-40.1,22-59.8c0.8-2.3,2.3-3.8,3.8-6.8c0.8,3,1.5,4.5,1.5,6.8c0,19.7-0.8,40.1-0.8,59.8c0,1.5,2.3,3.8,3.8,4.5
	c3.8,0.8,7.6,0,11.4,0v-91.6C686.5,483.5,679,482.7,672.9,483.5L672.9,483.5z M270.9,671.6c1.2,1.2,3.7,2.4,6.1,4.3
	c-14-45.7-28-89.5-42.6-135.8c-9.1,9.7-18.3,17.7-25.6,26.8c-8.5,11-12.8,23.1-4.3,36.5c3.7,5.5,6.7,11,11,15.2
	c7.3,7.9,15.8,15.2,23.8,23.1C250.8,652.1,261.1,661.8,270.9,671.6L270.9,671.6z M217.9,479.1c-0.6-3-1.2-6.7-1.8-10.4
	c-3-14.6-5.5-29.2-8.5-43.9c-0.6-1.8-1.8-3.7-3.7-6.7c-7.9,25-14.6,48.1-21.9,71.3C194.7,486.4,206.3,482.8,217.9,479.1L217.9,479.1
	z M272.7,692.3c-5.5-3.7-10.4-7.9-14.6-12.2c-17.7-17.1-35.9-32.9-52.4-51.2c-17.1-18.3-22.5-40.8-10.4-62.7
	c7.3-12.8,18.3-21.9,30.5-29.8c4.9-3,6.1-6.7,4.3-12.2c-3.7-12.2-7.3-25.6-11-39c-9.7,4.3-19.5,8.5-29.2,12.2
	c-9.1,3-13.4,10.4-15.8,18.9c-3.7,12.2-9.1,23.1-18.3,31.7c-4.3,4.3-9.1,6.7-15.8,4.9c4.9-11.6,11.6-21.3,15.2-32.9
	c-0.6-0.6-1.2-1.2-1.8-1.2c-9.7,7.3-19.5,14.6-28,23.1c-9.7,9.1-18.3,20.1-28,29.2c-14,13.4-29.8,25-49.3,29.8
	c-8.5,2.4-17.7,3.7-25.6-1.8c-6.1-4.3-8.5-11-4.3-17.7c4.3-6.1,9.1-12.8,15.2-16.4c11.6-7.3,23.8-13.4,35.9-20.1
	c3-1.2,6.7-4.3,8.5-0.6c0.6,1.2-2.4,6.7-4.9,8.5c-5.5,4.3-11.6,8.5-17.7,12.8c-1.8,1.2-3,4.3-4.9,6.7c17.7,4.3,30.5-9.1,37.2-20.7
	c0.6-1.2,0-3.7-1.2-4.9c-3.7-4.9-1.8-9.1,2.4-12.2c6.1-4.9,7.9-9.7,3-15.8c-7.9-9.7-15.8-18.9-25-28C52.2,476.1,35.2,464.5,26,445
	c-9.1-18.9-8.5-36.5,3-54.2c21.3-31.7,49.9-54.2,86.5-67c1.8,0,4.3-0.6,6.1-1.2c11-1.8,17.7,7.9,16.4,19.5
	c-1.8,15.8-12.2,25.6-23.1,34.7c-7.9,6.7-16.4,12.8-25,18.9c-2.4,1.8-5.5,3.7-8.5,5.5c-4.3-6.1-0.6-10.4,2.4-14.6
	c4.3-5.5,8.5-9.7,12.8-15.2c1.2-1.8,0.6-4.9,1.2-6.7c-2.4-0.6-5.5-1.2-7.9-0.6c-10.4,4.3-17.1,12.8-23.8,20.7
	c-5.5,6.7-11,12.8-11,21.9c-0.6,9.7,2.4,17.7,6.7,25.6c6.1,9.1,12.8,17.7,20.1,25.6c11.6,13.4,23.8,26.2,35.3,39.6
	c5.5,6.7,9.1,15.2,6.7,26.2c4.3-2.4,7.3-4.3,11-6.7c7.9-4.9,15.8-9.7,23.8-15.2c1.8-1.2,3.7-2.4,4.3-4.3
	c7.9-24.4,16.4-48.1,23.1-72.5c6.1-21.9,9.7-44.5,13.4-66.4c1.2-8.5,0-17.7,0.6-26.8c0-2.4,0.6-5.5,2.4-6.7c1.2-1.2,5.5-1.2,6.7,0
	c6.1,4.3,12.8,9.1,17.7,14.6c1.8,1.8,1.2,7.3,1.2,11c0,14,0,27.4,0,41.4c0,7.3,1.2,15.2,2.4,23.1c3,16.4,6.1,32.9,9.1,49.9
	c1.2,4.9,2.4,9.7,3.7,14.6c5.5,1.2,10.4,1.2,15.2,2.4v1.2c-3,0-6.1,0.6-8.5,0.6c-4.3,0-5.5,1.8-4.3,6.1c3.7,11.6,7.3,23.1,11,34.7
	c15.8-7.9,31.1-15.8,46.3-23.8c0,0.6,0.6,1.2,0.6,1.2c-13.4,6.7-25.6,15.2-38.4,23.1c-5.5,3.7-6.7,6.1-4.3,12.8
	c8.5,23.8,15.8,47.5,23.8,71.3c6.1,18.3,13.4,36.5,19.5,54.8c4.3,12.8,0,25.6-12.8,31.7C284.9,698.4,278.8,696.5,272.7,692.3
	L272.7,692.3z M866,550.1c-2.3-2.3-3-2.3-3.8-3.8c-9.8-15.9-18.9-31.8-28.8-47.7c-12.1-18.9-6.1-15.1-26.5-15.9h-0.8
	c-3.8,0-4.5,1.5-4.5,5.3v82.5c0,3,0.8,5.3,4.5,4.5c1.5,0,3.8,0,5.3,0c5.3,0.8,6.8-1.5,6.8-6.8c0-18.9,0-37.9,0-56v-5.3
	c2.3,1.5,3.8,3,4.5,5.3c12.1,19.7,23.5,38.6,35.6,58.3c1.5,2.3,3.8,4.5,6.1,5.3c6.1,0.8,12.1,0,17.4,0v-92.4h-15.1v66.6H866z
	 M1007.5,547.8c0-6.8,0-12.9,0-19.7c0-3-0.8-4.5-4.5-4.5c-9.1,0-17.4,0-26.5,0c-1.5,0-3.8,1.5-3.8,2.3c-2.3,7.6,0,10.6,7.6,10.6
	c2.3,0,4.5,0,6.8,0c3.8,0,5.3,0.8,5.3,4.5c0,4.5,0,9.8,0,14.4c0,1.5-1.5,4.5-3,5.3c-9.8,3-19.7,3.8-28.8-0.8
	c-14.4-6.1-19.7-18.2-18.9-33.3c0-12.9,6.8-23.5,18.2-29.5c10.6-5.3,22-5.3,31,1.5c6.8,4.5,9.8,3,12.9-2.3l0.8-0.8
	c3.8-3.8,3.8-5.3-1.5-8.3c-15.1-8.3-31.8-9.8-47.7-4.5c-13.6,4.5-24.2,13.6-28.8,28c-2.3,8.3-3.8,16.7-2.3,25.7
	c2.3,15.1,9.1,27.3,22.7,34.1c18.2,9.8,37.1,7.6,56,1.5c2.3-0.8,4.5-4.5,4.5-6.8C1008.3,559.9,1007.5,553.9,1007.5,547.8
	L1007.5,547.8z M300.7,485.2c3-0.6,6.1-2.4,9.1-4.3c-2.4-1.8-4.3-4.3-7.3-4.9c-6.1-1.8-12.2-6.1-18.3,1.2
	C287.3,484,292.2,486.4,300.7,485.2L300.7,485.2z M528.3,539.5c-4.5-12.1-9.1-23.5-13.6-34.8c-0.8,0-1.5,0.8-2.3,0.8
	c-3.8,9.8-7.6,20.4-11.4,30.3c0,0.8,0,2.3,0,3.8C510.2,539.5,519.2,539.5,528.3,539.5L528.3,539.5z M559.4,569.8
	c0.8,1.5,0.8,3.8,1.5,5.3c-16.7,0.8-16.7,0.8-23.5-13.6c-2.3-4.5-4.5-6.8-9.8-6.8c-9.1,0.8-18.2,0-26.5,0c-3.8,0-6.1,0.8-7.6,4.5
	c-0.8,2.3-1.5,4.5-3,6.8c-3.8,9.1-3.8,9.1-14.4,9.1h-7.6c1.5-5.3,3-9.1,5.3-13.6c10.6-25,21.2-49.2,31.8-73.4
	c2.3-6.1,6.8-4.5,12.1-4.5c3.8,0,6.1,1.5,7.6,5.3C535.9,515.3,547.3,542.5,559.4,569.8L559.4,569.8z M375.4,505.4
	c-9.1,10.6-11.4,30.3-2.3,43.2c8.3,12.9,25,18.9,44.7,10.6v-23.5c-4.5,0-9.1,0-13.6,0c-5.3,0-5.3-3-5.3-6.8c0-3,0-6.8,4.5-6.8
	c9.8,0,19.7,0,30.3,0v36.3c0,12.1,0,12.1-12.1,15.9c-13.6,3.8-28,3.8-41.6-0.8c-15.1-5.3-25-16.7-28.8-31.8
	c-3-12.9-2.3-26.5,4.5-38.6c8.3-13.6,20.4-21.2,36.3-22.7c9.8-0.8,20.4-1.5,29.5,3c3.8,2.3,7.6,3.8,12.9,6.8
	c-4.5,4.5-7.6,9.1-12.1,13.6c-6.8-7.6-15.9-9.8-25-9.8C389,494.8,381.5,498.6,375.4,505.4L375.4,505.4z"/>
</svg>
