<?xml version="1.0" encoding="utf-8"?>
<!-- Generator: Adobe Illustrator 24.0.1, SVG Export Plug-In . SVG Version: 6.00 Build 0)  -->
<svg version="1.1" id="Layer_1" xmlns="http://www.w3.org/2000/svg" xmlns:xlink="http://www.w3.org/1999/xlink" x="0px" y="0px"
	 viewBox="0 0 108 50" style="enable-background:new 0 0 108 50;" xml:space="preserve">
<style type="text/css">
	.st0{filter:url(#Adobe_OpacityMaskFilter);}
	.st1{fill-rule:evenodd;clip-rule:evenodd;fill:#FFFFFF;}
	.st2{mask:url(#mask-2_1_);fill-rule:evenodd;clip-rule:evenodd;fill:url(#Fill-1_1_);}
</style>
<title>Fill 1</title>
<desc>Created with Sketch.</desc>
<g id="Symbols">
	<g id="GameTab03" transform="translate(-725.000000, -50.000000)">
		<g id="Group-3" transform="translate(725.000000, 50.000000)">
			<g id="Clip-2">
			</g>
			<defs>
				<filter id="Adobe_OpacityMaskFilter" filterUnits="userSpaceOnUse" x="0" y="0" width="108" height="50">
					<feColorMatrix  type="matrix" values="1 0 0 0 0  0 1 0 0 0  0 0 1 0 0  0 0 0 1 0"/>
				</filter>
			</defs>
			<mask maskUnits="userSpaceOnUse" x="0" y="0" width="108" height="50" id="mask-2_1_">
				<g class="st0">
					<polygon id="path-1_1_" class="st1" points="0,0 108,0 108,50 0,50 					"/>
				</g>
			</mask>
			
				<linearGradient id="Fill-1_1_" gradientUnits="userSpaceOnUse" x1="-248.1759" y1="414.5732" x2="-248.1759" y2="413.6" gradientTransform="matrix(108 0 0 -50 26857 20729.998)">
				<stop  offset="0" style="stop-color:#FDF8A2"/>
				<stop  offset="0.451" style="stop-color:#F4D97A"/>
				<stop  offset="1" style="stop-color:#EEC462"/>
			</linearGradient>
			<path id="Fill-1" class="st2" d="M11.1,50c0.8,0,1.1-0.3,1.1-1c0.1-0.6,0.1-1.2,0.3-1.8c0.2-0.8,0-1.1-0.8-1.1
				c-1.6,0-3.3,0-4.9,0c-0.5,0-0.9-0.3-0.8-0.7c0.1-0.6,0.2-1.2,0.3-1.9c0.2-1.3,0.4-2.6,0.7-4c0.3-1.8,0.7-3.5,1.1-5.3
				c0.1-0.5-0.2-0.8-0.6-0.8c-1.3,0-2.7,0-4,0c-0.4,0-0.5,0.2-0.6,0.5c-0.1,0.4-0.2,0.9-0.3,1.4c-0.1,0.8-0.2,1.6-0.3,2.4
				c-0.3,1.5-0.6,3-0.9,4.5c-0.2,1-0.3,1.9-0.5,2.9c-0.1,0.3-0.1,0.6-0.2,0.9c-0.2,1-0.3,2-0.5,3c-0.2,0.9-0.1,1,0.8,1
				c1.7,0,3.4,0,5.1,0C7.7,50,9.4,50,11.1,50L11.1,50z M33.7,33.4c-0.4,0-0.7,0.1-0.8,0.6c-0.2,0.9-0.4,1.9-0.5,2.8
				c-0.1,0.5,0.1,0.7,0.7,0.7c0.8,0,1.5,0,2.3,0c0.5,0,0.7,0.2,0.6,0.8c-0.1,0.8-0.3,1.6-0.4,2.4c-0.2,1.2-0.5,2.4-0.7,3.6
				c-0.3,1.6-0.5,3.2-0.8,4.8c-0.1,0.7,0,0.9,0.7,0.9c1.2,0,2.5,0,3.7,0c0.6,0,0.9-0.4,0.9-0.9c0.1-0.8,0.2-1.6,0.4-2.4
				c0.1-0.5,0.2-0.9,0.3-1.4c0.2-1.1,0.4-2.3,0.6-3.4c0.2-1,0.3-2,0.5-3c0.2-1,0.1-1.4,1.4-1.3c0.6,0,1.3,0,1.9,0
				c0.6,0,0.8-0.1,0.9-0.7c0.2-0.8,0.3-1.6,0.4-2.3c0.1-0.7-0.1-1-0.9-1c-1.9,0-3.8,0-5.6,0C37.5,33.4,35.6,33.4,33.7,33.4
				L33.7,33.4z M49,33.4c-0.4,0-0.7,0.1-0.8,0.6c-0.1,0.9-0.3,1.7-0.4,2.6c-0.1,0.7,0,0.9,0.8,0.9c0.7,0,1.3,0,2,0
				c0.7,0,0.9,0.3,0.8,1c-0.2,0.9-0.4,1.9-0.5,2.8c-0.2,1.3-0.5,2.5-0.7,3.8c-0.1,0.6-0.2,1.1-0.3,1.7c-0.1,0.7-0.2,1.5-0.4,2.2
				c-0.2,0.8-0.2,0.9,0.7,1c1.2,0.1,2.5,0,3.7,0c0.4,0,0.7-0.2,0.7-0.6c0.3-1.4,0.5-2.8,0.8-4.2c0.2-1,0.3-2.1,0.5-3.1
				c0.2-1.1,0.4-2.2,0.6-3.3c0.2-1,0.4-1.3,1.5-1.3c0.7,0,1.3,0,2,0c0.6,0,0.9-0.3,0.9-0.9c0.1-0.7,0.2-1.4,0.3-2.2
				c0.1-0.7-0.1-1-0.8-1c-1.9,0-3.8,0-5.7,0C52.8,33.4,50.9,33.4,49,33.4L49,33.4z M99.4,50c1.1,0,2.1-0.4,3-0.9
				c0.9-0.5,1.7-1.1,2.3-1.9c1-1.4,1.6-2.9,1.8-4.6c0.2-1.3,0.5-2.6,0.7-3.9c0.3-1.4,0.5-2.9,0.8-4.3c0.1-0.6-0.1-0.9-0.7-0.9
				c-1.2,0-2.3,0-3.5,0c-0.7,0-1,0.3-1.1,1c-0.1,1-0.3,2-0.5,3c-0.1,0.3-0.2,0.7-0.2,1c0,0.7-0.3,1.1-1,1.2c-0.6,0.1-1.5-0.4-1.5-1
				c-0.1-0.4-0.1-0.9,0-1.3c0.1-1,0.3-1.9,0.6-2.8c0.2-0.7,0-1.1-0.7-1.1c-1.3,0-2.6,0-3.8,0c-0.4,0-0.6,0.1-0.7,0.5
				c-0.1,0.7-0.3,1.4-0.5,2.2c-0.2,1.3-0.5,2.5-0.7,3.8c-0.2,1.2,0,2.3,0.9,3.1c0.7,0.7,1.5,1,2.5,1c0.9,0,1.8,0,2.7,0
				c0.2,0,0.5,0.1,0.5,0.2c0.1,0.1-0.1,0.4-0.2,0.5c-0.3,0.3-0.7,0.5-1.1,0.7c-0.7,0.4-1.4,0.5-2.1,0.5c-1.2,0-2.3,0-3.5,0
				c-0.6,0-0.9,0.2-1,0.7c-0.1,0.7-0.2,1.5-0.4,2.2c-0.2,0.8,0,1,0.8,1c1.1,0,2.2,0,3.4,0C97.2,50,98.3,50,99.4,50L99.4,50z
				 M72.8,50c0.7,0,1-0.3,1.1-0.9c0.1-0.6,0.2-1.3,0.3-1.9c0.2-0.8,0-1.1-0.8-1.1c-1.9,0-3.9,0-5.8,0c-0.3,0-0.6-0.1-0.7-0.4
				c-0.3-0.8,0.2-1.6,1.1-1.6c2,0,4,0,6,0c0.5,0,0.8-0.2,0.9-0.6c0.1-0.2,0.1-0.3,0.1-0.5c0.1-0.7,0.2-1.4,0.4-2.1
				c0.2-0.7,0-1-0.8-1c-1.9,0-3.9,0-5.8,0c-0.5,0-0.7-0.2-0.8-0.6c-0.2-0.9,0.4-1.6,1.3-1.6c1.9,0,3.9,0,5.8,0c0.6,0,0.9-0.2,1-0.7
				c0.2-0.9,0.3-1.8,0.4-2.7c0.1-0.4-0.2-0.6-0.6-0.6c-3.8,0-7.7,0-11.5,0c-0.5,0-0.8,0.2-0.9,0.7c0,0.3-0.1,0.5-0.1,0.8
				c-0.2,1.3-0.4,2.6-0.6,3.9c-0.2,0.9-0.4,1.9-0.5,2.8c-0.2,1.3-0.4,2.6-0.7,4c-0.2,1.2-0.4,2.4-0.6,3.5C60.8,49.8,61,50,61.6,50
				c1.9,0,3.7,0,5.6,0C69,50,70.9,50,72.8,50L72.8,50z M23.8,37.7c-1.2,0.1-2,0.4-2.3,1.7c-0.2,0.9-0.4,1.9-0.6,2.8
				c-0.2,1-0.3,2-0.5,2.9c-0.1,0.5,0.1,0.8,0.6,0.8c0.5,0,1,0,1.5-0.1c0.2,0,0.5-0.2,0.5-0.4c0.2-0.5,0.3-1,0.4-1.5
				c0.2-1,0.4-2.1,0.6-3.1c0.1-0.7,0.3-1.5,0.5-2.2C24.8,38,24.6,37.7,23.8,37.7L23.8,37.7z M19.9,50c-1.5,0-3.1,0-4.6,0
				c-0.1,0-0.3,0-0.4,0c-0.5-0.1-0.6-0.3-0.5-0.8c0.3-1.7,0.6-3.4,0.9-5.2c0.2-0.9,0.3-1.9,0.5-2.8c0.2-1.2,0.4-2.5,0.7-3.7
				c0.3-1.2,0.9-2.3,1.9-3.1c0.2-0.2,0.5-0.4,0.7-0.6c0.5-0.4,1.2-0.5,1.8-0.5c2.9,0,5.8,0,8.7,0c0.7,0,1,0.5,0.8,1.1
				C30.3,36,30,37.5,29.8,39c-0.2,1.1-0.4,2.2-0.6,3.3c-0.1,0.8-0.2,1.6-0.4,2.4c-0.3,1.6-0.6,3.3-2,4.4c-0.7,0.6-1.4,0.9-2.3,0.9
				C23,50,21.5,50,19.9,50L19.9,50z M84.7,37.6c-0.9,0-1.2,0.3-1.3,1.1c0,0.3-0.1,0.7-0.1,1c-0.1,0.5,0.1,0.8,0.7,0.8
				c0.3,0,0.6,0,0.9-0.1c0.8-0.3,1.2-1,1.5-1.7c0.1-0.4,0-0.8-0.5-0.9C85.3,37.6,85.6,37.7,84.7,37.6L84.7,37.6z M85.8,33.4h5.8
				c0.8,0,1,0.2,0.8,1c-0.4,2.1-0.8,4.2-1.2,6.3c-0.2,1-0.8,1.9-1.5,2.6c-0.5,0.4-1,0.8-1.6,1.2c-0.5,0.3-0.5,0.4-0.2,0.9
				c0.6,1.3,1.2,2.6,1.8,4c0.1,0.3-0.1,0.6-0.6,0.6c-1.2,0-2.3,0-3.5,0c-0.9,0-1.2-0.2-1.5-1.1c-0.3-1-0.8-2-1.2-3
				c-0.1-0.2-0.2-0.3-0.4-0.4c-0.1,0.1-0.3,0.3-0.3,0.4c-0.2,0.9-0.3,1.7-0.5,2.6c0,0.3-0.1,0.5-0.1,0.8c-0.1,0.5-0.5,0.6-0.8,0.6
				c-1.3,0-2.6,0-3.9,0c-0.5,0-0.7-0.3-0.5-1c0.3-1.7,0.6-3.4,0.9-5.1c0.3-1.5,0.6-2.9,0.9-4.4c0.2-1.2,0.4-2.5,0.6-3.7
				c0.1-0.6,0.2-1.2,0.3-1.8c0.1-0.5,0.4-0.6,0.8-0.6C81.7,33.4,83.8,33.4,85.8,33.4L85.8,33.4z M59.8,0c-1,0-1,0.4-1.1,1.1
				c-0.1,0.6-0.2,1.2-0.3,1.7c-0.3,1.4-0.6,2.8-0.8,4.1c-0.2,0.8-0.3,1.7-0.4,2.5c-0.1,0.8-0.3,1.6-0.5,2.4
				c-0.4,1.9-0.7,3.7-1.1,5.6c-0.2,0.9-0.4,1.7-0.5,2.6c-0.3,1.5-0.5,2.9-0.8,4.4c-0.1,0.8-0.3,1.5-0.4,2.3
				c-0.1,0.7-0.2,1.5-0.4,2.2c-0.2,0.7-0.2,0.9,0.6,0.9c2.5,0,4.9,0,7.4,0c0.8,0,1-0.2,1-1c0.1-1,0.2-2.1,0.4-3.1
				c0.1-0.6,0.2-1.1,0.3-1.7c0.2-1.2,0.3-2.4,0.4-3.6c0-0.2,0.2-0.4,0.3-0.4c0.2,0,0.4,0.1,0.5,0.2c0.4,0.7,0.7,1.4,1.1,2
				c0.7,1.2,1.4,2.4,2.1,3.6c0.7,1.1,1.4,2.2,2,3.4c0.3,0.5,0.6,0.6,1.1,0.6c2.5,0,4.9,0,7.4,0c0.1,0,0.2,0,0.3,0
				c0.4-0.1,0.5-0.3,0.3-0.6c-0.5-0.8-1.1-1.7-1.6-2.5c-1-1.7-2.1-3.3-3.1-5c-0.7-1.2-1.4-2.4-2.2-3.6c-0.2-0.3-0.2-0.5,0-0.7
				c0.3-0.4,0.6-0.8,0.9-1.1c0.9-1.1,1.8-2.2,2.7-3.2c0.7-0.8,1.3-1.5,2-2.3c0.9-1,1.7-2,2.5-3c0.9-1,1.8-2.1,2.7-3.1
				c1.1-1.3,2.2-2.6,3.2-3.8c0.3-0.3,0.3-0.5-0.2-0.6c-0.2,0-0.3,0-0.5,0c-3.1,0-6.3,0-9.4,0c-0.8,0-1.4,0.3-1.8,0.9
				c-1.1,1.3-2.2,2.7-3.3,4c-0.7,0.9-1.5,1.8-2.2,2.7c-0.4,0.5-0.8,1.1-1.3,1.6c-0.1,0.1-0.4,0.1-0.6,0.2c0-0.2-0.1-0.4-0.1-0.5
				c0-0.2,0.1-0.4,0.1-0.6C67,6.8,67.3,5.4,67.5,4c0.2-1,0.4-2,0.6-3c0.1-0.8,0-1-0.8-1c-1.3,0-2.5,0-3.8,0C62.4,0,61.1,0,59.8,0
				L59.8,0z M29.8,9.5C29.8,9.6,29.8,9.6,29.8,9.5c0.5,0,1,0,1.5-0.1c0.3,0,0.6-0.2,0.5-0.6c-0.1-0.3-0.4-0.4-0.7-0.4
				c-0.8,0-1.6,0.1-2.4,0.1C28.3,8.5,28,8.7,28,9c0,0.4,0.3,0.5,0.6,0.6C29,9.5,29.4,9.5,29.8,9.5L29.8,9.5z M39,14.3
				c0.4,0,0.8,0,1.2,0c0.7,0,1.3-0.6,1.3-1.3c0-1.5,0-3,0-4.5c0-0.5,0.1-1.1,0.1-1.6c0-0.5-0.1-0.9-0.7-0.9
				c-0.6-0.1-1.1-0.2-1.7-0.2c-0.6,0-1.2,0.1-1.7,0.2c-0.8,0.1-1,0.4-1,1.2c0,1.9,0,3.7,0,5.6c0,1.2,0.5,1.7,1.7,1.7H39z M24.2,10.8
				c1,0,1.9,0,2.9,0c0.4,0,0.7-0.1,0.8-0.6c0.1-0.3-0.1-0.5-0.4-0.5c-1.1,0-2.3,0.1-3.4,0.1c-0.4,0-0.9-0.1-1.3-0.2
				c-0.3,0-0.6,0-0.8,0c-0.5,0-0.8-0.4-0.7-0.9c0.1-0.2,0.2-0.4,0.5-0.4c0.6,0,1.2-0.1,1.8-0.1c0.5,0,0.5-0.3,0.5-0.7
				c0-0.6,0-1.2,0.1-1.7c0.2-0.6,0.5-1.1,0.9-1.6c1-1.2,2.3-2,3.8-2.6c1-0.4,2-0.7,3-1c0.6-0.2,1.3-0.2,1.9-0.2c3,0,5.9,0,8.9,0
				c1.2,0,2.5,0.1,3.7,0.4c1.6,0.4,3,1,4.4,1.9c0.9,0.6,1.7,1.3,2.3,2.2c0.3,0.5,0.5,1.1,0.6,1.7c0.1,1.3,0.1,2.5,0,3.8
				c0,0.7-0.2,1.5-0.3,2.2c-0.2,1.4-0.5,2.7-0.7,4.1c-0.2,0.9-0.4,1.8-0.6,2.7c-0.4,1.7-0.8,3.4-1.2,5.1c-0.3,1.4-0.6,2.8-1,4.2
				c0,0.1,0,0.3,0,0.4c-0.1,0.3-0.2,0.6-0.7,0.6c-3.8,0-7.7,0-11.5,0c-0.2,0-0.5-0.1-0.6-0.2c-0.1-0.1,0-0.4,0-0.6
				c0.1-0.8,0.3-1.7,0.4-2.5c0.2-1.1,0.4-2.3,0.6-3.4c0.1-0.8,0.3-1.6,0.5-2.4c0.1-0.7,0-0.9-0.7-0.9c-1.7,0-3.5-0.2-5.2-0.5
				c-1.1-0.2-2.2-0.3-3.2-0.8c-1.9-0.8-3.9-1.8-5-3.8c-0.1-0.2-0.2-0.4-0.2-0.5c-0.1-0.4-0.4-0.6-0.7-0.7c-0.2-0.1-0.5-0.3-0.6-0.5
				c-0.1-0.4,0.1-0.7,0.5-0.8c0.8,0,0.7-0.5,0.7-1C24.1,11,24.1,10.9,24.2,10.8L24.2,10.8z"/>
		</g>
	</g>
</g>
</svg>
