<?xml version="1.0" encoding="utf-8"?>
<!-- Generator: Adobe Illustrator 24.0.1, SVG Export Plug-In . SVG Version: 6.00 Build 0)  -->
<svg version="1.1" id="Layer_1" xmlns="http://www.w3.org/2000/svg" xmlns:xlink="http://www.w3.org/1999/xlink" x="0px" y="0px"
	 viewBox="0 0 78 91" style="enable-background:new 0 0 78 91;" xml:space="preserve">
<style type="text/css">
	.st0{filter:url(#Adobe_OpacityMaskFilter);}
	.st1{fill-rule:evenodd;clip-rule:evenodd;fill:#FFFFFF;}
	.st2{mask:url(#mask-4_1_);fill-rule:evenodd;clip-rule:evenodd;fill:url(#Fill-1_1_);}
</style>
<title>Fill 1</title>
<desc>Created with Sketch.</desc>
<g id="Symbols">
	<g id="GameTab04" transform="translate(-806.000000, -29.000000)">
		<g id="Group-3" transform="translate(805.740741, 29.000000)">
			<g id="Clip-2">
			</g>
			<defs>
				<filter id="Adobe_OpacityMaskFilter" filterUnits="userSpaceOnUse" x="0.3" y="0" width="78" height="91">
					<feColorMatrix  type="matrix" values="1 0 0 0 0  0 1 0 0 0  0 0 1 0 0  0 0 0 1 0"/>
				</filter>
			</defs>
			<mask maskUnits="userSpaceOnUse" x="0.3" y="0" width="78" height="91" id="mask-4_1_">
				<g class="st0">
					<polygon id="path-3_1_" class="st1" points="0.3,0 78.3,0 78.3,91 0.3,91 					"/>
				</g>
			</mask>
			
				<linearGradient id="Fill-1_1_" gradientUnits="userSpaceOnUse" x1="-261.8305" y1="438.127" x2="-261.8305" y2="437.1538" gradientTransform="matrix(78 0 0 -91 20462.0352 39871.9883)">
				<stop  offset="0" style="stop-color:#FDF8A2"/>
				<stop  offset="0.451" style="stop-color:#F4D97A"/>
				<stop  offset="1" style="stop-color:#EEC462"/>
			</linearGradient>
			<path id="Fill-1" class="st2" d="M24.3,33.4c0.7-0.5,1.4-0.9,2.1-1.4c1.3-0.8,2.7-1,4.1-1c0.3,0,0.7,0.1,1,0.1
				c0.1,0,0.3-0.1,0.3-0.2c0-0.1-0.1-0.2-0.1-0.3c-0.8-0.7-1.8-0.9-2.8-1c-1.1-0.1-2,0.3-2.9,0.9C25,31,24.5,32,24,33
				c-0.1,0.1,0,0.3,0.1,0.5C24.2,33.4,24.2,33.4,24.3,33.4L24.3,33.4z M38.3,29.9c0.5-0.4,1-0.9,1.6-1.2c1.9-1.1,3.9-1.6,6.1-1.2
				c0.1,0,0.3-0.1,0.5-0.2c-0.1-0.2-0.2-0.4-0.3-0.5c-0.1-0.1-0.3-0.2-0.5-0.2c-0.9-0.3-1.8-0.7-2.7-0.8c-1.7,0-3.2,0.6-4.2,2
				c-0.3,0.3-0.4,0.7-0.7,1c-0.3,0.3-0.4,0.7-0.4,1.3C37.9,30,38.1,30,38.3,29.9L38.3,29.9z M27.5,90.9c0.4,0,0.6-0.1,0.7-0.5
				c0-0.5,0.2-1,0.3-1.5c0.1-0.7,0-0.9-0.7-0.9c-0.9,0-1.8,0-2.6,0c-1.4,0-2.7,0-4.1,0c-0.4,0-0.4-0.2-0.4-0.6
				c0.1-1,0.3-2.1,0.4-3.1c0.1-0.7,0.2-1.4,0.3-2.1c0.1-0.8,0.2-1.6,0.3-2.4c0-0.3-0.2-0.5-0.5-0.5c-0.7,0-1.5,0-2.2,0
				c-0.7,0-0.9,0.2-0.9,0.9c0,0.7,0,1.4-0.1,2c-0.1,0.9-0.2,1.9-0.3,2.8c-0.1,0.7-0.1,1.3-0.2,2c-0.1,1.1-0.3,2.1-0.3,3.2
				c0,0.6,0.1,0.7,0.7,0.7c1.6,0,3.3,0,4.9,0C24.1,90.9,25.8,90.9,27.5,90.9L27.5,90.9z M48.7,79.3c-0.7,0-0.8,0.1-0.9,0.9
				c0,0.4,0,0.9-0.1,1.3c-0.1,0.6,0.1,0.8,0.7,0.8c0.7,0,1.4,0,2.1,0c0.6,0,1.1-0.1,1.7-0.1c0.3,0,0.5,0.2,0.5,0.5
				c0,0.4,0,0.7-0.1,1.1c-0.1,1.2-0.3,2.3-0.4,3.5c-0.1,0.9-0.2,1.9-0.4,2.8c-0.1,0.6,0,0.9,0.5,0.9c0.8,0,1.6,0,2.4,0
				c0.3,0,0.6-0.1,0.6-0.5c0-0.4,0.1-0.7,0.1-1.1c0.1-0.9,0.2-1.7,0.3-2.6c0-0.4,0.1-0.9,0.2-1.3c0.1-0.8,0.2-1.6,0.3-2.5
				c0-0.6,0.2-0.8,0.8-0.7c0.1,0,0.1,0,0.2,0c1.1,0,2.2,0,3.3,0c0.6,0,0.9-0.3,0.9-0.9c0-0.4,0.1-0.7,0.1-1.1c0-0.8,0.2-1-0.8-1
				c-1.9,0-3.9,0-5.8,0C52.8,79.3,50.8,79.2,48.7,79.3L48.7,79.3z M53.3,4.9c-0.1,0.5-0.1,1-0.1,1.4c-0.1,1.8-0.3,3.6-0.4,5.5
				c0,0.6-0.1,1.2-0.1,1.8c-0.1,1.2-0.3,2.4-0.4,3.7c-0.1,1-0.1,2-0.2,3c-0.1,1.5-0.3,3.1-0.4,4.6c-0.1,1.6-0.3,3.3-0.4,4.9
				c-0.1,1.6-0.3,3.1-0.4,4.6c-0.1,1.6-0.2,3.2-0.3,4.8c-0.1,1.2-0.2,2.4-0.3,3.5c0,0.2-0.2,0.5-0.3,0.7c-0.5,0.8-1.4,0.8-2.1,0.8
				c-6.5,0-13.1,0-19.6,0c-0.6,0-1.3-0.1-1.9-0.1c-0.2,0-0.6,0.1-0.6,0.3c-0.1,0.2,0,0.6,0.1,0.8c0.4,0.5,1,0.7,1.6,0.7
				c5.6,0,11.2,0,16.9,0c1.9,0,3.9,0,5.8,0c0.4,0,0.8-0.1,1.1-0.4c0.4-0.5,0.7-1.1,0.7-1.7c0.1-1.6,0.3-3.3,0.4-4.9
				c0.2-2.1,0.4-4.1,0.5-6.2c0.2-2.1,0.4-4.2,0.5-6.3c0.1-1.8,0.3-3.6,0.4-5.4c0.1-1.2,0.2-2.4,0.3-3.6c0.2-1.9,0.3-3.9,0.4-5.8
				c0-0.6,0.1-1.2,0.1-1.8c0.1-1.2,0.3-2.4,0.3-3.5c0-0.7-0.4-1.5-1.2-1.9C53.4,4.5,53.3,4.7,53.3,4.9L53.3,4.9z M52.5,49
				c0.6,0,1.1-0.3,1.5-0.8c0.6-0.7,0.4-1.4,0.5-2.2c0.2-1.9,0.3-3.9,0.5-5.8c0-0.6,0.1-1.2,0.1-1.8c0.1-1.3,0.3-2.6,0.4-3.9
				c0.1-0.7,0.1-1.5,0.1-2.2c0.1-1.6,0.3-3.1,0.4-4.7c0.1-0.6,0.1-1.1,0.1-1.7c0.1-1.3,0.3-2.6,0.4-3.9c0.1-0.8,0.1-1.5,0.1-2.3
				c0.2-1.7,0.4-3.4,0.5-5.2c0.1-1.3,0.1-2.7,0.4-4c0.2-1,0.1-1.9-0.6-2.7c-0.2-0.2-0.5-0.3-0.7-0.4C56.1,7.7,56,7.9,56,8.1
				c0,0.6,0,1.2,0,1.8c-0.1,1.4-0.3,2.7-0.4,4.1c-0.1,0.7-0.1,1.4-0.1,2.1c-0.1,1.4-0.3,2.7-0.4,4.1c-0.1,0.7-0.1,1.3-0.1,2
				c-0.1,1.4-0.3,2.8-0.4,4.2c-0.1,0.7-0.1,1.3-0.1,2c-0.1,1.4-0.3,2.8-0.4,4.2c-0.1,0.7-0.1,1.4-0.1,2.1c-0.1,1.4-0.3,2.8-0.4,4.2
				c-0.1,0.7-0.1,1.4-0.1,2c-0.1,1.4-0.3,2.8-0.4,4.3c-0.1,1.2-0.8,2-2.1,2c-7.3,0-14.7,0-22,0c-0.2,0-0.6,0.1-0.6,0.2
				c-0.1,0.2,0.1,0.5,0.2,0.7c0.4,0.6,1,0.8,1.7,0.8c3.7,0,7.4,0,11.1,0C44.9,49,48.7,49,52.5,49L52.5,49z M71.7,90.9
				c0.8,0,1.6-0.1,2.4-0.3c1.3-0.2,2.1-1.1,2.3-2.4c0.2-0.8,0.1-1.6,0.2-2.4c0-0.3-0.1-0.6-0.2-0.8c-0.4-0.6-1-1-1.7-1.1
				c-0.7-0.1-1.5-0.2-2.3-0.2c-1.3,0-2.6,0-3.9,0c-0.4,0-0.9,0-1.3,0c-0.6,0-1-0.4-1-0.8c0-0.5,0.2-0.9,0.8-1
				c0.4-0.1,0.7-0.1,1.1-0.1c0.5,0,0.9,0,1.4,0c0.9,0,1.9,0,2.8,0c0.4,0,0.8,0.2,0.9,0.7c0.1,0.2,0.3,0.3,0.5,0.4c0.8,0,1.6,0,2.3,0
				c0.3,0,0.5-0.2,0.5-0.5c0-0.4,0-0.8,0-1.3c-0.1-0.6-0.4-1.1-0.9-1.4c-0.8-0.4-1.6-0.5-2.5-0.5c-1.7,0-3.3,0-5,0c-1,0-2,0.1-3,0.3
				c-1.2,0.3-2.1,1.3-2.2,2.5c-0.1,0.8-0.1,1.5-0.1,2.3c0,0.5,0.3,0.9,0.6,1.2c0.6,0.5,1.4,0.7,2.1,0.7c2.2,0.1,4.5,0.1,6.7,0.1
				c0.5,0,0.8,0.3,0.9,0.8c0.1,0.4-0.2,0.9-0.6,1c-0.4,0.1-0.8,0.3-1.2,0.3c-1.5,0-3,0-4.5,0c-0.6,0-1.1-0.3-1.1-0.7
				c0-0.4-0.2-0.5-0.5-0.5c-0.8,0-1.7,0-2.5,0c-0.1,0-0.4,0.2-0.4,0.3c-0.1,0.4-0.1,0.8-0.1,1.3c0,0.9,0.5,1.4,1.3,1.8
				c0.6,0.3,1.3,0.3,1.9,0.3c1.1,0,2.1,0,3.2,0C69.7,90.9,70.7,91,71.7,90.9L71.7,90.9z M9.3,90.9c1,0,2-0.1,3-0.3
				c1.1-0.3,1.8-1.1,2.1-2.1c0.3-1,0.4-2,0.1-3c-0.2-0.6-0.6-1.1-1.2-1.3c-0.8-0.4-1.7-0.3-2.5-0.4c-1.7-0.1-3.5,0-5.2,0
				c-0.2,0-0.5,0-0.7-0.1c-0.4-0.1-0.6-0.4-0.6-0.8c0-0.3,0-0.7,0.5-0.9c0.4-0.1,0.9-0.2,1.3-0.2c0.5,0,1,0,1.5,0c0.9,0,1.9,0,2.8,0
				c0.5,0,0.8,0.3,1,0.8c0.1,0.1,0.3,0.3,0.4,0.3c0.8,0,1.6,0,2.4,0c0.2,0,0.4-0.2,0.5-0.3c0.3-0.6,0-1.9-0.4-2.3
				c-0.7-0.7-1.6-0.9-2.4-0.9c-2.5,0-5,0-7.5,0.1c-0.7,0-1.5,0.2-2.1,0.7c-0.5,0.4-0.8,0.9-1,1.6c-0.3,0.9-0.3,1.9-0.3,2.8
				c0,0.5,0.3,1.1,0.9,1.3c0.6,0.3,1.3,0.5,1.9,0.6c2.2,0.1,4.5,0.1,6.7,0.1c0.5,0,0.7,0.3,0.9,0.8c0.1,0.4-0.2,0.9-0.6,1
				c-0.4,0.1-0.8,0.3-1.2,0.3c-1.5,0-2.9,0-4.4,0c-0.7,0-0.9-0.3-1.1-0.9c0-0.1-0.3-0.3-0.4-0.3c-0.9,0-1.8,0-2.7,0
				c-0.1,0-0.4,0.2-0.4,0.4c-0.1,0.4,0,0.8,0,1.2c0.1,1,0.5,1.6,1.4,1.8c0.6,0.2,1.2,0.3,1.7,0.3c1.1,0,2.2,0,3.3,0
				C7.5,90.9,8.4,90.9,9.3,90.9L9.3,90.9z M37.9,88.2c-0.9,0-1.8,0-2.7-0.1c-0.4,0-0.9-0.2-1.3-0.5c-0.2-0.1-0.3-0.6-0.3-0.9
				c0-1.2,0.1-2.3,0.4-3.4c0.2-0.7,0.7-1,1.3-1.2c0.2-0.1,0.5-0.1,0.8-0.1c0.8,0,1.6-0.1,2.4-0.1c0.8,0,1.6,0,2.4,0.1
				c0.8,0.1,1.6,0.5,1.4,1.6c-0.1,0.9-0.2,1.7-0.3,2.6c0,0.4-0.1,0.7-0.4,1.1c-0.4,0.6-1.1,0.8-1.7,0.8c-0.1,0-0.3,0-0.4,0
				c0,0,0,0,0,0C39.1,88.2,38.5,88.2,37.9,88.2L37.9,88.2z M33.2,79.6c-1.3,0.3-2.1,1.2-2.5,2.4c-0.3,0.9-0.4,1.9-0.5,2.8
				c-0.1,1.1-0.1,2.2-0.1,3.3c0,1.7,0.9,2.3,2.3,2.6c0.9,0.2,1.8,0.2,2.6,0.2c2,0,4-0.1,6-0.1c0.8,0,1.7-0.1,2.4-0.6
				c0.5-0.3,1-0.6,1.3-1.1c0.6-0.9,0.9-2,1-3.1c0-0.6,0.2-1.3,0.2-1.9c0-0.8,0.1-1.7,0-2.5c-0.1-0.8-0.5-1.6-1.2-1.9
				c-0.5-0.3-1.2-0.5-1.8-0.5c-1.1-0.1-2.2-0.1-3.4-0.1c-1.3,0-2.7,0-4.2,0C34.8,79.3,34,79.5,33.2,79.6L33.2,79.6z M29.2,51.8
				c-0.1,0-0.3,0-0.3,0c-0.1,0.1-0.3,0.2-0.3,0.3c-0.1,0.4-0.1,0.8-0.1,1.2c-0.1,0.8-0.2,1.6-0.3,2.4c-0.1,0.8,0,1,0.8,1
				c2.2,0,4.3,0,6.5,0c0.2,0,0.4,0,0.6-0.1c0.4-0.1,0.7,0.2,0.7,0.7c-0.1,0.5-0.1,1.1-0.2,1.6c0,0.6-0.1,1.2-0.1,1.8
				c-0.1,0.9-0.2,1.9-0.3,2.8c0,0.5-0.1,0.9-0.1,1.4c-0.1,0.9-0.2,1.7-0.3,2.6c-0.1,0.9-0.2,1.9-0.3,2.8c-0.1,0.8,0,1,0.8,1
				c1.5,0,3.1,0,4.6,0c0.5,0,0.7-0.1,0.8-0.6c0.1-0.6,0.1-1.2,0.2-1.8c0-0.5,0.1-1,0.1-1.5c0.1-0.9,0.2-1.8,0.3-2.7
				c0.1-0.9,0.1-1.9,0.2-2.8c0.1-1.4,0.3-2.8,0.4-4.3c0-0.4,0.1-0.9,0.6-1c0.2,0,0.4,0,0.6,0c2.3,0,4.6,0,6.9,0
				c0.5,0,0.6-0.1,0.7-0.7c0.1-1.2,0.2-2.5,0.4-3.7c0.1-0.6,0-0.6-0.6-0.6c-3.7,0-7.4,0-11.1,0C36.5,51.8,32.9,51.8,29.2,51.8
				L29.2,51.8z M8.7,61.5c-0.4,0-0.6-0.1-0.5-0.5c0.1-1.1,0.2-2.1,0.3-3.2c0,0,0-0.1,0-0.1c0.1-0.9,0.1-0.9,0.9-0.9
				c3.2,0,6.4,0,9.6,0c0.3,0,0.6,0.1,0.9,0.2c0.6,0.2,0.7,1.2,0.7,1.7c0,0.4-0.1,0.8-0.2,1.3c-0.1,0.8-0.7,1.5-1.6,1.5
				c-1.9,0-3.7,0-5.6,0c0,0,0,0.1,0,0.1C11.8,61.5,10.3,61.5,8.7,61.5L8.7,61.5z M23.3,63.8c0.2-0.1,0.5-0.2,0.7-0.3
				c0.5-0.3,1-0.5,1.4-0.9c0.5-0.6,0.8-1.3,0.9-2.1c0.4-1.9,0.6-3.8,0.4-5.7c-0.1-0.8-0.5-1.4-1-1.9c-0.9-0.7-1.9-1-3.1-1
				c-6.3,0-12.5,0-18.8,0c-0.4,0-0.6,0.1-0.6,0.5C3.1,52.8,3,53.2,3,53.7c0,0.6-0.1,1.2-0.1,1.8c-0.1,0.9-0.2,1.9-0.3,2.8
				c-0.1,0.5-0.1,1.1-0.1,1.6c-0.1,0.9-0.2,1.9-0.3,2.8C2.1,63.5,2,64.2,1.9,65c-0.1,1.1-0.2,2.3-0.3,3.4c-0.1,0.8-0.2,1.5-0.3,2.3
				c-0.1,0.5,0,0.8,0.6,0.8c1.6,0,3.1,0,4.7,0c0.3,0,0.7-0.1,0.7-0.5c0.1-1.3,0.2-2.5,0.4-3.8c0-0.4,0.3-0.7,0.7-0.7
				c3.2,0,6.5,0.1,9.7,0.1c0.9,0,1.6,0.5,1.6,1.3c0,0.9-0.1,1.8-0.2,2.6c-0.1,0.7,0,0.9,0.7,0.9c1.5,0,2.9,0,4.4,0
				c0.5,0,0.8-0.3,0.8-0.8c0-0.1,0-0.1,0-0.2c0.1-1.4,0.2-2.7,0.3-4.1c0-1-0.4-1.7-1.3-2.1c-0.3-0.1-0.6-0.2-0.9-0.4L23.3,63.8z
				 M40.2,4.6c0.1,0,0.1,0.1,0.1,0.1c-0.1,0.2-0.2,0.5-0.4,0.6C39,6,38.1,6.6,37.1,7.2c-1.3,0.9-2.5,1.9-3.8,2.8
				c-0.2,0.1-0.5,0.2-0.7,0.2c0-0.1,0-0.1,0-0.2C34.5,7.3,36.9,5.3,40.2,4.6L40.2,4.6z M32.5,25.9c-0.3-0.1-0.7-0.2-1-0.3
				c-0.8-0.2-0.9-0.3-1-1.1c-0.2-1.1-0.4-2.2-0.8-3.2c-0.3-0.8-0.9-1.5-1.3-2.2c0,0-0.1,0-0.1-0.1c-0.1-0.3-0.1-0.5-0.2-0.8
				c0.3,0,0.6,0,0.8,0c0.7,0.2,1.4,0.6,2.1,0.7c0.9,0.2,1.1,0.9,1.4,1.5c0.2,0.4,0.3,0.8,0.4,1.2c0.3,1.2,0.5,2.4,0.7,3.7
				C33.6,26.1,33.2,26.2,32.5,25.9L32.5,25.9z M33.5,12.1C34.8,11,36,10,37.3,9c0.6-0.5,1.3-1,2-1.4c0.9-0.6,1.9-1.2,2.8-1.9
				c0.6-0.4,1.1-0.8,1.7-1.2c0.1-0.1,0.3,0,0.4,0c0.1,0,0.1,0.3,0,0.4c-0.2,0.3-0.4,0.6-0.6,0.9c-1,1.2-1.9,2.5-3.1,3.6
				c-1.3,1.1-2.6,2.1-4.2,2.7c-0.9,0.3-1.9,0.6-2.8,0.9c-0.1,0-0.3,0-0.5,0l-0.1-0.2C33.1,12.6,33.3,12.3,33.5,12.1L33.5,12.1z
				 M31.1,15.1c1.1,0.4,2.2,0.8,3.1,1.4c1.1,0.6,2,1.5,3,2.3c1.2,1,2.1,2.3,3,3.7c0.2,0.3,0.2,0.5-0.2,0.6c-0.1,0-0.2,0.1-0.3,0.1
				c-1,0.5-1.1,0.7-2-0.6c-0.7-1-1.6-1.9-2.5-2.8c-1-1-2.3-1.7-3.7-2.3c-1.1-0.5-2.3-0.7-3.5-1c-0.6-0.1-1.3-0.1-2-0.1
				c-0.5,0-0.6-0.2-0.6-0.6c0-0.3,0-0.5,0-0.8c0-0.5,0.2-0.7,0.7-0.7c0.2,0,0.4,0,0.5,0C28.1,14.5,29.6,14.5,31.1,15.1L31.1,15.1z
				 M34.3,42.8c0.2,0,0.3,0.1,0.5,0.1c4,0,7.9,0,11.9,0c0.7,0,1.4-0.3,1.7-1c0.4-0.9,0.6-1.9,0.6-2.8c0-0.2-0.1-0.3-0.2-0.4
				c0,0-0.3,0.1-0.4,0.2c-1.8,1.5-3.8,2.2-6.1,1.9c-1.9-0.2-3.5-1-4.9-2.3c-0.8-0.8-1.4-1.8-1.9-2.9c-0.4-0.9-0.5-1.9-0.6-2.9
				c-0.1-1.7,0.3-3.4,1.3-4.8c0.8-1.3,1.9-2.3,3.3-2.9c0.5-0.2,1.1-0.5,1.6-0.6c0.8-0.2,1.6-0.3,2.4-0.3c0.8,0,1.5,0.3,2.3,0.5
				c0.6,0.2,1.2,0.5,1.7,0.8c0.7,0.5,1.3,1.1,1.9,1.7c0.1,0.1,0.3,0.1,0.5,0.2c0.1-0.2,0.1-0.3,0.2-0.5c0.1-0.8,0.1-1.5,0.1-2.3
				c0.1-1.5,0.3-3,0.4-4.4c0.1-1.6,0.3-3.1,0.4-4.7c0.1-1.5,0.2-2.9,0.3-4.4c0.1-1.5,0.2-3,0.3-4.5c0-0.4,0.1-0.9,0.1-1.3
				C51.9,4,52,2.9,52.1,1.7c0-1-0.7-1.7-1.7-1.7C42.6,0,34.8,0,27,0c-0.2,0-0.3,0-0.5,0.1C25.7,0.3,25,1.4,25,2.2
				c0,0.7,0,1.5-0.1,2.2c-0.1,1.4-0.3,2.8-0.4,4.2c-0.1,0.7-0.1,1.4-0.1,2.1c-0.1,1.4-0.3,2.8-0.4,4.3c-0.1,0.7-0.1,1.4-0.1,2
				c-0.1,1.4-0.3,2.8-0.4,4.2c-0.1,0.6-0.1,1.2-0.1,1.8c-0.1,1.5-0.3,3-0.4,4.4c-0.1,0.7-0.1,1.4-0.2,2.1c-0.1,0.5-0.1,1-0.2,1.5
				c0.1,0,0.1,0.1,0.2,0.1c0.2-0.2,0.5-0.4,0.6-0.6c0.2-0.2,0.2-0.4,0.4-0.6c0.6-0.9,1.5-1.5,2.4-2c1-0.6,2-0.9,3.2-1
				c1.4-0.1,2.7,0,4,0.5c0.7,0.3,1.1,0.6,0.9,1.2c-0.3,0.9-0.7,1.7-0.6,2.6c0.1,1,0,2,0.1,3c0.2,0.8,0.6,1.7,0.9,2.5
				c0.4,1.1,1.1,1.9,1.9,2.7c0.4,0.3,0.4,0.6,0.2,0.9c-0.4,0.5-0.9,0.9-1.3,1.3c-0.3,0.3-0.6,0.5-1,0.8
				C34.3,42.7,34.3,42.7,34.3,42.8L34.3,42.8z M21.7,41.9c0.1,0.1,0.3,0.1,0.4,0.2c0.3,0.2,0.6,0.6,0.9,0.6c0.7,0.1,1.4,0.1,2.1,0.1
				c0.1,0,0.3-0.1,0.4-0.2c-0.1-0.1-0.1-0.3-0.2-0.4c-0.4-0.4-0.8-0.7-1.2-1c-0.6-0.6-1.2-1.2-1.4-2.1c-0.1-0.5-0.5-0.8-1-0.9V41.9z
				 M78.3,74.3c-0.5-0.1-0.9-0.2-1.4-0.2c-24.9,0-49.8,0-74.7,0c-0.1,0-0.3,0-0.4,0c-0.3-0.1-0.5,0-0.6,0.3
				c-0.3,0.7-0.1,1.1,0.7,1.1c24.7,0,49.3,0,74,0c0.8,0,1.7,0.2,2.5-0.4V74.3z M78.3,58.5c-1.8,0.4-3.6,0.1-5.3,0.2
				c-0.5,0-0.7-0.2-0.7-0.6c0-0.9-0.2-1.1-1-1.3c-0.5-0.1-1-0.2-1.5-0.2c-2.4,0-4.7-0.1-7.1-0.1c-0.9,0-1.8,0.1-2.7,0.4
				c-0.5,0.2-0.9,0.6-1.2,1.1c-0.4,0.7-0.4,1.6-0.5,2.4c-0.2,1.4-0.3,2.9-0.4,4.4c0,0.6,0,1.3,0.6,1.7c0.4,0.4,0.9,0.5,1.4,0.5
				c1,0.1,2,0.1,3,0.1c1.4,0,2.8,0.1,4.2,0.1c1.2,0,2.4-0.2,3.6-0.4c0.5-0.1,0.9-0.6,1-1.1c0-0.2,0.1-0.4,0.1-0.6
				c0.1-0.6,0-0.8-0.7-0.8c-1.5,0-3,0-4.5,0c-0.6,0-1.2,0.1-1.9,0.1c-0.4,0-0.6-0.2-0.5-0.5c0.1-0.7,0.1-1.4,0.2-2.1
				c0-0.3,0.1-0.7,0.1-1c0-0.3,0.2-0.4,0.5-0.4c4.2,0,8.3,0,12.5,0c0.4,0,0.5,0.2,0.5,0.5c-0.2,1.4-0.3,2.8-0.5,4.1
				c-0.1,0.9-0.3,1.9-0.5,2.8c-0.1,0.4-0.3,0.9-0.6,1.3c-0.7,1.1-1.8,1.8-3.1,2.1c-0.9,0.2-1.9,0.3-2.9,0.4c-1,0.1-1.9,0.1-2.9,0.1
				c-2.3,0-4.6,0.1-6.9,0.1c-1.2,0-2.5,0-3.7-0.2c-1.1-0.2-2.3-0.4-3.3-1c-1.2-0.8-1.6-1.8-1.7-3.1c0-1.1,0-2.2,0.1-3.3
				c0.1-1.5,0.2-3,0.4-4.5c0.2-1.3,0.4-2.5,0.7-3.7c0.4-1.5,1.3-2.7,2.7-3.3c0.7-0.3,1.5-0.4,2.3-0.6c1-0.2,2-0.2,3.1-0.4
				c0.1,0,0.1,0,0.2,0c2.6,0,5.2-0.1,7.8-0.1c1.9,0.1,3.8,0.3,5.6,0.5c1.1,0.2,2.2,0.7,2.8,1.7c0.1,0.1,0.1,0.3,0.2,0.4
				c0.1,0.1,0.2,0.2,0.3,0.3V58.5z"/>
		</g>
	</g>
</g>
</svg>
