<?xml version="1.0" encoding="utf-8"?>
<!-- Generator: Adobe Illustrator 24.0.1, SVG Export Plug-In . SVG Version: 6.00 Build 0)  -->
<svg version="1.1" id="Layer_1" xmlns="http://www.w3.org/2000/svg" xmlns:xlink="http://www.w3.org/1999/xlink" x="0px" y="0px"
	 viewBox="0 0 72 81" style="enable-background:new 0 0 72 81;" xml:space="preserve">
<style type="text/css">
	.st0{filter:url(#Adobe_OpacityMaskFilter);}
	.st1{fill-rule:evenodd;clip-rule:evenodd;fill:#FFFFFF;}
	.st2{mask:url(#mask-4_1_);fill-rule:evenodd;clip-rule:evenodd;fill:url(#Fill-1_1_);}
</style>
<title>Group 3</title>
<desc>Created with Sketch.</desc>
<g id="Symbols">
	<g id="GameTab02" transform="translate(-799.000000, -30.000000)">
		<g id="Group-3" transform="translate(777.000000, 30.000000)">
			<g id="Clip-2">
			</g>
			<defs>
				<filter id="Adobe_OpacityMaskFilter" filterUnits="userSpaceOnUse" x="22" y="0" width="72" height="81">
					<feColorMatrix  type="matrix" values="1 0 0 0 0  0 1 0 0 0  0 0 1 0 0  0 0 0 1 0"/>
				</filter>
			</defs>
			<mask maskUnits="userSpaceOnUse" x="22" y="0" width="72" height="81" id="mask-4_1_">
				<g class="st0">
					<polygon id="path-3_1_" class="st1" points="0,0 111,0 111,81 0,81 					"/>
				</g>
			</mask>
			
				<linearGradient id="Fill-1_1_" gradientUnits="userSpaceOnUse" x1="-242.7639" y1="432.5905" x2="-242.7639" y2="431.6173" gradientTransform="matrix(72 0 0 -81 17537 35042.0039)">
				<stop  offset="0" style="stop-color:#FDF8A2"/>
				<stop  offset="0.451" style="stop-color:#F4D97A"/>
				<stop  offset="1" style="stop-color:#EEC462"/>
			</linearGradient>
			<path id="Fill-1" class="st2" d="M22,0c0.2,0.2,0.3,0.3,0.4,0.4c0.7,0.7,1.4,1.3,2.1,2c1.2,1.1,2.3,2.3,3.5,3.5
				c0.2,0.2,0.4,0.2,0.6,0c0.6-0.6,1.2-1.1,1.8-1.6c1.5-1.4,3-2.8,4.6-4.2H22z M46,0.1c0.4,0.3,0.8,0.6,1.1,1
				c1.2,1.2,2.5,2.5,3.7,3.7c0.3,0.3,0.6,0.6,0.9,0.9c0.3,0.3,0.5,0.3,0.8,0c0.6-0.6,1.3-1.2,1.9-1.7c0.9-0.9,1.9-1.7,2.9-2.5
				C57.9,1,58.4,0.6,59,0H46C46,0,46,0.1,46,0.1L46,0.1z M68,76c0-1.3,0-2.6,0-3.9c0-0.6-0.4-1-0.9-1.1c0,0.2,0,0.4,0,0.6
				c0,1-0.1,2-0.1,3C67,75.3,67.3,75.8,68,76L68,76z M68,62.6c0-0.7,0-1.4,0-2.1c0-0.4-0.3-0.5-0.6-0.5c-0.4,0-0.3,0.2-0.3,0.5
				c0,0.3,0,0.7,0,1c-0.2,1-0.1,2.1,0.1,3.1c0.1,0.3,0.3,0.5,0.5,0.4c0.1,0,0.3-0.3,0.3-0.5C68,63.9,68,63.2,68,62.6L68,62.6z
				 M69.5,61.4c0,1.6,0,3.1,0,4.5c0,0.1,0.1,0.3,0.2,0.4c1.1,0.7,2.3,1.5,3.5,2.2c0.3,0.2,0.7,0.4,1,0.6c0.7,0.5,0.9,1.2,0.8,2
				c-0.1,0.8-0.1,1.5-0.1,2.3c0,1.3-0.6,2.3-1.7,2.9c-1.1,0.6-2.1,1.2-3.1,2c-0.3,0.3-0.5,0.8-0.6,1.2c-0.1,0.3,0,0.6,0,1
				c0,0.3-0.1,0.5-0.5,0.5c-0.3,0-0.5-0.1-0.5-0.4c0-0.3,0-0.6,0-0.9c-0.5,0-0.9,0.3-1,0.9c0,0.1-0.2,0.4-0.2,0.4
				c-0.2,0-0.5-0.1-0.6-0.2c-0.3-0.3-0.6-0.6-1-0.8c-1.2-0.8-2.4-1.7-3.6-2.5c-0.4-0.3-0.4-0.5-0.1-0.8c0.9-0.8,1.9-1.7,2.8-2.5
				c0.3-0.3,0.7-0.2,1,0c0.2,0.1,0.4,0.3,0.6,0.5c0.1-0.3,0.2-0.4,0.2-0.6c0-0.9,0-1.8,0-2.7c0-0.5-0.2-0.9-0.7-1.1
				c-0.8-0.4-1.6-1-2.3-1.4c-0.7-0.4-1.4-0.8-2.1-1.2c-0.2-0.2-0.5-0.6-0.5-0.8c0-1.4,0-2.9,0-4.3c0-0.6,0.4-0.9,0.9-1.2
				c1.4-1,2.9-1.9,4.3-3c0.3-0.2,0.4-0.6,0.4-1c0.1-0.5,0-1.1,0-1.6c0-0.4,0.2-0.6,0.5-0.6c0.4,0,0.5,0.2,0.5,0.6c0,0.4,0,0.9,0,1.3
				c0.6,0,1-0.7,0.9-1.2c-0.1-0.4,0.1-0.6,0.4-0.6c0.2,0,0.5,0.2,0.5,0.4c0,0.6,0.5,0.9,0.8,1.1c1,0.8,2,1.5,3,2.2
				c0.7,0.5,0.8,1,0.1,1.6c-0.8,0.7-1.6,1.4-2.4,2.1c-0.1,0.1-0.3,0-0.4,0C70.3,62.1,70,61.8,69.5,61.4L69.5,61.4z M49.1,76
				c0.7,0,1.3,0,2,0c0.6,0,0.8-0.1,0.8-0.7c0-1.5,0.1-2.9,0.1-4.4c0-2,0-3.9,0-6c-0.1,0.1-0.2,0.1-0.3,0.1c-0.8,0.7-1.5,1.3-2.3,2
				c-0.3,0.3-0.4,0.6-0.4,1c0,2.6,0.1,5.1,0.1,7.7C49.1,75.8,49.1,75.9,49.1,76L49.1,76z M60,75.2c-0.3,0.4-0.5,0.7-0.8,1.1
				c-0.7,0.9-1.4,1.8-2.1,2.7c-0.5,0.6-1.1,1-1.9,1c-0.9,0-1.7,0.1-2.6,0.1c-1.1,0-1.4-0.4-1.3-1.4c0.1-0.6,0-1.2,0-2
				c-0.7,0.5-1.3,1-1.9,1.5c-0.6,0.5-1.1,1-1.7,1.4c-0.2,0.1-0.4,0.2-0.7,0.2c-1.1,0-2.2,0-3.2,0c-0.6,0-0.7-0.1-0.7-0.6
				c0-0.4,0-0.9,0-1.3c0-2.6,0-5.2,0-7.8c0-0.6,0.3-1,0.7-1.4c1.2-1,2.4-2,3.5-3c1.1-0.9,2.2-1.8,3.2-2.7c0.6-0.6,0.6-0.7,0-1.3
				c-0.6-0.6-1.1-1.2-1.6-1.8c-0.2-0.2-0.3-0.4-0.5-0.6l-0.2,0.1c0,0.2-0.1,0.3-0.1,0.5c0,0.7,0,1.5,0,2.2c0,0.6-0.1,0.7-0.7,0.6
				c-0.4,0-0.8-0.1-1.2-0.1c-1,0-1.9,0.1-2.9,0.1c-0.3,0-0.4,0-0.5-0.4c-0.1-0.7-0.1-0.9,0.5-1.4c1.3-1.1,2.6-2.2,3.9-3.3
				c1-0.8,2-1.7,3.1-2.5c0.7-0.6,1-0.3,1.4,0.3c0.4,0.7,1.1,1.1,1.7,1.6c0.3,0.3,0.6,0.6,0.9,0.9c0.5,0.6,1.1,1.1,1.6,1.8
				c0.2,0.3,0.4,0.8,0.4,1.2c0,1.9,0,3.8,0,5.7c0,0.6-0.1,1.3-0.1,1.9c0,0.6,0.1,1.1,0.1,1.7c0,1,0.1,2.1,0.1,3.1c0,0.4,0,0.7,0,1.1
				c0,0.4,0.4,0.5,0.8,0.5c0.8,0,1.7-0.1,2.5-0.1C59.9,75.1,60,75.1,60,75.2L60,75.2z M33,49c-0.3,0.2-0.5,0.3-0.7,0.4
				c-0.9,0.4-1.3,1.1-1.3,1.9c0,2.8,0,5.6,0,8.4c0,4.8,0,9.6,0,14.4c0,0.6,0.3,0.9,1,0.9c0.6,0,0.9-0.2,0.9-0.9c0-7.9,0-15.9,0-23.8
				C32.9,49.9,32.9,49.5,33,49L33,49z M34.6,50.4V51v22.6c0,1.1,0.4,1.5,1.5,1.4c0.8-0.1,1.6-0.2,2.2-0.9c0.4-0.5,0.8-1,1.2-1.5
				c0.3-0.4,0.7-0.8,1.1-1.1c0.3-0.3,0.7-0.2,1.1,0.2c0.3,0.3,0.4,0.6,0,0.9c-1.2,1.4-2.4,2.9-3.6,4.3c-0.8,0.9-1.5,1.8-2.3,2.7
				C35.7,79.8,35.3,80,35,80c-2.7,0-5.4,0-8,0c-0.7,0-0.8-0.1-0.8-0.8c0-0.6,0.1-1.1,0.1-1.6c0-2.7-0.1-5.3-0.1-8
				c0-0.6-0.2-0.8-0.8-0.8c-1.1,0-2.2,0-3.4,0c0.7-0.6,1.3-1.2,1.9-1.8c0.7-0.6,1.4-1.2,2-1.9c0.4-0.5,0.5-1.1,0.2-1.8h-3.5
				c0.7-0.8,1.3-1.6,2-2.3c0.4-0.4,0.9-0.8,1.2-1.3c0.2-0.4,0.4-0.8,0.4-1.3c0-1.2,0-2.4,0-3.7c0-1.6,0.8-2.7,2-3.6
				c0.4-0.3,0.7-0.6,1.1-0.9c1.3-1.2,2.7-2.5,4-3.8c0.8-0.8,1.6-1.5,2.4-2.3c0.3-0.3,0.6-0.3,0.9,0.1c0.7,0.8,1.4,1.6,2.1,2.5
				c1.1,1.2,2.2,2.5,3.2,3.7c0.1,0.1,0.1,0.5,0,0.6c-1,1.1-2,2.1-3,3.2c-0.5,0.5-0.6,0.5-1-0.1C37,53,36.1,52,35.2,50.9
				c-0.2-0.2-0.3-0.4-0.5-0.6C34.7,50.4,34.6,50.4,34.6,50.4L34.6,50.4z M81.7,44.8c-0.8,0.8-1.6,1.6-2.4,2.4
				c-0.5,0.5-1.1,1.1-1.6,1.5C77.2,49.1,77,49.5,77,50c0,1.9,0.1,3.8,0.1,5.7c0,1.7-0.1,3.4-0.1,5.1c0,3.5,0.1,6.9,0.1,10.4
				c0,1.5-0.1,2.9-0.1,4.4c0,1.6,0,3.1,0,4.7c0,0.5,0.2,0.7,0.7,0.7c1.4,0,2.8,0,4.2,0c0.7,0,0.8-0.1,0.8-0.8c0-1.6-0.1-3.3-0.1-4.9
				c0-4,0.1-8,0.1-12c0-0.9,0.6-1.3,1.2-1.7c0.1-0.1,0.4,0,0.5,0.1c0.7,0.6,1.2,1.3,1.2,2.3c0,5.3,0,10.7,0,16c0,0.1,0,0.2,0,0.4
				c0.1,0.4,0.2,0.7,0.7,0.7c0.7,0,1.5-0.1,2.2,0c1.3,0.2,2.2-0.2,2.9-1.2c0.5-0.7,1-1.4,1.5-2c0.4-0.5,0.7-0.9,1.1-1.5h-1.8
				c-0.8,0-1-0.2-1-1c0-4.8,0-9.7,0-14.5c0-0.4-0.1-0.8-0.3-1c-1-1.2-2.1-2.4-3.2-3.6c-0.4-0.4-0.6-0.4-1,0c-1.1,1-2.1,2-3.2,3
				c-0.2,0.2-0.5,0.3-0.9,0.6V44C82.3,44.3,82,44.6,81.7,44.8L81.7,44.8z M61,10.1c0,1.4,0,2.7,0,4.1c0,1-0.1,0.9,0.9,0.9
				c0.8,0,1.1-0.2,1.1-1c0-2.6,0-5.2,0-7.9C63,5,63,5,61.8,5C61.2,5,61,5.2,61,5.8C61,7.2,61,8.6,61,10.1L61,10.1z M80,0.2
				c-1,0.9-1.9,1.7-2.9,2.6c-0.2,0.2-0.3,0.4-0.5,0.5c-1,1-2.1,1.9-3.1,2.8c-0.2,0.2-0.4,0.3-0.6-0.1c-0.1-0.1-0.2-0.2-0.3-0.4
				c-1.1-1.2-2.3-2.3-3.4-3.5c-0.5-0.6-0.8-0.6-1.3,0c-0.6,0.8-1.2,1.6-1.9,2.3c-0.1,0.1-0.3,0.2-0.5,0.3C65,5,64.7,5.2,64.7,5.7
				c0,2.8,0,5.6,0,8.4c0,0.7,0.2,0.9,0.9,0.9c1.2,0,2.3,0,3.6,0c-0.3,0.4-0.6,0.7-0.9,1c-0.6,0.7-1.3,1.4-1.9,2.1
				c-0.5,0.5-1,1-1.4,1.5c-0.2,0.2-0.3,0.6-0.3,0.9c0,1.8,0,3.6,0,5.4c0,0.8,0,0.8,0.9,0.9c0,0,0,0.1,0,0.1
				c-0.6,0.5-1.2,0.9-1.7,1.4c-0.1,0-0.3,0-0.4-0.1c-0.3-0.3-0.6-0.6-0.9-1c-0.2-0.2-0.1-0.4,0.1-0.5c0.4-0.1,0.4-0.3,0.4-0.6
				c0-1.6,0-3.1,0-4.7c0-1-0.2-1.1-1.1-1.1c-0.7,0-0.8,0.3-0.8,0.8c0,5,0,9.9,0,14.9c0,0.8-0.5,1.2-1.3,0.9
				c-0.2-0.1-0.3-0.3-0.4-0.5c-0.1-0.1,0-0.3,0-0.4c0-4.7,0-9.3,0-14c0-1,0.1-2.1,0.1-3.1c0-4.2-0.1-8.4-0.1-12.5
				c0-0.2,0.1-0.4,0.1-0.6c0-0.2,0-0.6-0.1-0.6c-0.3-0.1-0.7-0.1-1-0.1c-0.1,0-0.3,0.4-0.3,0.6c0,7.8,0,15.6,0,23.4c0,2.3,0,4.7,0,7
				c0,0.8-0.1,0.9-0.9,0.9c-1.2,0-2.4,0-3.6,0c-0.5,0-0.7-0.1-0.7-0.6c0-1.2,0-2.5,0-3.7c0-1.9,0.1-3.8,0.1-5.7c0-2-0.1-4.1-0.1-6.1
				c0-0.4-0.1-0.6-0.6-0.6c-1,0.1-2.1,0.1-3.1,0.1c-0.5,0-1-0.1-1.3-0.1c0.5-0.5,1-1.2,1.5-1.8c0.5-0.6,1.1-1.1,1.7-1.6
				c0.4-0.3,0.7-0.7,1.1-1c0.5-0.4,0.7-0.8,0.7-1.4c0-1.7,0-3.5,0-5.2c0-0.6,0.2-1,0.7-1.3c0.1,0,0.1-0.1,0.2-0.2c1-0.9,2-1.9,3-2.8
				c1.3-1.2,2.6-2.4,3.9-3.6c0.3-0.2,0.5-0.6,0.8-0.7C62,0.2,62.4,0,62.8,0c4.1,0,8.2,0,12.3,0.1c0.7,0,1.5-0.1,2.3,0.1
				c0.6,0.1,1.3-0.1,2-0.1c0.2,0,0.4,0,0.6,0C80,0.1,80,0.2,80,0.2L80,0.2z M35.4,4C35.2,4.4,35,4.8,35,5.1c0,3.8,0,7.6,0,11.3
				c0,0.4,0.1,0.5,0.5,0.5c1.2,0,2.4,0,3.6,0c0.4,0,0.8-0.2,0.8-0.6c0-0.5,0-0.9,0-1.4c0-1.7,0.1-3.5,0.1-5.2c0-0.4,0-0.8-0.2-1.2
				c-0.1-0.6-0.5-1-1-1.4c-1-0.9-1.9-1.8-2.9-2.7C35.8,4.3,35.7,4.2,35.4,4L35.4,4z M24,36c2.1-1.5,4.1-3,6.1-4.5
				c0.8-0.6,1.7-1.3,2.5-2c0.3-0.3,0.5-0.5,0.5-1c-0.1-0.7-0.1-1.5-0.1-2.2c0-0.6,0.1-1.2,0.1-1.8c0-5.9,0-11.7,0-17.6V6.4
				c-0.6,0.7-1.3,1.1-1.5,1.9c0,0.2-0.1,0.4-0.1,0.6c0,6.3,0,12.5,0,18.8c0,0.7-0.3,1.2-0.9,1.7c-1.4,1-2.7,2-4.1,3.1
				c-0.1-0.3-0.1-0.5-0.1-0.8c0-3.1,0-6.3,0-9.4c0-0.5-0.3-0.7-0.8-0.7c-1.1,0-2.2,0-3.5,0c1.1-1.2,2.2-2.3,3.3-3.5
				c0.8-0.8,1.1-1.7,1.1-2.7c0-1.3-0.1-2.6-0.1-3.9c0-0.5,0.1-0.9,0.5-1.2c1.5-1.4,3-2.8,4.5-4.2c1.2-1.2,2.5-2.3,3.7-3.5
				c0.8-0.8,1.6-1.5,2.5-2.3c0.4-0.4,0.8-0.2,1.1,0.3C38.7,0.7,38.8,0.8,39,1c1,1,2.1,2,3.1,3c0.7,0.7,1.4,1.4,2.1,2.1
				c0.1,0.1,0.1,0.3,0.1,0.4c0,1.7,0.1,3.5,0.1,5.2c0,0.8-0.1,1.6-0.1,2.4c0,1,0.1,2,0.1,3c0,0.6-0.1,1.2-0.1,1.8
				c0,4,0.1,8.1,0.1,12.1c0,0.1,0,0.2,0,0.3H48c-0.3,0.4-0.5,0.6-0.7,0.9c-0.8,1-1.6,2-2.5,3c-0.4,0.4-0.7,0.6-1.4,0.5
				c-1.2-0.1-2.3-0.1-3.5,0c-0.5,0-0.6,0-0.6-0.5c0-4.3,0-8.6,0-12.9c0-0.6-0.2-0.9-0.6-0.9c-0.2,0-0.4,0.1-0.6,0.1
				c-0.9,0-1.8-0.1-2.7-0.1c-0.7,0-0.9,0.2-0.9,0.9c0,3.1,0,6.1,0,9.2c0,1.3,0,2.6,0,3.9c0,0.4-0.1,0.6-0.5,0.6c-3.3,0-6.5,0-9.8,0
				C24.2,36,24.1,36,24,36L24,36z M81.1,5C81,5.2,81,5.3,81,5.4c0,3.7,0,7.5,0,11.2c0,0.1,0.1,0.3,0.1,0.4c1.1-0.8,2.1-1.5,3.1-2.3
				c0.4-0.3,0.6-0.6,0.6-1.1c0-0.7-0.1-1.5,0-2.2c0.3-1.6-0.2-2.9-1.2-4c-0.7-0.7-1.4-1.4-2.1-2C81.4,5.3,81.3,5.2,81.1,5L81.1,5z
				 M81.2,19c-0.1,0-0.1,0.1-0.2,0.1v12.7c0.7,0,1.4,0.1,2.1,0.1c0.3,0,0.5-0.1,0.8-0.1c0.7,0.1,1.1-0.1,1.1-0.9c0-2.4,0-4.7,0-7.1
				c0-0.4-0.2-0.9-0.4-1.2C83.5,21.5,82.3,20.3,81.2,19L81.2,19z M78.9,5c-0.8,0.5-1.5,0.9-1.6,1.7c-0.1,0.3,0,0.6,0,1
				c0,6.4,0,12.9,0,19.3c0,0.3-0.2,0.7-0.4,0.8c-1,0.8-2.1,1.6-3.1,2.4c-0.6,0.4-1.1,0.9-1.6,1.3c-0.1,0.1-0.1,0.2-0.2,0.3
				c0.1,0,0.3,0.1,0.4,0.1c0.2,0,0.3,0,0.5,0c1,0,2.1,0.1,3.1,0.1c0.7,0,1.4-0.1,2.2-0.1c0.7,0,0.7-0.1,0.7-0.7c0-2.7,0-5.5,0-8.2
				c0-1.2,0.1-2.4,0.1-3.6c0-0.8-0.1-1.5-0.1-2.3c0-1,0.1-1.9,0.1-2.9c0-0.9-0.1-1.8-0.1-2.7C78.9,9.4,78.9,7.2,78.9,5L78.9,5z
				 M66,35.9c0.6-0.5,1.3-0.9,1.9-1.4c0.6-0.5,1.2-1,1.9-1.4c0.5-0.3,1-0.6,1.5-1c0.8-0.6,1.2-1.5,1.2-2.5c0-1.2-0.1-2.3-0.1-3.5
				c0-1.7,0-3.4,0-5.2h-4.8c0.5-0.6,1-1.1,1.5-1.6c0.7-0.6,1.4-1.3,2.1-1.9c0.3-0.3,0.7-0.5,0.9-0.8c0.2-0.3,0.4-0.6,0.4-1
				c0-2,0.1-3.9,0-5.9c-0.1-1.1,0.6-1.6,1.3-2.2c0.7-0.6,1.4-1.1,2-1.7c1.6-1.3,3.1-2.7,4.7-4c0.6-0.6,1.3-1.2,1.9-1.7
				c0.4-0.3,0.6-0.3,1,0c0.6,0.5,1.3,1,1.9,1.5c0.9,0.7,1.7,1.3,2.6,2c0.6,0.4,1.1,0.9,1.7,1.3c0.7,0.5,1,1.2,1,2c0,0.6,0,1.1,0,1.7
				c0,0.5,0,1.1,0.1,1.6c0.2,1.2-0.4,2.2-1.3,2.9c-0.9,0.7-1.9,1.4-2.9,2.1c-0.3,0.2-0.1,0.5,0.1,0.6c0.7,0.6,1.4,1.1,2,1.7
				c0.7,0.7,1.5,1.4,2.1,2.2c0.3,0.3,0.2,0.9,0.2,1.4c0,0.1,0,0.3,0,0.4c0,2.1,0,4.2,0,6.4c0,0.3-0.1,0.6-0.3,0.8
				c-1.3,1.2-2.6,2.4-3.9,3.6c-1.1,1-2.1,2-3.2,3c-0.4,0.4-0.9,0.6-1.5,0.6c-5.1,0-10.3,0-15.4,0h-0.6C66,36,66,35.9,66,35.9
				L66,35.9z"/>
		</g>
	</g>
</g>
</svg>
