<?xml version="1.0" encoding="utf-8"?>
<!-- Generator: Adobe Illustrator 24.0.1, SVG Export Plug-In . SVG Version: 6.00 Build 0)  -->
<svg version="1.1" id="Layer_1" xmlns="http://www.w3.org/2000/svg" xmlns:xlink="http://www.w3.org/1999/xlink" x="0px" y="0px"
	 viewBox="0 0 101 60" style="enable-background:new 0 0 101 60;" xml:space="preserve">
<style type="text/css">
	.st0{filter:url(#Adobe_OpacityMaskFilter);}
	.st1{fill-rule:evenodd;clip-rule:evenodd;fill:#FFFFFF;}
	.st2{mask:url(#mask-4_1_);fill-rule:evenodd;clip-rule:evenodd;fill:url(#Fill-1_1_);}
</style>
<title>Fill 1</title>
<desc>Created with Sketch.</desc>
<g id="Symbols">
	<g id="GameTab02" transform="translate(-664.000000, -44.000000)">
		<g id="Group-3" transform="translate(664.000000, 44.000000)">
			<g id="Clip-2">
			</g>
			<defs>
				<filter id="Adobe_OpacityMaskFilter" filterUnits="userSpaceOnUse" x="0" y="0" width="101" height="60">
					<feColorMatrix  type="matrix" values="1 0 0 0 0  0 1 0 0 0  0 0 1 0 0  0 0 0 1 0"/>
				</filter>
			</defs>
			<mask maskUnits="userSpaceOnUse" x="0" y="0" width="101" height="60" id="mask-4_1_">
				<g class="st0">
					<polygon id="path-3_1_" class="st1" points="0,0 101,0 101,60 0,60 					"/>
				</g>
			</mask>
			
				<linearGradient id="Fill-1_1_" gradientUnits="userSpaceOnUse" x1="-251.9753" y1="420.8898" x2="-251.9753" y2="419.9167" gradientTransform="matrix(101 0 0 -59.9999 25499.998 25254.9727)">
				<stop  offset="0" style="stop-color:#FDF8A2"/>
				<stop  offset="0.451" style="stop-color:#F4D97A"/>
				<stop  offset="1" style="stop-color:#EEC462"/>
			</linearGradient>
			<path id="Fill-1" class="st2" d="M79.2,43.6c0.6-0.2,1-0.6,1.4-1c0.3-0.5,0.5-0.9,0.5-1.4c0-0.6-0.2-1-0.7-1.3
				c-0.3-0.2-0.9-0.3-1.9-0.3h-3.6L73.9,44h1.8C77.4,44,78.6,43.9,79.2,43.6L79.2,43.6z M89.7,13.7c-1-0.7-2-1.4-3-2.2
				c-1.1-0.8-2.2-1.6-3.2-2.4C83.4,9,83.3,9,83.2,9c0,1,0,2,0,2.9c0,0.1,0.1,0.2,0.1,0.3c0,0.9-0.1,1.8-0.1,2.7c0,0.6,0,0.6-0.7,0.6
				c-4.6,0-9.1,0.1-13.7,0.1c-0.8,0-1.6,0-2.4-0.1c-0.1,0-0.3-0.2-0.4-0.3c-0.1-0.1,0-0.2-0.1-0.3c-0.5-1.3-1.1-2.5-2.1-3.6
				c-0.6-0.7-1.3-1.3-2.1-1.9c-0.9-0.6-1.8-1.1-2.8-1.6c-1.1-0.5-2.3-0.8-3.5-1.2c-0.1,0-0.2,0-0.3,0c-0.9-0.1-1.8-0.3-2.7-0.4
				c-0.3,0-0.7-0.1-1-0.1c-0.9-0.1-1.7-0.2-2.6-0.2c-1.6-0.1-3.1,0.1-4.7,0.2c-0.4,0-0.9,0.1-1.3,0.1c-0.6,0-1.2,0.1-1.8,0.2
				c-0.3,0.1-0.7,0.1-1,0.1c-1.3,0.3-2.7,0.6-3.9,1.1c-1,0.5-2.1,0.9-2.9,1.6c-0.5,0.5-1.1,1-1.2,1.6C32,11.4,32,11.8,32,12.3
				c0,0.2,0.1,0.4,0.3,0.6c0.5,0.7,1.3,1.1,2.2,1.4c1,0.3,2,0.6,3.1,0.8c1.9,0.5,3.8,0.6,5.8,0.8C45,16,46.8,16,48.5,16
				c5.2,0.1,10.4-0.2,15.5,0.3c1,0.1,2.1,0.2,3.1,0.3c1.2,0.2,2.3,0.4,3.5,0.6c1.4,0.2,2.7,0.7,4,1.2c0.8,0.3,1.5,0.7,2.2,1
				c1.1,0.5,2,1.2,2.8,1.9c0.3,0.3,0.6,0.6,0.8,0.8c0.2,0.2,0.4,0.3,0.7,0c0.4-0.4,0.8-0.8,1.2-1.1c0.3-0.3,0.6-0.5,0.8-0.8
				c1.3-1.2,2.5-2.4,3.7-3.6c0.9-0.9,1.9-1.7,2.8-2.5C90,14.1,90,13.9,89.7,13.7L89.7,13.7z M72.1,36.8l-3.4,16.3H72l1.4-6.8h1.3
				c0.8,0,1.3,0.1,1.6,0.3c0.5,0.4,1,1.1,1.4,2.1c0.8,2,1.4,3.4,1.7,4.3h3.5c-0.9-2.3-1.7-4.1-2.5-5.4c-0.4-0.6-0.8-1.1-1.2-1.5
				c1.7-0.2,2.9-0.8,3.7-1.7c0.8-0.9,1.2-2,1.2-3.4c0-1-0.2-1.8-0.6-2.5c-0.4-0.7-1-1.2-1.7-1.4c-0.7-0.3-1.6-0.4-2.9-0.4H72.1z
				 M68.4,39.6l0.6-2.7H57l-3.4,16.3h12.5l0.6-2.7h-9.3l1-4.4h7.1h1.2l0.6-2.7H59l0.8-3.7H68.4z M53.5,40.9c0-0.9-0.2-1.7-0.6-2.3
				c-0.4-0.6-0.9-1.1-1.6-1.4c-0.7-0.3-1.6-0.4-2.8-0.4h-6.5l-3.4,16.3H42l1.3-6.2h2.1c1.4,0,2.4,0,2.9-0.1c0.9-0.1,1.6-0.3,2.1-0.6
				c0.5-0.2,1-0.6,1.5-1.1c0.5-0.5,0.8-1.1,1.2-1.9C53.4,42.6,53.5,41.8,53.5,40.9L53.5,40.9z M38.7,36.8h-3.3l-1.8,8.9
				c-0.3,1.4-0.6,2.5-0.9,3.1c-0.3,0.6-0.7,1.1-1.2,1.4c-0.5,0.3-1.2,0.5-2,0.5c-0.9,0-1.6-0.2-2-0.6c-0.5-0.4-0.7-1-0.7-1.6
				c0-0.2,0-0.3,0-0.5l0.4-2.2l1.8-8.9h-3.3l-1.8,8.6c-0.2,1.1-0.4,1.8-0.4,2c-0.1,0.4-0.1,0.7-0.1,1c0,1.5,0.5,2.7,1.5,3.6
				c1,0.9,2.4,1.4,4.3,1.4c1.6,0,2.9-0.3,3.9-0.9c1-0.6,1.8-1.4,2.3-2.4c0.5-1,0.9-2.4,1.3-4.3L38.7,36.8z M25.7,5.9
				c0,0,0-0.1,0-0.1c-0.3,0-0.5,0-0.8,0c-1,0-2,0-3,0c-0.3,0-0.7,0.1-0.9,0.2c-0.9,0.7-1.8,1.4-2.7,2.1c-0.6,0.4-1.2,0.9-1.7,1.3
				c-0.5,0.4-1,0.8-1.5,1.1c-1.3,1-2.7,2.1-4,3.1c-0.3,0.2-0.3,0.4,0,0.6c0.6,0.6,1.2,1.2,1.8,1.8c0.4,0.4,0.8,0.9,1.2,1.3
				c0.2,0.2,0.4,0.4,0.6,0.4c0.1-0.6,0.1-1.1,0.2-1.7c0.2-1.3,0.9-2.6,1.7-3.7c0.8-1.1,1.8-2,2.9-2.9c1.3-1.1,2.8-2,4.4-2.8
				C24.5,6.5,25.1,6.2,25.7,5.9L25.7,5.9z M27.4,27.7c-0.7-0.1-1.4-0.3-2.1-0.5c0.1,0.1,0.1,0.2,0.2,0.3c0.6,0.6,1.3,1.3,1.9,1.9
				c0.8,0.8,1.6,1.6,2.4,2.3c0.5,0.5,0.5,0.7,1.5,0.4c0.3-0.1,0.7-0.2,1-0.2c1.1-0.2,2.1-0.5,3.2-0.5c1,0,2.1-0.2,3.1-0.3
				c0.7,0,1.3,0,2,0.1c0.6,0,1.1,0.1,1.7,0.2c0.8,0.1,1.6,0.3,2.3,0.5c0.8,0.3,1.7,0.6,2.4,1c1.1,0.7,2.2,1.5,3.2,2.3
				c0.2,0.1,0.4,0.2,0.6,0.2c0.6,0,1.2,0,1.8,0c1,0,2,0,3,0c0.8,0,1.6,0,2.4-0.1c0.2,0,0.4,0,0.6,0c1.3-0.1,2.5-0.3,3.8-0.4
				c1.5-0.2,2.9-0.4,4.3-0.8c0.8-0.3,1.4-0.6,2-1.1c0.5-0.5,0.5-1.4-0.2-1.7c-0.8-0.4-1.6-0.7-2.4-0.9c-1.6-0.3-3.2-0.5-4.9-0.7
				c-1.3-0.1-2.7-0.2-4.1-0.2c-5.4,0-10.8,0.1-16.2-0.2c-0.6,0-1.2,0-1.7-0.1c-1.6-0.1-3.1-0.2-4.7-0.4c-0.7-0.1-1.4-0.1-2.1-0.2
				c-0.5-0.1-1-0.1-1.5-0.2C29.7,28,28.5,27.9,27.4,27.7L27.4,27.7z M68.8,5.9c1,0.7,2.1,1.5,3.2,2.3c0.6-0.7,0.2-1.6,0.5-2.3
				L68.8,5.9C68.8,5.9,68.8,5.9,68.8,5.9L68.8,5.9z M20.7,48.2c0-1.2-0.4-2.1-1.1-2.9c-0.5-0.5-1.7-1.2-3.5-2c-1.2-0.5-2-1-2.4-1.3
				c-0.4-0.3-0.5-0.7-0.5-1.2c0-0.5,0.2-0.9,0.6-1.2c0.4-0.3,1-0.5,2-0.5c0.9,0,1.6,0.2,2.1,0.6c0.5,0.4,0.8,1,0.8,1.8l3.2-0.1
				c-0.1-1.5-0.7-2.7-1.7-3.6c-1-0.9-2.5-1.3-4.4-1.3c-1.9,0-3.3,0.5-4.3,1.4c-1,0.9-1.5,2-1.5,3.4c0,0.8,0.2,1.5,0.5,2.1
				c0.3,0.6,0.8,1.1,1.4,1.4c0.6,0.4,1.5,0.8,2.7,1.4c1.2,0.5,2,0.9,2.3,1.2c0.4,0.3,0.6,0.7,0.6,1.2c0,0.6-0.2,1-0.7,1.4
				c-0.5,0.4-1.3,0.6-2.3,0.6c-1.3,0-2.2-0.3-2.7-0.9c-0.3-0.4-0.5-1-0.5-2.1L8,47.9c0,1.1,0.2,2.1,0.6,2.9c0.4,0.8,1.1,1.5,2.1,2
				c1,0.5,2.2,0.7,3.6,0.7c2,0,3.6-0.5,4.7-1.5C20.2,50.9,20.7,49.7,20.7,48.2L20.7,48.2z M100.8,13.6c-0.5,0.5-1,0.9-1.5,1.4
				c-1.1,1-2.2,2.1-3.3,3.1c-0.6,0.6-1.2,1.1-1.8,1.7c-1,0.9-2,1.9-3,2.8c-0.4,0.4-0.9,0.8-1.3,1.2c-0.9,0.8-1.8,1.7-2.8,2.6
				c-0.6,0.5-1.2,1.1-1.8,1.6c-1,0.9-2,1.9-3,2.8c-0.9,0.8-1.8,1.6-2.6,2.4c-0.7,0.7-1.4,1.4-2.2,2.1h1.8c1.4,0,2.6,0.2,3.4,0.5
				c1,0.4,1.9,1.1,2.5,2.1c0.6,1,0.9,2.1,0.9,3.4c0,1.8-0.6,3.4-1.7,4.6c-0.6,0.6-1.3,1.1-2.1,1.5c0.7,1.3,1.5,3.1,2.4,5.3l0.9,2.3
				h-2.5h-3.5h-1.2l-0.4-1.2c-0.3-0.9-0.8-2.3-1.6-4.1c-0.4-0.9-0.7-1.2-0.8-1.4c-0.1,0-0.3-0.1-0.7-0.1l-1.1,5.4l-0.3,1.4H72h-3.3
				h-1.1h-0.9h-0.4H55.9c-0.1,0.1-0.2,0.2-0.3,0.3c-0.5,0.5-1.1,1-1.6,1.5c-0.6,0.6-1.2,1.1-1.9,1.7c-0.5,0.4-0.9,0.9-1.4,1.4
				c-0.4,0.4-0.7,0.5-1.2,0c-1.3-1.2-2.5-2.3-3.7-3.5c-0.6-0.6-1.2-1.1-1.8-1.7c-0.2-0.2-0.3-0.3-0.5-0.5l-0.2,0.9H42h-3.3h-2.1
				l0.4-2l0.8-4c0,0,0,0,0,0c-0.3,0.8-0.5,1.5-0.8,2.1c-0.6,1.3-1.6,2.3-2.9,3.1c-1.3,0.8-2.9,1.2-4.7,1.2c-2.3,0-4.1-0.6-5.4-1.8
				c-1-0.9-1.6-2-1.9-3.2c-0.3,1.2-1,2.2-2,3.1c-1.4,1.3-3.4,2-5.8,2c-1.6,0-3.1-0.3-4.3-0.9c-1.4-0.6-2.3-1.6-2.9-2.7
				c-0.5-1.1-0.8-2.3-0.8-3.7l0-1.6L8,46.2l2.7-0.1C10,45.6,9.4,45,9,44.2c-0.5-0.8-0.7-1.8-0.7-2.9c0-1.8,0.7-3.5,2-4.7
				c1.3-1.2,3.1-1.8,5.4-1.8c2.3,0,4.1,0.6,5.5,1.8c1.2,1,1.9,2.4,2.2,4l0.9-4.1l0.1-0.4c-0.4-0.3-0.7-0.6-1.1-1
				c-0.8-0.7-1.6-1.5-2.4-2.3c-0.6-0.5-1.1-1.1-1.7-1.6c-0.9-0.8-1.8-1.6-2.6-2.4c-1.3-1.2-2.5-2.4-3.8-3.6c-1-1-2-1.9-3-2.9
				c-0.5-0.5-1-1.1-1.6-1.6c-0.6-0.6-1.3-1.2-1.9-1.8c-1.4-1.3-2.8-2.7-4.3-4c-0.5-0.5-1.1-1-1.7-1.5c-0.3-0.3-0.3-0.5,0.1-0.7
				c1.1-0.8,2.3-1.7,3.4-2.5C5.1,9.3,6.6,8.3,8,7.2C8.8,6.6,9.6,6,10.5,5.4c0.7-0.5,1.4-1.1,2.2-1.6c1.4-1,2.7-2,4.1-3
				c0.2-0.2,0.5-0.3,0.7-0.5C17.8,0,18.3,0,18.8,0c10.5,0,21,0,31.4,0c10.5,0,20.9,0,31.4,0c0.8,0,1.4,0.2,2,0.6
				c1.3,1,2.8,2,4.1,2.9c1,0.7,2,1.5,3,2.3c0.7,0.5,1.4,1,2.1,1.5c0.5,0.4,1,0.8,1.5,1.1c1,0.7,1.9,1.4,2.9,2.1
				c1.1,0.8,2.2,1.6,3.3,2.4C101.1,13.1,101.1,13.3,100.8,13.6L100.8,13.6z M50,40.3c0.2,0.3,0.3,0.6,0.3,1c0,0.6-0.2,1.1-0.5,1.6
				c-0.3,0.5-0.8,0.8-1.4,1.1c-0.6,0.2-1.7,0.3-3.5,0.3h-1l1-4.7h2.4c1.1,0,1.8,0.1,2.1,0.2C49.6,39.8,49.8,40,50,40.3L50,40.3z"/>
		</g>
	</g>
</g>
</svg>
