<?xml version="1.0" encoding="utf-8"?>
<!-- Generator: Adobe Illustrator 24.0.1, SVG Export Plug-In . SVG Version: 6.00 Build 0)  -->
<svg version="1.1" id="Layer_1" xmlns="http://www.w3.org/2000/svg" xmlns:xlink="http://www.w3.org/1999/xlink" x="0px" y="0px"
	 viewBox="0 0 88 82" style="enable-background:new 0 0 88 82;" xml:space="preserve">
<style type="text/css">
	.st0{filter:url(#Adobe_OpacityMaskFilter);}
	.st1{fill-rule:evenodd;clip-rule:evenodd;fill:#FFFFFF;}
	.st2{mask:url(#mask-4_1_);fill-rule:evenodd;clip-rule:evenodd;fill:url(#Fill-1_1_);}
</style>
<title>Fill 1</title>
<desc>Created with Sketch.</desc>
<g id="Symbols">
	<g id="GameTab01" transform="translate(-725.000000, -157.000000)">
		<g id="Group-3" transform="translate(725.000000, 157.000000)">
			<g id="Clip-2">
			</g>
			<defs>
				<filter id="Adobe_OpacityMaskFilter" filterUnits="userSpaceOnUse" x="0.2" y="0" width="87" height="82">
					<feColorMatrix  type="matrix" values="1 0 0 0 0  0 1 0 0 0  0 0 1 0 0  0 0 0 1 0"/>
				</filter>
			</defs>
			<mask maskUnits="userSpaceOnUse" x="0.2" y="0" width="87" height="82" id="mask-4_1_">
				<g class="st0">
					<polygon id="path-3_1_" class="st1" points="0.2,0 87.2,0 87.2,82 0.2,82 					"/>
				</g>
			</mask>
			
				<linearGradient id="Fill-1_1_" gradientUnits="userSpaceOnUse" x1="-257.5" y1="433.6561" x2="-257.5" y2="432.6829" gradientTransform="matrix(87 0 0 -82 22446.1523 35562)">
				<stop  offset="0" style="stop-color:#FDF8A2"/>
				<stop  offset="0.451" style="stop-color:#F4D97A"/>
				<stop  offset="1" style="stop-color:#EEC462"/>
			</linearGradient>
			<path id="Fill-1" class="st2" d="M51.7,79.6c0,2.1,0,2.1,2.2,1.9v-12h-2.2V79.6z M42.9,69.5c-0.2,0-0.5,0.2-0.6,0.4
				c-0.7,1.9-1.4,3.8-2.1,5.7c-0.3,0.7-0.6,1.4-0.9,2.3c-0.2-0.3-0.3-0.4-0.4-0.6c-0.9-2.5-1.8-4.9-2.7-7.4
				c-0.1-0.2-0.3-0.5-0.4-0.5c-1,0-2,0-3,0v12.1h1.9v-9.2c0.1,0,0.1,0,0.2,0c0.1,0.2,0.3,0.4,0.4,0.7c0.9,2.6,1.9,5.3,2.9,8
				c0.1,0.4,0.2,0.7,0.8,0.7c0.6,0,1,0.1,1.3-0.7c0.9-2.6,1.9-5.3,2.9-7.9c0.1-0.3,0.3-0.5,0.5-0.9c0.1,0.4,0.2,0.6,0.2,0.9
				c0,2.6-0.1,5.3-0.1,7.9c0,0.2,0.3,0.5,0.5,0.6c0.5,0.1,1,0,1.5,0V69.5C44.7,69.5,43.7,69.4,42.9,69.5L42.9,69.5z M61.8,57.3
				c0.2,0.2,0.6,0.4,1,0.7c-2.3-7.5-4.6-14.7-7-22.3c-1.5,1.6-3,2.9-4.2,4.4c-1.4,1.8-2.1,3.8-0.7,6c0.6,0.9,1.1,1.8,1.8,2.5
				c1.2,1.3,2.6,2.5,3.9,3.8C58.5,54.1,60.2,55.7,61.8,57.3L61.8,57.3z M53.1,25.7c-0.1-0.5-0.2-1.1-0.3-1.7
				c-0.5-2.4-0.9-4.8-1.4-7.2c-0.1-0.3-0.3-0.6-0.6-1.1c-1.3,4.1-2.4,7.9-3.6,11.7C49.3,26.9,51.2,26.3,53.1,25.7L53.1,25.7z
				 M62.1,60.7c-0.9-0.6-1.7-1.3-2.4-2c-2.9-2.8-5.9-5.4-8.6-8.4c-2.8-3-3.7-6.7-1.7-10.3c1.2-2.1,3-3.6,5-4.9c0.8-0.5,1-1.1,0.7-2
				c-0.6-2-1.2-4.2-1.8-6.4c-1.6,0.7-3.2,1.4-4.8,2c-1.5,0.5-2.2,1.7-2.6,3.1c-0.6,2-1.5,3.8-3,5.2c-0.7,0.7-1.5,1.1-2.6,0.8
				c0.8-1.9,1.9-3.5,2.5-5.4c-0.1-0.1-0.2-0.2-0.3-0.2c-1.6,1.2-3.2,2.4-4.6,3.8c-1.6,1.5-3,3.3-4.6,4.8c-2.3,2.2-4.9,4.1-8.1,4.9
				c-1.4,0.4-2.9,0.6-4.2-0.3c-1-0.7-1.4-1.8-0.7-2.9c0.7-1,1.5-2.1,2.5-2.7c1.9-1.2,3.9-2.2,5.9-3.3c0.5-0.2,1.1-0.7,1.4-0.1
				c0.1,0.2-0.4,1.1-0.8,1.4c-0.9,0.7-1.9,1.4-2.9,2.1c-0.3,0.2-0.5,0.7-0.8,1.1c2.9,0.7,5-1.5,6.1-3.4c0.1-0.2,0-0.6-0.2-0.8
				c-0.6-0.8-0.3-1.5,0.4-2c1-0.8,1.3-1.6,0.5-2.6c-1.3-1.6-2.6-3.1-4.1-4.6c-2.4-2.4-5.2-4.3-6.7-7.5c-1.5-3.1-1.4-6,0.5-8.9
				c3.5-5.2,8.2-8.9,14.2-11C36.6,0.2,37,0.1,37.3,0c1.8-0.3,2.9,1.3,2.7,3.2c-0.3,2.6-2,4.2-3.8,5.7c-1.3,1.1-2.7,2.1-4.1,3.1
				c-0.4,0.3-0.9,0.6-1.4,0.9c-0.7-1-0.1-1.7,0.4-2.4c0.7-0.9,1.4-1.6,2.1-2.5c0.2-0.3,0.1-0.8,0.2-1.1c-0.4-0.1-0.9-0.2-1.3-0.1
				c-1.7,0.7-2.8,2.1-3.9,3.4c-0.9,1.1-1.8,2.1-1.8,3.6c-0.1,1.6,0.4,2.9,1.1,4.2c1,1.5,2.1,2.9,3.3,4.2c1.9,2.2,3.9,4.3,5.8,6.5
				c0.9,1.1,1.5,2.5,1.1,4.3c0.7-0.4,1.2-0.7,1.8-1.1c1.3-0.8,2.6-1.6,3.9-2.5c0.3-0.2,0.6-0.4,0.7-0.7c1.3-4,2.7-7.9,3.8-11.9
				c1-3.6,1.6-7.3,2.2-10.9c0.2-1.4,0-2.9,0.1-4.4c0-0.4,0.1-0.9,0.4-1.1c0.2-0.2,0.9-0.2,1.1,0c1,0.7,2.1,1.5,2.9,2.4
				c0.3,0.3,0.2,1.2,0.2,1.8c0,2.3,0,4.5,0,6.8c0,1.2,0.2,2.5,0.4,3.8c0.5,2.7,1,5.4,1.5,8.2c0.2,0.8,0.4,1.6,0.6,2.4
				c0.9,0.2,1.7,0.2,2.5,0.4v0.2c-0.5,0-1,0.1-1.4,0.1c-0.7,0-0.9,0.3-0.7,1c0.6,1.9,1.2,3.8,1.8,5.7c2.6-1.3,5.1-2.6,7.6-3.9
				c0,0.1,0.1,0.2,0.1,0.2C65,30.6,63,32,60.9,33.3c-0.9,0.6-1.1,1-0.7,2.1c1.4,3.9,2.6,7.8,3.9,11.7c1,3,2.2,6,3.2,9
				c0.7,2.1,0,4.2-2.1,5.2C64.1,61.7,63.1,61.4,62.1,60.7L62.1,60.7z M68.4,78.3c-0.3-0.3-0.4-0.3-0.5-0.5c-1.3-2.1-2.5-4.2-3.8-6.3
				c-1.6-2.5-0.8-2-3.5-2.1h-0.1c-0.5,0-0.6,0.2-0.6,0.7V81c0,0.4,0.1,0.7,0.6,0.6c0.2,0,0.5,0,0.7,0c0.7,0.1,0.9-0.2,0.9-0.9
				c0-2.5,0-5,0-7.4v-0.7c0.3,0.2,0.5,0.4,0.6,0.7c1.6,2.6,3.1,5.1,4.7,7.7c0.2,0.3,0.5,0.6,0.8,0.7c0.8,0.1,1.6,0,2.3,0V69.5h-2
				V78.3z M87.1,78c0-0.9,0-1.7,0-2.6c0-0.4-0.1-0.6-0.6-0.6c-1.2,0-2.3,0-3.5,0c-0.2,0-0.5,0.2-0.5,0.3c-0.3,1,0,1.4,1,1.4
				c0.3,0,0.6,0,0.9,0c0.5,0,0.7,0.1,0.7,0.6c0,0.6,0,1.3,0,1.9c0,0.2-0.2,0.6-0.4,0.7c-1.3,0.4-2.6,0.5-3.8-0.1
				c-1.9-0.8-2.6-2.4-2.5-4.4c0-1.7,0.9-3.1,2.4-3.9c1.4-0.7,2.9-0.7,4.1,0.2c0.9,0.6,1.3,0.4,1.7-0.3c0,0,0.1-0.1,0.1-0.1
				c0.5-0.5,0.5-0.7-0.2-1.1c-2-1.1-4.2-1.3-6.3-0.6c-1.8,0.6-3.2,1.8-3.8,3.7c-0.3,1.1-0.5,2.2-0.3,3.4c0.3,2,1.2,3.6,3,4.5
				c2.4,1.3,4.9,1,7.4,0.2c0.3-0.1,0.6-0.6,0.6-0.9C87.2,79.6,87.1,78.8,87.1,78L87.1,78z M66.7,26.7c0.5-0.1,1-0.4,1.5-0.7
				c-0.4-0.3-0.7-0.7-1.2-0.8c-1-0.3-2-1-3,0.2C64.5,26.5,65.3,26.9,66.7,26.7L66.7,26.7z M23.8,76.9c-0.6-1.6-1.2-3.1-1.8-4.6
				c-0.1,0-0.2,0.1-0.3,0.1c-0.5,1.3-1,2.7-1.5,4c0,0.1,0,0.3,0,0.5C21.4,76.9,22.6,76.9,23.8,76.9L23.8,76.9z M27.9,80.9
				c0.1,0.2,0.1,0.5,0.2,0.7c-2.2,0.1-2.2,0.1-3.1-1.8c-0.3-0.6-0.6-0.9-1.3-0.9c-1.2,0.1-2.4,0-3.5,0c-0.5,0-0.8,0.1-1,0.6
				c-0.1,0.3-0.2,0.6-0.4,0.9c-0.5,1.2-0.5,1.2-1.9,1.2h-1c0.2-0.7,0.4-1.2,0.7-1.8c1.4-3.3,2.8-6.5,4.2-9.7
				c0.3-0.8,0.9-0.6,1.6-0.6c0.5,0,0.8,0.2,1,0.7C24.8,73.7,26.3,77.3,27.9,80.9L27.9,80.9z M3.6,72.4c-1.2,1.4-1.5,4-0.3,5.7
				c1.1,1.7,3.3,2.5,5.9,1.4v-3.1c-0.6,0-1.2,0-1.8,0c-0.7,0-0.7-0.4-0.7-0.9c0-0.4,0-0.9,0.6-0.9c1.3,0,2.6,0,4,0v4.8
				c0,1.6,0,1.6-1.6,2.1c-1.8,0.5-3.7,0.5-5.5-0.1c-2-0.7-3.3-2.2-3.8-4.2C0,75.5,0.1,73.7,1,72.1c1.1-1.8,2.7-2.8,4.8-3
				c1.3-0.1,2.7-0.2,3.9,0.4c0.5,0.3,1,0.5,1.7,0.9c-0.6,0.6-1,1.2-1.6,1.8c-0.9-1-2.1-1.3-3.3-1.3C5.4,71,4.4,71.5,3.6,72.4
				L3.6,72.4z"/>
		</g>
	</g>
</g>
</svg>
