<?xml version="1.0" encoding="utf-8"?>
<!-- Generator: Adobe Illustrator 24.0.1, SVG Export Plug-In . SVG Version: 6.00 Build 0)  -->
<svg version="1.1" id="Layer_1" xmlns="http://www.w3.org/2000/svg" xmlns:xlink="http://www.w3.org/1999/xlink" x="0px" y="0px"
	 viewBox="0 0 98 60" style="enable-background:new 0 0 98 60;" xml:space="preserve">
<style type="text/css">
	.st0{filter:url(#Adobe_OpacityMaskFilter);}
	.st1{fill-rule:evenodd;clip-rule:evenodd;fill:#FFFFFF;}
	.st2{mask:url(#mask-4_1_);fill-rule:evenodd;clip-rule:evenodd;fill:url(#Fill-1_1_);}
</style>
<title>Fill 1</title>
<desc>Created with Sketch.</desc>
<g id="Symbols">
	<g id="GameTab01" transform="translate(-720.000000, -43.000000)">
		<g id="Group-3" transform="translate(720.000000, 43.000000)">
			<g id="Clip-2">
			</g>
			<defs>
				<filter id="Adobe_OpacityMaskFilter" filterUnits="userSpaceOnUse" x="0" y="0" width="98" height="60">
					<feColorMatrix  type="matrix" values="1 0 0 0 0  0 1 0 0 0  0 0 1 0 0  0 0 0 1 0"/>
				</filter>
			</defs>
			<mask maskUnits="userSpaceOnUse" x="0" y="0" width="98" height="60" id="mask-4_1_">
				<g class="st0">
					<polygon id="path-3_1_" class="st1" points="0,0 98,0 98,60 0,60 					"/>
				</g>
			</mask>
			
				<linearGradient id="Fill-1_1_" gradientUnits="userSpaceOnUse" x1="-252.8878" y1="420.8899" x2="-252.8878" y2="419.9167" gradientTransform="matrix(98 0 0 -60 24832 25255)">
				<stop  offset="0" style="stop-color:#FDF8A2"/>
				<stop  offset="0.451" style="stop-color:#F4D97A"/>
				<stop  offset="1" style="stop-color:#EEC462"/>
			</linearGradient>
			<path id="Fill-1" class="st2" d="M76.5,59.6h2.2c-1.4-1.1-0.6-2.6-0.7-3.9c-0.1-1.4,0-2.8,0-4.2h-1.5C77,52.7,77,58,76.5,59.6
				L76.5,59.6z M22.8,59.7c1,0,1.2-0.5,1.2-1.5c-0.5,1.2-1.4,0.8-2.1,0.9c-0.6,0.1-0.9-0.2-0.9-0.8c0-0.9,0-1.8,0-2.9
				c0.9,0.2,1.7,0.3,2.5,0.5c0-0.2,0.1-0.6,0.3-1.1c-0.4,0.1-0.6,0.2-0.7,0.2c-1.9,0.3-2,0.2-2-1.8c0-1.4,0.6-1.5,2-1.1
				c0.2,0.1,0.4,0.3,0.7,0.5c0.1-0.4,0.1-0.7,0.2-1.1h-3.8c0,2.7,0.1,5.4-0.1,8.1C20.6,59.7,21.7,59.7,22.8,59.7L22.8,59.7z
				 M57.9,56.1h2.3c-0.4-1-0.8-1.9-1.3-3.1C58.5,54.2,58.2,55.2,57.9,56.1L57.9,56.1z M57.2,59.6h-1.5c0.5-1.1,1.1-2.3,1.6-3.5
				c0.6-1.6,1.2-3.2,1.9-5c1.6,2.8,2.1,6,4,8.5c-0.3,0-0.7,0.1-1.1,0c-0.3-0.1-0.6-0.4-0.7-0.6c-0.2-0.4-0.3-1-0.5-1.4
				c-0.2-0.4-0.4-1-0.7-1c-0.7-0.1-1.5-0.1-2.2,0C57.3,56.7,56.9,58.9,57.2,59.6L57.2,59.6z M29.8,56.1c-0.4-1-0.7-1.9-1.2-2.9
				c-0.4,1.1-0.7,2-1,2.9H29.8z M32.8,59.7c-0.9,0.1-1.8,0.3-2-1.1c-0.1-0.7-0.5-1.3-0.8-2.2c-0.9,0.2-2.1,0.1-2.6,0.6
				c-0.6,0.5-0.5,1.7-0.7,2.5c0.1,0,0.2,0.1,0.3,0.1h-1.8c1.7-2.3,2.3-5.1,3.4-7.8c0.1-0.2,0.1-0.3,0.3-0.6
				C30.5,53.9,30.6,57.2,32.8,59.7L32.8,59.7z M94.3,51.4c-2.9,0.1-4.5,3-3.6,5.8c0.7,2.2,4.5,3.4,6.6,2.3c0.2-0.1,0.4-0.5,0.4-0.8
				c0.1-1,0.2-2.1,0.2-3h-1.5c0.1,0.7,0.3,1.4,0.4,2.1c0.1,1.2-0.6,1.8-1.8,1.6c-0.3,0-0.5-0.1-0.8-0.2c-1.3-0.4-2.3-1.2-2.5-2.6
				c-0.3-1.3-0.4-2.7,0.7-3.8c0.9-0.9,2-0.6,3-0.7c1.1-0.1,1.8,0.4,2.3,1.4v-1.7C96.7,51.5,95.5,51.3,94.3,51.4L94.3,51.4z
				 M12.6,52.1c0,0.9,0,1.7,0,2.5c0,0.4-0.2,1.1,0.6,1.1c0.7,0,1.5,0.2,1.9-0.7C15.7,53.3,14.7,51.4,12.6,52.1L12.6,52.1z
				 M18.5,59.6c-1.2,0.2-2-0.2-2.6-1.1c-0.4-0.5-0.9-0.9-1.2-1.4c-0.5-0.9-1.1-1.1-2.2-0.9c0.2,1.1-0.5,2.4,0.6,3.4h-2.1
				c0.6-1.3,0.5-7.3-0.3-8.2c1.6,0.1,2.9,0.1,4.2,0.3c1,0.1,1.6,1.5,1.1,2.5c-0.3,0.6-1.3,1.1-0.8,2c0.4,0.6,0.9,1.2,1.4,1.8
				C17.3,58.6,17.9,59.1,18.5,59.6L18.5,59.6z M52.6,50.2c-1.3,0-2.7-0.2-4,0.1c-2.7,0.7-3.9,3.4-3,6.3c0.8,2.5,3.8,3.7,6.1,3.2
				c2.4-0.5,1.9-0.5,1.9-2.5c0-0.8,0.2-1.6,0.3-2.4c-0.1,0-0.6,0-1,0c-0.4,0-0.9-0.1-1.3-0.1c0.7,0.5,1.1,0.9,1,1.7
				c-0.1,0.7-0.1,1.4-0.2,2.2c0,0.1-0.3,0.4-0.5,0.4c-1.1-0.1-2.3,0-3.3-0.5c-1.7-0.7-2.3-2.3-2.3-4c0-1.1,0.2-2.2,1.1-3
				c1.1-1.2,2.5-1,3.9-1c1,0.1,1.8,0.6,2.2,1.6v-1.7C53.2,50.3,52.9,50.2,52.6,50.2L52.6,50.2z M65.7,51.2c-0.7,3-0.3,5.8-1.4,8.4
				h1.4c-0.7-1.9,0.1-3.7,0.3-5.6c0.9,1.8,1.8,3.6,2.9,5.8c1.1-2.1,2-4,2.9-5.9c0.4,1.6,0.5,3.2,0.6,4.8c0,0.3,0.3,0.8,0.5,0.9
				c0.4,0.2,0.9,0,1.3,0c-1.8-2.6-0.9-5.6-1.8-8.3c-1.1,2.2-2.1,4.4-3.3,6.8C67.9,55.7,66.9,53.5,65.7,51.2L65.7,51.2z M81.1,51.9
				c0.2-0.1,0.1,0.2,0.1,0.5c0,1.8,0,3.7,0,5.5c0,0.6-0.2,1.2-0.4,1.7h1.5c-0.5-1.9-0.1-3.9,0-6c2,2.1,3.9,4.1,6,6.3
				c0.1-0.4,0.2-0.8,0.2-1.1c0-2,0-4,0-6c0-0.4,0.1-0.9,0.2-1.3h-1.4c0.8,2,0.1,4.1,0.3,5.6C85.6,55.5,83.3,53.7,81.1,51.9
				L81.1,51.9z M43,57.3c-0.3-1.9-0.5-3.8-0.7-5.7c-0.1,0-0.1-0.1-0.2-0.1c-1,2.1-2.1,4.2-3.2,6.5c-1.2-2.3-2.2-4.4-3.3-6.5
				c-0.3,0.3-0.5,0.6-0.5,0.9c-0.2,1.7-0.2,3.4-0.4,5c-0.1,0.7-0.4,1.4-0.6,2.1h1.7c-0.7-0.6-0.7-3.4-0.1-5.6
				c0.9,1.9,1.9,3.7,2.8,5.6c0.1,0,0.2-0.1,0.3-0.1c0.9-1.9,1.8-3.8,2.8-5.8c0.2,1.7,0.4,3.2,0.5,4.7c0.1,1.4,0.1,1.4,1.4,1.2
				C43.4,58.8,43.1,58.1,43,57.3L43,57.3z M1.5,54.9c0,1.2,0,2.4,0,3.5c0,0.3,0.3,0.8,0.4,0.8c1.3,0,2.6,0.1,3.7-0.4
				c2.4-1,2.5-4.1,1.6-5.9c-1.1-2.1-3-2.3-5-2.5c-0.6,0-0.7,0.3-0.7,0.9C1.5,52.5,1.5,53.7,1.5,54.9L1.5,54.9z M0,50
				c1.5,0.1,3.2,0.1,4.9,0.3c3.7,0.4,5.1,4.1,3.2,7.2c-1,1.6-2.6,2.3-4.5,2.2c-1.2,0-2.4,0-3.5,0c0.1-0.6,0.3-1.2,0.4-1.8
				c0-2.1,0-4.2,0-6.3C0.4,51.1,0.2,50.7,0,50L0,50z M14.2,41.6c1.8,1.7,4,1,6.1,1.3v-3.6c-2.9-0.1-5.9,0.4-8.6-1.5
				C12.1,39.4,13.1,40.5,14.2,41.6L14.2,41.6z M77.8,39.2v3.7c1.8-0.6,3.7,0.4,5.4-0.9c1.5-1.1,2.7-2.3,3.2-4.3
				C83.7,39.6,80.7,39.2,77.8,39.2L77.8,39.2z M11.2,36c2.8,1.8,6,1.4,9,1.3v-3.8c-4-0.4-7.9,0.7-11.8-1.2
				C8.7,34.1,9.9,35.2,11.2,36L11.2,36z M77.8,33.5v3.9c3-0.1,6.1,0.5,8.8-1.2c1.4-0.9,2.7-1.8,3.1-3.8C85.7,34.2,81.6,33,77.8,33.5
				L77.8,33.5z M85.5,27.7c-4.1,0-8.1,0-12.2,0c-0.2,0-0.5,0-0.7,0c-0.6,0-0.7,0.1-0.6,0.8c0.2,1,0,2,0,3.1c0,0,0.1,0,0.3,0
				c4,0.1,8,0.1,11.9,0.2c2.3,0.1,4.3-0.7,6.2-1.8c1.3-0.8,2.1-2,2.4-3.5C90.5,27.8,88,27.8,85.5,27.7L85.5,27.7z M24.9,27.7
				c-4.8,0-9.6,0-14.4,0c-1.7,0-3.3-0.3-4.8-1.1c-0.1-0.1-0.3-0.1-0.4,0c-0.1,0.1-0.1,0.3,0,0.4c0.7,0.9,1.3,2.1,2.1,2.8
				c2,1.5,4.3,2.2,6.8,2.1c1.6-0.1,3.1-0.2,4.7-0.2c2.1,0,4.2,0,6.4,0c0.3,0,0.6,0,0.9-0.1v-3.9H24.9z M48.9,23.4
				c-1.5,0.3-3,0.6-4.6,0.8c-1.2,0.2-2,0.6-2.1,1.4c-0.2,1.1,0.3,1.8,1.4,2.3c-2,0.2-3.8,0-5.3-1.6c-0.2-0.2-0.6-0.1-0.9-0.2
				c-0.1-1.5-0.1-3,1.1-4.3c0.4,0.6,0.8,1.5,1.5,0.5c0.6-1,1.1-2.1,1.7-3.2c-0.4-0.1-0.7-0.2-1.2-0.3c0.4-0.2,0.7-0.4,1-0.5
				c1.3-0.7,1.4-1.2,1.2-2.6c-0.2-1,0-2.1,0.8-2.9c2.3-2.3,5.2-2.2,8.4-2.2c-1.7,0.3-3.1,0.5-4.5,0.8c-1.4,0.3-2.5,1.6-2.5,2.7
				c0.4-0.3,0.8-0.7,1.3-1c0.2,0.3,0.3,0.5,0.5,0.6c0.4-0.3,0.7-0.6,1-0.9c0.1,0.4,0.2,0.6,0.4,1.2c0.3-1.6,1.2-2.3,2.4-2.6
				c0.9-0.2,1.8-0.3,2.7-0.2c1.6,0.2,3.2,0.6,4.9,0.9c1.4,0.3,2.7,1.1,4.2-0.1c-0.1,0.4-0.4,0.8-0.7,1c-0.9,0.7-2,0.4-2.9,0.1
				c-2-0.6-4.1-0.9-6.2-0.8c-1.1,0.1-2.2,0.5-2.7,1.7c4.6-0.9,8.5,1.4,10,4c-0.5-0.1-0.9-0.1-1.4-0.2c0.9,2.1,2.9,2.5,4.8,3.5h-3.4
				c0.5,1.5,0.8,2.9,0.5,4.4c-1,4-3.6,6.4-7.2,7.8C52,34,51.1,34.3,50,34.7c1.2,0.4,2.2,0.7,3.2,1c0,0.1-0.1,0.2-0.1,0.3
				c-4.4-0.7-9,1.3-10.1,3.1c1.2,0.6,2.3,1.3,3.5,1.8c0.9,0.4,2,0.7,2.9,0.5c3.9-0.9,7-3.1,9.4-6.2c3.4-4.4,5.1-9.5,6-14.9
				c0.5-2.6,0.7-5.3,1.1-7.9c0.2-1.8,0.1-1.8-1.6-1.8c-2.7,0-5.2-0.7-7.7-1.7c-2.5-1-4.8-2.4-6.9-4c-0.2-0.2-0.8-0.2-1,0
				c-2.6,2.2-5.6,3.6-8.8,4.5c-2.1,0.6-4.3,1-6.5,1.3c-0.7,0.1-1.1,0.3-1,1c0.2,2.5,0.2,5,0.7,7.4c0.5,2.8,1.2,5.6,2.1,8.4
				c0.6,1.8,1.6,3.5,2.5,5.3c0.1,0.2,0.4,0.4,0.5,0.4c1.2-0.5,2.3-1,3.4-1.4c1.1-0.4,2.2-0.8,3.3-1.3c1.5-0.6,3-1.2,4.6-1.7
				c3.5-1,4.9-2.8,4.8-6.2c0-1.5-2.2-3.3-3.7-3c-0.3,0.1-0.6,0.3-1,0.5c0.2,0.3,0.4,0.5,0.5,0.8C48.5,21.7,48.3,22.1,48.9,23.4
				L48.9,23.4z M35.8,36.1c-0.3,0.7-0.5,1.2-0.7,1.7c-0.9,2.3-2.7,3.7-4.9,4.6c-2,0.8-4.2,0.7-6.4,0.6c-0.5,0-1.1-0.1-1.6-0.1v-9.3
				h3.9v5.4c2.4,0.7,4.9-0.5,5.9-3.2c0.9-2.3,0.8-4.4-0.1-6.6c-0.6-1.4-2.6-3-4.6-3.1c-6.1,0-12.2,0.1-18.3-0.1
				c-2.8-0.1-6.3-2.2-7.3-5.3C2.9,21,4,21.3,5.2,21.5c0.9,0.2,1.9,0.3,2.8,0.4c5.7,0.1,11.3,0.1,17,0.2c1.6,0,3.3,0.2,5,0.3
				c0-0.1,0.1-0.4,0.1-0.6c-0.9-3.5-1.1-7-1-10.6c0-1,0.1-2.1,0.2-3.1c0-0.7,0.4-0.9,1-0.9c2.1-0.1,4.2-0.1,6.3-0.4
				c3.6-0.6,7-1.8,9.9-4c1-0.8,1.9-1.8,2.8-2.7c1.8,2.8,4.7,4.6,8,5.7c2.9,1,5.9,1.7,9,1.6c0.9,0,1.8,0.2,2.8,0.3
				c0.1,5-0.2,10.1-1,15c0.7-0.1,1.3-0.2,1.8-0.2c5-0.1,9.9,0,14.9-0.3c3.2-0.2,6.4,0.2,9.5-0.8c0.6-0.2,1.2-0.4,1.9-0.6
				c-0.4,1.9-1.7,3.1-3.2,4c-1.7,1-3.5,1.5-5.5,1.5C82.2,26,76.8,26.1,71.4,26c-2.5-0.1-5.3,1.9-5.8,4.5c-0.4,2.1-0.3,4,0.7,5.9
				c1,1.7,3.3,3,5.2,2.8c0.2,0,0.5-0.4,0.5-0.6c0-1.7,0-3.3,0-5.1h3.9v9.4c-0.7,0-1.3,0.1-1.9,0.1c-3.6,0.2-7.1-0.1-9.7-3
				c-0.7-0.8-1.1-1.8-1.6-2.7c-0.2-0.3-0.3-0.6-0.6-1c-1.1,1.2-1.9,2.3-3,3.3c-1.9,1.9-4.1,3.4-6.7,4.2c-1,0.3-2,0.8-3.1,0.9
				c-0.8,0.1-1.8-0.1-2.6-0.4c-3.6-1.2-6.7-3.1-9.1-6C37,37.6,36.5,36.9,35.8,36.1L35.8,36.1z"/>
		</g>
	</g>
</g>
</svg>
