<?xml version="1.0" encoding="utf-8"?>
<!-- Generator: Adobe Illustrator 24.0.1, SVG Export Plug-In . SVG Version: 6.00 Build 0)  -->
<svg version="1.1" id="Layer_1" xmlns="http://www.w3.org/2000/svg" xmlns:xlink="http://www.w3.org/1999/xlink" x="0px" y="0px"
	 viewBox="0 0 99 66" style="enable-background:new 0 0 99 66;" xml:space="preserve">
<style type="text/css">
	.st0{filter:url(#Adobe_OpacityMaskFilter);}
	.st1{fill-rule:evenodd;clip-rule:evenodd;fill:#FFFFFF;}
	.st2{mask:url(#mask-2_1_);fill-rule:evenodd;clip-rule:evenodd;fill:url(#Fill-1_1_);}
</style>
<title>Fill 1</title>
<desc>Created with Sketch.</desc>
<g id="Symbols">
	<g id="GameTab03" transform="translate(-850.000000, -41.000000)">
		<g id="Group-3" transform="translate(850.000000, 41.000000)">
			<g id="Clip-2">
			</g>
			<defs>
				<filter id="Adobe_OpacityMaskFilter" filterUnits="userSpaceOnUse" x="0" y="0" width="99" height="66">
					<feColorMatrix  type="matrix" values="1 0 0 0 0  0 1 0 0 0  0 0 1 0 0  0 0 0 1 0"/>
				</filter>
			</defs>
			<mask maskUnits="userSpaceOnUse" x="0" y="0" width="99" height="66" id="mask-2_1_">
				<g class="st0">
					<polygon id="path-1_1_" class="st1" points="0,0 99,0 99,66 0,66 					"/>
				</g>
			</mask>
			
				<linearGradient id="Fill-1_1_" gradientUnits="userSpaceOnUse" x1="-252.9141" y1="424.4883" x2="-252.9141" y2="423.5151" gradientTransform="matrix(99 0 0 -66 25088 28018)">
				<stop  offset="0" style="stop-color:#FDF8A2"/>
				<stop  offset="0.451" style="stop-color:#F4D97A"/>
				<stop  offset="1" style="stop-color:#EEC462"/>
			</linearGradient>
			<path id="Fill-1" class="st2" d="M73.6,49.9c0.9,0,1.9-0.1,2.8-0.1c0.1,0,0.3-0.2,0.4-0.4c0.1-1.4-0.2-2.8-0.6-4.2
				c0-0.1-0.3-0.3-0.5-0.3c-0.9,0-1.8,0.1-2.7,0.2C73.2,46.7,73.4,48.3,73.6,49.9L73.6,49.9z M72.4,49.8c-0.5-1.4-1-2.8-1.5-4.2
				c-0.1-0.1-0.3-0.3-0.5-0.3c-0.8,0.2-1.6,0.4-2.4,0.7c-0.1,0-0.2,0.3-0.2,0.5c0.4,1.4,0.9,2.9,1.3,4.3c0,0.1,0.2,0.2,0.3,0.2
				c0.9-0.2,1.7-0.4,2.6-0.7c0.2,0,0.3-0.2,0.4-0.3C72.4,49.9,72.4,49.8,72.4,49.8L72.4,49.8z M79.4,45.1c-0.6,1.5-1.3,2.9-1.9,4.3
				c-0.2,0.4-0.2,0.5,0.2,0.7c0.7,0.3,1.4,0.6,2.1,1c0.4,0.2,0.7,0.2,0.9-0.3c0.6-1.6,1.2-3.3,1.8-4.9c0-0.1-0.1-0.4-0.3-0.5
				c-0.8-0.3-1.6-0.6-2.5-0.9C79.5,44.8,79.4,44.9,79.4,45.1L79.4,45.1z M9.4,42.9c1.6,1.2,3.1,2.5,4.7,3.7c0.3,0.3,0.6,0.3,0.9,0
				c0.7-0.7,1.5-1.4,2.2-2.1c0.2-0.1,0.3-0.3,0.4-0.6c-0.2-0.1-0.3-0.3-0.4-0.4c-1.7-1.1-3.4-2.2-5.1-3.3c-0.7-0.4-1.4-0.8-2.1,0
				c-0.2,0.2-0.5,0.4-0.8,0.6c-0.4,0.3-0.8,0.6-1.3,1C8.5,42.3,8.9,42.6,9.4,42.9L9.4,42.9z M84.7,48.7c0.3,0.4,0.4,0.4,0.8,0.2
				c1.2-0.9,2.5-1.7,3.6-2.7c1.3-1.1,2.4-2.3,3.6-3.4c-0.2-0.3-0.3-0.5-0.5-0.6c-0.4-0.4-0.7-0.7-1.1-1.1c-0.6-0.8-0.6-0.8-1.3-0.1
				c-1.4,1.4-3,2.6-4.7,3.6c-0.8,0.5-1.6,1-2.5,1.5C83.4,46.9,84.1,47.8,84.7,48.7L84.7,48.7z M80.9,62.3c0.9,1.1,1.7,2.2,2.5,3.3
				c3.9-2,7.2-4.6,9.8-8.1c-0.8-0.8-1.6-1.7-2.4-2.5C87.9,58.1,84.6,60.5,80.9,62.3L80.9,62.3z M26.3,63.3c0.1-0.1,0.1-0.4,0.1-0.5
				c-0.5-0.8-1-1.6-1.5-2.4c-1.5-2.3-3.1-4.5-5-6.5c-0.3-0.4-0.6-0.4-0.9-0.2c-0.7,0.3-1.4,0.6-2.1,1c-0.9,0.4-0.9,0.4-0.2,1.2
				c0.1,0.1,0.2,0.2,0.3,0.4c1.9,2.4,3.6,4.9,5,7.6c0.3,0.6,0.6,1.1,1,1.7C24,64.7,25.2,64,26.3,63.3L26.3,63.3z M81.6,40.2
				c-0.1-0.3-0.3-0.5-0.7-0.4c-2.7,0.7-5.4,1-8.1,1.3c-1.7,0.2-3.5,0.2-5.2,0.2c-0.2,0-0.3,0-0.4,0c-0.1,0-0.2,0.2-0.2,0.3
				c0.2,0.9,0.5,1.8,0.8,2.7c0.1,0.3,0.3,0.5,0.7,0.5c0.4-0.1,0.9-0.1,1.3-0.1c1.6-0.1,3.1-0.2,4.7-0.5c2.1-0.3,4.2-0.7,6.3-1
				c0.7-0.1,1.4-0.4,2.1-0.5C82.3,41.8,81.9,41,81.6,40.2L81.6,40.2z M4.2,65.4c0.1,0.1,0.5,0,0.6-0.1c0.6-0.7,1.3-1.3,1.8-2
				c0.8-1,1.6-2,2.2-3.1c1-1.5,1.8-3.1,2.7-4.7c0.1-0.1,0-0.5-0.2-0.5c-1-0.5-2-0.9-3-1.4c-0.4-0.2-0.5,0-0.6,0.3
				c-0.3,0.7-0.6,1.3-1,1.9c-1.1,1.7-2.3,3.4-3.5,5c-0.6,0.8-1.4,1.5-2.1,2.2C2.2,63.8,3.2,64.6,4.2,65.4L4.2,65.4z M2.8,51.7
				c7.5,0,15,0,22.5,0c0.4,0,0.5-0.2,0.5-0.5c0-0.9,0-1.7,0-2.6c0-0.5-0.1-0.6-0.6-0.6C22.7,48,20.3,48,17.8,48
				c-1.7,0-3.4-0.1-5.2-0.1c-3.4,0-6.9,0-10.3,0c-0.3,0-0.4,0.1-0.4,0.4c0,1,0,2.1,0,3.2C2.3,51.6,2.5,51.7,2.8,51.7L2.8,51.7z
				 M42.8,47.1c1.2-1.1,2.4-2.3,3.5-3.5c0.5-0.5,0.4-0.5,0.8-0.1c1.4,1.5,2.9,3,4.6,4.3c0.1,0.1,0.3,0.1,0.4,0.2
				c0.1,0.1,0.2,0.2,0.4,0.4H41.3c0,0,0-0.1,0-0.1C41.8,47.8,42.4,47.5,42.8,47.1L42.8,47.1z M58.2,51.2c0.5-1.1,1.1-2.2,1.6-3.2
				c0.1-0.3,0-0.4-0.3-0.6c-1.5-0.6-3-1.2-4.4-1.9c-2.6-1.3-4.7-3.2-6.5-5.4c-0.2-0.3-0.5-0.5-0.9-0.4c-0.7,0-1.3,0-2,0
				c-0.4,0-0.7,0.1-1,0.5c-0.2,0.4-0.6,0.7-0.9,1.1c-1,0.9-2,1.9-3.1,2.8c-1.5,1.2-3.2,2.2-5,2.9c-0.7,0.3-1.4,0.6-2.1,0.8
				c0.6,1.1,1.1,2.2,1.6,3.3c0.3,0.6,0.4,0.7,1,0.3c0.8-0.5,1.6-0.9,2.5-1.4c0.1-0.1,0.2-0.1,0.4-0.2c0,0.4,0,0.8,0,1.1
				c0,0.8,0,0.8,0.8,0.8H48c2,0,3.9,0,5.9,0c0.3,0,0.5,0,0.5-0.4c-0.1-0.6,0-1.1,0.1-1.8c1.2,0.7,2.4,1.3,3.6,2
				C58.1,51.4,58.2,51.3,58.2,51.2L58.2,51.2z M52.2,57.3c0.5,0,0.7,0.2,0.7,0.7c0,0.9-0.1,1.8-0.1,2.8c0,0.4-0.3,0.4-0.6,0.4
				c-1.7,0-3.4,0-5.1,0c-0.9,0-1.8,0-2.7,0c-0.9,0-1.8,0.1-2.8,0.1c-0.7,0-0.8-0.1-0.8-0.8c0-0.8,0-1.7,0-2.5c0-0.5,0.2-0.7,0.7-0.7
				c1.8,0,3.6,0,5.4,0C48.7,57.4,50.4,57.4,52.2,57.3L52.2,57.3z M44.7,54.2c-2.4,0-4.7,0-7.1,0c-0.4,0-0.7,0.1-0.7,0.5
				c0,1.8,0.1,3.7,0.1,5.5c0,1.7,0,3.5,0,5.2c0,0.4,0.1,0.6,0.5,0.6c0.8,0,1.6,0,2.4,0c0.9,0,1,0,0.9-0.9c0-0.6,0.2-0.7,0.7-0.7
				c3.5,0,6.9,0,10.4,0c0.8,0,0.8,0,0.9,0.8c0,0.1,0,0.2,0,0.2C52.8,65.9,53,66,53.4,66c0.8,0,1.7,0,2.5,0c0.5,0,0.7-0.1,0.7-0.7
				c-0.1-2.5-0.1-5.1-0.1-7.6c0-1,0.1-2,0.1-2.9c0-0.5-0.1-0.6-0.6-0.6c-3.1,0-6.1,0-9.2,0H44.7z M81.3,52.7c-1.2,0-2.4,0-3.6,0
				c-1.1,0-1.1-0.1-1.1-1.1c0-0.2,0-0.3,0-0.4c-0.1-0.2-0.2-0.4-0.4-0.4c-0.4-0.1-0.8,0-1.2,0c-1.5,0-1.5,0-1.5,1.4
				c0,0.4-0.1,0.5-0.5,0.5c-0.8,0-1.7,0-2.5,0c-1,0-1.9-0.1-2.9-0.1c-0.3,0-0.5,0.1-0.5,0.4c0,0.7,0.1,1.4,0.1,2.1
				c0,0.4,0.1,0.6,0.6,0.6c1.5,0,2.9,0,4.4,0c0.2,0,0.3,0,0.7,0c-0.5,0.6-0.8,1.1-1.2,1.5c-1.3,1.1-2.6,2.2-3.9,3.2
				c-0.3,0.2-0.8,0.3-0.8,0.6c-0.1,0.3,0.3,0.6,0.4,0.9c0.4,0.8,0.7,1.6,1.1,2.4c2.2-1.3,3.8-3,5-5.1c0,0,0.1,0.1,0.1,0.1V66
				c0.8,0,1.6,0,2.4,0c0.8,0,0.8,0,0.8-0.8c0-2,0-4,0-6.2c1.4,1.1,2.6,2,3.7,3.3c0.7-0.9,1.3-1.7,1.8-2.5c0.1-0.1,0-0.4-0.2-0.5
				c-0.6-0.5-1.2-1-1.8-1.4c-0.7-0.5-1.4-0.9-2.1-1.4c-0.5,0.5-1,1-1.5,1.5c0-0.7,0-1.2,0-1.8c0-0.4,0.1-0.6,0.6-0.6
				c1.3,0,2.7,0,4,0c0.4,0,0.6-0.1,0.5-0.5c0-0.5,0-1,0.1-1.6c0.2,0.2,0.4,0.4,0.5,0.6c0.5,0.7,0.9,1.4,1.4,2.1
				c0.3,0.4,0.5,0.4,0.9,0.2c1.9-1,3.8-2,5.4-3.5c1-0.9,2.1-1.9,3.2-2.9c-0.7-0.8-1.4-1.5-2-2.2c-0.3-0.4-0.6-0.3-0.9,0
				c-0.9,0.8-1.7,1.7-2.7,2.4c-1.5,1-3.1,1.8-4.7,2.7c-0.3,0.2-0.6,0.3-1.1,0.4C82,52.7,81.7,52.7,81.3,52.7L81.3,52.7z M77.3,34.2
				c0-1.2,0-2.5,0-3.7c0-0.5-0.1-0.6-0.6-0.6c-2,0-4.1,0-6.1,0c-0.8,0-0.8,0-0.8-0.8c0-3.4,0-6.9,0-10.3c0-0.6,0.2-0.8,0.8-0.8
				c1.7,0,3.5,0,5.2,0h0.7c0-1.2,0-2.4,0-3.5c0-0.5-0.1-0.6-0.6-0.6c-1.8,0-3.6,0-5.4,0c-0.5,0-0.7-0.2-0.7-0.7c0-2.6,0-5.2,0-7.8
				c0-0.5,0.2-0.6,0.6-0.6c2.1,0,4.2,0,6.3,0c0.5,0,0.7-0.2,0.6-0.6c0-1,0-2.1,0-3.1c0-0.6-0.2-0.7-0.7-0.7c-4.6,0-9.2,0-13.8,0
				h-0.6v33.8H77.3z M52.1,15.1c0,1.4-1.3,2.1-2.4,2c-0.4,0-0.3-0.3-0.3-0.6c0-2.8,0-5.7,0-8.5c0-0.8,0-1.7,0-2.5
				c0-0.5,0.2-0.6,0.6-0.6c1.3,0,2.2,0.8,2.2,2.1c0,1.3,0,2.6,0,4C52.1,12.4,52,13.8,52.1,15.1L52.1,15.1z M42,34.1h7.4v-2.4
				c0-3.1,0-6.2,0-9.3c0-0.5,0.1-0.6,0.6-0.6c0.5,0,1,0,1.6-0.1c1.5,0,3-0.1,4.5-0.5c2-0.5,3.2-1.8,3.5-3.8c0.2-1.4,0.2-2.8,0.2-4.2
				c0-1.9,0-3.7,0-5.6c0-1,0-2.1-0.2-3.1c-0.3-1.8-1.4-2.9-3.1-3.4c-2.1-0.7-4.2-0.8-6.4-0.8c-2.6,0-5.3,0-7.9,0V34.1z M17.1,5.1
				c-0.1-1.6-0.9-2.9-2.3-3.7C13.2,0.5,11.5,0.1,9.7,0C8-0.1,6.4,0.2,4.9,0.6C3.3,1,1.9,1.8,1,3.2C0.3,4.2,0.1,5.4,0,6.5
				C0,7.9,0,9.3,0,10.7c0,0.1,0,0.3,0.1,0.4c0.2,1.3,0.8,2.4,1.7,3.4c1.3,1.4,2.7,2.8,4,4.1C6.9,19.7,8,20.8,9,21.9
				c0.6,0.7,1.1,1.5,1.1,2.4c0.1,1.4,0,2.8,0,4.2c0,0.7-0.4,1.2-1.1,1.3c-0.7,0.2-1.4-0.1-1.8-0.7c-0.4-0.6-0.2-1.2-0.1-1.8
				c0-2,0-4,0-6c0-0.4-0.1-0.6-0.6-0.6c-2,0-4,0-6,0c-0.5,0-0.6,0.2-0.6,0.6c0.1,2.8,0.1,5.6,0.2,8.4c0.1,1.4,0.8,2.5,1.9,3.3
				c1.5,1.1,3.3,1.4,5.1,1.6c1.9,0.2,3.8,0.1,5.7-0.4c1.2-0.3,2.4-0.8,3.3-1.7c1-1,1.6-2.3,1.6-3.8c0-0.8,0-1.6,0-2.4
				c0.1-1.6,0.2-3.2-0.3-4.7c-0.4-1.6-1.6-2.7-2.6-3.8c-1.1-1.2-2.4-2.3-3.6-3.5c-0.1-0.1-0.2-0.1-0.3-0.2C10,13,9,12,8.2,10.7
				c-0.8-1.4-0.7-3-0.7-4.5c0-0.4,0.3-0.9,0.6-1.2C8.8,4.4,10,4.8,10,5.6c0.1,1.5,0.1,3,0.1,4.5c0,0.6,0,1.2,0,1.8h6.9
				C17.1,9.6,17.2,7.3,17.1,5.1L17.1,5.1z M90.1,5.9c0.1,0.2,0.1,0.4,0.1,0.6c0,1.8,0,3.6,0,5.4c0,1.3-0.7,1.7-1.7,1.8
				c-0.7,0.1-0.7,0.1-0.7-0.7V5.5V4.8C88.9,4.7,89.8,5.2,90.1,5.9L90.1,5.9z M80.4,34.2c2.2,0,4.4,0,6.7,0c0.8,0,0.8,0,0.8-0.8
				c0-3,0-6.1,0-9.1c0-1.9,0-3.9,0-5.8c0-0.2,0.1-0.4,0.2-0.5c1-0.3,2.2,0.7,2.1,1.7c0,1.8-0.1,3.7-0.1,5.5c0,1.3,0.1,2.5,0.1,3.8
				c0,1.4,0.3,2.8,0.6,4.1c0.2,0.9,0.5,1.1,1.4,1.1h6.2H99c-0.2-0.4-0.4-0.7-0.5-1c-0.7-1.8-0.7-3.7-0.8-5.6c-0.1-2.4,0-4.8,0-7.2
				c0-1.4-0.7-2.6-1.9-3.4c-0.8-0.5-1.6-0.8-2.5-1.3c0.3-0.1,0.6-0.2,0.9-0.4c2.4-1,3.7-2.5,3.7-5.1c0-1.6,0-3.2-0.1-4.8
				C97.6,4.1,97,3,95.9,2.2c-1.8-1.3-3.8-1.8-5.9-1.8c-3.1,0-6.2,0-9.3,0H80v33.8H80.4z M31.2,0.4c2.3,0,4.5,0,6.7,0
				c1.3,0,1.1-0.2,1.1,1.2c0,7.1,0,14.3,0,21.4c0,1.6-0.1,3.3-0.1,4.9c0,0.8,0,1.6-0.2,2.4c-0.3,1.3-1.2,2.2-2.3,2.9
				c-1.4,0.9-3,1.3-4.6,1.5c-2.1,0.3-4.2,0.1-6.3-0.5c-1.3-0.3-2.5-0.9-3.4-1.8c-0.8-0.7-1.3-1.7-1.3-2.8c-0.1-3.9-0.1-7.8-0.1-11.7
				c0-5.6,0-11.2,0-16.7c0-0.5,0.2-0.7,0.7-0.7c2.1,0,4.3,0,6.4,0h0.6c0,0.7,0.1,1.3,0.1,1.9c0,6.7,0,13.3,0,20
				c0,2.1-0.1,4.1-0.1,6.2c0,0.4,0.1,0.7,0.2,1.1c0.3,0.6,0.9,0.7,1.8,0.5c0.4-0.1,0.8-0.7,0.8-1.2c0-1.6,0-3.1-0.1-4.7
				c0-0.2,0-0.3,0-0.5c0-7.6,0-15.1,0-22.7V0.4z"/>
		</g>
	</g>
</g>
</svg>
