<?xml version="1.0" encoding="utf-8"?>
<!-- Generator: Adobe Illustrator 24.0.1, SVG Export Plug-In . SVG Version: 6.00 Build 0)  -->
<svg version="1.1" id="Layer_1" xmlns="http://www.w3.org/2000/svg" xmlns:xlink="http://www.w3.org/1999/xlink" x="0px" y="0px"
	 viewBox="0 0 106 35" style="enable-background:new 0 0 106 35;" xml:space="preserve">
<style type="text/css">
	.st0{fill-rule:evenodd;clip-rule:evenodd;fill:url(#Fill-1_1_);}
</style>
<title>Fill 1</title>
<desc>Created with Sketch.</desc>
<g id="Symbols">
	<g id="GameTab04" transform="translate(-911.000000, -179.000000)">
		
			<linearGradient id="Fill-1_1_" gradientUnits="userSpaceOnUse" x1="661.8774" y1="582.1732" x2="661.8774" y2="581.2" gradientTransform="matrix(106 0 0 -35.0001 -69195 20556.0449)">
			<stop  offset="0" style="stop-color:#FDF8A2"/>
			<stop  offset="0.451" style="stop-color:#F4D97A"/>
			<stop  offset="1" style="stop-color:#EEC462"/>
		</linearGradient>
		<path id="Fill-1" class="st0" d="M1011.8,198.7c1.4,1.3,2.9,2.7,4.3,4c0.2,0.2,0.5,0.2,0.7,0.3c0-0.2,0.1-0.4,0.1-0.6
			c0-0.1,0-0.2,0-0.3c0-3.5,0.1-7,0.1-10.6c0-0.1-0.1-0.2-0.2-0.5c-2.3,2.1-4.5,4.1-6.8,6.2C1010.7,197.7,1011.2,198.2,1011.8,198.7
			L1011.8,198.7z M918,197.1c-0.1-0.2-0.2-0.3-0.4-0.5c-0.6-0.5-1.3-1.1-1.8-1.6c-1.3-1.2-2.6-2.5-3.9-3.7c-0.2-0.2-0.5-0.2-0.7-0.2
			c0,0.2-0.1,0.4-0.1,0.6c0,0.2,0,0.4,0,0.5c0,3,0,6.1,0,9.1c0,0.4-0.1,0.9-0.1,1.3c0,0.3,0.2,0.6,0.5,0.4c0.2-0.1,0.4-0.4,0.6-0.5
			c1-1,2.1-1.9,3.1-2.9c0.9-0.8,1.6-1.8,2.5-2.6C917.8,197,917.9,197,918,197.1L918,197.1z M1002,206.3c0,2.4,0,4.7,0,7.1
			c0,0.4,0.2,0.6,0.7,0.6c0.8,0,1.7,0,2.5,0c0.6,0,0.7-0.2,0.7-0.7c0-4.5,0-9.1,0-13.6c0-0.3,0.1-0.6,0.1-1c0-0.4-0.2-0.7-0.7-0.7
			c-0.9,0-1.7,0-2.6,0c-0.6,0-0.9,0.4-0.7,0.9c0,0.2,0,0.4,0,0.5C1002.1,201.7,1002.1,204,1002,206.3
			C1002.1,206.3,1002,206.3,1002,206.3L1002,206.3z M951,213.2c0,0.7,0.2,0.8,0.8,0.8c0.8,0,1.5,0,2.3,0c0.7,0,0.8-0.1,0.8-0.8
			c0-4.8,0-9.7,0-14.5c0-0.2,0-0.4,0-0.6c0.2-0.8-0.3-1.2-1.1-1.1c-0.5,0.1-1.1,0.1-1.6,0c-0.9-0.1-1.3,0.1-1.3,1c0,2.5,0,5,0,7.5
			C951,208.1,951,210.6,951,213.2L951,213.2z M987,213.3c0,0.5,0.2,0.7,0.7,0.7c0.7,0,1.5,0,2.2,0c0.8,0,1-0.3,1-1
			c-0.1-0.6-0.1-1.2-0.1-1.9c0-1,0-2,0-3c0-0.7,0.1-1.4,0.1-2.1c0-1.9,0-3.9,0-5.8c0-0.9,0.1-1.1,1.1-1.1c1.5,0,3,0,4.5,0
			c0.2,0,0.5-0.1,0.6-0.2c0.3-0.4,0-0.9-0.7-0.9c-2.8,0-5.5,0-8.3,0c-0.7,0-0.9,0.2-0.9,0.8c0,2.4,0,4.8,0,7.2
			C987,208.5,987,210.9,987,213.3L987,213.3z M1005.5,183.7c0-0.7,0.2-0.9,0.9-0.9c0.7,0,1.4,0,2,0c0.2,0,0.4-0.1,0.4-0.2
			c0.1-0.3,0.1-0.6,0.1-0.9c0-0.6-0.1-1.3,0-1.9c0-0.6,0-0.8-0.6-0.8c-3.2,0-6.5,0-9.7,0c-0.5,0-0.7,0.2-0.7,0.7c0,0.3,0,0.6,0,0.9
			c0,0.5,0,1.1,0,1.6c0,0.4,0.2,0.7,0.7,0.7c0.7-0.1,1.5,0,2.2,0c0.7,0,0.9,0.2,0.9,0.9c0,3.6,0,7.1,0,10.7c0,0.2-0.1,0.4-0.1,0.7
			c-0.1,0.5,0.2,1,0.8,1c0.8,0,1.6,0,2.4,0c0.5,0,0.6-0.2,0.6-0.6c0-1.9,0-3.9,0-5.8S1005.5,185.7,1005.5,183.7L1005.5,183.7z
			 M987,195.3c0,0.4,0,0.7,0.5,0.7c2.1,0,4.3,0,6.4,0c0.7,0,1.5,0,2.2,0c0.2,0,0.5-0.1,0.7-0.2c0.1-0.1,0.2-0.5,0.1-0.5
			c-0.2-0.2-0.4-0.3-0.7-0.3c-1.5,0-3.1,0-4.6,0c-0.8,0-1-0.2-1-1c0-3.4,0-6.7,0-10.1c0-0.9,0.2-1,1.1-1c1.5,0,2.9,0,4.4,0
			c0.7,0,0.8-0.1,0.8-0.8c0-0.7,0-1.5,0-2.2c0-0.5-0.2-0.7-0.7-0.7c-2.8,0-5.6,0-8.4,0c-0.8,0-0.8,0-0.8,0.8c0,2.5,0,5.1,0,7.6
			C987,190.1,987,192.7,987,195.3L987,195.3z M954.5,183.6c0-0.5,0.3-0.8,0.8-0.8c0.6,0.1,1.1,0.1,1.7,0.1c0.8,0,1.1-0.5,1-1.3
			c-0.1-0.5-0.1-1,0-1.4c0.1-0.9-0.2-1.3-1-1.3c-3,0-6,0-8.9,0c-0.2,0-0.4,0-0.6,0c-0.3,0.1-0.5,0.2-0.5,0.6c0,0.8,0,1.7,0,2.5
			c0,0.4,0.1,0.6,0.5,0.7c0.8,0,1.6,0.1,2.4,0.1c0.7,0,0.9,0.1,0.9,0.8c0,0.8-0.1,1.6-0.1,2.4c0,0.9,0,1.8,0,2.8c0,2.1,0,4.3,0,6.4
			c0,0.4,0.3,0.7,0.7,0.7c0.8,0,1.6,0,2.4,0c0.5,0,0.9-0.4,0.8-0.9c0-0.3-0.1-0.5-0.1-0.8c0-1.7,0-3.4,0-5.1
			C954.5,187.3,954.5,185.5,954.5,183.6L954.5,183.6z M935,213.1c0,0.7,0.2,0.9,0.9,0.9c1.3,0,2.5,0,3.8,0c1.4,0,2.9,0,4.3,0
			c0.8,0,0.9-0.1,0.9-0.9c0-0.6,0-1.2,0-1.8c0.1-0.6,0-0.8-0.7-0.8c-1.5,0-3,0-4.5,0c-0.8,0-1-0.2-1-1c0-3.5,0-6.9,0-10.4
			c0-0.5,0.2-0.7,0.7-0.7c1.5,0,3,0,4.4,0c0.2,0,0.5,0,0.7-0.1c0.2-0.1,0.4-0.4,0.3-0.6c0-0.2-0.3-0.5-0.5-0.5c-0.5-0.1-1,0-1.5,0
			c-1.9,0-3.9,0-5.8,0c-0.4,0-0.7-0.1-1.1-0.1c-0.7-0.1-1.2,0.3-1.1,1.1c0,0.4,0,0.8,0,1.3c0,2.3,0,4.6,0,6.8
			C935,208.5,935,210.8,935,213.1L935,213.1z M938.8,183.7c0-0.7,0.1-0.8,0.8-0.8c1.4,0,2.8,0,4.2,0c1,0,1.1-0.2,1.1-1.1
			c0-0.7,0-1.5,0-2.2c0-0.5-0.2-0.7-0.6-0.7c-2.8,0-5.7,0-8.5,0c-0.4,0-0.8,0.2-0.7,0.8c0,1,0,2.1,0,3.1c0,4,0,8,0,12.1
			c0,0.8,0.2,1,1,1c2.7,0,5.4,0,8,0c0.1,0,0.3,0,0.3,0c0.2-0.2,0.4-0.4,0.6-0.6c-0.2-0.2-0.3-0.4-0.6-0.5c-0.2-0.1-0.5-0.1-0.8-0.1
			c-1.4,0-2.8,0-4.2,0c-0.5,0-0.7-0.2-0.7-0.7c0-1.7,0-3.4,0-5.1S938.8,185.5,938.8,183.7L938.8,183.7z M967.5,208.2
			c0,0.5-0.1,1-0.4,1.5c-0.4,0.6-1.2,1.1-1.9,1c-0.6-0.1-1.5-0.9-1.6-1.5c-0.1-0.7,0-1.4,0-2.2c0-0.5-0.1-0.8-0.6-0.8
			c-0.6,0-1.2,0-1.9,0c-1.3,0.1-1.2,0.1-1.2,1.2c0,0.1,0,0.3,0,0.4c-0.1,1.7,0.2,3.3,1.5,4.6c0.8,0.8,1.6,1.5,2.9,1.5
			c0.9,0,1.7,0,2.6,0c0.1,0,0.3,0,0.4,0c1.7-0.7,2.8-1.9,3.3-3.6c0.3-0.9,0.2-1.9,0.2-2.9c-0.1-2.6,0.4-5.2-0.6-7.7
			c-0.5-1.2-0.7-1.8-2.1-1.7c-0.4,0-0.9,0-1.3,0c-0.9,0-1.8-0.1-2.7-0.1c-0.1,0-0.3,0.1-0.3,0.1c0,0.2,0,0.4,0.1,0.5
			c0.5,0.4,1,0.9,1.6,1.2c0.8,0.5,1.2,1.4,1.4,2.2c0.5,1.4,0.6,2.9,0.5,4.5C967.5,207.1,967.4,207.7,967.5,208.2L967.5,208.2z
			 M966.8,195.1c-0.9-0.6-1.7-1.3-2.2-2.3c-0.5-0.9-0.9-1.9-0.9-3c0-1.6,0-3.2,0-4.8c0-0.6,0.1-1,0.5-1.5c0.5-0.7,1.2-0.9,2.2-0.6
			c0.6,0.2,1.3,1.5,1.2,2.1c-0.1,0.6-0.1,1.2-0.1,1.8c0,0.4,0.2,0.6,0.6,0.6c0.8,0,1.6,0,2.3,0c0.4,0,0.6-0.2,0.6-0.7
			c0-0.9,0-1.9,0-2.8c0-1.3-0.7-2.4-1.5-3.3c-0.6-0.7-1.4-1.1-2.3-1.4c-0.9-0.3-1.7-0.3-2.6-0.2c-1.1,0.2-2.1,0.7-2.8,1.6
			c-0.5,0.6-1.1,1.3-1.3,2.1c-0.3,0.9-0.3,1.9-0.4,2.9c-0.1,1.2,0,2.5,0,3.7c0,1.9,0.1,3.8,1,5.6c0.3,0.7,0.7,1,1.4,1
			c1.4,0,2.8,0.1,4.2,0.1c0.2,0,0.4-0.1,0.7-0.2C967.1,195.5,967,195.3,966.8,195.1L966.8,195.1z M973,208.7c0,2,0.8,3.6,2.5,4.7
			c0.6,0.4,1.2,0.7,2,0.6c0.9-0.1,1.7,0,2.6,0c0.3,0,0.6-0.1,0.8-0.2c0.6-0.4,1.3-0.8,1.8-1.4c0.8-0.9,1.4-2,1.4-3.3
			c0-3.5,0-7,0-10.5c0-0.3-0.1-0.6-0.5-0.6c-0.8,0-1.6,0-2.4,0c-0.4,0-0.7,0.2-0.7,0.7c0,3.1,0,6.2,0,9.3c0,0.4,0,0.8-0.1,1.2
			c-0.3,0.9-1.2,1.5-2.1,1.4c-0.8-0.1-1.5-1.1-1.5-1.9c0-3.4,0-6.7,0-10.1c0-0.5-0.2-0.7-0.7-0.7c-0.8,0-1.5,0-2.3,0
			c-0.5,0-0.7,0.2-0.7,0.7c0,1.7,0,3.5,0,5.2C973,205.5,973,207.1,973,208.7L973,208.7z M984,183.9c0-0.9-0.4-1.7-0.9-2.4
			c-0.7-1.1-1.7-1.9-3-2.3c-0.9-0.3-1.7-0.3-2.6-0.1c-1.3,0.3-2.4,0.9-3.2,2c-0.7,0.9-1.2,2-1.3,3.1c-0.1,3.7,0,7.4,0,11.1
			c0,0.4,0.2,0.6,0.6,0.6c0.8,0,1.6,0,2.3,0c0.7,0,0.8-0.1,0.8-0.8c0-3.4,0-6.8,0-10.2c0-0.7,0.2-1.2,0.7-1.7
			c0.8-0.8,2.4-0.6,2.9,0.6c0.3,0.7,0.2,1.3,0.2,2c0,2.3,0,4.6,0,6.9c0,0.8,0,1.5,0,2.3c0,0.7,0.1,0.9,0.8,0.9c0.7,0,1.4,0,2.2,0
			c0.5,0,0.6-0.2,0.6-0.6c0-1.9,0-3.8,0-5.7C984,187.7,984,185.8,984,183.9L984,183.9z M925,188.9c0,1.7,0,3.5,0,5.2
			c0,0.5,0.1,0.9,0.6,0.8c0.4,0,0.7,0,1.1,0c0.5-0.1,1.2-0.8,1.2-1.5c0.1-1.2,0.1-2.5,0.1-3.7c0-1.3,0-2.6-0.1-3.9
			c0-0.8,0.2-1.6-0.4-2.3c-0.5-0.6-1.1-0.6-1.7-0.6c-0.8,0.1-0.8,0.2-0.8,1.1V188.9z M921,187.5c0-2.6,0-5.1,0-7.7
			c0-0.6,0.2-0.8,0.7-0.8c1.7,0,3.4-0.1,5.1,0c1.7,0.1,3.1,1,4.1,2.4c0.9,1.3,1.2,2.6,1,4.2c-0.1,0.9,0.1,1.9,0.1,2.9
			c0,1.6,0,3.2-0.1,4.9c0,0.6-0.3,1.2-0.4,1.8c-0.1,0.6-0.5,0.8-1,0.8c-2.9,0-5.8,0-8.7,0c-0.7,0-0.8-0.1-0.8-0.8
			C921,192.6,921,190.1,921,187.5L921,187.5z M929,204v-3.9c0-1.4-0.7-2.1-2.1-2.1H926c-0.9,0-1,0.1-0.8,1c0,0.2,0,0.3,0,0.5
			c0,2.9,0,5.7,0,8.6c0,0.2-0.1,0.5-0.1,0.7c-0.1,0.6,0.2,1.1,0.7,1.1c0.7,0,1.4,0,2-0.2c0.8-0.3,1.2-1,1.2-1.9
			C929,206.6,929,205.3,929,204L929,204z M921,206.3c0-2.3,0-4.6,0-6.9c0-0.1,0-0.3,0-0.4c-0.1-0.6,0.1-0.9,0.8-0.9
			c2.9,0,5.9,0,8.8,0c0.5,0,1,0.5,1.1,1c0.3,1.1,0.3,2.2,0.3,3.4c0,2.1,0,4.2,0,6.4c0,1.7-0.7,3.1-2.1,4.3c-0.9,0.8-1.8,1.1-3,1
			c-1.7-0.1-3.3,0-5,0c-0.9,0-0.9-0.1-0.9-0.9V206.3z"/>
	</g>
</g>
</svg>
