<?xml version="1.0" encoding="utf-8"?>
<!-- Generator: Adobe Illustrator 24.0.1, SVG Export Plug-In . SVG Version: 6.00 Build 0)  -->
<svg version="1.1" id="Layer_1" xmlns="http://www.w3.org/2000/svg" xmlns:xlink="http://www.w3.org/1999/xlink" x="0px" y="0px"
	 viewBox="0 0 1024 1024" style="enable-background:new 0 0 1024 1024;" xml:space="preserve">
<path id="Symbols" d="M174.6,297.7c-2.6,1.7-5.2,3.5-7.8,5.2C171.1,302.9,173.7,301.2,174.6,297.7 M441.8,410
	c-3.5-1.7-7.8-2.6-11.3-4.4v0.9l11.3,4.4C441.8,410.8,441.8,410.8,441.8,410 M594.9,461.3c5.2,0,7-2.6,7-7.8
	C600.2,455.2,597.6,457.8,594.9,461.3 M259,276.8c0.9,0,2.6,0,2.6-0.9s0-2.6-0.9-2.6c-1.7-1.7-4.4-2.6-7.8,0
	C255.5,275.1,257.3,275.9,259,276.8 M330.4,278.6c0,0.9,1.7,0.9,2.6,1.7c0-0.9,0.9-2.6,0-2.6c-1.7-2.6-4.4-6.1-6.1-9.6
	C325.2,273.3,328.6,275.9,330.4,278.6 M320.8,246.4c0,2.6,3.5,7,7,7c-5.2-7.8-5.2-7.8,0-11.3C323.4,242.9,321.7,243.7,320.8,246.4
	 M269.5,268.1c0-0.9,0-1.7-0.9-2.6s-1.7-0.9-2.6-0.9c-1.7,0.9-2.6,2.6-3.5,4.4c0,0,1.7,1.7,2.6,2.6c0.9,0.9,1.7,0.9,2.6,0.9
	C268.6,271.6,269.5,269.8,269.5,268.1 M249.4,284.6c0,0.9,1.7,0.9,1.7,1.7c0-0.9,0.9-1.7,0.9-2.6c0-3.5-1.7-7.8,0-11.3
	c0,0-0.9-0.9-0.9-1.7C246.8,275.1,246.8,279.4,249.4,284.6 M165.9,769.4c0.9,0,2.6,0,3.5,0c1.7,0,4.4,0,4.4-2.6
	c0-1.7-2.6-3.5-3.5-3.5c-2.6,0-6.1,0-8.7,0c-0.9,0-1.7,0.9-2.6,1.7c0.9,0.9,1.7,2.6,2.6,3.5C161.5,769.4,164.2,769.4,165.9,769.4
	L165.9,769.4 M899.5,575.3c-0.9,6.1-0.9,13.1-2.6,20c-0.9,3.5,0.9,3.5,3.5,3.5c0.9-2.6,0.9-5.2,2.6-7.8c1.7-1.7,3.5-5.2,6.1-5.2
	c7.8-0.9,16.5,0,24.4,0v0.9c0.9,24.4-1.7,48.7-3.5,73.1c-0.9,6.1-1.7,13.1-9.6,17.4h30.5c-1.7-0.9-1.7-0.9-1.7-0.9
	c-5.2-0.9-7.8-3.5-8.7-8.7c-0.9-5.2-0.9-9.6-0.9-14.8c0-16.5,0-33.1,0-49.6c0-6.1,0-13.1,0-20c6.1,0,12.2,0.9,17.4,0.9
	c3.5,0,6.1,2.6,7,6.1c0.9,1.7,0.9,3.5,0.9,5.2c0,0,0,0.9,0.9,0.9c0.9,0,1.7-0.9,2.6-0.9c-0.9-7.8-0.9-14.8-1.7-20.9
	C943.9,580.5,922.2,580.5,899.5,575.3 M917.8,693.7c-45.3,24.4-94,33.1-145.3,32.2c-50.5-0.9-100.1-8.7-145.3-32.2
	c0.9,0.9,2.6,1.7,3.5,2.6c20,13.9,41.8,21.8,65.3,27c34.8,8.7,71.4,10.4,107,7.8c31.3-2.6,60.9-8.7,89.6-22.6
	c8.7-4.4,17.4-9.6,26.1-14.8C917.8,694.6,917.8,693.7,917.8,693.7 M606.3,657.1c1.7-18.3,3.5-37.4,0.9-55.7
	c-0.9-6.1-0.9-12.2-0.9-17.4c0-4.4,0.9-5.2,5.2-5.2c2.6,0,4.4,0,7,0c0-1.7,0-2.6,0-3.5h-32.2c0.9,1.7,0.9,3.5,1.7,4.4
	c0.9,1.7,2.6,3.5,2.6,5.2c0.9,23.5,0.9,47.9,0.9,71.4c0,4.4-0.9,8.7-2.6,13.1c-0.9,2.6-1.7,4.4-0.9,7h51.3
	c1.7-6.1,3.5-12.2,5.2-19.1c-1.7,0-2.6-0.9-3.5-0.9c-0.9,1.7-0.9,2.6-1.7,3.5c-1.7,4.4-5.2,7.8-10.4,8.7c-7,0.9-14.8,0.9-22.6,1.7
	C605.4,665.8,605.4,661.5,606.3,657.1 M686.3,661.5c2.6-21.8,4.4-43.5,1.7-65.3c-0.9-6.1-2.6-13.1,1.7-19.1v-1.7h-20.9
	c0,1.7,0,3.5,0,5.2c0.9,1.7,1.7,3.5,1.7,6.1c0,24.4,0.9,48.7,0.9,73.1c0,5.2-0.9,10.4-4.4,13.9c0.9,1.7,1.7,3.5,1.7,4.4h49.6
	c1.7-6.1,3.5-12.2,5.2-18.3c-1.7,0-2.6-0.9-4.4-0.9c-0.9,1.7-0.9,2.6-1.7,4.4c-1.7,4.4-5.2,7.8-10.4,8.7c-7,0.9-14.8,0.9-22.6,1.7
	C686.3,667.6,686.3,664.1,686.3,661.5 M860.4,583.2c12.2,0.9,13.9,2.6,16.5,13.9c0,0,0,0,0.9,0.9c0.9,0,1.7-0.9,3.5-0.9
	c0-7.8-0.9-14.8-0.9-21.8h-54c0,1.7,0,3.5,0.9,3.5c5.2,2.6,5.2,7,5.2,10.4c0,20.9,0,40.9,0,61.8c0,6.1-1.7,13.1-3.5,19.1
	c-0.9,2.6-1.7,5.2-0.9,7.8h53.1c1.7-7.8,3.5-15.7,5.2-23.5c-0.9,0-2.6-0.9-3.5-0.9s-0.9,0.9-0.9,0.9c0,0.9-0.9,1.7-0.9,2.6
	c-2.6,7.8-7,12.2-15.7,12.2c-0.9,0-0.9,0-1.7,0c-7,0-14.8,0-21.8,0v-40c7.8,0,15.7,0,23.5,0c5.2,0,7.8,3.5,9.6,8.7
	c0,0.9,0.9,1.7,1.7,3.5v-27.8c-1.7,0-2.6,0-3.5,0c-0.9,6.1-2.6,8.7-8.7,8.7c-7,0-13.9-1.7-20-2.6v-34.8
	C848.2,583.2,854.3,582.3,860.4,583.2 M761.2,619.7c5.2,0,10.4,0,15.7,0c0.9,0,2.6-0.9,3.5-1.7c7-7,8.7-19.1,5.2-27.8
	s-14.8-12.2-23.5-7.8c-0.9,0-0.9,1.7-0.9,2.6C761.2,595.3,761.2,607.5,761.2,619.7 M761.2,626.7c0,12.2,0,23.5,0,34.8
	c0,7.8,0,7.8,7.8,8.7c12.2,2.6,22.6-3.5,24.4-15.7c0.9-3.5,0.9-7,0-10.4c-0.9-7.8-5.2-13.9-13.1-15.7
	C773.4,626.7,767.3,626.7,761.2,626.7 M786.4,623.2c3.5,2.6,7.8,4.4,11.3,7c13.1,13.1,6.1,40-12.2,45.3c-6.1,1.7-13.1,1.7-20,1.7
	c-6.1,0-12.2-0.9-18.3,0.9c-0.9,0-2.6,0-3.5,0c-0.9-2.6,0-4.4,1.7-6.1c1.7-2.6,3.5-7,3.5-10.4c0.9-4.4,0.9-8.7,0.9-13.1
	c0-20,0-40,0-59.2c0-3.5,0-7.8-3.5-9.6c0.9-0.9,1.7-2.6,2.6-3.5c0-0.9,0-0.9,0-1.7c8.7,0,17.4,0,26.1,0c20,0.9,30.5,20,20.9,37.4
	C793.4,615.4,789,619.7,786.4,623.2 M306,583.2c-1.7-4.4-5.2-4.4-8.7-1.7c-1.7,0.9-4.4-0.9-4.4-3.5c0-1.7,0-4.4,0.9-6.1
	c0.9-3.5,0-7.8,3.5-10.4s3.5-4.4,0-7.8c-1.7-1.7-3.5-4.4-6.1-7c-0.9-1.7-1.7-3.5-3.5-4.4c-2.6-1.7-5.2-1.7-8.7-3.5
	c-0.9,2.6-2.6,5.2-3.5,7.8c-0.9,6.1,0,11.3-0.9,17.4c-0.9,10.4-2.6,20-3.5,30.5c0,2.6-0.9,3.5-3.5,4.4c-4.4,1.7-8.7,4.4-13.1,6.1
	c-0.9,0-2.6-0.9-3.5-1.7c-0.9-0.9,0-1.7,0-4.4c-4.4,4.4-7.8,8.7-11.3,12.2c0,1.7,0.9,3.5,0.9,5.2c0.9,2.6,0.9,6.1,1.7,8.7
	c0,0.9,0,1.7,0.9,2.6c0.9,1.7,1.7,3.5,3.5,4.4c1.7,0.9,2.6,0,2.6-2.6h0.9c3.5-0.9,7.8-2.6,11.3-3.5c1.7,0,4.4,0,7,0
	c0,4.4,0.9,7.8,0,11.3c-1.7,8.7-1.7,18.3-0.9,27c0,3.5,0.9,7-0.9,9.6c-2.6,5.2-1.7,11.3,0,15.7c1.7,5.2,6.1,10.4,12.2,13.1
	c1.7,0.9,2.6,0.9,4.4,0.9c0-1.7,0.9-3.5,0.9-5.2c0-2.6-1.7-5.2-1.7-7.8c0.9-9.6-2.6-20,3.5-28.7c1.7-2.6,1.7-6.1,2.6-9.6
	c0-0.9,0.9-0.9,1.7-0.9c-0.9-0.9-0.9-1.7-2.6-2.6c7,0.9,2.6-5.2,6.1-7c-0.9-0.9-1.7-0.9-2.6-0.9c1.7-2.6,2.6-4.4,4.4-6.1
	c0-1.7,0-2.6,0-4.4c0,0-0.9,0-1.7,0.9c0.9-2.6,1.7-5.2,2.6-7.8h-0.9c-5.2,8.7-10.4,17.4-14.8,26.1c0-2.6-0.9-5.2-0.9-8.7
	c0-8.7,0-16.5,0.9-25.2c0-1.7-0.9-5.2,2.6-6.1c0,0,0-1.7,0-2.6c0,0,0,0,0.9,0c5.2-2.6,10.4-6.1,16.5-8.7c1.7-0.9,3.5-2.6,4.4-1.7
	c2.6,1.7,2.6,0,2.6-1.7c0-2.6,0.9-4.4,0.9-6.1c0.9,0,2.6,0.9,3.5,0.9c0-1.7-0.9-2.6,0-3.5c0.9-0.9,1.7-1.7,2.6-2.6l-0.9-0.9
	c-1.7,1.7-2.6,3.5-4.4,5.2C306.9,584.9,306,584,306,583.2 M479.2,633.6c11.3-8.7,23.5-13.9,37.4-15.7c-4.4-14.8-9.6-29.6-13.9-44.4
	C494.9,593.6,487,613.6,479.2,633.6 M579.3,650.2c-12.2-8.7-24.4-16.5-38.3-20.9c0,0.9,0,0.9,0,0.9c7,19.1,13.9,38.3,21.8,57.4
	c0.9,2.6,2.6,6.1,4.4,7.8c3.5,4.4,8.7,7,13.9,6.1c0.9,2.6,0,3.5-2.6,3.5c-17.4,0-33.9,0-51.3,0c-0.9-1.7-0.9-2.6,1.7-3.5
	c10.4-1.7,12.2-9.6,9.6-18.3c-6.1-18.3-11.3-37.4-17.4-55.7c0-0.9-0.9-1.7-0.9-3.5c-12.2,0-22.6,4.4-32.2,10.4
	c-0.9,0.9-1.7,1.7-3.5,1.7c-6.1,4.4-11.3,9.6-13.1,16.5c-3.5,10.4-7.8,20.9-10.4,31.3c-2.6,10.4,2.6,17.4,13.9,17.4
	c0.9,0,2.6,0,4.4,0c-1.7,1.7-1.7,3.5-2.6,3.5c-17.4,0-34.8,0-53.1,0v-6.1c0,0,0,0,0.9,0c10.4,0.9,15.7-6.1,18.3-14.8
	c14.8-36.6,29.6-74,44.4-111.4c2.6-6.1,5.2-13.1,7-20c0.9-1.7,1.7-2.6,3.5-2.6c5.2,0,10.4,0,15.7,0c5.2,17.4,11.3,33.9,16.5,50.5
	c1.7,5.2,3.5,11.3,6.1,16.5c2.6,5.2,9.6,5.2,13.9,8.7c9.6,6.1,19.1,13.9,27,22.6C578.4,649.3,578.4,650.2,579.3,650.2 M339.1,647.6
	c-2.6,0.9-5.2,2.6-7.8,3.5C337.3,651,338.2,651,339.1,647.6 M340.8,575.3c-6.1,1.7-7,2.6-7,6.1C335.6,579.7,338.2,577.9,340.8,575.3
	 M341.7,602.3c2.6-0.9,5.2-1.7,8.7-3.5c-1.7-1.7-3.5-2.6-4.4-3.5C345.2,598,343.4,599.7,341.7,602.3 M341.7,611.9
	c0.9,1.7,0.9,3.5,1.7,5.2c0.9,1.7,2.6,2.6,3.5,3.5c0-0.9,0-1.7,0-1.7c0.9,0,1.7,0.9,2.6,0.9C352.1,613.6,348.7,610.1,341.7,611.9
	 M373,604c-3.5,1.7-7,2.6-8.7,5.2c-1.7,1.7-0.9,5.2-2.6,7.8C366.1,614.5,373,612.7,373,604 M351.3,571.8c-2.6-0.9-6.1,0-6.1,2.6
	c-0.9,5.2-4.4,8.7-6.1,13.1c0,0,0,0,0,0.9c2.6-1.7,4.4-5.2,7-6.1C350.4,579.7,351.3,576.2,351.3,571.8 M378.2,588.4
	c0-1.7,0-3.5,0-6.1c0-3.5-0.9-4.4-5.2-2.6c-1.7,0.9-2.6,0.9-4.4,0.9c-3.5,0-5.2,1.7-5.2,5.2c0.9,0,1.7,0,1.7,0
	c0,3.5,1.7,2.6,3.5,2.6C373,588.4,375.6,588.4,378.2,588.4 M345.2,636.2c-3.5-4.4-7-8.7-11.3-13.9c-0.9,3.5-1.7,5.2-1.7,7
	c0.9,0.9,1.7,0.9,1.7,1.7s0,1.7-0.9,2.6c-2.6,0.9-1.7,2.6-0.9,4.4c0,0.9,0.9,1.7,0.9,3.5C337.3,640.6,341.7,638.9,345.2,636.2
	 M330.4,669.3h0.9c-3.5,4.4-1.7,9.6,0.9,13.1c2.6,4.4,5.2,7.8,8.7,10.4c2.6,1.7,7,1.7,9.6,3.5c2.6,0.9,4.4,1.7,6.1,2.6
	c1.7,0.9,13.9-0.9,14.8-2.6l0.9-0.9c0.9-3.5,1.7-6.1,1.7-9.6c0.9-10.4,0.9-20,1.7-30.5c0-1.7,0-3.5,0-5.2c1.7-5.2,0.9-11.3-0.9-16.5
	c0-0.9-1.7-1.7-2.6-1.7c-3.5,0.9-6.1,1.7-9.6,2.6c-3.5,1.7-7.8,2.6-11.3,4.4c-0.9,0-1.7,0.9-2.6,1.7c-1.7,0.9-3.5,2.6-6.1,3.5
	c-0.9,0.9-2.6,0.9-3.5,1.7v0.9c2.6,0,4.4,0,7-0.9v0.9c-0.9,0-1.7,0-2.6,0c6.1,0,12.2,1.7,16.5,6.1c2.6,1.7,4.4,3.5,4.4,7
	c0,1.7,0,3.5,0.9,4.4c0.9,3.5-1.7,7.8-6.1,7.8c-4.4,0.9-6.1-2.6-8.7-5.2c-2.6-2.6-4.4-6.1-8.7-7c-1.7,0-3.5-2.6-5.2-4.4
	c-0.9,0.9-2.6,1.7-4.4,3.5c-1.7,0.9-3.5,2.6-5.2,4.4c-0.9,1.7-0.9,4.4-1.7,6.1h0.9C330.4,671.1,330.4,670.2,330.4,669.3
	 M315.6,659.7c-1.7,0.9-3.5,2.6-5.2,3.5c0,0,0-0.9-0.9-0.9c0.9-0.9,2.6-1.7,4.4-2.6c-14.8,4.4-15.7,3.5-23.5-7.8
	c5.2-4.4,11.3-8.7,17.4-12.2c0,0,0,0,0.9,0c-1.7,2.6-3.5,4.4-5.2,7c0,0,0,0,0,0.9c6.1-2.6,12.2-5.2,17.4-7.8
	c-1.7-4.4-2.6-7.8-4.4-11.3c-1.7-4.4-3.5-8.7-5.2-12.2c0-0.9,0-1.7,0-1.7c4.4-1.7,3.5-5.2,4.4-8.7c1.7-4.4,2.6-9.6,4.4-13.9
	c2.6-6.1,2.6-8.7,1.7-15.7c-0.9,0-1.7,0-4.4,0.9c3.5-2.6,6.1-4.4,8.7-7c0.9-0.9,2.6-1.7,2.6-3.5c2.6-7.8,5.2-15.7,7-23.5
	c0-1.7,0.9-2.6,1.7-4.4c-1.7,8.7-6.1,17.4-5.2,27.8h0.9c5.2-3.5,10.4-6.1,16.5-9.6c0.9-0.9,2.6-2.6,2.6-3.5
	c0.9-6.1,0.9-12.2,1.7-17.4c0-5.2-2.6-7-7-6.1c-1.7,0-2.6,0.9-4.4,0.9c1.7-5.2,8.7-7,13.1-4.4c3.5,2.6,7.8,6.1,11.3,8.7
	c1.7,1.7,3.5,3.5,4.4,5.2c1.7,1.7,1.7,3.5-0.9,5.2c-0.9,0.9-0.9,2.6-0.9,4.4c0,0.9,2.6,1.7,2.6,1.7c5.2-3.5,10.4-3.5,15.7,0.9
	c0.9,0.9,1.7,0.9,3.5,1.7c0-2.6,0-4.4,0-6.1c0.9-1.7,1.7-3.5,3.5-4.4c0.9-0.9,3.5,0.9,4.4,1.7c7.8,7,13.1,14.8,12.2,25.2
	c0,3.5-1.7,7-2.6,10.4c-3.5,0-7,0-7.8-4.4c0-0.9-1.7-1.7-3.5-2.6c-0.9-0.9-3.5-2.6-3.5-4.4c2.6-5.2,0-5.2-2.6-5.2
	c-3.5,0-7.8-0.9-11.3-0.9c-1.7,0-3.5,0-4.4,0c-0.9,5.2-0.9,4.4,3.5,7c7,4.4,13.9,8.7,18.3,15.7c2.6,4.4,0,7.8-0.9,11.3
	c-1.7,5.2-3.5,9.6-5.2,14.8c0.9,0,0.9,0.9,0,1.7c0,0.9,0,1.7,0,1.7c0,1.7,0,2.6,0,4.4c5.2-0.9,10.4-0.9,15.7-1.7
	c6.1-0.9,11.3,1.7,16.5,3.5c0.9,0.9,1.7,2.6,2.6,4.4c0,0-1.7,1.7-2.6,1.7c-4.4,0-9.6,0.9-13.9,0.9c-2.6,0-5.2,0-7.8,0
	c-3.5,0-6.1,0-9.6,0.9c0.9,2.6,1.7,5.2,1.7,7.8c-4.4,1.7-6.1,4.4-6.1,8.7c0,8.7-0.9,17.4-0.9,27c0,0.9,0.9,1.7,1.7,2.6
	c0.9,1.7,1.7,2.6,0.9,4.4c0,2.6-1.7,6.1-1.7,8.7c0,3.5,0.9,7.8,0,11.3c0,0.9-1.7,1.7-2.6,3.5c0,0,0,0.9,0.9,1.7
	c-11.3,0.9-21.8,0.9-32.2-1.7c-2.6-0.9-5.2-1.7-7.8-3.5c-4.4-2.6-9.6-6.1-13.9-8.7c-4.4-2.6-6.1-7.8-8.7-13.1
	c-0.9-2.6-3.5-5.2-4.4-7.8c-0.9-1.7-0.9-4.4-0.9-6.1C317.3,664.1,316.5,661.5,315.6,659.7c0.9,0,1.7,0.9,1.7,0.9
	c1.7-2.6,2.6-4.4,4.4-6.1C320.8,653.6,316.5,657.1,315.6,659.7 M185.9,435.2c-7,1.7-8.7,4.4-6.1,7.8
	C185,441.3,185.9,440.4,185.9,435.2 M217.2,478.7c0.9-1.7,2.6-3.5,3.5-5.2c1.7-2.6,0-7-2.6-7.8c-1.7-0.9-4.4-1.7-7-2.6
	C210.3,465.7,213.8,475.2,217.2,478.7 M175.5,459.6c-1.7-0.9-3.5-0.9-5.2-1.7c-3.5-2.6-6.1-1.7-7.8,0.9c-1.7,1.7-2.6,2.6-6.1,1.7
	c-0.9,0-2.6,0.9-4.4,1.7c0.9,0.9,0.9,2.6,2.6,3.5c1.7,0.9,3.5,1.7,5.2,2.6c0.9,0,2.6,0.9,2.6,0c3.5-2.6,6.1-4.4,9.6-7
	C173.7,461.3,174.6,460.4,175.5,459.6 M270.3,453.5c-1.7,0-3.5-1.7-4.4-0.9c-4.4,2.6-7.8,5.2-12.2,7.8c-1.7,0.9-2.6,2.6-0.9,4.4
	c1.7,1.7,3.5,5.2,6.1,2.6c4.4-4.4,8.7-8.7,13.1-13.1c1.7-1.7,0.9-1.7-1.7-2.6C271.2,451.7,270.3,452.6,270.3,453.5 M176.3,489.2
	c0,1.7,0,3.5,0,6.1c0.9,2.6,1.7,6.1,2.6,8.7c0.9,4.4,3.5,6.1,7,4.4c7-3.5,13.1-7,19.1-13.1C194.6,496.1,185.9,491.8,176.3,489.2
	 M202.4,465.7c0.9-5.2-4.4-9.6-9.6-6.1c-5.2,2.6-10.4,6.1-13.1,12.2c-1.7,4.4,0,7.8,4.4,8.7C192,481.3,203.3,474.4,202.4,465.7
	 M174.6,512.7c-1.7-0.9-3.5-0.9-3.5-1.7c-5.2-7-13.1-12.2-11.3-22.6c0-0.9,0-0.9,0-1.7c-2.6-4.4-2.6-7.8-1.7-13.1
	c0-0.9-0.9-2.6-1.7-3.5c0,0-2.6,0.9-3.5,1.7c-0.9,0.9-1.7,2.6-2.6,3.5c-4.4,6.1-4.4,13.9-5.2,20.9c-0.9,4.4-1.7,7.8,0.9,12.2
	c1.7,2.6,3.5,6.1,6.1,8.7c0,0.9,0.9,1.7,1.7,0.9c3.5-0.9,7-0.9,10.4-1.7c1.7,0,3.5-1.7,4.4-1.7C169.4,514.4,172,513.5,174.6,512.7
	 M155.4,434.3c-6.1,1.7-6.1,1.7-8.7-3.5c-1.7-3.5-2.6-7-3.5-11.3c-0.9-1.7-0.9-3.5-0.9-6.1c-0.9-3.5,0.9-6.1,4.4-7
	c3.5-1.7,7-3.5,10.4-5.2c7-4.4,14.8-8.7,22.6-12.2c6.1-2.6,12.2-3.5,19.1-4.4c2.6-0.9,6.1-0.9,8.7-1.7c8.7-2.6,12.2,2.6,16.5,8.7
	c0.9,1.7,1.7,4.4,2.6,7c-4.4,0-7.8,0.9-11.3,0.9c-5.2,0.9-10.4,1.7-14.8,2.6c-7,0-12.2,4.4-17.4,8.7c-4.4,3.5-9.6,7-13.9,11.3
	c1.7-0.9,3.5-0.9,4.4-1.7s2.6-0.9,3.5-1.7c6.1-2.6,12.2-5.2,19.1-7.8c1.7-0.9,4.4-0.9,6.1,0c4.4,1.7,8.7,4.4,13.1,7
	c1.7,0.9,2.6,2.6,3.5,3.5c-3.5,5.2-7,9.6-11.3,14.8c6.1,2.6,6.1,7.8,7,13.1c2.6,0,7-4.4,7.8-7.8c1.7-5.2,3.5-11.3,6.1-16.5
	c1.7-3.5,4.4-7.8,6.1-11.3c4.4-7,7-14.8,10.4-22.6c2.6-7,2.6-13.9,1.7-21.8c5.2-0.9,8.7,1.7,11.3,7c1.7,3.5,3.5,7.8,5.2,11.3
	c1.7,2.6,2.6,5.2,0,7.8c-2.6,1.7-3.5,5.2-3.5,8.7s-2.6,6.1-4.4,9.6c-1.7,3.5-3.5,7-5.2,10.4c-0.9,1.7-3.5,3.5-4.4,6.1
	c-0.9,1.7-1.7,4.4-2.6,6.1c-1.7,3.5-4.4,7-6.1,11.3l0.9,0.9c4.4-2.6,8.7-5.2,13.1-7.8c7-4.4,14.8-7.8,22.6-11.3
	c9.6-3.5,20,1.7,22.6,11.3c1.7,5.2,4.4,7.8,7.8,10.4c0.9,0.9,1.7,1.7,2.6,2.6c2.6,3.5,1.7,5.2-1.7,6.1c-2.6,0.9-5.2,0-7,0
	c-3.5,0-6.1,2.6-9.6,3.5c-0.9,0-0.9,0.9-0.9,1.7c-6.1,3.5-12.2,7-18.3,9.6c2.6,4.4,2.6,6.1-3.5,8.7c-2.6,1.7-4.4,6.1-1.7,8.7
	c2.6,2.6,4.4,5.2,7.8,7.8c1.7,1.7,5.2,1.7,7.8,2.6c7,1.7,13.1,2.6,20,4.4c4.4,0.9,7.8,2.6,12.2,4.4c0.9,0,0.9,0.9,0.9,1.7
	c3.5,7.8,7,15.7,10.4,23.5c0.9,3.5,1.7,7,2.6,10.4c-7.8,0.9-13.9-2.6-19.1-6.1c-7-4.4-13.1-9.6-19.1-13.9c-1.7-0.9-3.5-1.7-6.1-2.6
	c-6.1-2.6-11.3-7.8-15.7-13.1c-2.6-3.5-4.4-7.8-6.1-11.3c-0.9-0.9-0.9-1.7-1.7-4.4c-2.6,3.5-4.4,7-6.1,9.6c-1.7,3.5-3.5,7-5.2,10.4
	c0,0.9-0.9,1.7-0.9,2.6c-3.5,5.2-7.8,10.4-11.3,15.7c-3.5,6.1-9.6,9.6-13.9,14.8c-3.5,3.5-7.8,3.5-13.1,3.5
	c-7.8-0.9-13.9-3.5-20.9-7c-0.9-0.9-2.6-2.6-2.6-2.6c0.9-1.7,0.9-4.4,4.4-4.4c0.9,0,2.6-0.9,4.4-1.7c4.4-1.7,9.6-3.5,13.9-4.4
	c5.2-1.7,7.8-6.1,10.4-9.6c2.6-2.6,5.2-5.2,7.8-8.7c4.4-7,8.7-14.8,13.1-21.8c1.7-3.5,4.4-7.8,5.2-12.2c0.9-3.5,4.4-7,0.9-10.4
	c-0.9-1.7,0-4.4,0-6.1c-1.7-1.7-4.4-2.6-6.1-4.4c-2.6-2.6-5.2-1.7-7.8,0.9c-4.4,3.5-3.5,8.7-3.5,13.1c0,3.5,0,7,0,10.4
	c0,1.7,0.9,2.6,0.9,4.4c0,0.9,0.9,0.9,0,1.7c-0.9,3.5-2.6,6.1-3.5,9.6c-0.9,3.5-1.7,6.1-2.6,9.6c0,0.9-0.9,2.6-0.9,2.6
	c-5.2,2.6-9.6,4.4-14.8,7c-7.8,4.4-15.7,8.7-23.5,12.2c-6.1,2.6-13.1,6.1-19.1,7c-6.1,0.9-12.2-2.6-16.5-7
	c-5.2-4.4-7.8-8.7-9.6-14.8c-1.7-4.4-4.4-8.7-5.2-13.1c-0.9-5.2-1.7-10.4-0.9-15.7c0.9-9.6,3.5-19.1,7-27.8c0-0.9-0.9-2.6-0.9-3.5
	c-3.5-3.5-7-7.8-4.4-12.2c1.7-3.5,7.8-5.2,12.2-1.7c2.6,1.7,5.2,3.5,7.8,5.2c0.9,0,1.7,0.9,2.6,0c0,0,0.9-0.9,0.9-1.7
	c0-2.6,0.9-5.2,0.9-7C156.3,436.9,155.4,435.2,155.4,434.3 M214.6,331.6c0-0.9,0-1.7,0-2.6c-1.7,0-3.5,0.9-6.1,0.9
	c0,0.9,0,0.9,0,1.7C211.1,331.6,212.9,331.6,214.6,331.6 M323.4,297.7c-4.4,0.9-8.7,2.6-13.1,3.5c2.6,1.7,4.4,2.6,6.1,3.5
	C319.1,302.1,320.8,300.3,323.4,297.7 M532.3,459.6c0,0-0.9-0.9-1.7-2.6c-1.7,2.6-3.5,4.4-5.2,7c0,0,0.9,1.7,1.7,1.7
	C530.5,465.7,532.3,463.1,532.3,459.6 M352.1,384.7c4.4-5.2,5.2-7.8,3.5-11.3C351.3,376.9,350.4,381.2,352.1,384.7 M474,444.8
	c-1.7-1.7-2.6-2.6-4.4-3.5s-4.4-0.9-3.5,1.7c0,3.5,0.9,7,2.6,9.6c1.7,3.5,4.4,2.6,6.1-0.9C470.5,450,470.5,449.1,474,444.8
	 M374.8,325.5c0-4.4,1.7-4.4,4.4-3.5c2.6,0.9,5.2,2.6,7.8,3.5c0.9,0,2.6,0,3.5,0c0-0.9,0-2.6-0.9-3.5c-1.7-1.7-3.5-2.6-5.2-4.4
	c-1.7-0.9-4.4-1.7-6.1-3.5c-3.5-3.5-6.1-1.7-8.7,1.7C371.3,319.5,369.5,323.8,374.8,325.5 M485.3,410c0,2.6-0.9,4.4,0,7
	c0,1.7,1.7,4.4,2.6,5.2c5.2,2.6,11.3,4.4,16.5,7C505.3,423,501.8,419.5,485.3,410 M410.4,321.2c0.9,5.2,3.5,7.8,7.8,8.7
	c1.7,0,4.4,0.9,6.1,1.7c3.5,0.9,5.2,2.6,5.2,6.1c0,7,4.4,9.6,8.7,12.2c4.4,3.5,10.4,6.1,8.7,13.1l0,0c4.4-0.9,6.1-5.2,3.5-9.6
	c-7.8-13.1-16.5-25.2-32.2-30.5C416.5,323.8,413.9,322.9,410.4,321.2 M439.2,374.3c-0.9,0.9-0.9,2.6-1.7,3.5
	c-1.7,2.6-1.7,5.2,0.9,7.8c3.5,3.5,6.1,7.8,9.6,10.4c3.5,2.6,7,5.2,10.4,8.7c-0.9-5.2-0.9-10.4-1.7-15.7c0-0.9-0.9-2.6-1.7-3.5
	c-1.7-0.9-1.7-2.6-1.7-4.4s0-5.2-1.7-7c-6.1-5.2-13.1-10.4-20-13.9c-5.2-2.6-8.7-5.2-9.6-11.3c0-3.5-1.7-3.5-4.4-2.6
	C415.7,363,426.1,369.9,439.2,374.3 M154.6,354.3c0.9,0,0.9,0.9,1.7,0.9c6.1,1.7,9.6-1.7,13.9-4.4c3.5-2.6,7-4.4,10.4-6.1
	c4.4-2.6,8.7-5.2,13.1-7.8c0.9,0,0.9-2.6,0-2.6c-3.5-2.6-7-5.2-10.4-7c-7.8-3.5-14.8-0.9-21.8,5.2c-5.2,5.2-11.3,9.6-16.5,13.9
	c-0.9,0.9-1.7,1.7-2.6,3.5c1.7,0,3.5,0.9,4.4,0.9c0.9,0,2.6-0.9,3.5-1.7c1.7,0,3.5-0.9,5.2-0.9C155.4,349.9,154.6,352.5,154.6,354.3
	 M514,481.3c-0.9,0-1.7,0.9-2.6,0.9c3.5-3.5,0.9-7.8,0.9-11.3c0-0.9,0-0.9-0.9-0.9c-3.5-0.9-4.4-3.5-4.4-7c0-2.6-7.8-8.7-10.4-8.7
	c-5.2,0-7.8,3.5-6.1,8.7c2.6,5.2,2.6,7.8,1.7,13.1c-0.9,4.4-1.7,7.8,3.5,10.4c6.1,2.6,7,3.5,11.3-0.9c1.7,5.2-3.5,7.8-5.2,12.2
	c0,0.9-1.7,0.9-2.6,0.9c-6.1-1.7-11.3-4.4-17.4-7c-1.7-0.9-2.6-1.7-4.4-2.6c-3.5,4.4-7.8,7.8-11.3,12.2c-0.9,1.7-1.7,3.5-1.7,5.2
	c1.7,0.9,3.5,0.9,6.1,1.7c0,1.7-1.7,3.5-4.4,3.5c-2.6,0-5.2-0.9-5.2-3.5c-0.9-4.4,0-7.8,2.6-10.4s5.2-6.1,7.8-8.7
	c-2.6-1.7-6.1-4.4-7.8-7.8c-2.6-3.5-3.5-7-4.4-11.3c3.5,3.5,7,7,11.3,8.7l0.9-0.9c-1.7-2.6-3.5-4.4-4.4-7l-0.9-0.9
	c0.9-4.4-2.6-4.4-5.2-6.1c-5.2-4.4-7.8-8.7-9.6-15.7c3.5,3.5,7.8,6.1,11.3,9.6l0.9-0.9c-1.7-4.4-4.4-7.8-7.8-10.4
	c-4.4-3.5-7.8-7-11.3-11.3c-0.9-1.7-0.9-3.5-1.7-6.1c2.6,2.6,4.4,5.2,8.7,5.2c-1.7-2.6-4.4-5.2-5.2-8.7c-0.9-2.6,0.9-6.1,1.7-9.6
	c-4.4,0.9-4.4,0.9-3.5,8.7c-5.2-3.5-6.1-8.7-1.7-14.8c2.6,1.7,6.1,4.4,8.7,6.1c0,0,0.9,0,0.9-0.9c-0.9-0.9-0.9-1.7-1.7-2.6
	c-3.5-3.5-7-7.8-10.4-11.3c-3.5-3.5-8.7-4.4-13.9-2.6c-2.6,0.9-3.5,2.6-1.7,5.2c-1.7,0.9-4.4,1.7-6.1,3.5c-1.7,0.9-3.5,0.9-4.4-0.9
	c-3.5-5.2-2.6-7.8,1.7-12.2c0.9-0.9,1.7-2.6,2.6-4.4c0.9,0,2.6,0.9,3.5,0.9c0.9,0,2.6-0.9,4.4-1.7c-3.5-5.2-7-6.1-11.3-1.7
	c-2.6,2.6-6.1,4.4-8.7,7c-0.9-1.7-1.7-3.5-2.6-5.2c-0.9-1.7-2.6-3.5-4.4-5.2c-0.9-1.7-1.7-3.5-2.6-4.4c3.5-3.5,3.5-3.5-2.6-7
	c0-0.9,0.9-2.6,0.9-4.4c-3.5,0-6.1-0.9-9.6,0c-3.5,0.9-5.2,0.9-7.8-0.9c-0.9,0-0.9-0.9-1.7-0.9c-3.5,3.5-7.8,7-11.3,10.4
	c-1.7,1.7-2.6,4.4-3.5,6.1s-1.7,3.5-3.5,5.2c-1.7,1.7-4.4,3.5-6.1,6.1c-2.6,2.6-7,3.5-10.4,1.7c-1.7-0.9-2.6-1.7-4.4-2.6
	c-1.7,2.6-4.4,5.2-6.1,7.8c-2.6,3.5-6.1,3.5-9.6,2.6s-4.4-3.5-5.2-7c0-1.7-0.9-3.5,0-5.2c0.9,0.9,1.7,2.6,3.5,3.5
	c1.7,0.9,3.5,1.7,4.4,1.7c1.7-1.7,3.5-3.5,5.2-6.1c-1.7-0.9-3.5-2.6-5.2-3.5h-0.9c-7,1.7-13.1-0.9-20-1.7c-3.5-0.9-6.1-1.7-7-5.2
	c-0.9-3.5-0.9-7,2.6-9.6c0.9-0.9,2.6-1.7,3.5-3.5c-0.9,3.5-1.7,7-0.9,8.7s5.2,2.6,7.8,4.4c0.9-8.7,2.6-14.8,9.6-19.1
	c3.5-2.6,7.8-2.6,12.2-0.9c-1.7,0.9-2.6,0.9-4.4,1.7c-3.5,1.7-7,3.5-9.6,5.2c-3.5,2.6-2.6,7.8,0.9,10.4c7,5.2,7,5.2,13.9,1.7
	c3.5-1.7,6.1-5.2,10.4-3.5l1.7-1.7c0-2.6-1.7-4.4-4.4-5.2c-1.7,0-2.6,0-4.4-0.9c-0.9,0-1.7-0.9-2.6-1.7c0-0.9,0.9-1.7,1.7-2.6
	c1.7-0.9,3.5-1.7,5.2-2.6c0.9-0.9,2.6-2.6,2.6-4.4c0.9-4.4,3.5-6.1,6.1-8.7h0.9c12.2-7.8,24.4-4.4,35.7,1.7
	c4.4,2.6,8.7,5.2,13.1,8.7c0.9-0.9,0.9-2.6,2.6-4.4c-2.6-1.7-5.2-2.6-9.6-4.4c-0.9-4.4-6.1-3.5-9.6-5.2c-2.6-0.9-5.2-1.7-7-3.5
	c-3.5-2.6-7-2.6-10.4-1.7c-1.7,0-3.5,0-6.1,0.9c-0.9,0-0.9,0-1.7,0c-6.1,2.6-12.2,4.4-19.1,7c-0.9-0.9-0.9-0.9-1.7-1.7
	c-2.6-1.7-3.5-1.7-4.4,1.7c-0.9,1.7,0.9,4.4-2.6,4.4s-7,0.9-7.8-3.5c-0.9-1.7-2.6-2.6-3.5-4.4c-0.9-1.7-1.7-2.6-1.7-4.4
	c-1.7-6.1-2.6-7.8-9.6-7.8c-6.1,0-11.3-1.7-15.7-7c-1.7-2.6-3.5-3.5-7-2.6c-2.6,0.9-5.2,0.9-7.8,1.7c0,3.5-1.7,4.4-4.4,4.4
	s-5.2,0-8.7,0c-1.7,0-2.6,0.9-4.4,1.7c-2.6,1.7-5.2,2.6-7.8,0c2.6,0-0.9,0-2.6,0c-0.9,0-1.7,2.6-2.6,3.5c-3.5,0.9-7.8,0.9-12.2,1.7
	s-7.8,0.9-13.1,1.7c1.7-3.5,3.5-5.2,7-6.1c3.5-0.9,7.8-1.7,10.4-3.5c2.6-1.7,4.4-5.2,6.1-7.8l-0.9-0.9c-2.6,1.7-5.2,3.5-7,5.2
	c-2.6,2.6-6.1,3.5-9.6,4.4c-5.2,0.9-10.4,1.7-13.1,7.8c0,0.9-1.7,0.9-1.7,0.9c-0.9,0-1.7,0-2.6,0.9c-3.5,1.7-6.1,6.1-10.4,6.1
	c-4.4,0.9-7,2.6-10.4,4.4c-2.6,1.7-6.1,3.5-9.6,5.2c-3.5,2.6-7.8,4.4-11.3,7c-1.7,0.9-2.6,2.6,0,4.4c0.9,0,0.9,1.7,0.9,2.6
	c-2.6,4.4-3.5,9.6-9.6,9.6c-0.9,0-1.7,2.6-2.6,3.5c-0.9,2.6-2.6,3.5-6.1,1.7c-5.2-2.6-16.5-0.9-17.4,5.2
	c-1.7,7.8-8.7,11.3-13.1,16.5c-1.7,2.6-2.6,3.5-2.6,4.4c-0.9,5.2-4.4,7-8.7,9.6c-0.9,0.9-1.7,0.9-2.6,1.7c-0.9,0.9-1.7,2.6-1.7,3.5
	c1.7,0.9,2.6,1.7,4.4,2.6c-0.9,3.5-3.5,4.4-6.1,5.2c-1.7,0.9-2.6,1.7-3.5,2.6c-7.8,12.2-13.9,25.2-19.1,38.3
	c-5.2,13.9-9.6,27-11.3,41.8c-2.6,13.9-5.2,27.8-3.5,42.6c0.9,12.2,2.6,25.2,4.4,37.4c0,2.6,0.9,4.4,0.9,7c0,3.5,1.7,7,3.5,9.6
	c2.6,3.5,2.6,7.8,3.5,11.3c0.9,1.7,0.9,3.5,0.9,5.2c1.7,4.4,2.6,9.6,4.4,13.9c0,0.9,0.9,2.6,1.7,3.5c2.6,4.4,6.1,8.7,9.6,13.9
	c1.7,1.7,2.6,5.2,4.4,6.1c5.2,3.5,6.1,9.6,9.6,14.8c1.7,1.7,2.6,4.4,5.2,6.1c6.1,4.4,11.3,9.6,15.7,15.7c1.7,1.7,4.4,3.5,6.1,5.2
	c3.5,2.6,7,4.4,10.4,6.1c3.5,2.6,6.1,7.8,12.2,7.8l-0.9,0.9c-1.7,0.9-3.5,0.9-5.2,1.7c1.7,0.9,2.6,2.6,3.5,2.6c7,3.5,13.9,7,20,10.4
	c3.5,1.7,6.1,2.6,9.6,4.4c9.6,5.2,20.9,8.7,30.5,13.9c9.6,4.4,20,1.7,29.6,7.8c0,0,0.9,0,1.7,0c7-2.6,13.1,0.9,19.1,0.9
	c7.8,0.9,15.7,0,23.5,0.9c10.4,0.9,20-2.6,30.5-4.4c16.5-2.6,32.2-7.8,47-13.9c12.2-5.2,24.4-12.2,36.6-18.3c6.1-2.6,13.1-4.4,20-7
	c0.9,0,1.7,0.9,3.5,0.9c-3.5,3.5-7,7-10.4,9.6c-4.4,3.5-8.7,6.1-13.1,8.7c-1.7,0.9-2.6,2.6-4.4,4.4c-1.7,0.9-2.6,2.6-4.4,3.5
	c-13.9,5.2-27,11.3-40.9,15.7c-4.4,1.7-9.6,1.7-13.9,2.6c-2.6,0.9-5.2,0.9-8.7,1.7c-0.9,0-2.6,0.9-3.5,1.7v0.9
	c1.7,0.9,3.5,1.7,5.2,2.6v0.9c-1.7,0-3.5,0.9-5.2,0.9c-11.3,0-22.6,0-33.9,0c-2.6,0-6.1,0-7.8,2.6c-0.9,0.9-3.5,0.9-4.4,0
	c-4.4-2.6-8.7-3.5-13.1,0c-3.5,2.6-7,1.7-10.4-0.9c-3.5-1.7-6.1-2.6-9.6-0.9c-2.6,0.9-3.5,0-5.2-1.7c-2.6-1.7-6.1-3.5-8.7-4.4
	c-1.7-0.9-4.4-0.9-6.1-1.7c-0.9,0-2.6,0.9-3.5,0.9c0.9,0.9,0.9,2.6,1.7,3.5c6.1,5.2,12.2,8.7,20,8.7c0.9,0,1.7,0.9,3.5,0.9
	c-6.1,1.7-11.3,0.9-16.5-1.7c-3.5-1.7-6.1-3.5-9.6-5.2c-2.6-0.9-3.5-2.6-3.5-5.2c0-3.5-0.9-4.4-4.4-2.6c0,0,0,0.9-0.9,0
	c-5.2-0.9-10.4,1.7-16.5-0.9c-2.6-1.7-5.2-1.7-8.7-2.6c-0.9,0-2.6,0-3.5-0.9c-5.2-1.7-11.3-4.4-16.5-6.1c-1.7-0.9-3.5-1.7-4.4-2.6
	c-10.4-9.6-20.9-19.1-31.3-28.7c-5.2-5.2-11.3-10.4-16.5-16.5c-4.4-5.2-7-10.4-10.4-15.7C91,672.8,81.5,651,73.6,629.3
	c-6.1-16.5-10.4-33.1-15.7-50.5c-2.6-10.4-1.7-20.9-1.7-31.3c0-3.5-0.9-7-0.9-10.4c0-0.9,0-1.7,0-2.6c1.7-9.6,4.4-18.3,5.2-27.8
	c1.7-20,10.4-37.4,16.5-55.7c1.7-5.2,2.6-10.4,4.4-15.7c2.6-6.1,5.2-11.3,7.8-16.5c0.9-0.9,1.7-2.6,3.5-2.6
	c6.1,0.9,10.4-5.2,13.9-10.4c0-0.9,0.9-0.9,0.9-1.7c-1.7-3.5,0.9-5.2,2.6-7c6.1-6.1,13.1-13.1,19.1-19.1c1.7-1.7,2.6-5.2,3.5-7.8
	c0-0.9-0.9-1.7-1.7-1.7c-2.6,0-5.2,0.9-7,1.7c-8.7,7-14.8,14.8-20,24.4c-2.6,5.2-6.1,10.4-8.7,15.7c0,0.9-0.9,0.9-0.9,1.7
	c-1.7,1.7-3.5,2.6-5.2,4.4c0.9-1.7,0.9-4.4,1.7-6.1c1.7-3.5,3.5-7,5.2-10.4c5.2-12.2,13.9-20.9,21.8-31.3c1.7-2.6,3.5-4.4,1.7-7.8
	c0-0.9,0.9-2.6,1.7-3.5c15.7-13.1,31.3-26.1,47-39.2c7.8-7,17.4-8.7,27-10.4c1.7-0.9,3.5,0.9,5.2,0.9c0,0,0.9,0,0.9,0.9
	c2.6,1.7,6.1,1.7,7-0.9c0.9-1.7-0.9-4.4-1.7-6.1c-0.9-1.7-2.6-1.7-4.4-3.5c7-0.9,13.9-0.9,19.1,4.4c1.7-4.4,3.5-9.6,4.4-13.9
	c0-0.9-1.7-2.6-2.6-2.6c-5.2,0-11.3,0-16.5,0c-1.7,0-3.5,0-4.4,0c7-3.5,14.8-3.5,21.8-3.5c5.2,0,7.8,2.6,10.4,7
	c2.6,3.5,2.6,3.5,7.8-0.9c1.7,0.9,2.6,1.7,4.4,2.6s2.6,2.6,4.4,2.6c2.6,0,5.2-0.9,7.8-2.6c0.9,0,0.9-2.6,0.9-3.5
	c-0.9-1.7-1.7-3.5-2.6-5.2c4.4,0,7.8,0.9,10.4,5.2c0.9,0.9,1.7,1.7,2.6,1.7c2.6,0,6.1-0.9,9.6-1.7c-1.7-2.6-2.6-5.2-3.5-7.8
	c5.2,0,9.6,1.7,12.2,6.1c1.7,2.6,3.5,4.4,7,4.4c1.7,0,3.5,0.9,5.2,1.7c1.7-4.4,4.4-8.7,1.7-14.8c-1.7,1.7-3.5,3.5-5.2,5.2l-0.9-0.9
	c1.7-3.5,3.5-7,5.2-10.4c0.9-1.7,3.5-1.7,3.5,0c0.9,3.5,1.7,6.1,1.7,8.7c0,3.5-1.7,7-2.6,10.4c0,1.7,0.9,2.6,0.9,4.4
	c1.7-0.9,2.6-0.9,4.4-1.7c1.7-1.7,2.6-5.2,7-4.4c1.7,0,3.5-7,1.7-9.6c-0.9-1.7-1.7-2.6-2.6-4.4c6.1,2.6,11.3,5.2,14.8,10.4
	c1.7,2.6,4.4,4.4,7,3.5c2.6-0.9,4.4-6.1,2.6-8.7c0-0.9-0.9-1.7-1.7-2.6c7,1.7,9.6,4.4,11.3,12.2c2.6,0.9,5.2,2.6,8.7,3.5
	c0.9-3.5-2.6-5.2-4.4-7.8c-2.6-3.5-2.6-4.4,0.9-7c0.9,1.7,1.7,4.4,2.6,6.1s3.5,2.6,5.2,0.9s0.9-4.4-0.9-5.2
	c-1.7-0.9-3.5-2.6-4.4-3.5c-0.9-1.7-2.6-4.4-3.5-6.1c-2.6-3.5-6.1-6.1-9.6-9.6c-1.7-0.9-2.6-2.6-3.5-3.5l0.9-1.7
	c4.4,3.5,9.6,7,13.9,10.4c2.6,2.6,4.4,3.5,7.8,0.9c-0.9-4.4-2.6-7-7.8-5.2c0-2.6,0-5.2,0-7c0-3.5,1.7-4.4,4.4-2.6
	c1.7,0.9,2.6,1.7,4.4,3.5c3.5,3.5,4.4,2.6,6.1-0.9c0-0.9,0.9-1.7,1.7-2.6c3.5,3.5,7,6.1,8.7,11.3c0.9,3.5,4.4,7,7,9.6
	c0,0,0.9,0,1.7,0c-0.9-2.6-1.7-4.4-2.6-7c5.2,4.4,8.7,10.4,9.6,17.4c0,7,1.7,13.1,5.2,19.1c3.5-2.6,3.5-5.2,1.7-11.3
	c6.1,3.5,11.3,7.8,11.3,15.7c7,4.4,12.2,0.9,13.9-7.8c3.5,5.2,3.5,7.8,0.9,15.7c0.9,1.7,2.6,3.5,3.5,5.2c1.7,2.6,3.5,2.6,5.2,0.9
	c3.5-1.7,4.4-5.2,4.4-10.4c4.4,7,7.8,13.1,4.4,20.9c-0.9,1.7,0.9,3.5,0.9,5.2c4.4-0.9,5.2-4.4,6.1-7.8c4.4,5.2,4.4,11.3,0,15.7
	c-0.9-0.9-2.6-0.9-3.5-1.7c0,0,0,0-0.9,0c2.6,4.4,6.1,9.6,8.7,13.9c1.7-6.1,4.4-12.2,4.4-18.3c0.9-8.7,0-17.4,0-26.1
	c0-0.9-0.9-2.6-0.9-3.5c0-4.4-0.9-8.7-6.1-10.4c4.4-6.1,7-13.1,7-20.9c2.6,9.6,4.4,19.1,7,28.7c3.5,0,5.2-4.4,8.7-0.9l0,0
	c-7.8,7-7.8,7-3.5,14.8c1.7,4.4,3.5,8.7,6.1,13.1c4.4,7,5.2,14.8,2.6,22.6c0,1.7,0,3.5,0.9,5.2c0.9,4.4,2.6,7.8,0.9,12.2
	c0,0.9,0,1.7,0.9,2.6c3.5,2.6,6.1,5.2,10.4,7.8c0-0.9,0-2.6,0-3.5c-0.9-6.1-1.7-11.3-2.6-17.4v-0.9c4.4-4.4,2.6-9.6,2.6-13.9
	c0-0.9,0-0.9,0.9-2.6c0.9,2.6,1.7,3.5,2.6,5.2c0.9,0.9,1.7,0.9,2.6,1.7c0.9-0.9,1.7-1.7,1.7-2.6c0-7.8,0-14.8,0-22.6
	c0-2.6,0-3.5,2.6-4.4c5.2-0.9,7.8-5.2,9.6-9.6c0.9-1.7,2.6-3.5,3.5-5.2l0.9,0.9c-0.9,1.7-0.9,4.4-1.7,6.1c-3.5,7-4.4,13.9-2.6,21.8
	c2.6,7.8,0.9,14.8-2.6,21.8c-3.5,6.1-4.4,13.1-3.5,20c0,4.4,0,7.8-3.5,10.4c-2.6,1.7-2.6,10.4-0.9,13.9s2.6,7.8,4.4,11.3
	c0,0.9,0.9,2.6,1.7,3.5c5.2,5.2,5.2,12.2,5.2,18.3c0.9,6.1,4.4,10.4,9.6,13.1c4.4,2.6,9.6,4.4,12.2,8.7c0.9,0.9,2.6,1.7,4.4,1.7
	c7.8,0,13.9-6.1,15.7-13.9c0.9-2.6,1.7-6.1,2.6-8.7c1.7-4.4,5.2-7,9.6-7c5.2,0,10.4,0,14.8,0.9c4.4,0,9.6,4.4,13.9,9.6l-0.9-0.9
	c-7-7-14.8-8.7-24.4-7.8c-4.4,0-7,3.5-8.7,7c-2.6,6.1-5.2,12.2-8.7,17.4c-2.6,4.4-6.1,6.1-11.3,7c-6.1,0.9-7,1.7-6.1,7.8
	c0.9,3.5,3.5,7,5.2,11.3c0.9,1.7,1.7,4.4,0.9,5.2s-3.5,1.7-5.2,1.7c-7-1.7-13.1-2.6-20-5.2C517.5,483.9,516.6,483.1,514,481.3"/>
</svg>
