<?xml version="1.0" encoding="utf-8"?>
<!-- Generator: Adobe Illustrator 24.0.1, SVG Export Plug-In . SVG Version: 6.00 Build 0)  -->
<svg version="1.1" id="Layer_1" xmlns="http://www.w3.org/2000/svg" xmlns:xlink="http://www.w3.org/1999/xlink" x="0px" y="0px"
	 viewBox="0 0 102 24" style="enable-background:new 0 0 102 24;" xml:space="preserve">
<style type="text/css">
	.st0{filter:url(#Adobe_OpacityMaskFilter);}
	.st1{fill-rule:evenodd;clip-rule:evenodd;fill:#FFFFFF;}
	.st2{mask:url(#mask-4_1_);fill-rule:evenodd;clip-rule:evenodd;fill:url(#Fill-1_1_);}
</style>
<title>Fill 1</title>
<desc>Created with Sketch.</desc>
<g id="Symbols">
	<g id="GameTab04" transform="translate(-793.000000, -181.000000)">
		<g id="Group-3" transform="translate(793.000000, 180.360714)">
			<g id="Clip-2">
			</g>
			<defs>
				<filter id="Adobe_OpacityMaskFilter" filterUnits="userSpaceOnUse" x="0" y="0.6" width="102" height="24">
					<feColorMatrix  type="matrix" values="1 0 0 0 0  0 1 0 0 0  0 0 1 0 0  0 0 0 1 0"/>
				</filter>
			</defs>
			<mask maskUnits="userSpaceOnUse" x="0" y="0.6" width="102" height="24" id="mask-4_1_">
				<g class="st0">
					<polygon id="path-3_1_" class="st1" points="0,0.6 102,0.6 102,24.6 0,24.6 					"/>
				</g>
			</mask>
			
				<linearGradient id="Fill-1_1_" gradientUnits="userSpaceOnUse" x1="-251.0098" y1="393.6541" x2="-251.0098" y2="392.6809" gradientTransform="matrix(102 0 0 -24 25653.998 9448.9814)">
				<stop  offset="0" style="stop-color:#FDF8A2"/>
				<stop  offset="0.451" style="stop-color:#F4D97A"/>
				<stop  offset="1" style="stop-color:#EEC462"/>
			</linearGradient>
			<path id="Fill-1" class="st2" d="M48.4,3.8c0.9,0,1.5-0.6,1.5-1.6c0-0.9-0.6-1.6-1.5-1.6c-0.9,0-1.5,0.7-1.5,1.6
				C46.9,3.2,47.5,3.8,48.4,3.8L48.4,3.8z M58.7,19c0.1-0.5-0.3-0.8-0.7-1c-0.4-0.2-0.8-0.1-1.1,0.3c-0.3,0.4-0.6,0.8-0.9,1.2
				c-0.4,0.5-0.8,1.1-1.1,1.6c-0.4,0.7-0.9,1.3-1.3,2c-0.2,0.4-0.1,0.8,0.4,1.2c0.4,0.3,0.8,0.3,1.1,0c0.3-0.3,0.6-0.7,0.9-1
				c0.7-1,1.3-1.9,2-2.9c0.3-0.4,0.5-0.9,0.8-1.3C58.7,19.1,58.7,19,58.7,19L58.7,19z M47.5,21.5c0,0.6,0,1.3,0,1.9
				c0,0.8,0.8,1.4,1.5,1.1c0.3-0.2,0.7-0.7,0.7-1.2c0-5.1,0-10.2,0-15.3c0-0.2,0-0.4-0.1-0.6c-0.2-0.5-0.9-0.9-1.3-0.7
				c-0.5,0.2-0.8,0.6-0.8,1.2c0,2.6,0,5.1,0,7.7V21.5z M39.6,8.6c0-0.5,0-0.5,0.6-0.6c0.7,0,1.4,0,2.1-0.1C42.8,7.9,43,7.5,43,7.1
				c0-0.4-0.5-0.8-0.9-0.8c-0.7,0-1.3,0-2,0c-0.3,0-0.5-0.1-0.4-0.5c0-1.4,0-2.8,0-4.2c0-0.4-0.5-0.9-0.9-0.9
				c-0.6,0-1.1,0.4-1.1,1.1c0,1.3,0,2.6,0,3.9c0,0.5,0,0.6-0.5,0.6c-0.3,0-0.5,0-0.8,0c-0.5,0-0.9,0.2-0.9,0.6
				C35.2,7.5,35.4,7.8,36,8C36.3,8,36.5,8,36.8,8c0.7-0.1,0.8,0,0.8,0.7c0,4.1,0,8.1,0,12.2c0,0.7,0.1,1.3,0.4,1.9
				c0.2,0.6,0.7,1.1,1.2,1.3c1,0.4,2,0.5,3.1,0.3c0.4-0.1,0.7-0.4,0.7-0.7c0-0.6,0-0.7-0.6-0.9c-0.4-0.1-0.8-0.1-1.2-0.1
				c-0.9,0-1.5-0.6-1.5-1.5c0-2.1,0-4.2,0-6.3C39.6,12.9,39.6,10.7,39.6,8.6L39.6,8.6z M53.6,7.3c-0.1,0.3-0.1,0.7,0,1
				c0.2,0.5,0.6,0.9,0.9,1.3c0.8,1.2,1.7,2.3,2.5,3.5c0.5,0.7,1,1.4,1.5,2.1c0.8,1.1,1.5,2.2,2.3,3.3c0.6,0.9,1.3,1.8,1.9,2.7
				c0.7,1,1.4,2,2.1,3c0.3,0.4,0.7,0.6,1.2,0.3c0.8-0.5,0.9-1,0.4-1.7c-0.5-0.8-1.1-1.5-1.6-2.3c-1.1-1.5-2.1-3-3.2-4.5
				c-0.1-0.1-0.1-0.5,0-0.6c0.4-0.7,0.9-1.3,1.4-2c0.7-1,1.5-2,2.2-3.1c0.4-0.6,0.9-1.2,1.3-1.8c0.2-0.4,0.4-0.8,0.1-1.2
				c-0.2-0.4-0.5-0.6-1-0.6c-0.5,0.1-0.8,0.5-1.1,0.8c-0.5,0.7-1,1.4-1.5,2.1c-0.5,0.8-1.1,1.5-1.6,2.3c-0.3,0.5-0.7,1-1,1.4
				c-0.2,0.3-0.4,0.3-0.6-0.1c-0.4-0.7-0.9-1.3-1.4-2c-1-1.4-1.9-2.7-2.9-4.1C55.3,7,55,6.6,54.6,6.7C54.1,6.7,53.8,6.9,53.6,7.3
				L53.6,7.3z M89,23.4c0,0.5,0.3,0.8,0.7,1c0.1,0.1,0.4,0.1,0.5,0c0.5-0.2,0.8-0.6,0.8-1.2c0-3.3,0-6.7,0-10c0-0.5,0.1-1,0.4-1.5
				c1-1.5,2.3-2.7,4.2-3.1c1.1-0.2,2.2-0.2,3.2,0.5c0.5,0.4,0.9,0.9,1.2,1.4c0.2,0.4,0.2,1,0.2,1.5c0,2.8,0,5.6,0,8.3c0,1,0,2,0,3
				c0,0.6,0.4,1.1,0.9,1.1c0.6,0,1-0.5,1-1.2c0-3.9,0-7.9,0-11.8c0-0.8-0.3-1.5-0.7-2.2c-0.4-0.8-1-1.3-1.7-1.7
				c-0.4-0.3-0.9-0.4-1.4-0.5c-0.9-0.2-1.9-0.2-2.8-0.1C94.7,7,94,7.3,93.3,7.6c-0.8,0.4-1.4,1-1.9,1.7c-0.1,0.1-0.2,0.2-0.3,0.1
				C91,9.4,91,9.2,91,9.1c0-0.3,0-0.7,0-1c0-0.5-0.6-1.1-1-1c-0.5,0-0.9,0.5-0.9,1.1c0,2.5,0,5.1,0,7.6C89,18.3,89,20.9,89,23.4
				L89,23.4z M77.1,8.6c-0.5,0.1-0.9,0.1-1.4,0.2c-1.1,0.3-2,0.9-2.7,1.7c-0.6,0.8-1.1,1.7-1.3,2.7c-0.2,1.1-0.4,2.2-0.3,3.3
				c0.1,0.6,0.1,1.1,0.2,1.7c0.2,0.7,0.4,1.3,0.8,2c0.3,0.5,0.7,1,1.1,1.5c0.6,0.6,1.4,0.9,2.2,1.2c1.2,0.4,2.3,0.2,3.4-0.3
				c1.5-0.6,2.3-1.8,2.9-3.2c0.4-1,0.6-2.2,0.6-3.3c0-1-0.1-2-0.4-3c-0.3-1.1-0.8-2-1.6-2.8C79.7,9.1,78.5,8.5,77.1,8.6L77.1,8.6z
				 M69.5,15.7c0.1-0.8,0.1-1.7,0.3-2.5c0.2-0.8,0.4-1.5,0.7-2.2c0.9-1.8,2.2-3.1,4.1-3.8C75.8,6.9,77,6.9,78.3,7
				c0.8,0.1,1.6,0.4,2.3,0.7c1,0.5,1.7,1.2,2.4,2.1c0.6,0.8,1,1.7,1.2,2.7c0.4,1.8,0.7,3.5,0.2,5.4c-0.2,0.7-0.3,1.4-0.6,2
				c-0.5,1.2-1.3,2.3-2.3,3.2c-1.6,1.2-3.4,1.6-5.3,1.5c-1.4-0.1-2.7-0.6-3.8-1.5c-0.9-0.7-1.5-1.6-2-2.6
				C69.8,18.9,69.4,17.3,69.5,15.7L69.5,15.7z M25.4,14.5c1.5,0,2.9,0,4.4,0c0.4,0,0.6-0.2,0.6-0.5c0-0.4-0.1-0.8-0.2-1.2
				c-0.3-0.8-0.7-1.5-1.1-2.2c-0.8-1.2-1.9-1.9-3.4-2c-1.9-0.1-3.3,0.8-4.2,2.5c-0.5,0.9-0.8,1.8-1,2.7c-0.1,0.5,0.1,0.8,0.6,0.8
				C22.6,14.5,24,14.5,25.4,14.5L25.4,14.5z M26.6,16.2c-1.7,0-3.3,0-5,0c-1.4,0-1.4,0-1.1,1.3c0.2,1,0.5,1.9,1,2.8
				c0.8,1.3,1.8,2.2,3.4,2.4c1.5,0.1,2.8-0.2,3.8-1.3c0.5-0.5,0.9-1.1,1.2-1.7c0.2-0.4,0.3-0.9,0.9-1c0.4-0.1,0.8,0,1,0.2
				c0.3,0.2,0.3,0.6,0.2,0.9c-0.4,1.3-1.2,2.3-2.2,3.2c-0.6,0.6-1.4,0.9-2.2,1.2c-0.6,0.2-1.2,0.3-1.7,0.3c-1.2,0.1-2.4,0-3.5-0.7
				c-0.5-0.3-1-0.7-1.5-1.1c-0.6-0.5-1.1-1.2-1.4-1.9c-0.2-0.6-0.5-1.1-0.7-1.7c-0.5-1.5-0.4-3-0.4-4.6c0-1,0.2-2,0.6-2.9
				c0.5-1.1,1-2.1,1.9-3c0.7-0.7,1.5-1.2,2.4-1.5c0.9-0.3,1.9-0.3,2.9-0.2c1,0.1,1.9,0.4,2.6,0.9c0.7,0.5,1.3,1.1,1.8,1.8
				c0.5,0.6,0.8,1.3,1.1,2c0.3,0.9,0.5,1.8,0.6,2.7c0.1,0.5,0,1,0,1.5c0,0.3-0.2,0.3-0.4,0.3C30.2,16.2,28.4,16.2,26.6,16.2
				L26.6,16.2z M2,15.6c0.1,1,0,2.1,0.4,3.1c0.4,1,0.8,1.9,1.5,2.6c1.2,1.1,2.6,1.5,4.2,1.3c1.1-0.1,2-0.6,2.7-1.5
				c0.4-0.6,0.8-1.2,1.1-1.9c0.3-0.9,0.6-1.8,0.7-2.7c0.1-1.2,0.1-2.4-0.3-3.7c-0.4-1.3-0.8-2.4-1.8-3.3C9.7,9,8.7,8.6,7.6,8.5
				c-0.9,0-1.7,0.1-2.5,0.5c-0.7,0.4-1.2,0.8-1.7,1.4c-0.6,0.8-1,1.6-1.2,2.6C2.1,13.9,2.1,14.7,2,15.6L2,15.6z M2.3,22.3
				c-0.1,0.1-0.2,0.3-0.2,0.4c0,0.3,0,0.6,0,0.8c0,0.5-0.6,1-1.1,1c-0.5,0-1-0.5-1-1c0-0.3,0-0.6,0-1C0,15.7,0,8.8,0,1.8
				c0-0.5,0.2-0.9,0.6-1.1c0.7-0.3,1.5,0.4,1.5,1c0,2.3,0,4.5,0,6.8c0,0.1,0,0.2,0,0.3c0,0.1,0.1,0.2,0.2,0.3C2.4,9,2.5,9,2.5,8.9
				c0.6-0.7,1.3-1.3,2.2-1.6C6,6.8,7.2,6.8,8.4,6.9c1,0.1,1.9,0.4,2.7,0.9c0.8,0.5,1.5,1.2,2,2.1c0.4,0.8,0.8,1.7,1.1,2.5
				c0.2,0.7,0.3,1.4,0.4,2.2c0.1,1.3,0,2.6-0.3,3.8c-0.3,1.3-0.8,2.5-1.6,3.5c-0.8,1-1.7,1.7-2.9,2.1c-1.2,0.4-2.4,0.5-3.6,0.2
				c-1-0.2-1.9-0.5-2.7-1.1C3,23,2.7,22.7,2.3,22.3L2.3,22.3z"/>
		</g>
	</g>
</g>
</svg>
