<?xml version="1.0" encoding="utf-8"?>
<!-- Generator: Adobe Illustrator 24.0.1, SVG Export Plug-In . SVG Version: 6.00 Build 0)  -->
<svg version="1.1" id="Layer_1" xmlns="http://www.w3.org/2000/svg" xmlns:xlink="http://www.w3.org/1999/xlink" x="0px" y="0px"
	 viewBox="0 0 1024 1024" style="enable-background:new 0 0 1024 1024;" xml:space="preserve">
<style type="text/css">
	.st0{fill:#018061;}
	.st1{fill:#F4F9F8;}
	.st2{fill:#FDFDFD;}
	.st3{fill:#EC1C2D;}
	.st4{fill:#F4821F;}
	.st5{fill:#028062;}
</style>
<title>1200px-7-eleven_logo.svg</title>
<desc>Created with Sketch.</desc>
<g id="存提專區">
	<g id="iPhone-8-存款專區-B02" transform="translate(-37.000000, -370.000000)">
		<g>
			<path class="st0" d="M107.7,453.4c294,0,588,0,882,0c0,1.5,0,2.9,0,4.4c0,282.2,0,564.3,0,846.5c0,5.6,0.7,4.8-4.9,4.8
				c-290.7,0-581.4,0-872,0c-5.6,0-4.9,0.8-4.9-4.8c0-282.2,0-564.3,0-846.5C107.8,456.3,107.7,454.9,107.7,453.4z M542.8,502.1
				c-107.2,0-214.3,0-321.5,0c-22.6,0-38.5,17.7-36.3,40.2c9.1,91.8,18.1,183.6,27.2,275.5c6.2,62.7,12.5,125.5,18.7,188.2
				c3.1,31,6.2,62,9.2,93c3.1,31,6.1,62,9.1,93c1.1,11.2,1.7,22.5,3.6,33.5c3.1,18,14.7,27.2,32.8,27.2c50,0,100,0.1,149.9-0.1
				c3.9,0,4.6,1.1,4.5,4.6c-0.2,8.9,0,17.8-0.1,26.8c0,2.4,0.6,3.1,3.1,3.1c68.5-0.1,137.1-0.1,205.6,0c2.5,0,3.1-0.7,3-3.1
				c-0.1-9.4,0-18.8-0.1-28.2c0-2.4,0.6-3.1,3-3.1c8.9,0.1,17.8,0.1,26.8,0.1c41.1,0,82.1-0.1,123.2,0c7.8,0,14.2-2.6,19.7-8.1
				c6.8-6.9,9.8-15.3,10.7-24.7c0.9-9.4,1.6-18.7,2.5-28.1c3.5-36.4,7.1-72.7,10.7-109.1c3.3-33.8,6.5-67.6,9.8-101.4
				c3.5-36.4,7.1-72.7,10.7-109.1c3.3-33.9,6.6-67.8,9.9-101.8c3.3-33.8,6.6-67.6,9.9-101.4c3.4-34.4,6.7-68.8,10.1-103.2
				c0.8-8,1.6-16,2.4-24.1c2.1-22-14-39.7-36.1-39.7C757.4,502.1,650.1,502.1,542.8,502.1z"/>
			<path class="st1" d="M107.7,453.4c0,1.5,0.1,2.9,0.1,4.4c0,282.2,0,564.3,0,846.5c0,5.6-0.7,4.8,4.9,4.8c290.7,0,581.4,0,872,0
				c5.6,0,4.9,0.8,4.9-4.8c0-282.2,0-564.3,0-846.5c0-1.5,0-2.9,0-4.4c0.5,0.3,1.6-0.7,1.5,0.7c0,0.9,0,1.7,0,2.6
				c0,283.5,0,567.1,0.1,850.6c0,2.7-0.6,3.4-3.4,3.4c-293.6-0.1-587.3-0.1-880.9-0.1c0-284.6,0-569.3,0-853.9
				C107,455.6,106.2,454.2,107.7,453.4z"/>
			<path class="st2" d="M542.8,502.1c107.3,0,214.6,0,321.9,0c22.1,0,38.2,17.8,36.1,39.7c-0.8,8-1.6,16-2.4,24.1
				c-3.4,34.4-6.7,68.8-10.1,103.2c-3.3,33.8-6.6,67.6-9.9,101.4c-3.3,33.9-6.6,67.8-9.9,101.8c-3.5,36.4-7.1,72.7-10.7,109.1
				c-3.3,33.8-6.5,67.6-9.8,101.4c-3.5,36.4-7.1,72.7-10.7,109.1c-0.9,9.4-1.6,18.7-2.5,28.1c-0.9,9.4-3.9,17.8-10.7,24.7
				c-5.5,5.6-11.9,8.2-19.7,8.1c-41.1-0.1-82.1,0-123.2,0c-8.9,0-17.8,0.1-26.8-0.1c-2.5,0-3.1,0.7-3,3.1c0.1,9.4,0,18.8,0.1,28.2
				c0,2.4-0.6,3.1-3,3.1c-68.5-0.1-137.1-0.1-205.6,0c-2.4,0-3.1-0.7-3.1-3.1c0.1-8.9-0.1-17.8,0.1-26.8c0.1-3.5-0.6-4.7-4.5-4.6
				c-50,0.2-100,0.1-149.9,0.1c-18.1,0-29.7-9.2-32.8-27.2c-1.9-11-2.5-22.3-3.6-33.5c-3.1-31-6-62-9.1-93c-3.1-31-6.2-62-9.2-93
				c-6.2-62.7-12.5-125.5-18.7-188.2c-9.1-91.8-18.1-183.6-27.2-275.5c-2.2-22.5,13.7-40.2,36.3-40.2
				C328.5,502.1,435.7,502.1,542.8,502.1z M794.6,683.1c0-28.7,0-57.4,0-86.2c0-4.2,0-4.2-3.6-2.6c-32.1,14.7-63.4,30.9-93.3,49.9
				c-34.8,22.2-67.6,46.8-97.2,75.8c-23.8,23.2-45,48.5-63,76.5c-22.8,35.5-39.1,73.7-47.3,115.3c-0.5,2.7-0.2,3.6,2.8,3.6
				c56.2,0.1,112.4,0.2,168.6,0.5c2.7,0,3.4-0.9,3.8-3.4c1.3-10,4.7-19.4,9.1-28.5c13.9-28.7,33.8-52.8,57.7-73.7
				c17.9-15.6,37.3-28.9,60-36.6c2.5-0.9,2.6-2.4,2.6-4.5C794.6,740.5,794.6,711.8,794.6,683.1z M733.6,601.5
				c-1.7-0.1-2.8-0.2-3.9-0.2c-141.1,0-282.3,0-423.4-0.1c-3.1,0-3.8,0.8-3.8,3.9c0.2,51.7,0.3,103.4,0.2,155.1
				c0,3.2,0.8,4.1,4.1,4.1c20.5-0.2,41.1-0.1,61.6-0.1c52.4,0,104.8,0,157.3,0.1c3.6,0,5.8-0.7,7.5-4.1c2.7-5.3,6.5-10.1,10.2-14.7
				c17.1-21.2,36.8-39.8,58-56.9C642.4,655.3,685.2,624.9,733.6,601.5z M547.2,1274.7c30,0,60.1,0,90.1,0.1c3.1,0,3.8-0.8,3.8-3.8
				c0-25,0-50.1,0.3-75.1c0.5-41.3,1.5-82.6,5.8-123.7c0.3-3.2-0.4-4.1-3.8-4.1c-58.8,0.1-117.5,0.1-176.3,0c-3.8,0-4.6,1.3-4.9,4.7
				c-6.4,66.1-8.6,132.4-8.9,198.7c0,3,1.1,3.3,3.6,3.3C487.1,1274.6,517.2,1274.7,547.2,1274.7z M708.8,993.9
				c0,19.2,0.1,38.4-0.1,57.6c0,2.8,0.7,3.5,3.5,3.5c9.8-0.2,19.6-0.2,29.3,0c3.2,0.1,4.3-0.6,4.3-4.1c-0.2-22.7-0.1-45.5-0.1-68.2
				c0-4.2-0.1-8.3,0-12.5c0.2-6.1,4.9-10.1,11.3-9.9c6.7,0.2,9.8,3.4,9.8,9.9c0,26.9,0.1,53.8-0.1,80.7c0,3.1,0.6,4.2,4,4.1
				c9.8-0.3,19.6-0.2,29.3,0c3.3,0.1,4-1,4-4.1c-0.1-32.3-0.1-64.5-0.1-96.8c0-13.7-7.3-22.1-21-24.2c-12.4-1.9-23.4,1.8-33.8,8.1
				c-2.8,1.7-3.9,1.6-3.4-1.9c0.3-2.5-0.5-3.4-3.1-3.3c-10.1,0.2-20.3,0.2-30.4,0c-2.8,0-3.4,0.9-3.4,3.5
				C708.9,955.5,708.8,974.7,708.8,993.9z M572.5,1013.2c-0.2,0-0.4,0-0.6,0c-0.3-1.4-0.7-2.8-0.9-4.2c-4.3-24.4-8.7-48.8-12.9-73.2
				c-0.4-2.3-1.1-3-3.5-3c-9.2,0.1-18.3,0.1-27.5,0c-2.7,0-3.2,0.6-2.8,3.3c2.2,13.2,4.2,26.5,6.3,39.8c4,25.3,7.9,50.7,11.9,76
				c0.3,1.8,0.7,3,3.1,3c14.8-0.1,29.6-0.1,44.3,0c1.9,0,2.7-0.6,3.1-2.6c7.4-39,14.8-77.9,22.3-116.8c0.4-2.3-0.1-2.7-2.2-2.6
				c-7.8,0.1-15.6,0.1-23.5,0c-2.4-0.1-2.8,1.1-3.2,2.9c-3,16.6-6,33.2-9,49.7C575.9,994.7,574.2,1003.9,572.5,1013.2z M623.9,993.8
				c0,19.3,0,38.6,0,57.9c0,1.9-0.1,3.2,2.6,3.2c21.1-0.1,42.3-0.1,63.4,0c2,0,2.8-0.5,2.8-2.7c-0.1-6.8-0.1-13.7,0-20.5
				c0.1-2.6-1.1-3-3.3-3c-7.8,0.1-15.6-0.1-23.5,0.1c-2.8,0.1-3.5-0.8-3.4-3.5c0.2-5.5,0.2-11,0-16.5c-0.1-2.7,1-3.2,3.4-3.2
				c7.9,0.1,15.9,0,23.8,0.1c2.2,0,3-0.5,3-2.8c-0.1-5.7-0.1-11.5,0-17.2c0.1-2.3-0.8-2.9-3-2.8c-8.1,0.1-16.1-0.1-24.2,0.1
				c-2.5,0-3.1-0.8-3-3.1c0.2-5.4,0.2-10.8,0-16.1c-0.1-2.7,0.5-3.8,3.5-3.7c7.7,0.2,15.4-0.1,23.1,0.2c3,0.1,3.6-1,3.6-3.7
				c-0.2-6.7-0.2-13.4,0-20.2c0.1-2.7-0.7-3.5-3.5-3.5c-20.6,0.1-41.3,0.1-61.9,0c-2.8,0-3.4,0.8-3.4,3.5
				C624,955.5,623.9,974.7,623.9,993.8z M288.6,993.9c0,19.3,0,38.6,0,57.9c0,1.8-0.2,3.2,2.5,3.2c21.1-0.1,42.3-0.1,63.4,0
				c2.1,0,2.6-0.7,2.6-2.7c-0.1-6.8-0.2-13.7,0-20.5c0.1-2.6-1-3-3.2-2.9c-7.9,0.1-15.9,0-23.8,0.1c-2.1,0-3.1-0.5-3-2.9
				c0.1-5.7,0.1-11.5,0-17.2c-0.1-2.4,0.7-3.1,3.1-3.1c7.9,0.1,15.9,0,23.8,0.1c2.3,0,3.2-0.5,3.1-3c-0.2-5.6-0.2-11.2,0-16.9
				c0.1-2.4-0.7-3.1-3.1-3.1c-7.9,0.1-15.9,0-23.8,0.1c-2.3,0-3.3-0.4-3.2-3c0.2-5.6,0.2-11.2,0-16.9c-0.1-2.4,0.7-3.1,3.1-3.1
				c7.9,0.2,15.9,0,23.8,0.1c2.2,0,3.2-0.4,3.1-2.9c-0.2-7.1-0.2-14.2,0-21.2c0.1-2.7-0.9-3.2-3.3-3.2c-20.6,0.1-41.3,0.1-61.9,0
				c-2.9,0-3.4,0.9-3.4,3.5C288.7,955.5,288.6,974.7,288.6,993.9z M448.4,993.8c0,19.2,0,38.4,0,57.5c0,1.8-0.5,3.6,2.6,3.5
				c21-0.1,42-0.1,63,0c2.1,0,2.8-0.6,2.7-2.7c-0.1-6.7-0.1-13.4,0-20.2c0.1-2.6-0.8-3.4-3.3-3.3c-7.8,0.1-15.6,0-23.5,0.1
				c-2.4,0-3.2-0.7-3.1-3.1c0.2-5.6,0.2-11.2,0-16.9c-0.1-2.4,0.6-3.2,3.1-3.1c7.8,0.1,15.6,0,23.5,0.1c2.4,0,3.5-0.5,3.4-3.2
				c-0.2-5.5-0.2-11,0-16.5c0.1-2.6-0.8-3.3-3.3-3.2c-7.8,0.1-15.6,0-23.5,0.1c-2.4,0-3.2-0.6-3.1-3c0.2-5.4,0.2-10.8,0-16.1
				c-0.1-2.8,0.5-3.8,3.6-3.7c7.8,0.2,15.6,0,23.5,0.1c2.3,0,2.9-0.6,2.9-2.9c-0.1-7.1-0.2-14.2,0-21.3c0.1-2.7-1-3.2-3.4-3.2
				c-20.5,0.1-41.1,0.1-61.6,0c-2.7,0-3.5,0.7-3.5,3.5C448.4,955.5,448.4,974.7,448.4,993.8z M370.1,993.5c0,19.4,0,38.9,0,58.3
				c0,2.2,0.3,3.2,2.9,3.2c20.9-0.1,41.8-0.1,62.7,0c2.1,0,3-0.4,3-2.8c-0.2-6.8-0.1-13.7,0-20.5c0-2.3-0.7-2.9-2.9-2.9
				c-7.6,0.1-15.2-0.2-22.7,0.1c-3.6,0.1-4.4-1-4.4-4.5c0.1-29.2,0-58.4,0.1-87.6c0-2.9-0.5-4-3.7-3.9c-10.5,0.2-21,0.2-31.5,0
				c-2.8,0-3.4,0.7-3.4,3.5C370.1,955.3,370.1,974.4,370.1,993.5z"/>
			<path class="st3" d="M794.6,683.1c0,28.7,0,57.4,0,86.2c0,2.1,0,3.6-2.6,4.5c-22.7,7.8-42.1,21-60,36.6
				c-23.9,20.9-43.8,44.9-57.7,73.7c-4.4,9.1-7.7,18.5-9.1,28.5c-0.3,2.5-1,3.4-3.8,3.4c-56.2-0.3-112.4-0.4-168.6-0.5
				c-3.1,0-3.3-0.9-2.8-3.6c8.2-41.6,24.5-79.7,47.3-115.3c18-28,39.3-53.2,63-76.5c29.6-28.9,62.4-53.6,97.2-75.8
				c29.8-19,61.2-35.2,93.3-49.9c3.6-1.6,3.6-1.6,3.6,2.6C794.6,625.7,794.6,654.4,794.6,683.1z"/>
			<path class="st4" d="M733.6,601.5c-48.4,23.3-91.2,53.8-132.2,87c-21.1,17.1-40.9,35.7-58,56.9c-3.8,4.7-7.5,9.4-10.2,14.7
				c-1.7,3.4-4,4.1-7.5,4.1c-52.4-0.1-104.8-0.1-157.3-0.1c-20.5,0-41.1-0.1-61.6,0.1c-3.3,0-4.1-0.9-4.1-4.1
				c0-51.7-0.1-103.4-0.2-155.1c0-3,0.8-3.9,3.8-3.9c141.1,0.1,282.3,0.1,423.4,0.1C730.8,601.4,731.9,601.4,733.6,601.5z"/>
			<path class="st3" d="M547.2,1274.7c-30,0-60.1,0-90.1,0c-2.5,0-3.6-0.2-3.6-3.3c0.3-66.4,2.4-132.6,8.9-198.7
				c0.3-3.4,1.1-4.7,4.9-4.7c58.8,0.1,117.5,0.1,176.3,0c3.3,0,4.1,0.8,3.8,4.1c-4.3,41.1-5.2,82.4-5.8,123.7
				c-0.3,25-0.3,50.1-0.3,75.1c0,3-0.8,3.8-3.8,3.8C607.3,1274.6,577.3,1274.7,547.2,1274.7z"/>
			<path class="st5" d="M708.8,993.9c0-19.2,0.1-38.4-0.1-57.6c0-2.7,0.6-3.6,3.4-3.5c10.1,0.2,20.3,0.2,30.4,0
				c2.7,0,3.4,0.9,3.1,3.3c-0.4,3.5,0.7,3.5,3.4,1.9c10.4-6.3,21.4-10,33.8-8.1c13.7,2.1,21,10.4,21,24.2c0,32.3,0,64.5,0.1,96.8
				c0,3.1-0.7,4.2-4,4.1c-9.8-0.2-19.6-0.3-29.3,0c-3.4,0.1-4-1.1-4-4.1c0.1-26.9,0.1-53.8,0.1-80.7c0-6.6-3.1-9.7-9.8-9.9
				c-6.4-0.2-11.1,3.9-11.3,9.9c-0.1,4.2,0,8.3,0,12.5c0,22.7-0.1,45.5,0.1,68.2c0,3.5-1,4.2-4.3,4.1c-9.8-0.2-19.6-0.2-29.3,0
				c-2.7,0-3.5-0.7-3.5-3.5C708.9,1032.3,708.8,1013.1,708.8,993.9z"/>
			<path class="st5" d="M572.5,1013.2c1.7-9.2,3.4-18.4,5.1-27.7c3-16.6,6-33.1,9-49.7c0.3-1.8,0.8-3,3.2-2.9
				c7.8,0.2,15.6,0.1,23.5,0c2.1,0,2.7,0.3,2.2,2.6c-7.5,38.9-14.9,77.9-22.3,116.8c-0.4,2-1.2,2.6-3.1,2.6
				c-14.8-0.1-29.6-0.1-44.3,0c-2.4,0-2.8-1.2-3.1-3c-3.9-25.3-7.9-50.7-11.9-76c-2.1-13.3-4.1-26.5-6.3-39.8
				c-0.4-2.7,0.1-3.3,2.8-3.3c9.2,0.1,18.3,0.1,27.5,0c2.3,0,3.1,0.7,3.5,3c4.2,24.4,8.6,48.8,12.9,73.2c0.2,1.4,0.6,2.8,0.9,4.2
				C572.1,1013.2,572.3,1013.2,572.5,1013.2z"/>
			<path class="st5" d="M623.9,993.8c0-19.2,0.1-38.4-0.1-57.5c0-2.7,0.6-3.5,3.4-3.5c20.6,0.1,41.3,0.1,61.9,0
				c2.8,0,3.5,0.8,3.5,3.5c-0.2,6.7-0.2,13.4,0,20.2c0.1,2.8-0.5,3.8-3.6,3.7c-7.7-0.2-15.4,0.1-23.1-0.2c-3-0.1-3.6,1-3.5,3.7
				c0.2,5.4,0.2,10.8,0,16.1c-0.1,2.3,0.5,3.1,3,3.1c8.1-0.2,16.1,0,24.2-0.1c2.2,0,3,0.5,3,2.8c-0.1,5.7-0.1,11.5,0,17.2
				c0.1,2.3-0.8,2.9-3,2.8c-7.9-0.1-15.9,0-23.8-0.1c-2.4,0-3.5,0.4-3.4,3.2c0.2,5.5,0.2,11,0,16.5c-0.1,2.7,0.6,3.6,3.4,3.5
				c7.8-0.2,15.6,0,23.5-0.1c2.2,0,3.4,0.4,3.3,3c-0.1,6.8-0.1,13.7,0,20.5c0,2.2-0.8,2.7-2.8,2.7c-21.1-0.1-42.3-0.1-63.4,0
				c-2.6,0-2.6-1.3-2.6-3.2C623.9,1032.5,623.9,1013.1,623.9,993.8z"/>
			<path class="st0" d="M288.6,993.9c0-19.2,0-38.4-0.1-57.5c0-2.6,0.5-3.5,3.4-3.5c20.6,0.1,41.3,0.1,61.9,0c2.5,0,3.4,0.5,3.3,3.2
				c-0.2,7.1-0.2,14.2,0,21.2c0.1,2.6-0.9,3-3.1,2.9c-7.9-0.1-15.9,0.1-23.8-0.1c-2.4,0-3.2,0.6-3.1,3.1c0.2,5.6,0.2,11.2,0,16.9
				c-0.1,2.6,0.9,3,3.2,3c7.9-0.1,15.9,0,23.8-0.1c2.4,0,3.1,0.6,3.1,3.1c-0.2,5.6-0.2,11.2,0,16.9c0.1,2.5-0.8,3-3.1,3
				c-7.9-0.1-15.9,0-23.8-0.1c-2.4,0-3.2,0.6-3.1,3.1c0.2,5.7,0.1,11.5,0,17.2c-0.1,2.3,0.9,2.9,3,2.9c7.9-0.1,15.9,0,23.8-0.1
				c2.2,0,3.3,0.3,3.2,2.9c-0.2,6.8-0.1,13.7,0,20.5c0,2-0.5,2.7-2.6,2.7c-21.1-0.1-42.3-0.1-63.4,0c-2.7,0-2.5-1.4-2.5-3.2
				C288.6,1032.5,288.6,1013.2,288.6,993.9z"/>
			<path class="st5" d="M448.4,993.8c0-19.2,0.1-38.4-0.1-57.5c0-2.8,0.7-3.5,3.5-3.5c20.5,0.1,41.1,0.1,61.6,0
				c2.4,0,3.5,0.5,3.4,3.2c-0.2,7.1-0.1,14.2,0,21.3c0,2.2-0.6,2.9-2.9,2.9c-7.8-0.1-15.6,0.1-23.5-0.1c-3.1-0.1-3.7,1-3.6,3.7
				c0.2,5.4,0.2,10.8,0,16.1c-0.1,2.4,0.7,3.1,3.1,3c7.8-0.1,15.6,0,23.5-0.1c2.5,0,3.4,0.6,3.3,3.2c-0.2,5.5-0.2,11,0,16.5
				c0.1,2.7-0.9,3.2-3.4,3.2c-7.8-0.1-15.6,0-23.5-0.1c-2.5,0-3.1,0.8-3.1,3.1c0.1,5.6,0.2,11.2,0,16.9c-0.1,2.4,0.7,3.2,3.1,3.1
				c7.8-0.1,15.6,0,23.5-0.1c2.5,0,3.4,0.7,3.3,3.3c-0.1,6.7-0.1,13.4,0,20.2c0,2.1-0.7,2.7-2.7,2.7c-21-0.1-42-0.1-63,0
				c-3.1,0-2.6-1.8-2.6-3.5C448.4,1032.2,448.4,1013,448.4,993.8z"/>
			<path class="st0" d="M370.1,993.5c0-19.1,0.1-38.1-0.1-57.2c0-2.7,0.6-3.5,3.4-3.5c10.5,0.2,21,0.2,31.5,0c3.2-0.1,3.7,1,3.7,3.9
				c-0.1,29.2,0,58.4-0.1,87.6c0,3.5,0.8,4.6,4.4,4.5c7.6-0.3,15.1,0,22.7-0.1c2.2,0,3,0.6,2.9,2.9c-0.1,6.8-0.2,13.7,0,20.5
				c0.1,2.4-0.9,2.8-3,2.8c-20.9-0.1-41.8-0.1-62.7,0c-2.6,0-2.9-0.9-2.9-3.2C370.1,1032.3,370.1,1012.9,370.1,993.5z"/>
		</g>
	</g>
</g>
</svg>
