<?xml version="1.0" encoding="utf-8"?>
<!-- Generator: Adobe Illustrator 24.0.1, SVG Export Plug-In . SVG Version: 6.00 Build 0)  -->
<svg version="1.1" id="Layer_1" xmlns="http://www.w3.org/2000/svg" xmlns:xlink="http://www.w3.org/1999/xlink" x="0px" y="0px"
	 viewBox="0 0 1024 1024" style="enable-background:new 0 0 1024 1024;" xml:space="preserve">
<style type="text/css">
	.st0{fill:none;}
</style>
<g>
	<path d="M681.9,774.1c-0.2-0.4-0.5-0.8-0.7-1.2c-0.8-1.3-1.7-2.6-2.7-3.8c-0.4-0.5-0.8-0.9-1.2-1.4c-1-1.1-2.1-2-3.2-3
		c-0.5-0.4-0.9-0.8-1.4-1.1c-1.7-1.2-3.5-2.3-5.4-3.1l-140.8-60.3c-2.8-1.2-5.7-1.8-8.5-2.1c-0.6-0.1-1.2-0.1-1.8-0.2
		c-0.5,0-1-0.2-1.5-0.2c-2.4,0-4.7,0.3-7,0.9c-0.4,0.1-0.7,0.3-1.1,0.4c-2.4,0.7-4.7,1.7-6.8,2.9c-0.7,0.4-1.3,0.7-1.9,1.2
		c-2.4,1.6-4.7,3.5-6.6,5.8l-62.4,76.2c-12.2-5.8-24.2-12-35.8-18.8c-46.4-27-87.7-61.8-122-102.6c-25.8-30.6-47.7-64.6-65-101.3
		l76.2-62.4c10.4-8.5,14-22.8,8.7-35.2L230.6,324c-0.9-2.1-2.2-4.1-3.5-5.9c-0.2-0.3-0.5-0.6-0.8-0.9c-5.6-6.9-13.8-11-22.7-11.3
		c-0.3,0-0.6-0.1-0.8-0.1c-0.2,0-0.4,0.1-0.6,0.1c-2,0-4.1,0.2-6.2,0.7L65.3,336.7c-13.7,3.2-23.4,15.4-23.4,29.4
		c0,322.5,261.4,583.4,583.4,583.4c0,0,0,0,0,0c1.9,0,3.7-0.6,5.6-1c1.5-0.3,3.1-0.3,4.5-0.8c1.6-0.6,3-1.6,4.4-2.5
		c1.4-0.8,3-1.4,4.3-2.4c1.9-1.5,3.3-3.4,4.8-5.4c0.6-0.7,1.3-1.3,1.8-2c1.8-2.8,3.2-6,4-9.4l20.2-87.6l10-43.1
		c0.5-2.4,0.7-4.7,0.6-7.1c0-0.5,0-1.1-0.1-1.6C685.2,782.2,684,778,681.9,774.1z"/>
	<path d="M395.7,474.5c-31.9,21.9-53.1,38.9-63.1,50.4c-18.5,20.8-27.3,45-27.3,73.1H497v-39.7H361.5c6.2-13.9,23.1-30,51.2-48.5
		c27-18.1,46.2-32.7,57-44.3c17.7-19.6,27-41.2,27-65.1c0-24.6-8.5-44.3-25.4-59.7c-17.3-15.4-39.3-23.1-65.8-23.1
		c-29.6,0-53.5,10-71.6,30c-17.7,18.9-26.6,43.5-27,74.3h45c0.8-21.5,5.4-38.1,13.9-48.9c8.5-11.6,21.2-17.3,38.1-17.3
		c15.8,0,27.7,3.5,35.8,10.8c7.7,7.3,11.9,18.5,11.9,33.5c0,15.4-6.2,30-18.1,43.5C425.7,451.8,413.4,462.2,395.7,474.5z"/>
	<path d="M658.2,323.2L523.8,496.5v42.7h132.8v58.9h42.7v-58.9h40.8v-35.8h-40.8V323.2H658.2z M656.7,503.4h-96.2l95.1-123.2h1.2
		V503.4z"/>
</g>
<g>
	<path class="st0" d="M681.9,774.1c-0.2-0.4-0.5-0.8-0.7-1.2c-0.8-1.3-1.7-2.6-2.7-3.8c-0.4-0.5-0.8-0.9-1.2-1.4c-1-1.1-2.1-2-3.2-3
		c-0.5-0.4-0.9-0.8-1.4-1.1c-1.7-1.2-3.5-2.3-5.4-3.1l-140.8-60.3c-2.8-1.2-5.7-1.8-8.5-2.1c-0.6-0.1-1.2-0.1-1.8-0.2
		c-0.5,0-1-0.2-1.5-0.2c-2.4,0-4.7,0.3-7,0.9c-0.4,0.1-0.7,0.3-1.1,0.4c-2.4,0.7-4.7,1.7-6.8,2.9c-0.7,0.4-1.3,0.7-1.9,1.2
		c-2.4,1.6-4.7,3.5-6.6,5.8l-62.4,76.2c-12.2-5.8-24.2-12-35.8-18.8c-46.4-27-87.7-61.8-122-102.6c-25.8-30.6-47.7-64.6-65-101.3
		l76.2-62.4c10.4-8.5,14-22.8,8.7-35.2L230.6,324c-0.9-2.1-2.2-4.1-3.5-5.9c-0.2-0.3-0.5-0.6-0.8-0.9c-5.6-6.9-13.8-11-22.7-11.3
		c-0.3,0-0.6-0.1-0.8-0.1c-0.2,0-0.4,0.1-0.6,0.1c-2,0-4.1,0.2-6.2,0.7L65.3,336.7c-13.7,3.2-23.4,15.4-23.4,29.4
		c0,322.5,261.4,583.4,583.4,583.4c0,0,0,0,0,0c1.9,0,3.7-0.6,5.6-1c1.5-0.3,3.1-0.3,4.5-0.8c1.6-0.6,3-1.6,4.4-2.5
		c1.4-0.8,3-1.4,4.3-2.4c1.9-1.5,3.3-3.4,4.8-5.4c0.6-0.7,1.3-1.3,1.8-2c1.8-2.8,3.2-6,4-9.4l20.2-87.6l10-43.1
		c0.5-2.4,0.7-4.7,0.6-7.1c0-0.5,0-1.1-0.1-1.6C685.2,782.2,684,778,681.9,774.1z"/>
</g>
<g>
	<path d="M788.4,598.1V366.2h46.8v91.3H927v-91.3h46.8v231.9H927V496.7h-91.7v101.4H788.4z"/>
</g>
<g>
	<path d="M516.6,74.6c-149.6,0-280,83-348.1,205.3l20.5-4.7c3.3-0.7,6.7-1.2,10.3-1.4l1-0.2h2.6c1.3,0,2.7,0.1,4,0.2
		c6.7,0.4,13.1,2.2,19.3,4.7c58.7-87.4,155.4-147.2,266.4-154.7v85.4h48.3v-85.4c140.8,9.7,258.8,102.9,304.9,230.4h51.1
		C846.1,192.3,694.9,74.6,516.6,74.6z"/>
	<path d="M711.9,762.9c3.1,6.8,5.2,13.9,5.7,21.5c0.1,1.1,0.1,2.2,0.1,3.4c0.1,5.2-0.4,10-1.5,14.8l-3.9,17
		c81.6-46.2,145.1-120.4,177.9-209.4h-52C811.5,672.4,767.4,725.4,711.9,762.9z"/>
</g>
</svg>
