<?xml version="1.0" encoding="utf-8"?>
<!-- Generator: Adobe Illustrator 24.0.1, SVG Export Plug-In . SVG Version: 6.00 Build 0)  -->
<svg version="1.1" id="Layer_1" xmlns="http://www.w3.org/2000/svg" xmlns:xlink="http://www.w3.org/1999/xlink" x="0px" y="0px"
	 viewBox="0 0 1024 1024" style="enable-background:new 0 0 1024 1024;" xml:space="preserve">
<path d="M697.3,796.4c4.2,11.5-4.2,29.8-11.2,42.5c-17.5,31.5-43.5,54.5-78.1,67.2c-41.8,15.3-79.6-4-115.6-17.7
	c-116.4-44.3-208.6-121.9-288-216.8C147.1,603,98.8,530.5,81.2,441.2c-1.8-9-3.5-18.1-3.9-20.3C77.6,360.5,137,299.3,188,302.4
	c14.1,0.9,30.9,7.4,40.8,17.1c19.7,19.3,37.4,41.4,52.4,64.6c18.6,28.8,11.6,61.8-14.9,89.9c-32.8,34.9-34.1,43-6.3,82.3
	c51.9,73.4,114.8,135.7,191.2,183.5c18.1,11.3,36.9,13.9,56.6-3.5c22.4-19.9,44.9-49.4,79.9-37.1
	C636.3,716.4,678.8,745.2,697.3,796.4z M937.1,428.2c-31.3-179.6-163.7-293.8-341.6-313.6c-129-14.4-240.8,30.4-327.7,130.9
	c-14.7,17-20.7,28.9-2.3,47c20.1,19.8,29.6,2.4,40.2-9.1c39-42.5,84-75.3,138.5-95.8c49.8-18.7,67.3-16,97.6,22.2
	c4.6,5.8,9.2,11.5,15.4,19.3c8.1-11.5,15.4-19,19.5-28c13.3-29.2,38.2-30.6,62.6-23.3C751.6,211.6,833,279.7,870.7,393.7
	c18.3,55.2,18,55.4-30.5,85.4c-5.9,3.7-12.4,6.6-21.4,11.3c19.9,12.3,30.5,20.9,42.6,25.9c22.8,9.4,23.9,26.9,18.7,46
	c-19.1,71.1-52,133.4-113.2,178.2c-27.7,20.3-31.5,45.6-12.3,78.9C894.4,723.4,966.4,596.5,937.1,428.2z M464.9,514.1l10.9-6.9
	c21.4-14.8,35.6-27.5,42.2-38.3c6.6-10.9,10-22.3,10-34.4c0-18.7-6.6-34.1-19.9-46.5c-13.3-12.4-32-18.4-55.8-18.4
	c-32.9,0-59.7,14.8-72.1,33.8c-4.5,6.6-5.4,14.2-3.3,22.3c3.6,12.4,18.7,19.6,32,15.7c3.6-1.2,8.2-4.5,13.3-10
	c7.8-8.7,18.1-13.3,30.8-13.3c17.2,0,23.8,8.5,23.8,17.8c0,5.7-3,11.2-9.1,16.3s-19.9,15.1-41.3,29.3c-33.2,22-49.8,46.2-49.8,72.4
	c0,19,12.1,29.9,30.2,29.9h101.1c14.5,0,25.6-10.6,25.6-25c0-13.6-11.5-24.7-25.6-24.7h-67.3C441.9,529.5,451.6,522.5,464.9,514.1z
	 M732.1,515c0,13-11.8,25-25,25h-11.8v19.3c0,13.6-11.5,25.3-25,25.3c-14.5,0-25.3-11.2-25.3-25.3V540h-61.2
	c-12.4,0-21.1-3.9-26.9-11.8c-5.7-7.8-7.2-17.2-4.5-27.8c1.5-5.1,4.5-10.6,9-16.6l71.8-98c8.5-11.2,18.4-16.6,29.9-16.6
	c20.2,0,32.3,15.1,32.3,34.4V490h11.8C721.3,490,732.1,500.5,732.1,515z M644.9,440.2l-36.2,51.6h36.2V440.2z"/>
</svg>
