<?xml version="1.0" encoding="utf-8"?>
<!-- Generator: Adobe Illustrator 24.0.1, SVG Export Plug-In . SVG Version: 6.00 Build 0)  -->
<svg version="1.1" id="Layer_1" xmlns="http://www.w3.org/2000/svg" xmlns:xlink="http://www.w3.org/1999/xlink" x="0px" y="0px"
	 viewBox="0 0 1024 1024" style="enable-background:new 0 0 1024 1024;" xml:space="preserve">
<title>ATM</title>
<desc>Created with Sketch.</desc>
<path id="存提專區" d="M938,512.9c0,131.4,0,262.8,0,394.7c0,13.6-4,26.4-11,38.7c-7.5,13.2-17.6,23.7-30.7,30.8
	c-11.4,6.6-23.7,10.1-37.3,10.1c-231.9,0-463.8,0-695.6,0c-20.6,0-38.2-8.8-53.1-23.3c-10.5-10.1-17.1-22.4-21.5-36
	c-1.8-5.7-2.6-12.3-2.6-18.5c0.4-265.5,0.4-530.1,0.4-795.1c0-12.7,4.4-24.6,10.5-36c6.1-10.5,14.1-19.3,23.7-26.4
	c14.5-10.1,30.7-14.9,48.3-14.9c230.6,0,461.1,0,691.2,0.4c20.6,0,38.2,8.8,53.1,23.3C924,70.7,930.6,83,935,96.6
	c1.8,6.2,2.6,12.7,2.6,18.9C938,247.8,938,380.1,938,512.9z M512.5,421.5c87.4,0,174.8,0,261.7,0c12.3,0,24.2-2.6,34.3-10.5
	c11.9-9.7,19.8-22,19.8-38.2c0-59.8,0-119.1,0-178.9c0-14.5-7-25.1-16.7-34.3c-9.7-9.2-22-12.7-35.6-12.7c-66.3,0.4-132.2,0-198.5,0
	c-110.7,0-221.3,0-332,0c-4.4,0-9.2,0-13.2,1.3c-9.7,4-19.3,8.8-25.5,18c-6.6,9.2-10.5,18.9-10.5,30.3c0.4,58.9,0.4,117.8,0,176.7
	c0,8.8,3.1,16.7,7.5,23.7c10.5,16.3,25.9,24.2,45.7,24.2C336.8,421.5,424.7,421.5,512.5,421.5z M627.6,599c0,69.4,0,138.5,0,207
	c43.9,0,87.4,0,131.3,0c0-69.4,0-138,0-207C715,599,671.5,599,627.6,599z M314.4,853.5c55.8,0,111.5,0,166.9,0c0-24.2,0-47.5,0-71.2
	c-55.8,0-111.1,0-166.9,0C314.4,806,314.4,829.8,314.4,853.5z M603.8,628.9c0-14.1,0-27.7,0-40.9c0-7.9,4.8-12.7,12.7-12.7
	c50.9,0,101.4,0,152.4,0c8.8,0,12.7,4.4,12.7,13.2c0,11.9,0,23.7,0,35.2c0,1.8,0,3.5,0,4.8c8.3,0,16.2,0,24.2,0c0-2.2,0-4,0-5.7
	c0-23.3,0-46.6,0-69.4c0-8.8,0-8.8-8.3-8.8c-36.5,0-72.9,0-109.8,0c-35.6,0-71.1,0-107.2,0c0,28.1,0,56.3,0,84.4
	C588.9,628.9,595.9,628.9,603.8,628.9z M218.7,663.6c24.2,0,48.3,0,72,0c0-24.2,0-48.3,0-72.1c-24.2,0-47.9,0-72,0
	C218.7,615.7,218.7,639.5,218.7,663.6z M218.7,496.6c0,0.9-0.4,1.3-0.4,1.8c0,22,0,44.4,0,66.4c0,4.4,2.2,4.4,5.3,4.4
	c21.1,0,42.2,0,63.2,0c1.3,0,2.6-0.4,4-0.4c0-24.2,0-48.3,0-72.5C266.6,496.6,242.9,496.6,218.7,496.6z M290.7,686.5
	c-0.9,0-1.3-0.4-1.8-0.4c-22,0-44.4,0-66.3,0c-4.4,0-4.4,2.2-4.4,5.3c0,21.1,0,42.2,0,63.3c0,1.3,0.4,2.6,0.4,4
	c24.2,0,48.3,0,72.5,0C290.7,734.4,290.7,710.7,290.7,686.5z M481.8,496.2c-23.3,0-45.7,0-68.5,0c-3.1,0-3.1,1.3-3.1,4
	c0.4,21.1,0.4,42.6,0,63.7c0,4.8,1.3,4.8,4.8,4.8c20.6,0,41.3,0,61.9,0c1.3,0,3.1,0,4.4-0.4C481.8,544.5,481.8,520.8,481.8,496.2z
	 M314.4,496.6c0,24.2,0,48.3,0,72.1c24.2,0,47.4,0,71.1,0c0-24.2,0-47.9,0-72.1C361.9,496.6,338.6,496.6,314.4,496.6z M386,663.6
	c0-8.4,0-15.8,0-23.3c0-14.9-0.4-29.4,0-44.4c0-4-0.4-5.3-4.4-5.3c-20.6,0-41.3,0-61.9,0c-4,0-5.3,1.3-5.3,5.3c0,21.1,0,42.6,0,63.7
	c0,1.3,0.4,2.2,0.4,3.5C338.6,663.6,361.9,663.6,386,663.6z M290.7,854c0-24.2,0-47.5,0-71.2c-24.2,0-48.3,0-72,0
	c0,23.7,0,47.5,0,71.2C242.9,854,266.6,854,290.7,854z M410.2,663.6c24.2,0,47.9,0,71.1,0c0-24.2,0-47.9,0-71.2c-4,0-7.5,0-10.5,0
	c-16.7-0.4-33.4-0.9-50.5-0.9c-10.1,0-10.1,0-10.1,10.1C410.2,621.9,410.2,642.5,410.2,663.6z M385.6,687.8
	c-11-0.4-21.1-1.3-31.2-1.3c-7.5,0-14.5,0.9-22,0.9c-4.4,0-8.8-0.9-13.6-0.9c-3.5,0-4.8,0.9-4.8,5.3c0.4,21.1,0,42.6,0,63.7
	c0,1.3,0,2.2,0.4,3.5c23.7,0,47.4,0,71.1,0C385.6,734.8,385.6,711.5,385.6,687.8z M409.7,758.6c24.6,0,47.9,0,71.6,0
	c0-23.7,0-47.5,0-70.8c-24.2,0-47.9,0-71.6,0C409.7,711.5,409.7,734.8,409.7,758.6z M730.3,269.4c0,28.6,0,57.1,0,85.3
	c0,6.6,5.3,11.4,11,11.9c7,0.9,12.3-5.3,12.3-11.4c0-46.6,0-92.7,0-139.3c0-4.8-1.8-9.2-6.6-11c-4.8-2.2-11.4-0.4-14.1,4
	c-5.7,10.1-10.5,20.2-15.4,30.8c-4.8,9.7-9.2,18.9-14.1,28.6c-5.7,11.9-11.9,23.7-17.6,36c-4,7.9-7.9,15.8-11.9,24.6
	c-2.2-4-3.5-7.5-5.3-11c-4.8-10.1-9.7-19.8-14.5-29.9c-4.4-9.7-8.8-19.8-13.2-29.4c-7-14.9-14.5-29.9-21.5-44.8
	c-3.5-7.5-8.3-11-15.8-8.8c-4.4,1.3-7.5,3.5-7.5,12.7c0.4,25.1,0,50.1,0,74.7c0,21.1,0,41.8,0,62.9c0,4.8,3.1,10.1,6.6,10.5
	c9.7,1.3,15.8-1.3,16.2-13.2c0.4-9.7,0-19.3,0-29c0-18,0-35.6,0-55.4c2.6,4.8,4.4,7.9,6.1,11.4c5.7,12.3,11.4,25.1,17.1,37.4
	c6.1,13.2,11.9,25.9,18.4,38.7c2.2,4.4,4,9.2,9.7,10.1c6.1,0.9,10.5-1.3,13.6-6.6c1.8-3.1,3.1-6.2,4.4-9.2c4.4-9.7,9.2-19.3,13.6-29
	c6.1-12.3,11.9-24.6,18-36.5c2.6-5.3,5.7-10.5,8.3-16.3C729.9,268.9,730.3,269.4,730.3,269.4z M408.9,355.1
	c-0.9,5.3-4,10.5-7.9,11.4c-7,1.3-12.7-0.9-14.9-6.6c-6.6-15.8-12.7-32.1-19.3-47.9c-0.4-0.9-2.2-1.8-3.5-1.8c-15.8,0-31.2,0-47,0
	c-1.3,0-3.1,0.9-3.5,1.8c-5.3,13.6-10.5,26.8-15.8,40.4c-1.3,3.1-2.6,6.2-4.4,9.2c-2.6,4-11.4,6.6-15.4,4c-4.8-2.6-7-10.1-4.8-15.8
	c6.1-15.4,12.3-31.2,18.4-46.6c4.8-11.9,10.1-23.3,14.9-35.2c7.9-18.9,15.4-37.8,22.8-57.1c1.8-4.8,5.7-6.6,10.1-7
	c4.8-0.4,9.7,3.1,11.9,8.4c6.1,14.9,12.3,29.9,18.4,45.3c5.3,12.7,10.5,25.1,15.8,37.8c6.6,16.7,13.2,33.4,20.2,50.5
	C406.2,348.9,407.5,352,408.9,355.1z M339.5,246.5c-5.7,14.5-11,27.3-16.2,40.4c11.4,0,22,0,32.9,0
	C350.9,273.8,345.6,260.6,339.5,246.5z M487,234.7c0,41.3,0,83.1,0,124.4c0,6.6,4.8,11.9,11,11.9c6.1,0,11.4-5.3,11.4-12.3
	c0-41.8,0-83.1,0-124.8c0-2.2,0-4,0-6.6c15.4,0,29.9,0,44.4,0c4.4,0,7-1.3,10.1-4.4c3.5-3.5,3.5-7.9,2.2-11c-1.3-3.5-4-7-9.7-7
	c-38.2,0.4-76,0-114.2,0c-7.9,0-11.4,3.5-11.4,11.4c0,6.2,4.8,11,11.9,11c14.9,0,29.9,0,45.2,0C487,230.3,487,232.5,487,234.7z"/>
</svg>
