<?xml version="1.0" encoding="utf-8"?>
<!-- Generator: Adobe Illustrator 24.0.1, SVG Export Plug-In . SVG Version: 6.00 Build 0)  -->
<svg version="1.1" id="Layer_1" xmlns="http://www.w3.org/2000/svg" xmlns:xlink="http://www.w3.org/1999/xlink" x="0px" y="0px"
	 viewBox="0 0 1024 1024" style="enable-background:new 0 0 1024 1024;" xml:space="preserve">
<path d="M414.4,619.9c0,0-39,2.3-51-28.3s-50.9-140.2-77.5-209.9c-12.3-32.3-28.8-63-43.3-94.4c-4.7,1.1-9.5,2.2-14.2,3.4
	c-33.3,87.1-65.7,174.6-100.3,261.2c-11.5,28.8-9.2,70.8-61.8,67.7c41.6,72.8,95,113.9,176,113.9
	C343.4,733.5,414.4,619.9,414.4,619.9z M142.9,614.3c31.8-83.9,62.3-164.5,95.8-253.3c33.2,88.6,63.4,169.1,95,253.3
	C265.7,614.3,206.6,614.3,142.9,614.3z M694.1,937.7v20.8c0,0-89-0.3-189-0.6c-100,0.3-189,0.6-189,0.6v-20.8
	c0-24.1,19.5-43.6,43.6-43.6h68.5c0,0,0.7-41,6-50.5c9.5-17.1,19.3-23.5,34.8-43.8c5.7-7.5,9-18.9,9-28.5
	c0.6-118,1.7-236.1-0.7-354.1c-0.5-22.5-15.5-44.8-27.1-76c16.1,0,31.7,0,47.6,0c4.9,0,9.6,0,14.4,0c15.8,0,31.5,0,47.6,0
	c-11.6,31.2-26.6,53.5-27.1,76c-2.4,118-1.3,236-0.7,354.1c0,9.6,3.3,21,9,28.5c15.4,20.3,25.2,26.7,34.8,43.8
	c5.3,9.6,6,50.5,6,50.5h68.5C674.6,894.1,694.1,913.6,694.1,937.7z M913.9,585.1c-22-50.9-39.9-103.5-59.8-155.4
	c-17.8-46.3-36-92.3-58.3-149.1c-15.6,23.2-25.5,33.4-30.3,45.6c-32.1,82-62,164.8-95,246.4c-8.2,20.3-25,37-43,62.7
	c35.8,65.2,98.5,108.8,189.5,97.3c68.7-8.7,116.3-48.5,138.6-102.6C938.3,611.9,920.7,600.8,913.9,585.1z M694.1,614.7
	c31.9-83.5,62.7-164.1,96.8-253.4c33.1,88.9,63,168.9,94.4,253.4C816.8,614.7,757.6,614.7,694.1,614.7z M200.7,233.3
	c0-20.8,16.9-37.7,37.7-37.7c6.8,0,13.1,1.8,18.6,4.9c10.3-0.7,21.7,1.7,30.5-2.3c56.7-25.3,112.3-52.1,174.1-13.6
	c5.1-4.4,10.8-8.2,17-11c2.7-2.7,4.6-5.1,4.2-6.2c-14.9-41.9,7-70.7,33.1-103.3c12.1,36,59.1,58.1,26.2,103.4
	c-1.3,1.8,3.1,7.8,8.3,14.6c3.9,3.1,7.5,6.5,10.7,10.3c61.2-50,118.5-19.4,176.6,2.1c11.5,4.2,25.4,1.9,37.4,4.8
	c4.9-2.4,10.5-3.7,16.4-3.7c20.8,0,37.7,16.9,37.7,37.7S812.3,271,791.4,271c-14.5,0-27-8.2-33.4-20.1c-47.4-28.2-92-64.6-153-43.2
	c-10.8,3.8-17.4,19.1-26.6,28.4c-0.4,0.4-0.8,0.9-1.2,1.3c-0.1,38.4-31.3,69.6-69.8,69.6c-38.6,0-69.8-31.3-69.8-69.8
	c0-7.7,1.3-15,3.6-21.9c-16.1-17.8-45.7-24.6-75.4-13c-33.8,13.2-63.7,36.1-96.4,52.4c-6.8,9.9-18.2,16.4-31.1,16.4
	C217.5,271,200.7,254.1,200.7,233.3z"/>
</svg>
