<?xml version="1.0" encoding="utf-8"?>
<!-- Generator: Adobe Illustrator 24.0.1, SVG Export Plug-In . SVG Version: 6.00 Build 0)  -->
<svg version="1.1" id="Capa_1" xmlns="http://www.w3.org/2000/svg" xmlns:xlink="http://www.w3.org/1999/xlink" x="0px" y="0px"
	 viewBox="0 0 1024 1024" style="enable-background:new 0 0 1024 1024;" xml:space="preserve">
<path d="M904.9,467.8c9.3,0,60.5,0,69.8,0L891,179.4l0,0c14-4.7,23.3-18.6,23.3-32.6v-18.6c0-18.6-18.6-37.2-46.5-37.2H151.5
	c-23.3,0-46.5,18.6-46.5,37.2v23.3c0,14,9.3,27.9,23.3,32.6l0,0l-79.1,293c0,0,51.2,0,69.8-4.7v400H81.7v60.5h855.8v-65.1h-32.6
	V467.8L904.9,467.8z M663.1,221.3l14,218.6c-37.2,0-74.4,0-111.6-4.7l-4.7-218.6c0-14,9.3-27.9,23.3-32.6h51.2
	C653.8,193.4,663.1,207.3,663.1,221.3z M472.4,221.3l-4.7,213.9c-41.9,0-79.1,0-111.6,0l18.6-213.9c0-14,9.3-27.9,23.3-32.6h51.2
	C463.1,193.4,472.4,207.3,472.4,221.3z M188.7,221.3c0-14,9.3-27.9,23.3-32.6h51.2c14,4.7,23.3,18.6,23.3,32.6l-23.3,218.6
	c-46.5,0-83.7,4.7-111.6,9.3L188.7,221.3z M579.4,700.3h-386V523.6h386V700.3z M825.9,830.5H677.1v-307h148.8V830.5z M774.7,444.5
	l-23.3-223.2c0-14,9.3-27.9,23.3-32.6h51.2c14,4.7,23.3,18.6,23.3,32.6l37.2,227.9C849.1,444.5,811.9,444.5,774.7,444.5z"/>
</svg>
