<?xml version="1.0" encoding="utf-8"?>
<!-- Generator: Adobe Illustrator 24.0.1, SVG Export Plug-In . SVG Version: 6.00 Build 0)  -->
<svg version="1.1" id="Layer_1" xmlns="http://www.w3.org/2000/svg" xmlns:xlink="http://www.w3.org/1999/xlink" x="0px" y="0px"
	 viewBox="0 0 1024 1024" style="enable-background:new 0 0 1024 1024;" xml:space="preserve">
<style type="text/css">
	.st0{fill:#231F20;}
	.st1{enable-background:new    ;}
</style>
<title>Oval Copy 4</title>
<desc>Created with Sketch.</desc>
<g id="Symbols">
	<g id="nav---logined" transform="translate(-1064.000000, -10.000000)">
		<g id="Oval" transform="translate(1064.000000, 10.000000)">
			<g>
				<path class="st0" d="M512,984.4C251.5,984.4,39.6,772.5,39.6,512C39.6,251.5,251.5,39.6,512,39.6
					c260.5,0,472.4,211.9,472.4,472.4C984.4,772.5,772.5,984.4,512,984.4z M512,76C271.6,76,76,271.6,76,512
					c0,240.4,195.6,436,436,436c240.4,0,436-195.6,436-436C948,271.6,752.4,76,512,76z"/>
			</g>
			<g class="st1">
				<path class="st0" d="M402.3,246.6c9.5-25.4,18.2-50.9,25.4-77.1l53.1,6.6c-7.3,24-14.5,47.2-22.5,70.5h372.1v50.9H438.7
					c-26.9,62.5-60.3,119.9-99.6,172.2v370h-50.9V532.3c-24.7,26.9-50.2,52.3-77.8,77l-32.7-41.4C266.4,490.1,334,400,381.2,297.5
					H204.6v-50.9H402.3z M606.6,584.6V517c41.4-23.3,80.7-50.2,118.5-82.1H451.7v-48.7h340.2v48.7c-39.2,36.3-83.6,71.3-133,103.9
					v45.8h181.7v50.1H658.9v137.4c0,42.9-21.8,64.7-64.7,64.7h-90.9l-13.8-49.4c26.2,0.7,53.8,1.5,83.6,1.5
					c21.8,0,33.4-11.6,33.4-33.4V634.8H395.8v-50.1H606.6z"/>
			</g>
		</g>
	</g>
</g>
</svg>
