<?xml version="1.0" encoding="utf-8"?>
<!-- Generator: Adobe Illustrator 24.0.1, SVG Export Plug-In . SVG Version: 6.00 Build 0)  -->
<svg version="1.1" id="Layer_1" xmlns="http://www.w3.org/2000/svg" xmlns:xlink="http://www.w3.org/1999/xlink" x="0px" y="0px"
	 viewBox="0 0 1024 1024" style="enable-background:new 0 0 1024 1024;" xml:space="preserve">
<path d="M82.4,537.4c-18.7-0.1-36.3-6.1-36.7-29.3c-0.4-24.7,16-30.1,37.3-29.8c39.4,0.5,78.8,0.1,118.2,0.1
	c41.2,0,82.4,0.8,123.5-0.3c21.2-0.6,23.5,10.8,22.4,27.1c-1,15.7,2.1,32.9-23,32.7C243.5,537.4,163,538.1,82.4,537.4z M214.3,408.4
	c34.1-0.4,68.2-0.1,102.3-0.1c43.6,0,55.3-10.8,61.7-59.2c-55.7,0-111.1,0.1-166.4-0.1c-20.4,0-32.6,9.4-31.4,30.2
	C181.7,399.2,194.1,408.6,214.3,408.4z M360.4,277.8c45.7,12.9,97.5-10.8,128.2-57.9c-42.1,0-80.5-0.3-118.7,0.2
	c-17.9,0.2-29.5,10.7-27.3,28C344,258.9,352,275.4,360.4,277.8z M966.4,517.1c-6.5,152.3-122.8,276.8-283.5,277.6
	c-145.4,0.7-284.9-122-276.6-289c-12.7-151.1,130-288.5,283-286.4C831.4,221.2,973.6,349.2,966.4,517.1z M658.8,656.1h23.1
	c6.3,0,11.5-5,11.5-11.4v-22.9c33.9-0.9,61.4-29.4,61.6-64.3c0-28.5-18.7-53.8-45.5-61.8l-64.8-19.2c-7.5-2.2-12.7-9.6-12.7-18.1
	c0-10.4,7.6-18.8,17-18.8h40.5c6.5,0,12.9,1.9,18.4,5.3c4.5,3,10.5,2.7,14.5-1l16.9-16.1c4.6-4.3,4.8-11.4,0.5-16
	c-0.4-0.4-0.8-0.8-1.3-1.2c-13.2-9.7-28.9-15.3-45.2-16.1v-23.3c-0.1-6.3-5.2-11.4-11.5-11.4h-23.1c-6.3,0-11.5,5-11.5,11.4v23.1
	c-34.2,1.1-61.5,29.4-61.5,64.3c0,28.5,18.7,53.8,45.5,61.8l64.9,19.3c7.5,2.1,12.7,9.6,12.7,18.1c0,10.4-7.6,18.8-17,18.8h-40.5
	c-6.5,0-12.9-1.9-18.4-5.3c-4.5-3-10.5-2.7-14.5,1l-17.2,15.9c-4.6,4.3-4.8,11.4-0.5,16c0.4,0.4,0.8,0.8,1.3,1.2
	c13.2,9.7,28.9,15.3,45.2,16.1v23.2C647.3,651,652.4,656.1,658.8,656.1z M923.6,505.8c-1.4-9.8-2.8-25.6-6-41.1
	c-17.5-83.5-61.4-147.3-142.2-180c-27.2-11-57.1-15.6-86.2-20.8c-5.3-0.9-12.5,8.9-18.9,13.8c4.8,6.4,8.8,13.9,14.9,18.7
	c4.4,3.4,11.9,2.3,17.5,4.4c33.4,12.5,71.9,18.5,98.8,39.4c67.7,52.5,97.3,124.3,78.2,210.7c-10.5,47.2-33.1,87.4-73,118.3
	c-34,26.4-72.1,38.1-112.8,46.8c-8.9,1.9-15.7,12.9-23.5,19.7c8.7,4,17.3,11.5,25.9,11.4C814.6,746.1,916.8,640.5,923.6,505.8z
	 M377.5,735.7c-20,3.1-34.9,6.9-40.1,26.3c-3.9,14.4,19.4,33.5,40.4,33.9c32.1,0.6,64.3,0.4,96.4,0c5.4-0.1,10.9-2.8,19.5-5.2
	C459.5,756.5,428.6,728,377.5,735.7z M379.8,663.9c-16.4-56.3-16.4-56.3-68.8-56.3c-32.2,0-64.4,0.4-96.6-0.1
	c-18.6-0.3-34.5,1.5-34.3,25.8c0.2,23.2,12.1,33.7,34.9,33.6c46.5-0.2,93,0,139.5-0.2C362,666.7,369.5,665.1,379.8,663.9z"/>
</svg>
