<?xml version="1.0" encoding="utf-8"?>
<!-- Generator: Adobe Illustrator 24.0.1, SVG Export Plug-In . SVG Version: 6.00 Build 0)  -->
<svg version="1.1" id="Layer_1" focusable="false" xmlns="http://www.w3.org/2000/svg" xmlns:xlink="http://www.w3.org/1999/xlink"
	 x="0px" y="0px" viewBox="0 0 1024 1024" style="enable-background:new 0 0 1024 1024;" xml:space="preserve">
<path d="M688.2,217h-132c-12.3,0-24.1,4.6-33.2,12.9L372,368.2c-0.2,0.2-0.3,0.5-0.5,0.6c-25.5,24-25,62.2-3.2,86
	c19.5,21.4,60.5,27,86.2,4.1c0.2-0.2,0.5-0.2,0.6-0.3l122.7-112.5c10-9.1,25.7-8.4,34.7,1.5c9.2,10,8.4,25.5-1.5,34.7L571,419.2
	l223.7,181.6c4.5,3.7,8.4,7.7,12.1,11.8V315.3l-83.9-83.9C713.9,222.2,701.3,217,688.2,217L688.2,217z M856.1,315.6v344
	c0,27.2,22,49.2,49.2,49.2h98.3V315.6H856.1z M929.9,659.6c-13.5,0-24.6-11.1-24.6-24.6s11.1-24.6,24.6-24.6s24.6,11.1,24.6,24.6
	S943.4,659.6,929.9,659.6z M20.4,708.6h98.3c27.2,0,49.2-22,49.2-49.2V315.6H20.4V708.6z M94.1,610.4c13.5,0,24.6,11.1,24.6,24.6
	s-11.1,24.6-24.6,24.6S69.6,648.5,69.6,635C69.6,621.3,80.6,610.4,94.1,610.4z M763.8,639L534.4,452.8l-46.1,42.2
	c-45.6,41.6-115.5,37.6-156.2-6.8c-41.3-45.2-38.1-115.1,6.8-156.2L464.5,217H335.8c-13.1,0-25.5,5.2-34.7,14.4l-84,83.9v344h28.1
	l139,125.8c42.1,34.3,104,27.8,138.3-14.3l0.3-0.3l27.5,23.8c24.4,20,60.5,16.1,80.3-8.3l48.2-59.3l8.3,6.8
	c21,17.1,52.1,14,69.1-7.2l14.6-18C788.1,687.1,784.8,656.2,763.8,639L763.8,639z"/>
</svg>
