<?xml version="1.0" encoding="utf-8"?>
<!-- Generator: Adobe Illustrator 24.0.1, SVG Export Plug-In . SVG Version: 6.00 Build 0)  -->
<svg version="1.1" id="Layer_1" xmlns="http://www.w3.org/2000/svg" xmlns:xlink="http://www.w3.org/1999/xlink" x="0px" y="0px"
	 viewBox="0 0 1024 1024" style="enable-background:new 0 0 1024 1024;" xml:space="preserve">
<g>
	<path d="M512.1,908.1c-142.3,0-284.7-0.1-427,0.1c-17.2,0-32.3-12.9-36.7-28.8c-0.8-3-1-6.2-1-9.3c0-144.4,0-288.8,0-433.2
		c0-17.9,14.4-34.2,32.1-37c4-0.6,8.1-1,12.1-1c281.8,0,563.6,0,845.4-0.1c20.6,0,39.6,17.9,39.6,39.5
		c-0.2,144.2-0.1,288.5-0.1,432.7c0,18.5-16.6,37.1-36.9,37.1C797.1,908.1,654.6,908.1,512.1,908.1z M511.9,899.6
		c141.1,0,282.1,0,423.2,0c18.6,0,32.9-14,32.9-33.1c0-82.8,0-165.6,0-248.4c0-59.7,0-119.4,0-179.1c0-8.1-3.5-15.2-8.7-21
		c-7.2-7.9-17-10.6-27.5-10.6c-280.2,0-560.5,0-840.7,0c-3.1,0-6.2,0.4-9.3,1c-16.2,3.3-25.9,18.6-25.9,32.7
		C56.1,583.1,56,725,56,866.8c0,17.5,13.9,32.8,32.7,32.8C229.8,899.6,370.8,899.6,511.9,899.6z"/>
	<path d="M376.9,215.6c1.7,0,3.4,0,5.1,0c31,0,62.1,0,93.1,0.1c3.2,0,4.8-0.7,5.9-4.2c9.1-28.4,18.5-56.8,27.7-85.1
		c1-3.2,1.9-6.4,3.2-10.9c3.5,10.5,6.6,19.6,9.6,28.8c5.1,15.7,10.2,31.5,15.3,47.2c2.3,7,4.3,14.1,6.8,21.1c0.5,1.3,2.4,3,3.7,3
		c32.8,0.2,65.5,0.1,98.3,0.1c0.7,0,1.4-0.2,2.6,0.5c-27.8,20.2-55.6,40.3-83.7,60.7c10.7,32.8,21.4,65.8,32.4,99.6
		c-11.2-8.1-21.7-15.7-32.2-23.3c-14.2-10.3-28.4-20.7-42.5-31c-0.4-0.3-0.9-0.3-1.3-0.6c-9-6.5-9.1-6.7-17.6-0.5
		c-23,16.7-45.8,33.6-68.7,50.4c-2.1,1.5-4.4,2.9-7,4.6c10.9-33.4,21.5-66.2,32.3-99.3c-27.6-20-55.3-40.2-83-60.3
		C376.7,216.2,376.8,215.9,376.9,215.6z"/>
	<path d="M782.2,265.3c7.5-23.1,14.8-45.6,22.5-69.2c4.4,13.1,8.3,25,12.2,37c2.9,9,5.9,17.9,8.5,27c1.1,3.9,2.8,5.1,6.8,5
		c21.8-0.2,43.7-0.1,67.1-0.1c-4.2,3.1-7.3,5.4-10.4,7.6c-15.3,11.1-30.7,22.2-45.9,33.5c-0.9,0.7-1.3,3.1-0.9,4.5
		c3.7,11.8,7.6,23.6,11.4,35.3c2.9,9,5.9,17.9,8.7,26.9c0.2,0.7,0,1.5,0,2.8c-8.9-6.3-17.4-12.2-25.7-18.3
		c-9.8-7.1-19.4-14.5-29.3-21.4c-1.3-0.9-4.3-0.7-5.7,0.2c-13.4,9.6-26.6,19.4-39.8,29.2c-4.9,3.6-9.8,7-15.7,11.2
		c7.6-23.6,15-46.2,22.3-68.9c-19.1-13.9-38.2-27.8-58.1-42.2C734.9,265.3,758.5,265.3,782.2,265.3z"/>
	<path d="M125.2,265c3.9,0,7,0,10.1,0c19.1,0,38.3-0.1,57.4,0.1c2.9,0,4.4-0.7,5.3-3.7c6.6-20.5,13.4-40.8,20.1-61.2
		c0.3-1,0.4-2.1,1.4-3.3c7.4,22.7,14.7,45.3,22.1,68.3c23.7,0,47.4,0,72.3,0c-20,14.6-39.1,28.5-58.3,42.5
		c7.3,22.6,14.6,45.4,22.1,68.6c-19-13.6-37.5-26.7-55.8-40c-2.2-1.6-3.6-1.6-5.6-0.1c-12.9,9.5-25.8,18.9-38.7,28.3
		c-5.1,3.7-10.4,7.3-16.7,11.7c2.5-8.1,4.6-15,6.8-21.8c4.7-14.6,9.6-29.1,14-43.7c0.5-1.5-0.7-4.4-2.1-5.3
		c-17.4-12.7-35-25.2-52.5-37.8C126.7,266.9,126.3,266.2,125.2,265z"/>
	<path d="M641.2,654.6c0,56.8,0.2,113.7-0.1,170.5c-0.1,14.8-5.9,27.5-19.2,35c-6,3.4-13.4,5.9-20.1,6
		c-59.8,0.5-119.7,0.4-179.5,0.2c-19.1-0.1-36.9-15.1-38.5-34.7c-0.5-5.8-0.9-11.6-0.9-17.4c-0.1-109.7-0.1-219.4,0-329.1
		c0-12.3,2.9-23.9,12.4-32.6c7.5-6.8,16.1-10.9,26.5-10.9c60.5,0.1,120.9-0.1,181.4,0.1c18.9,0.1,35.7,15.5,37,34.5
		c0.6,8.3,0.9,16.6,0.9,25C641.2,552.4,641.2,603.5,641.2,654.6z M563.1,590.8c-1.1,2.4-1.8,4.4-2.9,6.3
		c-5.7,9.9-11.6,19.8-17.2,29.8c-9.8,17.4-19.4,35-29.1,52.5c-11.1,20.1-21.4,40.5-24.9,63.7c-1.7,11,2.8,21.1,10.7,26.4
		c7.1,4.7,14.6,5.7,22.7,3.7c6.4-1.5,12-4,15.3-10.3c5.8-11.1,6.1-23.3,7.5-35.3c1.5-12.4,1.6-25,3.1-37.4c1.3-10.9,2.7-22,5.6-32.5
		c4.5-15.9,9.8-31.6,15.8-47c4.7-11.9,11-23.2,16.6-34.7c4.3-9,8.6-18.1,13.3-28.1c-2.9,0-4.5,0-6,0c-12.5,0-25,0.1-37.5,0
		c-26.8-0.3-53.7-0.4-80.5-1.1c-8-0.2-16.2-0.9-20.3-10.3c-1.8-4.1-7.1-4.2-9.7-0.3c-2.8,4.1-5.2,8.8-6.6,13.6
		c-2.9,9.9-5.5,20-7.5,30.1c-2.3,11.4-4.1,22.9-5.8,34.4c-0.2,1.7,1.2,5.1,2.4,5.3c2,0.4,5.2-0.3,6.6-1.7c4.3-4.3,7.6-9.5,11.9-13.8
		c3.5-3.6,7.3-7.9,11.7-9.4c7.6-2.4,15.8-3.7,23.7-3.9c24.7-0.5,49.4-0.2,74.1-0.2C558.2,590.8,560.4,590.8,563.1,590.8z"/>
	<path d="M99.7,654.2c0-57.2-0.1-114.3,0.1-171.5c0.1-21,12.3-36.2,33.1-40.9c1.5-0.3,3.2-0.1,4.7-0.1c60.5,0,121,0,181.4,0
		c15.4,0,30.8,9.8,36.1,26.1c1.2,3.8,1.9,7.9,1.9,11.9c0.1,79,0.1,158,0.1,237c0,37.3-0.3,74.5,0.1,111.8
		c0.2,17.7-15.7,34.9-32.2,37c-4,0.5-8.1,0.9-12.1,0.9c-57.8,0.1-115.6,0.2-173.4-0.1c-19.4-0.1-36.9-13.9-38.9-34.2
		c-0.5-4.4-0.9-8.7-0.9-13.1C99.7,764,99.7,709.1,99.7,654.2z M280.2,590.8c-6.3,11.3-12.1,22.1-18.2,32.7
		c-16.5,28.8-33.8,57.2-47.2,87.6c-4.9,11-8.6,22.6-9.6,34.7c-1.4,17.4,13.1,30.5,31.2,28.2c10.9-1.4,18.8-7.2,20.9-18.7
		c1.9-10.2,3.5-20.5,4.7-30.8c1.3-12,1.8-24,3-36c1.8-17.6,5.4-34.9,11.2-51.6c3.5-10.1,7.3-20.1,11.6-29.8
		c5.7-12.6,12.2-24.7,18.3-37.2c3.4-7,6.4-14.2,9.9-21.9c-20.9,0-40.5,0.1-60.1,0c-21.6-0.2-43.2-0.4-64.9-1
		c-7.9-0.2-15.5-1.8-19.4-10.4c-1.6-3.4-6.1-3.9-8.6-1.1c-2.2,2.5-4.6,5.4-5.4,8.5c-3.8,13.7-7.4,27.4-10.5,41.3
		c-2.1,9.7-3.4,19.5-4.7,29.4c-0.2,1.7,1.3,4.8,2.6,5.2c1.8,0.5,4.8-0.3,6.2-1.7c3.7-3.8,6.7-8.2,10.1-12.2
		c4.7-5.7,9.6-11.5,17.2-13.1c5.9-1.3,12.1-1.9,18.1-2C224.3,590.7,251.8,590.8,280.2,590.8z"/>
	<path d="M666.9,653.7c0-58.7-0.1-117.5,0-176.2c0-14.8,12.7-30.2,26.9-33.8c5.1-1.3,10.4-1.9,15.7-1.9
		c58.9-0.1,117.8-0.1,176.7-0.1c17.9,0,35.9,15.2,37.2,33.9c0.5,6.4,0.9,12.8,0.9,19.3c0.1,109.9,0.1,219.7,0,329.6
		c0,24.3-17.8,41.8-41.7,41.8c-59.1,0-118.1,0-177.2,0c-20.4,0-38.9-18.8-38.8-38.3C667.1,769.9,666.9,711.8,666.9,653.7z
		 M882.3,548.1c-2.6,0-4.3,0-6,0c-18.4,0-36.7,0.1-55.1,0c-21-0.2-42-0.3-63-1.1c-7.8-0.3-15.9-1-19.8-10.2c-1.8-4.2-7-4.4-9.6-0.6
		c-2.9,4.3-5.4,9.1-6.7,14c-3.9,15.1-7.3,30.4-10.6,45.6c-1.3,6.2-2.2,12.5-2.8,18.9c-0.2,1.7,1.2,4.8,2.2,5
		c2.1,0.3,5.1-0.2,6.6-1.5c3.1-2.8,5.6-6.2,8.2-9.6c5.4-7.2,11.2-14.2,20.7-15.7c7.8-1.3,15.9-1.9,23.8-2
		c25.1-0.2,50.3-0.1,75.8-0.1c-0.7,1.7-1.2,3.2-1.9,4.5c-5.9,10.7-11.9,21.4-17.9,32.1c-11.9,21.2-24.4,42.1-35.6,63.7
		c-8.7,16.9-17.1,34.2-18.5,53.7c-0.6,7.6,0.1,14.7,6,20.5c7.3,7.2,15.5,9.6,25.9,8.1c10.8-1.5,16.5-7.3,19.7-17.1
		c4.7-14.3,3.7-29.3,5.6-43.9c1.7-13.4,3-26.9,4.8-40.3c2.9-21.8,10.2-42.4,19.1-62.3c7.4-16.6,15.9-32.7,23.8-49.1
		C878.9,556.9,880.3,552.8,882.3,548.1z"/>
</g>
</svg>
