<?xml version="1.0" encoding="utf-8"?>
<!-- Generator: Adobe Illustrator 24.0.1, SVG Export Plug-In . SVG Version: 6.00 Build 0)  -->
<svg version="1.1" id="Layer_1" xmlns="http://www.w3.org/2000/svg" xmlns:xlink="http://www.w3.org/1999/xlink" x="0px" y="0px"
	 viewBox="0 0 1024 1024" style="enable-background:new 0 0 1024 1024;" xml:space="preserve">
<title>Group 2</title>
<desc>Created with Sketch.</desc>
<path id="main" d="M510.6,87.8H137.5c-44.1,0-79.9,35.6-79.9,79.5v688.9c0,43.9,35.8,79.5,79.9,79.5h373.1
	c44.1,0,79.9-35.6,79.9-79.5V167.3C590.5,123.4,554.7,87.8,510.6,87.8z M324.1,882.7c-29.5,0-53.3-23.7-53.3-53
	c0-29.3,23.8-53,53.3-53c29.5,0,53.3,23.7,53.3,53C377.4,859,353.5,882.7,324.1,882.7z M510.6,703.8c0,10.9-9,19.9-20,19.9H157.5
	c-11,0-20-8.9-20-19.9V187.2c0-10.9,9-19.9,20-19.9h333.1c11,0,20,8.9,20,19.9V703.8z M711.6,679.1c-5.4,0-10.9-1.8-15.4-5.6
	c-10.3-8.5-11.7-23.8-3.2-34.1c38.3-46.2,56.3-92.3,55-140.9l0-0.2c-1.1-55-18.7-100.2-54.1-138.1c-9.1-9.8-8.6-25.1,1.2-34.2
	c9.8-9.1,25.1-8.6,34.2,1.2c43.2,46.4,65.7,103.7,67,170.1c1.6,60-20.6,118.2-66.1,173.1C725.5,676.1,718.6,679.1,711.6,679.1z
	 M873.8,793.6c-5.4,0-10.8-1.8-15.3-5.5c-10.4-8.5-11.9-23.7-3.4-34.1c28.4-34.6,49.9-73.3,64.1-115.1
	c14.2-41.9,21.5-88.2,21.5-137.6c-0.3-44.2-7.6-87.9-21.9-129.8c-14.3-42.3-36.1-84.1-64.7-124.3c-7.7-10.9-5.2-26,5.7-33.8
	c10.9-7.7,26-5.2,33.8,5.7c62.8,88.4,95,183.3,95.5,282l0,0.1c0,109.9-32.5,205.2-96.5,283.4C887.8,790.5,880.8,793.6,873.8,793.6z"
	/>
</svg>
