<?xml version="1.0" encoding="utf-8"?>
<!-- Generator: Adobe Illustrator 24.0.1, SVG Export Plug-In . SVG Version: 6.00 Build 0)  -->
<svg version="1.1" id="Layer_1" xmlns="http://www.w3.org/2000/svg" xmlns:xlink="http://www.w3.org/1999/xlink" x="0px" y="0px"
	 viewBox="0 0 1024 1024" style="enable-background:new 0 0 1024 1024;" xml:space="preserve">
<g id="_06-Coin">
	<g id="filled">
		<path d="M951.1,327.4L838,214.3c-8.3-8.3-21.7-8.3-30,0c-4,4-6.2,9.4-6.2,15v35.3h-42.4V144.5c0-42.9-34.8-77.7-77.8-77.8H342.4
			c-42.9,0-77.7,34.8-77.8,77.8v459.4h-42.4v-35.3c0-11.7-9.5-21.2-21.2-21.2c-5.6,0-11,2.2-15,6.2L72.9,666.6
			c-8.3,8.3-8.3,21.7,0,30L186,809.7c12.6,13.4,36.8,3.3,36.2-15v-35.3h42.4v120.2c0,42.9,34.8,77.7,77.8,77.8h339.3
			c42.9,0,77.7-34.8,77.8-77.8V420.1h42.4v35.3c-0.6,18.3,23.6,28.4,36.2,15l113.1-113.1C959.4,349.1,959.4,335.7,951.1,327.4z
			 M342.4,109.1h339.3c19.5,0,35.3,15.8,35.3,35.3v35.3H307v-35.3C307,124.9,322.9,109.1,342.4,109.1z M681.6,914.9H342.4
			c-19.5,0-35.3-15.8-35.3-35.3v-35.3h410v35.3C717,899.1,701.1,914.9,681.6,914.9z M844.2,404.3v-5.4c0-11.7-9.5-21.2-21.2-21.2
			H653.4c-11.7,0-21.2,9.5-21.2,21.2c0,11.7,9.5,21.2,21.2,21.2H717v381.7H307v-42.4h63.6c11.7,0,21.2-9.5,21.2-21.2
			s-9.5-21.2-21.2-21.2H201c-11.7,0-21.2,9.5-21.2,21.2v5.4l-61.9-61.9l61.9-61.9v5.4c0,11.7,9.5,21.2,21.2,21.2h169.6
			c11.7,0,21.2-9.5,21.2-21.2s-9.5-21.2-21.2-21.2H307V222.2h410v42.4h-63.6c-11.7,0-21.2,9.5-21.2,21.2c0,11.7,9.5,21.2,21.2,21.2
			H823c11.7,0,21.2-9.5,21.2-21.2v-5.4l61.9,61.9L844.2,404.3z"/>
		<path d="M483.7,420.1h70.7c11.7,0,21.2,9.5,21.2,21.2c0,11.7,9.5,21.2,21.2,21.2S618,453,618,441.3c0-35.1-28.5-63.6-63.6-63.6
			h-21.2v-35.3c0-11.7-9.5-21.2-21.2-21.2s-21.2,9.5-21.2,21.2v35.3h-7.1c-42.9,0-77.8,34.8-77.8,77.8s34.8,77.8,77.8,77.8h56.5
			c19.5,0,35.3,15.8,35.3,35.3s-15.8,35.3-35.3,35.3h-70.7c-11.7,0-21.2-9.5-21.2-21.2c0-11.7-9.5-21.2-21.2-21.2S406,571,406,582.7
			c0,35.1,28.5,63.6,63.6,63.6h21.2v35.3c0,11.7,9.5,21.2,21.2,21.2s21.2-9.5,21.2-21.2v-35.3h7.1c42.9,0,77.8-34.8,77.8-77.8
			s-34.8-77.8-77.8-77.8h-56.5c-19.5,0-35.3-15.8-35.3-35.3C448.4,435.9,464.2,420.1,483.7,420.1z"/>
	</g>
</g>
</svg>
