<?xml version="1.0" encoding="utf-8"?>
<!-- Generator: Adobe Illustrator 24.0.1, SVG Export Plug-In . SVG Version: 6.00 Build 0)  -->
<svg version="1.1" id="Layer_1" xmlns="http://www.w3.org/2000/svg" xmlns:xlink="http://www.w3.org/1999/xlink" x="0px" y="0px"
	 viewBox="0 0 1024 1024" style="enable-background:new 0 0 1024 1024;" xml:space="preserve">
<g>
	<path d="M237.3,639.3c-4.3,0-8.1,2.6-9.7,6.6l-5.3,15.7h-31.6l-5.3-15.7c-1.3-3.9-5.3-6.5-9.5-6.5c-6,0-10.1,5-10.1,10.5
		c0,1.1,0.2,2.3,0.6,3.5l21.5,60.8c3.3,8.9,9.4,13.5,18.5,13.5c8.9,0,15-4.5,18.3-13.5l21.9-60.8c0.4-1.3,0.6-2.6,0.6-3.7
		C247.3,644.3,243.3,639.3,237.3,639.3z M207.6,705.2c-0.4,1.3-1.8,1.3-2.3,0l-8.6-26.1h19.7L207.6,705.2z"/>
	<path d="M503.2,248.2c4.3,0,8.1-2.6,9.7-6.6l5.3-15.7h31.6l5.3,15.7c1.3,3.9,5.3,6.5,9.5,6.5c6,0,10.1-5,10.1-10.5
		c0-1.1-0.2-2.3-0.6-3.5l-21.5-60.8c-3.3-8.9-9.4-13.5-18.5-13.5c-8.9,0-15,4.5-18.3,13.5L493.8,234c-0.4,1.3-0.6,2.6-0.6,3.7
		C493.2,243.1,497.2,248.2,503.2,248.2z M533,182.2c0.4-1.3,1.8-1.3,2.3,0l8.6,26.1h-19.7L533,182.2z"/>
	<path d="M543.2,845.3c83.4-2,127.7-44.6,127.9-116.8c0.7-187.1,0.7-374.1,0-561.2c-0.3-71.4-44.7-116.8-115-117.4
		c-127.5-1-255-1-382.5,0C108.8,50.4,69.3,92.4,69.2,157.7c-0.1,95.2,0,190.5,0,285.7c0,91.8,4.1,183.9-1.2,275.4
		c-5.1,88.2,56,123.6,118.3,125.9C305.1,849.2,424.3,848.1,543.2,845.3z M130.1,708c0.9-173.4,0-346.8,0.5-520.2
		c0.2-56.3,11.8-66.7,69-66.7c112.2-0.1,224.4,1.6,336.5-0.8c49.3-1,65.8,18.6,64.5,66.3c-2.4,88.3-0.7,176.8-0.7,265.2
		c0,88.4-1,176.8,0.4,265.2c0.6,40.8-15.5,58.4-57,58c-115.5-1.2-231.1-1-346.7-0.1C150.2,775.2,129.9,754.7,130.1,708z"/>
	<path d="M762.3,380.5l8.7-14l30.7,7.2l1.6,16.4c0.4,4.1,3.6,7.5,7.8,8.5c5.8,1.4,11-2.6,12.3-7.9c0.3-1.1,0.3-2.3,0.2-3.6
		l-7.1-64.1c-1.2-9.4-6.1-15.2-14.9-17.3c-8.7-2-15.7,1-20.9,8.9l-35.2,54.2c-0.7,1.2-1.2,2.4-1.4,3.4c-1.3,5.4,1.5,11.2,7.4,12.5
		C755.6,385.7,759.9,384.1,762.3,380.5z M795.4,327.3c0.7-1.2,2.1-0.9,2.3,0.5l2.4,27.3l-19.2-4.5L795.4,327.3z"/>
	<path d="M922.8,245.5c-8.6-8.3-29.7-20.5-43.4-24.9c-13.7-4.4-170.8-51.2-170.8-51.2s0,44.3,0,69.1c40.4,11.5,75.1,22.2,125.8,34.9
		c50.8,12.7,53.1,27.2,41.9,69.5c-46.1,174.8-88.9,350.5-134,525.6c-8.7,33.9-27.1,51.4-68.4,38.8c-41.3-12.6-139.5-29.9-139.5-29.9
		l-185.2,0c0,0,13,14,17.2,15.1c96.1,25.5,191.8,53.1,288.8,74.9c90.5,20.3,135.2-14.5,159.3-108.4c43.1-168.8,86.8-337.5,134.4-505
		C961.8,309,953.7,275.2,922.8,245.5z"/>
	<path d="M412.1,617.2c-11.6-31.9-21.8-59.6-36.9-101.1c50.4,32.5,90.8,33.4,124.5,1.4c32-30.3,32.3-70.9,5.8-103.7
		c-38.5-47.7-82.3-91.2-125.6-134.8c-1.8-1.8-5.8-2.6-10.4-2.6c-4.6,0-8.6,0.8-10.4,2.6c-43.3,43.6-87,87.1-125.6,134.8
		c-26.5,32.8-26.2,73.3,5.8,103.7c33.7,32,74.1,31.1,124.5-1.4c-15.2,41.5-25.3,69.2-36.9,101.1c13.2,0,26.2,0,39.3,0
		c2.2,0,4.4,0,6.6,0C385.9,617.2,398.9,617.2,412.1,617.2z"/>
</g>
</svg>
