<?xml version="1.0" encoding="utf-8"?>
<!-- Generator: Adobe Illustrator 24.0.1, SVG Export Plug-In . SVG Version: 6.00 Build 0)  -->
<svg version="1.1" xmlns="http://www.w3.org/2000/svg" xmlns:xlink="http://www.w3.org/1999/xlink" x="0px" y="0px"
	 viewBox="0 0 1024 1024" style="enable-background:new 0 0 1024 1024;" xml:space="preserve">
<style type="text/css">
	.st0{display:none;}
</style>
<g id="Layer_1" class="st0">
	
		<image style="display:inline;overflow:visible;" width="205" height="90" xlink:href="../../../../../sketchProjects/Cali/images/關於卡利/btn-about-responsibility.png"  transform="matrix(1 0 0 1 410 467)">
	</image>
</g>
<g id="Layer_2">
	<path d="M216.4,592.9v34.3L60.9,477.4c-12.9-12.4-20.1-29.1-20.2-47c-0.2-17.9,6.8-34.7,19.4-47.4l60.1-59.9c0,0,0,0,0,0l11.9,22.9
		l-54.7,54.5c-16.4,16.4-16.2,43.1,0.5,59.2L216.4,592.9z M630.2,934.3c-8.1,8.3-18.9,12.5-29.6,12.5c-10.3,0-20.7-3.8-28.7-11.6
		l-20.2-19.4l-23.5,11.6l26.6,25.6c12.4,11.9,28.7,18.5,45.8,18.5c18,0,34.7-7.1,47.3-19.9l61.5-63h-34.5L630.2,934.3z M614.1,82.1
		c-13.4-26.7-45.7-37.7-72.6-24.7l-26.3,12.7l-23-23.5C479.7,33.8,463,26.8,445,26.8h0c-17.6,0-34.2,6.8-46.6,19.3l-46.2,46h35
		l28.6-28.5c8.1-8.1,18.7-12.1,29.2-12.1c10.7,0,21.5,4.2,29.6,12.4l17.2,17.5l-22,10.6h32.3h34.5h82.4L614.1,82.1z M523.4,888.5
		h-35.6h-72.5l14.5,27.8c13.7,26.3,46,36.9,72.6,23.7l25.7-12.7l23.5-11.6l55.1-27.2H523.4z M145,248.6
		c-27.8,13.4-39,47.1-24.7,74.5c0,0,0,0,0,0l11.9,22.9l84.2,161.3V262.1v-34.8v-13.1L145,248.6z M967.3,531.9L806.4,367.5v35.3
		l143.3,146.4c15.7,16.1,15.8,41.8,0,57.9l-47.6,48.8l-95.7-190.7v288.7v35.3v0.8l81.3-40.2c26.2-12.9,37.2-44,25.8-70.4l53.8-55.1
		C992.2,598.8,992.2,557.3,967.3,531.9z M781.7,837.5L781.7,837.5c0,7.3-3,13.9-7.7,18.7C778.7,851.4,781.7,844.8,781.7,837.5z
		 M241.1,202.3v0.5l0.9-0.9L241.1,202.3z M349.9,183.9c-2.8-8.3-4.7-15.8-6.6-23.2h-0.4c-1.9,7.5-4,15.2-6.4,23l-12.4,36.7h38.2
		L349.9,183.9z M683.3,789.4c2.8,8.3,4.7,15.8,6.6,23.2h0.4c1.9-7.5,4-15.2,6.4-23l12.4-36.7h-38.2L683.3,789.4z M781.7,143.1v199.2
		v35.3V416v363.1v23.1v12.3v23c0,7.3-3,13.9-7.7,18.7c-4.8,4.8-11.4,7.7-18.7,7.7h-21.8H699h-42.2h-159h-35.6h-59.8h-135
		c-7.3,0-13.9-3-18.7-7.7c-4.8-4.8-7.7-11.4-7.7-18.7v0V650.9v-34.3v-62V237.5v-34.8l0.9-0.9l-0.9,0.4v-59.2
		c0-14.6,11.8-26.4,26.4-26.4h60h35h56.2h107.7h34.5h70.7h123.8C769.9,116.7,781.7,128.5,781.7,143.1z M290.6,273.1h16.9l13.2-39.9
		h45l13.6,39.9h17.5L354,147.8l-0.6-1.6h-19.8l-4.6,13.7L290.6,273.1z M635.2,525.6c0-14.7-5.6-28-14.6-38c-10-10.9-73-71.5-95-92.4
		c-4.3-4-10.9-4-15.1,0c-21.9,20.9-84.9,81.6-94.8,92.5c-8.8,9.7-14.6,22.6-14.6,36.8c0,32.2,25.1,57.7,56.5,57.8
		c16.8,0,31.9-7.2,42.3-18.7c0,16.7-0.4,23.9-24,34.5c-6.4,2.9-10.1,9.9-8.6,16.7c1.5,6.6,7.5,11.3,14.3,11.3h72.9
		c7.1,0,13.4-4.9,14.7-11.9c1.3-6.7-2.2-13.3-8.4-16.1c-23.6-10.5-24.1-17.4-24.2-34.6c10.7,11.8,26.3,19.1,43.6,18.7
		C610.9,581.5,635.2,556.5,635.2,525.6z M742.5,700.1h-16.9L712.4,740h-45l-13.6-39.9h-17.5L679.7,827h19.8L742.5,700.1z"/>
</g>
</svg>
