<?xml version="1.0" encoding="utf-8"?>
<!-- Generator: Adobe Illustrator 24.0.1, SVG Export Plug-In . SVG Version: 6.00 Build 0)  -->
<svg version="1.1" xmlns="http://www.w3.org/2000/svg" xmlns:xlink="http://www.w3.org/1999/xlink" x="0px" y="0px"
	 viewBox="0 0 1024 1024" style="enable-background:new 0 0 1024 1024;" xml:space="preserve">
<style type="text/css">
	.st0{display:none;}
</style>
<g id="Layer_1" class="st0">
	
		<image style="display:inline;overflow:visible;" width="205" height="90" xlink:href="../../../../../sketchProjects/Cali/images/關於卡利/btn-about-security.png"  transform="matrix(1 0 0 1 410 467)">
	</image>
</g>
<g id="Layer_2">
	<path d="M893.2,143.7c-1.1-14.7-9.6-26.1-21.2-32.1c-10.5-5.5-23.4-6.6-35.6-1.2c-10,4.5-20.8,7.8-32.1,10.6
		c-23.8,5.8-50.6,7.8-83.2,3.1c-99-14.4-165-69.4-195.2-99.8c-7.1-7.1-18.3-7.1-25.3,0c-30.2,30.3-96.2,85.4-195.2,99.8
		c-48.1,7-84.1,0.2-115.3-13.7c-25.6-11.4-54.8,5.3-56.8,33.3c-4.3,59.6-6.6,135.5-1.1,206.7c7.4,95.9,16.5,212.1,72.5,328.4
		c2.6,5.3,5.3,10.3,8,15.4c6.5,12.6,13.3,24.7,20.5,36.4c20.9,34.1,44.1,64.5,68.5,91.5c9.2,10.2,18.5,20,27.9,29.2
		C392.4,913,459,954.5,508.3,980.5c3.2,1.7,6.8,1.7,10,0c85.8-45.3,224.2-137.1,303.5-301.7c56.1-116.3,65.1-232.6,72.5-328.4
		c1.2-16.1,2-32.4,2.6-48.7c0.6-19.1,0.8-38.1,0.6-56.8C897,208.8,895.4,174.1,893.2,143.7z M846.7,294c-1,18.9-2.4,38.9-3.9,60
		c-0.4,4.9-0.7,9.7-1.1,14.8c-6.4,83.8-14.2,185.3-62.5,287C709.4,802.4,586.8,883,513.2,921.7c-40.2-21.1-95-54.9-147.9-105
		c-9.6-9-19-18.7-28.3-28.8c-24.5-26.6-47.7-57.1-68.2-91.9c-7-11.9-13.7-24.1-19.9-37c-0.5-1.1-1.1-2.1-1.7-3.3
		c-48.3-101.6-56.1-203.2-62.5-287c-6.7-87.6-10.3-157.1-4.3-209.6c19.6,12.7,36.6,19.2,80.1,19.2c6.1,0,12.8-0.1,20.1-0.4
		c58.8-2.1,169.9-34.8,232.6-105.8c62.6,70.8,173.3,103.6,232.2,105.8c0.1,0,0.3,0,0.4,0c7.3,0.3,13.9,0.4,20.1,0.4
		c16.7,0,29.5-1,40.1-2.9c16.9-3,28-8.5,40-16.3C850.1,195.8,849.6,240.7,846.7,294z M708,214.2l-428.2,415
		c-41.3-91.7-48.6-182.8-54.8-263.4c-4.6-60.2-7.5-109.3-7.2-149.6c12.4,1.9,26.3,2.7,42.8,2.7c6.6,0,13.7-0.1,21.5-0.4
		c54.3-1.9,157.2-28.3,231.1-90.1C573,178.2,651.4,204.8,708,214.2z M808.6,216.1c0.2,33.4-1.8,73.1-5.1,119.7L366.2,759.7
		c-24.7-26.9-47.5-57.9-67.1-92.9l462.3-448.1c1.4,0,3.1,0.1,4.5,0.1C782.4,218.8,796.3,218,808.6,216.1z M394.5,788.5l404.5-392
		c-6.3,75.5-16.6,158.6-56.3,242C686.1,757.4,590.1,832,513.2,875.7C475.9,854.5,434.1,825.8,394.5,788.5z"/>
</g>
</svg>
