<?xml version="1.0" encoding="utf-8"?>
<!-- Generator: Adobe Illustrator 24.0.1, SVG Export Plug-In . SVG Version: 6.00 Build 0)  -->
<svg version="1.1" id="Layer_1" xmlns="http://www.w3.org/2000/svg" xmlns:xlink="http://www.w3.org/1999/xlink" x="0px" y="0px"
	 viewBox="0 0 1024 1024" style="enable-background:new 0 0 1024 1024;" xml:space="preserve">
<path d="M120.3,167.4c-0.3-19.7,1.2-33.8,27.2-35.5c21.6-1.4,42.6-10.7,64.1-15.6c23.8-5.4,50.9-17.4,53.4,25.3
	c0.2,4,16.9,11.1,24.7,9.8c30.8-5.2,61.3-13,91.7-20.3c21.6-5.1,44.5-7.8,40.3-40.9c-0.9-7.5,11.5-21.4,20.6-24.6
	c46.8-16.7,94.6-16.6,141.6,0c6.6,2.3,16,10.4,16,15.8c-0.1,55.9,47.7,45.9,78.8,58.1c11.7,4.6,24.9,5.4,37.5,7.7
	c21.7,4,48.1,19.3,49.1-23.7c0.1-4.1,26.5-12.2,39.6-10.4c23.9,3.3,46.6,16,70.4,18.4c26.5,2.6,30,17.5,30,37.8
	c0,92.7,5.4,185.7-1.3,277.9c-8.9,122.9-52.5,235-128.8,333.6c-57.8,74.7-132.4,126.9-213,174.1c-49.4,28.9-85.3,6.8-124.8-15.1
	C292.6,859.6,192,739.8,147.8,581.9c-9.7-34.4-24-97.4-28-164.4C113.4,311.3,120.7,195.1,120.3,167.4z M503.4,858.1
	c3.2-2.3,6.3-4.5,9.5-6.8c0-11.8,0-23.5,0-35.3c0-85.5-0.1-171,0-256.5c0-48.3,0.2-48.3,46.5-48.4c66.5,0,133-0.1,199.5,0
	c16,0,31.4,1,32.4-22.1c1.6-35.2,6.4-70.3,6.7-105.4c0.9-106.8,0.6-107.8-102.4-134c-59.2-15-119.3-26.1-182.7-39.7
	c0,15.8,0,27.5,0,39.2c0,72.4-0.9,144.9,0.4,217.3c0.6,31.7-7.3,47-43.6,45.5c-66.4-2.8-133-0.8-199.5-0.8
	c-22.2,0-31.3,4.8-24.1,31.7c26.9,99.5,81,181.1,158.1,247.3C434.5,816.2,470.2,835.7,503.4,858.1z"/>
</svg>
