<?xml version="1.0" encoding="utf-8"?>
<!-- Generator: Adobe Illustrator 24.0.1, SVG Export Plug-In . SVG Version: 6.00 Build 0)  -->
<svg version="1.1" id="Layer_1" xmlns="http://www.w3.org/2000/svg" xmlns:xlink="http://www.w3.org/1999/xlink" x="0px" y="0px"
	 viewBox="0 0 1024 1024" style="enable-background:new 0 0 1024 1024;" xml:space="preserve">
<path d="M514.9,58.3c103.3,84.4,121.1,90,344.3,108.3c0,53.4,0,107.7,0,162c0,87.4-5.5,175.2,1.3,262
	c9.7,124.8-59,204.1-144.2,276.6c-16.8,14.3-36.4,25.3-55.2,37.2c-156.5,98.4-212,67.6-387.2-70C195.8,773,160.1,685.7,163.2,582.3
	c3.9-132.8,1.1-265.9,1.3-398.8c0-3.8,0-5.4-1.5-19.3C287.8,167.2,416.1,156.9,514.9,58.3z M432.4,558.3
	c-19.3-14.5-42.7-27.8-60.5-46.4c-34.4-36-58.2-27.9-78.4,9.8c61.7,56.5,121.7,111.6,174,159.5c90.2-117.5,176.3-229.6,262.3-341.6
	c-3-3.8-6.1-7.6-9.1-11.3C625.7,404.2,530.6,480,432.4,558.3z"/>
</svg>
