<?xml version="1.0" encoding="utf-8"?>
<!-- Generator: Adobe Illustrator 24.0.1, SVG Export Plug-In . SVG Version: 6.00 Build 0)  -->
<svg version="1.1" id="Layer_1" xmlns="http://www.w3.org/2000/svg" xmlns:xlink="http://www.w3.org/1999/xlink" x="0px" y="0px"
	 viewBox="0 0 1024 1024" style="enable-background:new 0 0 1024 1024;" xml:space="preserve">
<style type="text/css">
	.st0{fill:#231F20;}
	.st1{enable-background:new    ;}
</style>
<title>Oval</title>
<desc>Created with Sketch.</desc>
<g id="Symbols">
	<g id="nav---logined" transform="translate(-1023.000000, -10.000000)">
		<g id="Oval" transform="translate(1023.000000, 10.000000)">
			<g>
				<path class="st0" d="M512,984.4C251.5,984.4,39.6,772.5,39.6,512C39.6,251.5,251.5,39.6,512,39.6
					c260.5,0,472.4,211.9,472.4,472.4C984.4,772.5,772.5,984.4,512,984.4z M512,76C271.6,76,76,271.6,76,512
					c0,240.4,195.6,436,436,436c240.4,0,436-195.6,436-436C948,271.6,752.4,76,512,76z"/>
			</g>
			<g class="st1">
				<g>
					<path class="st0" d="M292.6,344.8v-61.1H192.2v-43.6h100.3v-66.1h48v66.1h97.4v43.6h-97.4v61.1h87.9v278.4h-87.9v61h101.8v44.4
						H340.5v108.3h-48V728.6H187.9v-44.4h104.7v-61h-90.9V344.8H292.6z M296.9,464V384h-53.8V464H296.9z M296.9,503.2h-53.8v80.7
						h53.8V503.2z M335.4,464h53.8V384h-53.8V464z M389.2,503.2h-53.8v80.7h53.8V503.2z M618.2,211v-40.7h48.7V211h157v42.2h-157
						v40.7H805v209.4h-23.3c25.4,33.4,45.8,63.2,61,89.4l-32.7,23.3c-6.6-11.6-13.8-24-21.1-35.6c-11.6,1.5-22.5,2.2-34.1,2.9v58.2
						h85v44.3h-85v98.2c0,36.3-17.5,54.5-51.6,54.5h-72l-10.2-46.5c22.5,1.5,44.3,2.9,64.7,2.9c13.1,0,20.4-8,20.4-22.5v-86.5H465.6
						v-44.3h240.6v-54.5c-65.4,4.4-143.9,7.3-236.3,10.2l-5.8-40.7c56-1.5,107.6-2.9,154.9-4.4v-48.7H480.1V293.9h138.1v-40.7H463.4
						V211H618.2z M609.5,757.6L584,796.9c-32-29.8-64.7-53-98.1-69.8l24-34.2C546.2,710.4,579,732.2,609.5,757.6z M621.1,380.4
						v-51.6h-96.7v51.6H621.1z M621.1,416h-96.7v52.3h96.7V416z M664.7,380.4h95.9v-51.6h-95.9V380.4z M760.7,416h-95.9v52.3h95.9
						V416z M736,503.2h-69.8v46.5c36.3-1.5,69.8-3.7,99.6-5.1C756.3,530.1,746.1,516.3,736,503.2z"/>
				</g>
			</g>
		</g>
	</g>
</g>
</svg>
