<?xml version="1.0" encoding="utf-8"?>
<!-- Generator: Adobe Illustrator 24.0.1, SVG Export Plug-In . SVG Version: 6.00 Build 0)  -->
<svg version="1.1" id="Layer_1" xmlns="http://www.w3.org/2000/svg" xmlns:xlink="http://www.w3.org/1999/xlink" x="0px" y="0px"
	 viewBox="0 0 1024 1024" style="enable-background:new 0 0 1024 1024;" xml:space="preserve">
<style type="text/css">
	.st0{fill:#231F20;}
</style>
<path class="st0" d="M659.8,825.6c4.1,8.2,4.1,20.5-8.2,28.7c-57.4,32.8-127.1,49.2-192.7,49.2C241.6,903.5,65.3,727.2,65.3,514
	s176.3-393.6,393.6-393.6S852.5,296.8,852.5,514c0,12.3-8.2,20.5-20.5,20.5s-20.5-8.2-20.5-20.5c0-192.7-155.8-352.6-352.6-352.6
	S106.3,317.3,106.3,514s155.8,352.6,352.6,352.6c61.5,0,118.9-16.4,172.2-45.1C639.3,813.3,651.6,817.4,659.8,825.6z M950.9,698.5
	c-4.1,4.1-8.2,4.1-12.3,4.1s-12.3-4.1-16.4-8.2l-73.8-77.9v262.4c0,12.3-8.2,20.5-20.5,20.5s-20.5-8.2-20.5-20.5V616.5l-77.9,77.9
	c-8.2,8.2-20.5,8.2-28.7,0s-8.2-20.5,0-28.7l114.8-114.8l0,0l0,0c4.1-4.1,4.1-4.1,8.2-4.1c0,0,0,0,4.1,0s8.2,0,8.2,0l0,0l0,0
	c4.1,0,5.7,1.4,8.2,4.1c2.5,2.7,106.6,114.8,106.6,114.8C963.2,678,959.1,690.3,950.9,698.5z"/>
<path d="M532.7,497.3L401,460.4c-22.1-6.2-37.7-26.3-37.7-48.8c0-28,23.4-50.8,52.1-50.8h82.3c20.5,0,40,6.6,56,18.5
	c5.9,4.4,13.9,3.7,19-1.5l20.7-21c6.2-6.2,5.5-16.5-1.5-21.9c-26.7-21.2-59.6-32.7-94.4-32.7h-9.3v-73.1c0-8-6.6-14.6-14.6-14.6
	h-29.3c-8,0-14.6,6.6-14.6,14.6V302h-14.3c-60.9,0-110.6,49-110.6,109.4c0,48.6,33.1,91.8,80.3,105.2l131.7,36.9
	c22.1,6.2,37.7,26.3,37.7,48.8c0,28-23.4,50.8-52.1,50.8H420c-20.5,0-40-6.6-56-18.5c-5.9-4.4-13.9-3.7-19,1.5l-20.7,21
	c-6.2,6.2-5.5,16.5,1.5,21.9c26.7,21.2,59.6,32.7,94.4,32.7h9.5V785c0,8,6.6,14.6,14.6,14.6h29.3c8,0,14.6-6.6,14.6-14.6v-73.1h14.3
	c60.9,0,110.6-49,110.6-109.4C613,553.8,580.1,510.7,532.7,497.3L532.7,497.3z"/>
</svg>
