<?xml version="1.0" encoding="utf-8"?>
<!-- Generator: Adobe Illustrator 24.0.1, SVG Export Plug-In . SVG Version: 6.00 Build 0)  -->
<svg version="1.1" id="Layer_1" xmlns="http://www.w3.org/2000/svg" xmlns:xlink="http://www.w3.org/1999/xlink" x="0px" y="0px"
	 viewBox="0 0 1024 1024" style="enable-background:new 0 0 1024 1024;" xml:space="preserve">
<style type="text/css">
	.st0{fill:#231F20;}
</style>
<path class="st0" d="M965.7,732L851.5,850.5c-4.2,4.2-4.2,4.2-8.5,4.2l0,0c-4.2,0-4.2,0-8.5,0s-6.5,0-8.5,0c-1.9,0-4.4-0.3-8.5-4.2
	l0,0l0,0L703.4,732c-8.5-8.5-8.5-21.2,0-29.6c8.5-8.5,21.2-8.5,29.6,0l80.4,80.4l4.2-275C817.7,309,656.9,144,453.9,144
	C255,148.3,94.3,309,94.3,512S255,875.8,458.1,875.8c63.5,0,122.7-16.9,177.7-46.5c8.5-4.2,21.2-4.2,29.6,8.5
	c4.2,8.5,4.2,21.2-8.5,29.6c-59.2,33.8-131.1,50.8-198.8,50.8C233.9,913.9,52,732,52,512s181.9-406,406.1-406s406.1,181.8,406.1,406
	l0,0l0,0L860,782.8l76.1-80.4c8.5-8.5,21.2-8.5,29.6,0C974.2,710.9,974.2,723.6,965.7,732z"/>
<path d="M532.7,497.3L401,460.4c-22.1-6.2-37.7-26.3-37.7-48.8c0-28,23.4-50.8,52.1-50.8h82.3c20.5,0,40,6.6,56,18.5
	c5.9,4.4,13.9,3.7,19-1.5l20.7-21c6.2-6.2,5.5-16.5-1.5-21.9c-26.7-21.2-59.6-32.7-94.4-32.7h-9.3v-73.1c0-8-6.6-14.6-14.6-14.6
	h-29.3c-8,0-14.6,6.6-14.6,14.6V302h-14.3c-60.9,0-110.6,49-110.6,109.4c0,48.6,33.1,91.8,80.3,105.2l131.7,36.9
	c22.1,6.2,37.7,26.3,37.7,48.8c0,28-23.4,50.8-52.1,50.8H420c-20.5,0-40-6.6-56-18.5c-5.9-4.4-13.9-3.7-19,1.5l-20.7,21
	c-6.2,6.2-5.5,16.5,1.5,21.9c26.7,21.2,59.6,32.7,94.4,32.7h9.5V785c0,8,6.6,14.6,14.6,14.6h29.3c8,0,14.6-6.6,14.6-14.6v-73.1h14.3
	c60.9,0,110.6-49,110.6-109.4C613,553.8,580.1,510.7,532.7,497.3L532.7,497.3z"/>
</svg>
