<?xml version="1.0" encoding="utf-8"?>
<!-- Generator: Adobe Illustrator 24.0.1, SVG Export Plug-In . SVG Version: 6.00 Build 0)  -->
<svg version="1.1" id="Layer_1" xmlns="http://www.w3.org/2000/svg" xmlns:xlink="http://www.w3.org/1999/xlink" x="0px" y="0px"
	 viewBox="0 0 1024 1024" style="enable-background:new 0 0 1024 1024;" xml:space="preserve">
<style type="text/css">
	.st0{fill:#231F20;}
	.st1{enable-background:new    ;}
</style>
<title>Oval Copy 5</title>
<desc>Created with Sketch.</desc>
<g id="Symbols">
	<g id="nav---logined" transform="translate(-1104.000000, -10.000000)">
		<g id="Oval" transform="translate(1104.000000, 10.000000)">
			<g>
				<path class="st0" d="M512,984.4C251.5,984.4,39.6,772.5,39.6,512C39.6,251.5,251.5,39.6,512,39.6
					c260.5,0,472.4,211.9,472.4,472.4C984.4,772.5,772.5,984.4,512,984.4z M512,76C271.6,76,76,271.6,76,512
					c0,240.4,195.6,436,436,436c240.4,0,436-195.6,436-436C948,271.6,752.4,76,512,76z"/>
			</g>
			<g class="st1">
				<path class="st0" d="M203.2,832.5l-10.9-50.9c20.4,1.5,39.2,2.9,58.2,2.9c17.4,0,26.9-9.4,26.9-27.6V579.6
					c-27.6,10.9-56,21.1-84.3,29.8L180.6,557c32.7-8,64.7-18.2,96.7-30.5V362.2h-87.9V312h87.9V174.7h53.8V312h73.4v50.2h-73.4
					v141.7c21.1-10.2,42.2-20.3,62.5-32v53c-20.4,10.9-41.4,21.1-62.5,31.3v214.4c0,40.7-21.1,61.8-62.5,61.8H203.2z M826.1,501
					v46.5H644.4v82.1h151.9v47.2H644.4v93.8c29.1,4.4,63.2,6.5,103.2,6.5c37.8,0,70.5-1.5,97.4-3.6l-14.5,50.9
					c-29.1,0-56-0.7-79.2-0.7c-95.9-0.7-161.4-10.2-196.3-27.6c-27.6-14.5-53.1-42.2-74.9-82.9c-17.5,45.1-41.4,86.5-72.7,124.3
					l-38.5-33.4c55.2-66.9,85.8-142.5,91.6-225.3l46.5,5.1c-1.5,26.2-5.1,50.9-10.9,75.6c23.3,48.7,50.2,79.9,80.7,93.7
					c5,2.2,10.9,4.4,17.4,6.6V547.6H410.3V501H826.1z M778.1,197.9v252.2H461.2V197.9H778.1z M727.2,304.1v-63.2H512.1v63.2H727.2z
					 M727.2,344.8H512.1v62.5h215.2V344.8z"/>
			</g>
		</g>
	</g>
</g>
</svg>
