<?xml version="1.0" encoding="utf-8"?>
<!-- Generator: Adobe Illustrator 24.0.1, SVG Export Plug-In . SVG Version: 6.00 Build 0)  -->
<svg version="1.1" id="Layer_1" xmlns="http://www.w3.org/2000/svg" xmlns:xlink="http://www.w3.org/1999/xlink" x="0px" y="0px"
	 viewBox="0 0 1024 1024" style="enable-background:new 0 0 1024 1024;" xml:space="preserve">
<style type="text/css">
	.st0{fill:#231F20;}
</style>
<path class="st0" d="M936,299.8h-49.9c-13.7,0-24.9,11.2-24.9,24.9l0,0v124.7h-49.9v-74.8c0-13.7-11.2-24.9-24.9-24.9l0,0h-74.8
	v-99.8h74.8c13.7,0,24.9-11.2,24.9-24.9v-49.9c0-13.7-11.2-24.9-24.9-24.9l0,0h-49.9c-13.7,0-24.9,11.2-24.9,24.9l0,0v24.9h-74.8
	c-13.7,0-24.9,11.2-24.9,24.9l0,0v74.8H412.2V225c0-13.7-11.2-24.9-24.9-24.9l0,0h-74.8v-24.9c0-13.7-11.2-24.9-24.9-24.9l0,0h-49.9
	c-13.7,0-24.9,11.2-24.9,24.9l0,0V225c0,13.7,11.2,24.9,24.9,24.9h74.8v99.8h-74.8c-13.7,0-24.9,11.2-24.9,24.9l0,0v74.8h-49.9
	V324.8c0-13.7-11.2-24.9-24.9-24.9l0,0H88c-13.7,0-24.9,11.2-24.9,24.9l0,0v199.5c0,13.7,11.2,24.9,24.9,24.9h74.8v124.7
	c0,13.7,11.2,24.9,24.9,24.9h74.8v124.7c0,13.7,11.2,24.9,24.9,24.9h149.6c13.7,0,24.9-11.2,24.9-24.9v-49.9
	c0-13.7-11.2-24.9-24.9-24.9l0,0h-74.8v-49.9h299.3v49.9h-74.8c-13.7,0-24.9,11.2-24.9,24.9l0,0v49.9c0,13.7,11.2,24.9,24.9,24.9
	h149.6c13.7,0,24.9-11.2,24.9-24.9V698.8h74.8c13.7,0,24.9-11.2,24.9-24.9V549.2H936c13.7,0,24.9-11.2,24.9-24.9V324.8
	C960.9,311,949.7,299.8,936,299.8L936,299.8z M412.2,599.1h-99.8V449.5h99.8V599.1z M711.5,599.1h-99.8V449.5h99.8V599.1z"/>
</svg>
