<?xml version="1.0" encoding="UTF-8"?>
<svg width="41px" height="45px" viewBox="0 0 41 45" version="1.1" xmlns="http://www.w3.org/2000/svg" xmlns:xlink="http://www.w3.org/1999/xlink">
    <!-- Generator: Sketch 62 (91390) - https://sketch.com -->
    <title>ATM</title>
    <desc>Created with Sketch.</desc>
    <g id="存提專區" stroke="none" stroke-width="1" fill="none" fill-rule="evenodd">
        <g id="iPhone-8-存款專區-A" transform="translate(-43.000000, -127.000000)" fill="#F56F6F" fill-rule="nonzero">
            <g id="ATM" transform="translate(43.000000, 127.000000)">
                <path d="M40.7327586,22.5416281 C40.7327586,28.7650324 40.7327586,34.9884366 40.7327586,41.2326549 C40.7327586,41.8778908 40.5455919,42.4814986 40.212851,43.0642923 C39.8593139,43.6887142 39.3809989,44.1882516 38.7571098,44.5212766 C38.216406,44.8334875 37.6341095,45 36.9894241,45 C26.0089762,45 15.0285283,45 4.04808034,45 C3.07065411,45 2.23880199,44.5837188 1.53172769,43.8968548 C1.03261642,43.4181314 0.720671881,42.8353377 0.512708852,42.1901018 C0.42952364,41.919519 0.387931034,41.607308 0.387931034,41.3159112 C0.408727337,28.7442183 0.408727337,16.2141536 0.408727337,3.66327475 C0.408727337,3.05966698 0.616690366,2.49768733 0.907838606,1.95652174 C1.19898685,1.45698427 1.5733203,1.04070305 2.03083896,0.707678076 C2.71711696,0.228954672 3.48658016,0 4.31843228,0 C15.2364913,0 26.1545503,0 37.051813,0.0208140611 C38.0292392,0.0208140611 38.8610914,0.437095282 39.5681657,1.1239593 C40.0672769,1.6026827 40.3792215,2.18547641 40.5871845,2.8307123 C40.6703697,3.12210916 40.7119623,3.43432007 40.7119623,3.72571693 C40.7327586,9.99074931 40.7327586,16.2557817 40.7327586,22.5416281 Z M20.5811411,18.2123034 C24.7196054,18.2123034 28.8580697,18.2123034 32.9757376,18.2123034 C33.5580341,18.2123034 34.1195343,18.0874191 34.5978493,17.712766 C35.1593494,17.2548566 35.5336829,16.6720629 35.5336829,15.9019426 C35.5336829,13.0712303 35.5336829,10.2613321 35.5336829,7.4306198 C35.5336829,6.74375578 35.2009421,6.24421832 34.7434234,5.80712303 C34.2859047,5.37002775 33.7036082,5.20351526 33.0589229,5.20351526 C29.9186811,5.22432932 26.7992357,5.20351526 23.658994,5.20351526 C18.4183256,5.20351526 13.1776573,5.20351526 7.93698898,5.20351526 C7.72902595,5.20351526 7.50026662,5.20351526 7.31309989,5.26595745 C6.85558123,5.453284 6.39806257,5.68223867 6.10691433,6.11933395 C5.79496978,6.55642923 5.60780306,7.01433858 5.60780306,7.55550416 C5.62859936,10.3445883 5.62859936,13.1336725 5.60780306,15.9227567 C5.60780306,16.3390379 5.75337718,16.713691 5.96134021,17.046716 C6.46045148,17.8168363 7.18832208,18.1914894 8.12415571,18.1914894 C12.26262,18.2123034 16.4218806,18.2123034 20.5811411,18.2123034 Z M26.0297725,26.6211841 C26.0297725,29.9098057 26.0297725,33.1776133 26.0297725,36.4246068 C28.1094028,36.4246068 30.1682368,36.4246068 32.247867,36.4246068 C32.247867,33.1359852 32.247867,29.8889917 32.247867,26.6211841 C30.1682368,26.6211841 28.1094028,26.6211841 26.0297725,26.6211841 Z M11.2020085,38.6725254 C13.843139,38.6725254 16.4842695,38.6725254 19.1046036,38.6725254 C19.1046036,37.5277521 19.1046036,36.4246068 19.1046036,35.3006475 C16.4634732,35.3006475 13.843139,35.3006475 11.2020085,35.3006475 C11.2020085,36.4246068 11.2020085,37.5485661 11.2020085,38.6725254 Z M24.9067721,28.0365402 C24.9067721,27.3704903 24.9067721,26.7252544 24.9067721,26.1008326 C24.9067721,25.7261795 25.1355315,25.4972248 25.5098649,25.4972248 C27.922236,25.4972248 30.3138109,25.4972248 32.726182,25.4972248 C33.1421081,25.4972248 33.3292748,25.7053654 33.3292748,26.1216466 C33.3292748,26.6836263 33.3292748,27.2456059 33.3292748,27.7867715 C33.3292748,27.8700278 33.3292748,27.953284 33.3292748,28.0157262 C33.7244046,28.0157262 34.098738,28.0157262 34.4730715,28.0157262 C34.4730715,27.9116559 34.4730715,27.8283996 34.4730715,27.7451434 C34.4730715,26.6419981 34.4730715,25.5388529 34.4730715,24.4565217 C34.4730715,24.0402405 34.4730715,24.0402405 34.0779417,24.0402405 C32.3518486,24.0402405 30.6257554,24.0402405 28.878866,24.0402405 C27.1943654,24.0402405 25.5098649,24.0402405 23.8045681,24.0402405 C23.8045681,25.3723404 23.8045681,26.7044403 23.8045681,28.0365402 C24.1996978,28.0365402 24.5324387,28.0365402 24.9067721,28.0365402 Z M6.6684145,29.6808511 C7.81221116,29.6808511 8.95600782,29.6808511 10.0790082,29.6808511 C10.0790082,28.5360777 10.0790082,27.3913043 10.0790082,26.2673451 C8.93521152,26.2673451 7.81221116,26.2673451 6.6684145,26.2673451 C6.6684145,27.4121184 6.6684145,28.5360777 6.6684145,29.6808511 Z M6.6684145,21.7715079 C6.6684145,21.813136 6.6476182,21.83395 6.6476182,21.8547641 C6.6476182,22.8954672 6.6476182,23.9569843 6.6476182,24.9976873 C6.6476182,25.2058279 6.75159972,25.2058279 6.89717384,25.2058279 C7.89539637,25.2058279 8.89361891,25.2058279 9.89184145,25.2058279 C9.95423036,25.2058279 10.0166193,25.1850139 10.0790082,25.1850139 C10.0790082,24.0402405 10.0790082,22.8954672 10.0790082,21.7506938 C8.93521152,21.7715079 7.81221116,21.7715079 6.6684145,21.7715079 Z M10.0790082,30.7631822 C10.0374156,30.7631822 10.0166193,30.7423682 9.99582296,30.7423682 C8.95600782,30.7423682 7.89539637,30.7423682 6.85558123,30.7423682 C6.6476182,30.7423682 6.6476182,30.8464385 6.6476182,30.9921369 C6.6476182,31.9912118 6.6476182,32.9902868 6.6476182,33.9893617 C6.6476182,34.0518039 6.6684145,34.1142461 6.6684145,34.1766883 C7.81221116,34.1766883 8.95600782,34.1766883 10.0998045,34.1766883 C10.0790082,33.0319149 10.0790082,31.9079556 10.0790082,30.7631822 Z M19.1253999,21.7506938 C18.0231959,21.7506938 16.9625844,21.7506938 15.8811767,21.7506938 C15.7356026,21.7506938 15.7356026,21.813136 15.7356026,21.9380204 C15.7563989,22.9370953 15.7563989,23.9569843 15.7356026,24.9560592 C15.7356026,25.1850139 15.7979915,25.1850139 15.9643619,25.1850139 C16.9417881,25.1850139 17.9192144,25.1850139 18.8966406,25.1850139 C18.9590295,25.1850139 19.0422147,25.1850139 19.1046036,25.1641998 C19.1253999,24.0402405 19.1253999,22.9162812 19.1253999,21.7506938 Z M11.2020085,21.7715079 C11.2020085,22.9162812 11.2020085,24.0610546 11.2020085,25.1850139 C12.3458052,25.1850139 13.4480092,25.1850139 14.5710096,25.1850139 C14.5710096,24.0402405 14.5710096,22.9162812 14.5710096,21.7715079 C13.4480092,21.7715079 12.3458052,21.7715079 11.2020085,21.7715079 Z M14.5918059,29.6808511 C14.5918059,29.2853839 14.5918059,28.9315449 14.5918059,28.5777058 C14.5918059,27.8700278 14.5710096,27.1831637 14.5918059,26.4754857 C14.5918059,26.2881591 14.5710096,26.2257169 14.3838429,26.2257169 C13.4064166,26.2257169 12.4289904,26.2257169 11.4515642,26.2257169 C11.2643974,26.2257169 11.2020085,26.2881591 11.2020085,26.4754857 C11.2020085,27.4745606 11.2020085,28.4944496 11.2020085,29.4935245 C11.2020085,29.5559667 11.2228048,29.5975948 11.2228048,29.660037 C12.3458052,29.6808511 13.4480092,29.6808511 14.5918059,29.6808511 Z M10.0790082,38.6933395 C10.0790082,37.5485661 10.0790082,36.4454209 10.0790082,35.3214616 C8.93521152,35.3214616 7.79141486,35.3214616 6.6684145,35.3214616 C6.6684145,36.4454209 6.6684145,37.5693802 6.6684145,38.6933395 C7.81221116,38.6933395 8.93521152,38.6933395 10.0790082,38.6933395 Z M15.7356026,29.6808511 C16.8793992,29.6808511 18.0023996,29.6808511 19.1046036,29.6808511 C19.1046036,28.5360777 19.1046036,27.4121184 19.1046036,26.3089732 C18.9174369,26.3089732 18.7510665,26.3089732 18.6054924,26.3089732 C17.8152328,26.2881591 17.0249733,26.2673451 16.2139175,26.2673451 C15.7356026,26.2673451 15.7356026,26.2673451 15.7356026,26.7460685 C15.7356026,27.7035153 15.7356026,28.6817761 15.7356026,29.6808511 Z M14.5710096,30.8256244 C14.051102,30.8048104 13.5727871,30.7631822 13.0944721,30.7631822 C12.7409349,30.7631822 12.4081941,30.8048104 12.0546569,30.8048104 C11.8466939,30.8048104 11.6387309,30.7631822 11.4099716,30.7631822 C11.2436011,30.7631822 11.1812122,30.8048104 11.1812122,31.012951 C11.2020085,32.0120259 11.1812122,33.0319149 11.1812122,34.0309898 C11.1812122,34.093432 11.1812122,34.1350601 11.2020085,34.1975023 C12.3250089,34.1975023 13.4480092,34.1975023 14.5710096,34.1975023 C14.5710096,33.052729 14.5710096,31.9495837 14.5710096,30.8256244 Z M15.7148063,34.1766883 C16.8793992,34.1766883 17.9816033,34.1766883 19.1046036,34.1766883 C19.1046036,33.052729 19.1046036,31.9287697 19.1046036,30.8256244 C17.960807,30.8256244 16.8378066,30.8256244 15.7148063,30.8256244 C15.7148063,31.9495837 15.7148063,33.052729 15.7148063,34.1766883 Z M30.8961074,11.0106383 C30.8961074,12.3635523 30.8961074,13.7164662 30.8961074,15.0485661 C30.8961074,15.3607771 31.145663,15.5897317 31.4160149,15.6105458 C31.7487558,15.6521739 31.9983114,15.3607771 31.9983114,15.0693802 C31.9983114,12.8630897 31.9983114,10.6776133 31.9983114,8.47132285 C31.9983114,8.24236818 31.9151262,8.03422757 31.6863669,7.95097132 C31.4576075,7.84690102 31.145663,7.93015726 31.0208852,8.13829787 C30.7505332,8.61702128 30.5217739,9.09574468 30.2930146,9.59528215 C30.0642552,10.0531915 29.8562922,10.4902868 29.6275329,10.9481961 C29.3571809,11.5101758 29.0660327,12.0721554 28.7956808,12.6549491 C28.608514,13.0296022 28.4213473,13.4042553 28.2341806,13.8205365 C28.1301991,13.63321 28.0678102,13.4666975 27.984625,13.300185 C27.7558656,12.8214616 27.5271063,12.3635523 27.298347,11.8848289 C27.0903839,11.4269195 26.8824209,10.9481961 26.6744579,10.4902868 C26.341717,9.7826087 25.9881799,9.07493062 25.655439,8.36725254 C25.4890686,8.01341351 25.2603093,7.84690102 24.9067721,7.95097132 C24.6988091,8.01341351 24.553235,8.11748381 24.553235,8.55457909 C24.5740313,9.74098057 24.553235,10.9273821 24.553235,12.0929695 C24.553235,13.0920444 24.553235,14.0703053 24.553235,15.0693802 C24.553235,15.2983349 24.6988091,15.5481036 24.8651795,15.5689177 C25.3226982,15.6313599 25.6138464,15.5064755 25.6346427,14.9444958 C25.655439,14.4865865 25.6346427,14.0286772 25.6346427,13.5707678 C25.6346427,12.7173913 25.6346427,11.8848289 25.6346427,10.9481961 C25.7594205,11.1771508 25.8426058,11.3228492 25.925791,11.4893617 C26.1961429,12.0721554 26.4664948,12.6757632 26.7368468,13.2585569 C27.027995,13.8829787 27.298347,14.4865865 27.6102915,15.0901943 C27.714273,15.2983349 27.7974582,15.5272895 28.0678102,15.5689177 C28.3589584,15.6105458 28.5669214,15.5064755 28.7124956,15.2567068 C28.7956808,15.1110083 28.8580697,14.9653099 28.9204586,14.8196115 C29.1284216,14.3617021 29.3571809,13.9037928 29.565144,13.4458834 C29.8562922,12.8630897 30.1266442,12.280296 30.4177924,11.7183164 C30.5425702,11.4685476 30.6881443,11.2187789 30.8129221,10.9481961 C30.8753111,10.9898242 30.8961074,11.0106383 30.8961074,11.0106383 Z M15.6732137,15.0693802 C15.631621,15.3191489 15.4860469,15.5689177 15.2988802,15.6105458 C14.9661394,15.672988 14.6957874,15.5689177 14.5918059,15.2983349 C14.2798614,14.5490287 13.9887131,13.7789084 13.6767686,13.0296022 C13.6559723,12.9879741 13.5727871,12.946346 13.5103982,12.946346 C12.7617312,12.946346 12.0338606,12.946346 11.2851937,12.946346 C11.2228048,12.946346 11.1396196,12.9879741 11.1188233,13.0296022 C10.8692677,13.6748381 10.6197121,14.2992599 10.3701564,14.9444958 C10.3077675,15.0901943 10.2453786,15.2358927 10.1621934,15.3815911 C10.0374156,15.5689177 9.62148951,15.693802 9.43432279,15.5689177 C9.20556346,15.4440333 9.10158194,15.0901943 9.20556346,14.8196115 C9.4967117,14.0911193 9.78785994,13.3418131 10.0790082,12.613321 C10.3077675,12.0513414 10.5573231,11.5101758 10.7860825,10.9481961 C11.1604159,10.0531915 11.5139531,9.15818686 11.8674902,8.24236818 C11.9506754,8.01341351 12.1378422,7.93015726 12.3458052,7.9093432 C12.5745645,7.88852914 12.8033239,8.05504163 12.9073054,8.30481036 C13.1984536,9.01248844 13.4896018,9.72016651 13.7807501,10.4486586 C14.0303057,11.0522664 14.2798614,11.6350601 14.529417,12.2386679 C14.8413615,13.0296022 15.1533061,13.8205365 15.4860469,14.6322849 C15.5484358,14.7779833 15.6108247,14.9236818 15.6732137,15.0693802 Z M12.3873978,9.92830712 C12.1170459,10.6151711 11.8674902,11.2187789 11.6179346,11.8432007 C12.1586385,11.8432007 12.6577497,11.8432007 13.1776573,11.8432007 C12.9281017,11.2187789 12.678546,10.5943571 12.3873978,9.92830712 Z M19.3749556,9.36632747 C19.3749556,11.3228492 19.3749556,13.300185 19.3749556,15.2567068 C19.3749556,15.5689177 19.6037149,15.8186864 19.8948631,15.8186864 C20.1860114,15.8186864 20.435567,15.5689177 20.435567,15.2358927 C20.435567,13.2585569 20.435567,11.3020352 20.435567,9.32469935 C20.435567,9.22062905 20.435567,9.1373728 20.435567,9.01248844 C21.1634376,9.01248844 21.8497156,9.01248844 22.5359936,9.01248844 C22.7439566,9.01248844 22.8687344,8.95004625 23.0143086,8.80434783 C23.180679,8.63783534 23.180679,8.42969473 23.1182901,8.2839963 C23.0559012,8.11748381 22.9311234,7.95097132 22.6607714,7.95097132 C20.8514931,7.97178538 19.063011,7.95097132 17.2537327,7.95097132 C16.8793992,7.95097132 16.7130288,8.11748381 16.7130288,8.49213691 C16.7130288,8.78353377 16.9417881,9.01248844 17.274529,9.01248844 C17.9816033,9.01248844 18.6886776,9.01248844 19.4165482,9.01248844 C19.3749556,9.15818686 19.3749556,9.26225717 19.3749556,9.36632747 Z" id="Shape"></path>
            </g>
        </g>
    </g>
</svg>