<?xml version="1.0" encoding="utf-8"?>
<!-- Generator: Adobe Illustrator 24.0.1, SVG Export Plug-In . SVG Version: 6.00 Build 0)  -->
<svg version="1.1" id="Layer_1" xmlns="http://www.w3.org/2000/svg" xmlns:xlink="http://www.w3.org/1999/xlink" x="0px" y="0px"
	 viewBox="0 0 1024 1024" style="enable-background:new 0 0 1024 1024;" xml:space="preserve">
<style type="text/css">
	.st0{fill-rule:evenodd;clip-rule:evenodd;fill:#231F20;}
</style>
<path class="st0" d="M783.4,735.2c-5.9,36.7-17.6,70.6-38.2,101.4c-20.6,32.3-45.6,57.3-76.4,77.9c-10.3,5.9-22,11.8-33.8,17.6
	c-39.7,17.6-80.8,20.6-122,19.1c0,0,0,0-1.5-1.5c11.8-8.8,22-17.6,32.3-27.9c35.3-35.3,47-79.4,38.2-127.9
	c-8.8-50-39.7-82.3-82.3-107.3c-29.4-17.6-63.2-26.5-94.1-39.7c-16.2-5.9-30.9-14.7-45.6-23.5c-10.3-5.9-17.6-16.2-22-27.9
	c0-1.5-1.5-2.9-2.9-4.4c-1.5,1.5-1.5,2.9-1.5,2.9c-1.5,23.5-2.9,48.5,5.9,72c2.9,8.8,5.9,17.6,11.8,25c7.3,10.3,5.9,19.1,1.5,27.9
	c-8.8,16.2-17.6,32.3-26.5,48.5c-5.9,11.8-2.9,17.6,8.8,22c7.3,2.9,14.7,4.4,23.5,5.9c5.9,1.5,8.8,4.4,7.3,10.3
	c0,4.4-1.5,10.3-1.5,14.7c-1.5,8.8,0,11.8,8.8,13.2c2.9,0,5.9,1.5,8.8,2.9c-1.5,2.9-1.5,5.9-1.5,7.3c0,4.4,1.5,8.8,5.9,10.3
	c2.9,1.5,5.9,1.5,10.3,2.9c7.3,2.9,10.3,7.3,10.3,13.2v1.5c-1.5,26.5,17.6,30.9,35.3,23.5c7.3-2.9,13.2-5.9,20.6-8.8
	c17.6-10.3,42.6-11.8,63.2-11.8c-1.5,2.9-1.5,5.9-2.9,7.3c-10.3,10.3-20.6,20.6-32.3,29.4c-11.8,8.8-25,14.7-38.2,19.1
	c-11.8,4.4-22,1.5-32.3-2.9c-45.6-16.2-80.8-44.1-108.8-83.8c-35.3-51.4-48.5-107.3-42.6-169c2.9-27.9,7.3-54.4,20.6-79.4
	c7.3-13.2,14.7-25,26.5-33.8c4.4-2.9,7.3-5.9,13.2-7.3c1.5-1.5,2.9-2.9,4.4-5.9c4.4-32.3,25-55.9,50-73.5l0,0l0,0
	c16.2-11.8,32.3-19.1,50-25c-98.5-39.7-172-126.4-195.5-233.7l0,0l0,0c126.4,22,232.2,105.8,283.7,223.4c10.3,0,22,0,32.3,1.5
	c-16.2-142.6,45.6-283.7,161.7-368.9c30.9,136.7-5.9,277.8-97,383.6c23.5,8.8,45.6,20.6,64.7,35.3c47,35.3,77.9,80.8,92.6,136.7
	C787.8,663.2,789.3,698.5,783.4,735.2z"/>
</svg>
