<?xml version="1.0" encoding="utf-8"?>
<!-- Generator: Adobe Illustrator 24.0.1, SVG Export Plug-In . SVG Version: 6.00 Build 0)  -->
<svg version="1.1" id="Layer_1" xmlns="http://www.w3.org/2000/svg" xmlns:xlink="http://www.w3.org/1999/xlink" x="0px" y="0px"
	 viewBox="0 0 1024 1024" style="enable-background:new 0 0 1024 1024;" xml:space="preserve">
<style type="text/css">
	.st0{fill:#231F20;}
</style>
<title>Shape</title>
<desc>Created with Sketch.</desc>
<g id="Symbols">
	<g id="GameTab01" transform="translate(-1050.000000, -42.000000)">
		<path id="Shape" class="st0" d="M1621.8,799.6c-137,0-255.9-85.3-323.1-155.1l-134.4,100.8c-18.1,12.9-46.5,0-41.4-23.3l36.2-168
			l-36.2-168c-5.2-20.7,23.3-36.2,41.4-23.3l134.4,100.8c67.2-72.4,186.1-155.1,323.1-155.1c209.4,0,380,196.4,380,245.6
			S1831.1,799.6,1621.8,799.6z M1763.9,515.2c-15.5,0-28.4,18.1-28.4,38.8s12.9,38.8,28.4,38.8s28.4-18.1,28.4-38.8
			S1779.4,515.2,1763.9,515.2z"/>
	</g>
</g>
</svg>
