<?xml version="1.0" encoding="utf-8"?>
<!-- Generator: Adobe Illustrator 24.0.1, SVG Export Plug-In . SVG Version: 6.00 Build 0)  -->
<svg version="1.1" id="Layer_1" xmlns="http://www.w3.org/2000/svg" xmlns:xlink="http://www.w3.org/1999/xlink" x="0px" y="0px"
	 viewBox="0 0 1024 1024" style="enable-background:new 0 0 1024 1024;" xml:space="preserve">
<style type="text/css">
	.st0{fill:#231F20;}
</style>
<path class="st0" d="M943.8,520.4c0,237-192.1,429.1-429.1,429.1S85.6,757.4,85.6,520.4S277.6,91.2,514.7,91.2
	S943.8,283.3,943.8,520.4z M860.7,520.4v-0.5l-45.2,39.3l-108.3-101l28.5-146l59.3,5.4c-43.1-59.2-103.8-104-174.2-126.5l23.5,55.2
	l-129.8,71.8l-129.8-71.8l23.7-55.2c-70.2,22.5-131.2,67.3-174.2,126.5l59.9-5.4l28,146L213.8,559.3l-45.2-39.5v0.5
	c0,74.4,23.4,145.3,66.6,204.2l13.3-58.7l147.2,18l62.8,134.6l-51.7,30.8c69.6,22.7,145.9,22.7,215.6,0l-51.7-30.8l62.8-134.6
	l147.2-18l13.3,58.7C837.4,665.7,860.7,594.8,860.7,520.4z M431.4,640.8l-51.7-158l135-97.8l135,97.8l-51.2,158H431.4z"/>
</svg>
