<?xml version="1.0" encoding="utf-8"?>
<!-- Generator: Adobe Illustrator 24.0.1, SVG Export Plug-In . SVG Version: 6.00 Build 0)  -->
<svg version="1.1" id="Layer_2" xmlns="http://www.w3.org/2000/svg" xmlns:xlink="http://www.w3.org/1999/xlink" x="0px" y="0px"
	 viewBox="0 0 1024 1024" style="enable-background:new 0 0 1024 1024;" xml:space="preserve">
<path d="M489.9,549.1h68.3c11.3,0,20.5,9.2,20.5,20.5c0,11.3,9.2,20.5,20.5,20.5c11.3,0,20.5-9.2,20.5-20.5
	c0-33.9-27.5-61.4-61.4-61.4h-20.5V474c0-11.3-9.2-20.5-20.5-20.5c-11.3,0-20.5,9.2-20.5,20.5v34.1h-6.8
	c-41.5,0-75.1,33.6-75.1,75.1c0,41.5,33.6,75.1,75.1,75.1h54.6c18.9,0,34.1,15.3,34.1,34.1s-15.3,34.1-34.1,34.1h-68.3
	c-11.3,0-20.5-9.2-20.5-20.5c0-11.3-9.2-20.5-20.5-20.5c-11.3,0-20.5,9.2-20.5,20.5c0,33.9,27.5,61.4,61.4,61.4h20.5v34.1
	c0,11.3,9.2,20.5,20.5,20.5c11.3,0,20.5-9.2,20.5-20.5v-34.1h6.8c41.5,0,75.1-33.6,75.1-75.1s-33.6-75.1-75.1-75.1h-54.6
	c-18.9,0-34.1-15.3-34.1-34.1C455.7,564.4,471,549.1,489.9,549.1z"/>
<rect x="490.3" y="40.2" transform="matrix(-1.836970e-16 1 -1 -1.836970e-16 721.947 -312.405)" width="53.8" height="329.1"/>
<path d="M240.1,972.8v-462H55.4V116.6c0-33.1,27-60.1,60.1-60.1h803.3c33.1,0,60.1,27,60.1,60.1v394.2H794.2v462H240.1z
	 M756.9,935.5V353H277.4v582.5H756.9z M941.6,473.5V116.6c0-12.6-10.2-22.8-22.8-22.8H115.5c-12.6,0-22.8,10.2-22.8,22.8v356.9
	h147.4v-76h-65.4v-95.7h684.9v95.7h-65.4v76H941.6z"/>
</svg>
