<?xml version="1.0" encoding="utf-8"?>
<!-- Generator: Adobe Illustrator 24.0.1, SVG Export Plug-In . SVG Version: 6.00 Build 0)  -->
<svg version="1.1" id="Layer_1" xmlns="http://www.w3.org/2000/svg" xmlns:xlink="http://www.w3.org/1999/xlink" x="0px" y="0px"
	 viewBox="0 0 1024 1024" style="enable-background:new 0 0 1024 1024;" xml:space="preserve">
<title>redo-alt-regular (1)</title>
<desc>Created with Sketch.</desc>
<path id="平台轉帳" d="M634.3,515.3l122.2,1.9c-1.1-80.1-33-160.6-95.2-222.8C537.1,170.2,339,167.1,218.6,287.5
	S101.3,606,225.5,730.2l0.2-0.2c123.8,123.8,322.2,127,442.3,6.9l59.6,59.6c-73.6,73.6-172.3,113.2-278.1,111.5
	c-5.4-0.1-10.8-0.4-16.3-0.7c-1.4,0.2-2.6,0.3-4,0.1c-94.6-6.1-188.4-46.1-261.7-119.4c-157-157-161.1-407.6-9-560
	C310.6,76,562.3,79.8,719.1,236.6c78.6,78.6,118.8,180.6,120.3,281.9l117.9,1.8c17.2,0.3,26,21.1,14.1,33l-159,159
	c-7.3,7.3-19.5,7.1-27.1-0.4l-164-164C609,535.6,617.1,515.1,634.3,515.3z"/>
</svg>
