<?xml version="1.0" encoding="utf-8"?>
<!-- Generator: Adobe Illustrator 24.0.1, SVG Export Plug-In . SVG Version: 6.00 Build 0)  -->
<svg version="1.1" id="Layer_1" xmlns="http://www.w3.org/2000/svg" xmlns:xlink="http://www.w3.org/1999/xlink" x="0px" y="0px"
	 viewBox="0 0 1024 1024" style="enable-background:new 0 0 1024 1024;" xml:space="preserve">
<style type="text/css">
	.st0{fill:#231F20;}
</style>
<path class="st0" d="M267,365.4h488.7v293.2H267V365.4z M877.9,512c0,40.5,32.8,73.3,73.3,73.3v146.6c0,40.5-32.8,73.3-73.3,73.3
	H144.8c-40.5,0-73.3-32.8-73.3-73.3V585.3c40.5,0,73.3-32.8,73.3-73.3s-32.8-73.3-73.3-73.3V292.1c0-40.5,32.8-73.3,73.3-73.3h733.1
	c40.5,0,73.3,32.8,73.3,73.3v146.6C910.7,438.7,877.9,471.5,877.9,512z M804.6,353.2c0-20.3-16.3-36.7-36.7-36.7H254.8
	c-20.3,0-36.7,16.3-36.7,36.7v317.7c0,20.3,16.3,36.7,36.7,36.7h513.2c20.3,0,36.7-16.3,36.7-36.7V353.2z"/>
</svg>
