<?xml version="1.0" encoding="utf-8"?>
<!-- Generator: Adobe Illustrator 24.0.1, SVG Export Plug-In . SVG Version: 6.00 Build 0)  -->
<svg version="1.1" id="Layer_1" xmlns="http://www.w3.org/2000/svg" xmlns:xlink="http://www.w3.org/1999/xlink" x="0px" y="0px"
	 viewBox="0 0 1024 1024" style="enable-background:new 0 0 1024 1024;" xml:space="preserve">
<style type="text/css">
	.st0{fill:#231F20;}
</style>
<title>Shape</title>
<desc>Created with Sketch.</desc>
<path id="Symbols" class="st0" d="M886.2,137.8l-85.8,85.8c-73.9-73.8-175.9-119.5-288.6-119.5c-218.5,0-396.9,171.6-407.6,387.3
	c-0.6,11.2,8.5,20.6,19.7,20.6H170c10.5,0,19.1-8.1,19.7-18.6c9.6-169.5,150-303.8,322-303.8c89.1,0,169.8,36.1,228.1,94.4l-89.1,89
	c-12.4,12.4-3.6,33.7,14,33.7h235.4c10.9,0,19.7-8.8,19.7-19.7V151.8C919.9,134.2,898.6,125.4,886.2,137.8z M900.1,512H854
	c-10.5,0-19.1,8.1-19.7,18.6c-9.6,169.5-150,303.8-322,303.8c-89.1,0-169.8-36.1-228.1-94.4l89.1-89c12.4-12.4,3.6-33.7-14-33.7
	H123.9c-10.9,0-19.7,8.8-19.7,19.7v235.2c0,17.6,21.3,26.4,33.7,14l85.8-85.8c73.9,73.8,175.9,119.5,288.6,119.5
	c218.5,0,396.9-171.6,407.6-387.3C920.4,521.4,911.4,512,900.1,512z"/>
</svg>
